<?xml version="1.0" encoding="utf-8"?>
<!-- Generator: Adobe Illustrator 15.1.0, SVG Export Plug-In . SVG Version: 6.00 Build 0)  -->
<!DOCTYPE svg PUBLIC "-//W3C//DTD SVG 1.1//EN" "http://www.w3.org/Graphics/SVG/1.1/DTD/svg11.dtd">
<svg version="1.1" id="Calque_1" xmlns="http://www.w3.org/2000/svg" xmlns:xlink="http://www.w3.org/1999/xlink" x="0px" y="0px"
	 width="17.007px" height="14.523px" viewBox="0 0 17.007 14.523" enable-background="new 0 0 17.007 14.523" xml:space="preserve">
<path fill="#AFAFAF" d="M11.982,1.519v3.24c-0.078,0.095-0.17,0.172-0.266,0.229c-0.104,0.063-0.18,0.095-0.25,0.095
	c-0.076,0-0.137-0.023-0.17-0.066c-0.043-0.053-0.061-0.12-0.061-0.224V1.52h-0.875v3.564c0,0.259,0.051,0.446,0.154,0.574
	c0.1,0.13,0.258,0.19,0.453,0.19c0.172,0,0.334-0.044,0.514-0.13c0.17-0.095,0.336-0.224,0.498-0.402v0.47h0.875v-4.27L11.982,1.519
	L11.982,1.519z M9.316,1.725C9.083,1.51,8.783,1.406,8.423,1.406c-0.395,0-0.711,0.104-0.952,0.3
	C7.239,1.904,7.121,2.16,7.121,2.496v2.21c0,0.37,0.118,0.652,0.341,0.867C7.693,5.786,8.003,5.898,8.38,5.898
	c0.393,0,0.711-0.104,0.934-0.317c0.232-0.206,0.342-0.486,0.342-0.855V2.523c0.004-0.328-0.117-0.593-0.34-0.8V1.725z M8.765,4.792
	c0,0.11-0.033,0.197-0.104,0.268C8.595,5.127,8.501,5.162,8.38,5.162c-0.109,0-0.205-0.034-0.266-0.103
	C8.054,4.999,8.019,4.906,8.019,4.792V2.46c0-0.094,0.035-0.17,0.104-0.222c0.061-0.06,0.154-0.086,0.258-0.086
	c0.109,0,0.205,0.025,0.281,0.086c0.07,0.05,0.104,0.128,0.104,0.222V4.792z M6.058-0.001L5.449,2.315H5.38L4.746-0.001H3.754
	l1.174,3.498v2.29h0.985V3.388L7.054,0H6.06L6.058-0.001z M12.873,10.194c0.051,0.067,0.076,0.187,0.076,0.34v0.396h-0.676v-0.396
	c0-0.153,0.016-0.271,0.078-0.34c0.049-0.07,0.137-0.113,0.266-0.113C12.736,10.081,12.822,10.124,12.873,10.194L12.873,10.194z
	 M10.183,10.173c-0.053-0.067-0.139-0.103-0.24-0.103c-0.053,0-0.113,0.01-0.164,0.034c-0.053,0.025-0.109,0.069-0.164,0.122v2.417
	c0.061,0.06,0.129,0.109,0.189,0.136c0.059,0.026,0.119,0.043,0.18,0.043c0.104,0,0.17-0.027,0.213-0.087
	c0.043-0.05,0.07-0.137,0.07-0.266v-2.006C10.269,10.336,10.242,10.242,10.183,10.173L10.183,10.173z M10.183,10.173
	c-0.053-0.067-0.139-0.103-0.24-0.103c-0.053,0-0.113,0.01-0.164,0.034c-0.053,0.025-0.109,0.069-0.164,0.122v2.417
	c0.061,0.06,0.129,0.109,0.189,0.136c0.059,0.026,0.119,0.043,0.18,0.043c0.104,0,0.17-0.027,0.213-0.087
	c0.043-0.05,0.07-0.137,0.07-0.266v-2.006C10.269,10.336,10.242,10.242,10.183,10.173L10.183,10.173z M14.58,7.184H2.427
	C1.097,7.184,0,8.281,0,9.618v2.48c0,1.335,1.097,2.425,2.426,2.425H14.58c1.33,0,2.426-1.09,2.426-2.426v-2.48
	C17.005,8.281,15.908,7.184,14.58,7.184L14.58,7.184z M5.699,8.889h-0.91v4.489H3.914V8.889H3.015V8.125h2.683v0.764H5.699z
	 M8.251,13.38h-0.78v-0.428c-0.137,0.16-0.292,0.282-0.445,0.36c-0.153,0.085-0.3,0.127-0.446,0.127c-0.18,0-0.315-0.061-0.409-0.18
	c-0.087-0.11-0.13-0.283-0.13-0.516v-3.25h0.771v2.984c0,0.085,0.017,0.153,0.052,0.197c0.026,0.043,0.085,0.06,0.155,0.06
	c0.06,0,0.128-0.025,0.214-0.085c0.094-0.052,0.17-0.12,0.24-0.206v-2.95h0.78v3.885L8.251,13.38z M11.064,12.575
	c0,0.274-0.061,0.488-0.18,0.634c-0.121,0.146-0.301,0.225-0.531,0.225c-0.156,0-0.283-0.026-0.404-0.085
	c-0.119-0.063-0.229-0.146-0.332-0.268v0.3H8.837V8.127h0.779v1.688c0.104-0.11,0.215-0.205,0.334-0.267
	c0.119-0.06,0.24-0.095,0.359-0.095c0.24,0,0.43,0.086,0.557,0.25c0.131,0.163,0.199,0.402,0.199,0.72v2.152L11.064,12.575z
	 M13.757,11.537h-1.484v0.73c0,0.205,0.018,0.342,0.07,0.42c0.051,0.084,0.145,0.12,0.266,0.12c0.127,0,0.213-0.035,0.266-0.105
	c0.051-0.06,0.076-0.215,0.076-0.438v-0.181h0.809v0.196c0,0.404-0.104,0.703-0.301,0.9c-0.189,0.206-0.48,0.3-0.865,0.3
	c-0.354,0-0.627-0.104-0.824-0.317s-0.301-0.505-0.301-0.882v-1.74c0-0.334,0.113-0.607,0.336-0.821
	c0.213-0.207,0.496-0.317,0.848-0.317s0.625,0.102,0.814,0.3c0.188,0.196,0.289,0.47,0.289,0.84v0.994L13.757,11.537z M9.941,10.072
	c-0.049,0-0.109,0.01-0.162,0.034s-0.109,0.07-0.164,0.12v2.418c0.061,0.06,0.127,0.109,0.188,0.137
	c0.061,0.026,0.121,0.043,0.18,0.043c0.104,0,0.17-0.026,0.213-0.086c0.043-0.05,0.07-0.137,0.07-0.266v-2.006
	c0-0.13-0.027-0.224-0.086-0.293C10.128,10.106,10.044,10.072,9.941,10.072L9.941,10.072z M10.181,10.174
	c-0.049-0.067-0.135-0.103-0.24-0.103c-0.049,0-0.109,0.01-0.162,0.034c-0.051,0.025-0.109,0.07-0.162,0.122v2.417
	c0.061,0.06,0.127,0.109,0.188,0.136s0.121,0.043,0.18,0.043c0.104,0,0.17-0.027,0.213-0.087c0.045-0.05,0.07-0.137,0.07-0.266
	v-2.006c0.002-0.128-0.025-0.222-0.084-0.289L10.181,10.174z M10.181,10.174c-0.049-0.067-0.135-0.103-0.24-0.103
	c-0.049,0-0.109,0.01-0.162,0.034c-0.051,0.025-0.109,0.07-0.162,0.122v2.417c0.061,0.06,0.127,0.109,0.188,0.136
	s0.121,0.043,0.18,0.043c0.104,0,0.17-0.027,0.213-0.087c0.045-0.05,0.07-0.137,0.07-0.266v-2.006
	c0.002-0.128-0.025-0.222-0.084-0.289L10.181,10.174z"/>
</svg>
