<?xml version="1.0" encoding="utf-8"?>
<!-- Generator: Adobe Illustrator 21.1.0, SVG Export Plug-In . SVG Version: 6.00 Build 0)  -->
<svg version="1.1" id="Calque_1" xmlns="http://www.w3.org/2000/svg" xmlns:xlink="http://www.w3.org/1999/xlink" x="0px" y="0px"
	 viewBox="0 0 17 14.5" style="enable-background:new 0 0 17 14.5;" xml:space="preserve">
<style type="text/css">
	.st0{fill:#AFAFAF;}
</style>
<g>
	<path class="st0" d="M6.1,11.8H4.2V5.4h1.9V11.8z M12.9,11.8h-1.9V8.4c0-0.9-0.3-1.4-0.9-1.4C9.6,7,9.3,7.3,9.2,7.8
		c0,0.8,0,4.1,0,4.1H7.3c0,0,0-5.8,0-6.5h1.5L9,6.7H9c0.4-0.6,1-1.1,1.8-1.1c0.6,0,1.2,0.2,1.6,0.6C12.8,6.7,13,7.4,13,8.2
		L12.9,11.8L12.9,11.8z"/>
</g>
<g>
	<ellipse class="st0" cx="5.2" cy="3.7" rx="1" ry="1"/>
</g>
</svg>
