<svg baseProfile="tiny" xmlns="http://www.w3.org/2000/svg" width="38" height="29" viewBox="0 0 38 29"><path fill="#fff" d="M34 0H4C1.794 0 0 1.794 0 4v21c0 2.206 1.794 4 4 4h30c2.206 0 4-1.794 4-4V4c0-2.206-1.794-4-4-4zm2 25c0 1.103-.897 2-2 2H4c-1.103 0-2-.897-2-2V4c0-1.103.897-2 2-2h30c1.103 0 2 .897 2 2v21zM32.382 5.214L19 15.73 5.618 5.213c-.434-.34-1.063-.267-1.404.168-.34.434-.266 1.063.168 1.404l14 11c.04.03.086.046.13.07.035.02.067.042.104.057.125.053.253.087.384.087.13 0 .26-.035.383-.086.037-.016.068-.037.104-.057.043-.024.09-.04.13-.07l14-11c.435-.342.51-.97.168-1.405-.34-.435-.97-.51-1.403-.168z"/></svg>