<?xml version="1.0" encoding="utf-8"?>
<!-- Generator: Adobe Illustrator 15.1.0, SVG Export Plug-In . SVG Version: 6.00 Build 0)  -->
<!DOCTYPE svg PUBLIC "-//W3C//DTD SVG 1.1//EN" "http://www.w3.org/Graphics/SVG/1.1/DTD/svg11.dtd">
<svg version="1.1" id="Calque_1" xmlns="http://www.w3.org/2000/svg" xmlns:xlink="http://www.w3.org/1999/xlink" x="0px" y="0px"
	 width="34.016px" height="34.016px" viewBox="0 0 34.016 34.016" enable-background="new 0 0 34.016 34.016" xml:space="preserve">
<path fill="#AFAFAF" d="M25.54,12.552c-0.625,0.278-1.301,0.466-2.006,0.55c0.722-0.433,1.275-1.117,1.536-1.933
	c-0.675,0.399-1.422,0.689-2.22,0.846c-0.635-0.68-1.544-1.104-2.55-1.104c-1.93,0-3.494,1.564-3.494,3.495
	c0,0.273,0.03,0.539,0.09,0.796c-2.904-0.146-5.479-1.536-7.205-3.652c-0.3,0.52-0.472,1.12-0.472,1.76
	c0,1.21,0.617,2.282,1.555,2.91c-0.572-0.02-1.111-0.177-1.584-0.438v0.043c0,1.693,1.204,3.106,2.805,3.427
	c-0.293,0.082-0.603,0.123-0.92,0.123c-0.227,0-0.446-0.021-0.658-0.063c0.443,1.389,1.734,2.4,3.265,2.427
	c-1.195,0.937-2.703,1.495-4.34,1.495c-0.282,0-0.56-0.016-0.834-0.048c1.547,0.99,3.384,1.57,5.358,1.57
	c6.43,0,9.944-5.325,9.944-9.945c0-0.151-0.004-0.303-0.01-0.452C24.481,13.87,25.075,13.253,25.54,12.552"/>
</svg>
