<?xml version="1.0" encoding="utf-8"?>
<!-- Generator: Adobe Illustrator 16.0.0, SVG Export Plug-In . SVG Version: 6.00 Build 0)  -->
<!DOCTYPE svg PUBLIC "-//W3C//DTD SVG 1.1//EN" "http://www.w3.org/Graphics/SVG/1.1/DTD/svg11.dtd">
<svg version="1.1" id="Calque_1" xmlns="http://www.w3.org/2000/svg" xmlns:xlink="http://www.w3.org/1999/xlink" x="0px" y="0px"
	 width="86.184px" height="107.395px" viewBox="0 0 86.184 107.395" enable-background="new 0 0 86.184 107.395"
	 xml:space="preserve">
<g>
	<path fill="#FFFFFF" d="M43.087,52.027c-1,0-3.403-0.266-3.876-0.321c-0.052-0.003-0.109-0.01-0.161-0.02
		c-8.692-1.466-15.367-8.52-17.851-18.871c-3.395-14.119-0.74-24.658,7.473-29.674C33.574,0.15,41.54,0,43.087,0
		c1.551,0,9.525,0.15,14.422,3.142c8.22,5.019,10.874,15.558,7.477,29.674c-2.49,10.351-9.159,17.404-17.838,18.867
		c-0.055,0.014-0.109,0.02-0.164,0.023C46.51,51.762,44.091,52.027,43.087,52.027z M39.96,45.797
		c1.188,0.134,2.696,0.273,3.127,0.273c0.435,0,1.953-0.139,3.146-0.273c6.215-1.084,11.057-6.454,12.961-14.374
		c1.59-6.602,3.079-18.392-4.79-23.199c-2.551-1.559-7.656-2.27-11.317-2.27c-3.776,0-8.743,0.702-11.313,2.27
		c-7.859,4.801-6.37,16.598-4.784,23.199C28.891,39.346,33.738,44.713,39.96,45.797z"/>
	<path fill="#FFFFFF" d="M43.087,107.395c-20.756,0-33.202-2.504-39.986-4.599c-1.203-0.372-2.04-1.459-2.095-2.717L0.031,77.461
		c-0.306-6.209,1.656-11.591,5.836-15.979c4.313-4.531,10.851-7.689,19.434-9.398c0.955-0.189,1.946,0.1,2.647,0.775l15.139,14.564
		l15.152-14.564c0.701-0.675,1.688-0.965,2.645-0.775c8.579,1.709,15.116,4.871,19.431,9.401c4.179,4.39,6.141,9.786,5.839,16.027
		l-0.981,22.544c-0.055,1.254-0.895,2.342-2.095,2.715C76.258,104.881,63.785,107.395,43.087,107.395z M6.864,97.686
		c6.746,1.831,18.141,3.75,36.223,3.75c18.041,0,29.455-1.937,36.227-3.776l0.888-20.422c0.226-4.633-1.148-8.438-4.201-11.652
		c-3.21-3.366-8.174-5.832-14.772-7.339L45.152,73.703c-1.154,1.105-2.976,1.104-4.127,0L24.96,58.248
		c-6.602,1.507-11.568,3.973-14.779,7.342c-3.011,3.158-4.423,7.059-4.198,11.594L6.864,97.686z"/>
</g>
</svg>
