<?xml version="1.0" encoding="utf-8"?>
<!-- Generator: Adobe Illustrator 21.1.0, SVG Export Plug-In . SVG Version: 6.00 Build 0)  -->
<svg version="1.1" id="Layer_1" xmlns="http://www.w3.org/2000/svg" xmlns:xlink="http://www.w3.org/1999/xlink" x="0px" y="0px"
	 viewBox="0 0 24 24" style="enable-background:new 0 0 24 24;" xml:space="preserve">
<style type="text/css">
	.st0{fill:#FFCC00;}
</style>
<g>
	<path class="st0" d="M9.2,16.9H7.1v-7h2.1V16.9z M16.9,16.9h-2.1v-3.7c0-1-0.4-1.5-1.1-1.5c-0.6,0-0.9,0.3-1.1,0.8
		c0,0.9,0,4.4,0,4.4h-2.1c0,0,0-6.3,0-7h1.7l0.1,1.4h0.1c0.4-0.7,1.1-1.2,2-1.2c0.7,0,1.3,0.2,1.8,0.7c0.4,0.5,0.7,1.2,0.7,2.1
		L16.9,16.9L16.9,16.9z"/>
</g>
<g>
	<ellipse class="st0" cx="8.1" cy="8.1" rx="1.1" ry="1.1"/>
</g>
</svg>
