<svg xmlns="http://www.w3.org/2000/svg" width="22.848" height="23.232" viewBox="0 0 22.848 23.232"><path fill="#fff" d="M9.967 19.937c-5.492 0-9.965-4.47-9.967-9.964C.002 4.473 4.474 0 9.97 0c5.493 0 9.967 4.473 9.97 9.97-.002 5.495-4.475 9.967-9.973 9.967zM9.97 2C5.575 2 2 5.577 2 9.972c.002 4.39 3.575 7.964 7.967 7.964 4.396 0 7.973-3.574 7.973-7.967C17.937 5.574 14.36 2 9.97 2zM4.362 9.967h-1c0-3.643 2.965-6.607 6.607-6.607v1c-3.092 0-5.607 2.515-5.608 5.607zM21.847 23.232c-.257 0-.513-.1-.707-.293l-5.568-5.568c-.39-.39-.39-1.022 0-1.414.39-.39 1.023-.39 1.414 0l5.568 5.567c.39.39.39 1.022 0 1.414-.196.195-.45.292-.707.292z"/></svg>