<?xml version="1.0" encoding="utf-8"?>
<!-- Generator: Adobe Illustrator 15.1.0, SVG Export Plug-In . SVG Version: 6.00 Build 0)  -->
<!DOCTYPE svg PUBLIC "-//W3C//DTD SVG 1.1//EN" "http://www.w3.org/Graphics/SVG/1.1/DTD/svg11.dtd">
<svg version="1.1" id="Calque_1" xmlns="http://www.w3.org/2000/svg" xmlns:xlink="http://www.w3.org/1999/xlink" x="0px" y="0px"
	 width="17.007px" height="14.523px" viewBox="0 0 17.007 14.523" enable-background="new 0 0 17.007 14.523" xml:space="preserve">
<path fill="#FFCC00" d="M11.983,1.519v3.24c-0.078,0.095-0.17,0.172-0.266,0.229c-0.104,0.063-0.181,0.095-0.25,0.095
	c-0.076,0-0.137-0.023-0.17-0.066c-0.043-0.053-0.061-0.12-0.061-0.224V1.52h-0.876v3.564c0,0.259,0.052,0.446,0.155,0.574
	c0.1,0.13,0.257,0.19,0.453,0.19c0.172,0,0.334-0.044,0.514-0.13c0.17-0.095,0.335-0.224,0.498-0.402v0.47h0.875v-4.27L11.983,1.519
	L11.983,1.519z M9.316,1.725C9.083,1.51,8.784,1.406,8.424,1.406c-0.396,0-0.712,0.104-0.952,0.3C7.24,1.904,7.122,2.16,7.122,2.496
	v2.21c0,0.37,0.118,0.652,0.341,0.867C7.694,5.786,8.004,5.898,8.38,5.898c0.394,0,0.712-0.104,0.934-0.317
	c0.232-0.206,0.343-0.486,0.343-0.855V2.523c0.003-0.328-0.117-0.593-0.34-0.8L9.316,1.725z M8.766,4.792
	c0,0.11-0.033,0.197-0.104,0.268C8.595,5.127,8.501,5.162,8.381,5.162c-0.11,0-0.205-0.034-0.267-0.103
	C8.055,4.999,8.02,4.906,8.02,4.792V2.46c0-0.094,0.035-0.17,0.104-0.222c0.06-0.06,0.153-0.086,0.257-0.086
	c0.109,0,0.206,0.025,0.281,0.086c0.07,0.05,0.104,0.128,0.104,0.222V4.792z M6.058-0.001L5.45,2.315H5.38L4.747-0.001H3.754
	l1.174,3.498v2.29h0.985V3.388L7.054,0H6.06L6.058-0.001z M12.874,10.194c0.05,0.067,0.076,0.187,0.076,0.34v0.396h-0.677v-0.396
	c0-0.153,0.017-0.271,0.078-0.34c0.05-0.07,0.137-0.113,0.266-0.113C12.737,10.081,12.823,10.124,12.874,10.194L12.874,10.194z
	 M10.183,10.173c-0.052-0.067-0.138-0.103-0.24-0.103c-0.052,0-0.112,0.01-0.164,0.034c-0.052,0.025-0.109,0.069-0.163,0.122v2.417
	c0.061,0.06,0.128,0.109,0.188,0.136c0.06,0.026,0.12,0.043,0.18,0.043c0.104,0,0.17-0.027,0.213-0.087
	c0.044-0.05,0.07-0.137,0.07-0.266v-2.006C10.269,10.336,10.242,10.242,10.183,10.173L10.183,10.173z M10.183,10.173
	c-0.052-0.067-0.138-0.103-0.24-0.103c-0.052,0-0.112,0.01-0.164,0.034c-0.052,0.025-0.109,0.069-0.163,0.122v2.417
	c0.061,0.06,0.128,0.109,0.188,0.136c0.06,0.026,0.12,0.043,0.18,0.043c0.104,0,0.17-0.027,0.213-0.087
	c0.044-0.05,0.07-0.137,0.07-0.266v-2.006C10.269,10.336,10.242,10.242,10.183,10.173L10.183,10.173z M14.58,7.184H2.427
	C1.097,7.184,0,8.281,0,9.618v2.48c0,1.335,1.097,2.425,2.426,2.425H14.58c1.33,0,2.427-1.09,2.427-2.426v-2.48
	C17.006,8.281,15.908,7.184,14.58,7.184L14.58,7.184z M5.7,8.889H4.79v4.489H3.915V8.889H3.015V8.125h2.683v0.764H5.7z M8.252,13.38
	h-0.78v-0.428c-0.137,0.16-0.292,0.282-0.445,0.36c-0.153,0.085-0.3,0.127-0.446,0.127c-0.18,0-0.315-0.061-0.409-0.18
	c-0.087-0.11-0.13-0.283-0.13-0.516v-3.25h0.771v2.984c0,0.085,0.017,0.153,0.052,0.197c0.026,0.043,0.085,0.06,0.155,0.06
	c0.06,0,0.128-0.025,0.214-0.085c0.094-0.052,0.17-0.12,0.24-0.206v-2.95h0.78v3.885L8.252,13.38z M11.064,12.575
	c0,0.274-0.06,0.488-0.18,0.634c-0.12,0.146-0.3,0.225-0.53,0.225c-0.156,0-0.284-0.026-0.404-0.085
	c-0.119-0.063-0.229-0.146-0.333-0.268v0.3H8.837V8.127h0.779v1.688c0.104-0.11,0.216-0.205,0.334-0.267
	c0.12-0.06,0.24-0.095,0.36-0.095c0.24,0,0.43,0.086,0.557,0.25c0.131,0.163,0.198,0.402,0.198,0.72v2.152L11.064,12.575z
	 M13.757,11.537h-1.483v0.73c0,0.205,0.018,0.342,0.07,0.42c0.05,0.084,0.145,0.12,0.265,0.12c0.128,0,0.214-0.035,0.267-0.105
	c0.05-0.06,0.076-0.215,0.076-0.438v-0.181h0.808v0.196c0,0.404-0.104,0.703-0.3,0.9c-0.19,0.206-0.48,0.3-0.866,0.3
	c-0.353,0-0.626-0.104-0.824-0.317c-0.196-0.213-0.3-0.505-0.3-0.882v-1.74c0-0.334,0.112-0.607,0.335-0.821
	c0.214-0.207,0.497-0.317,0.848-0.317c0.353,0,0.626,0.102,0.814,0.3c0.188,0.196,0.29,0.47,0.29,0.84L13.757,11.537L13.757,11.537z
	 M9.942,10.072c-0.05,0-0.109,0.01-0.163,0.034c-0.052,0.024-0.109,0.07-0.163,0.12v2.418c0.061,0.06,0.127,0.109,0.188,0.137
	c0.06,0.026,0.12,0.043,0.18,0.043c0.104,0,0.17-0.026,0.213-0.086c0.043-0.05,0.07-0.137,0.07-0.266v-2.006
	c0-0.13-0.027-0.224-0.087-0.293C10.129,10.106,10.044,10.072,9.942,10.072L9.942,10.072z M10.182,10.174
	c-0.05-0.067-0.136-0.103-0.24-0.103c-0.05,0-0.109,0.01-0.162,0.034c-0.052,0.025-0.109,0.07-0.163,0.122v2.417
	c0.061,0.06,0.128,0.109,0.188,0.136c0.06,0.026,0.12,0.043,0.18,0.043c0.104,0,0.17-0.027,0.213-0.087
	c0.044-0.05,0.07-0.137,0.07-0.266v-2.006c0.002-0.128-0.025-0.222-0.084-0.289L10.182,10.174z M10.182,10.174
	c-0.05-0.067-0.136-0.103-0.24-0.103c-0.05,0-0.109,0.01-0.162,0.034c-0.052,0.025-0.109,0.07-0.163,0.122v2.417
	c0.061,0.06,0.128,0.109,0.188,0.136c0.06,0.026,0.12,0.043,0.18,0.043c0.104,0,0.17-0.027,0.213-0.087
	c0.044-0.05,0.07-0.137,0.07-0.266v-2.006c0.002-0.128-0.025-0.222-0.084-0.289L10.182,10.174z"/>
</svg>
