<?xml version="1.0" encoding="utf-8"?>
<!-- Generator: Adobe Illustrator 15.1.0, SVG Export Plug-In . SVG Version: 6.00 Build 0)  -->
<!DOCTYPE svg PUBLIC "-//W3C//DTD SVG 1.1//EN" "http://www.w3.org/Graphics/SVG/1.1/DTD/svg11.dtd">
<svg version="1.1" id="Calque_1" xmlns="http://www.w3.org/2000/svg" xmlns:xlink="http://www.w3.org/1999/xlink" x="0px" y="0px"
	 width="145.66px" height="137.242px" viewBox="0 0 145.66 137.242" enable-background="new 0 0 145.66 137.242"
	 xml:space="preserve">
<g>
	<g>
		<defs>
			<rect id="SVGID_1_" width="145.66" height="137.242"/>
		</defs>
		<clipPath id="SVGID_2_">
			<use xlink:href="#SVGID_1_"  overflow="visible"/>
		</clipPath>
		<path clip-path="url(#SVGID_2_)" fill="#FFFFFF" stroke="#FFFFFF" stroke-miterlimit="10" d="M66.146,109.809H29.514V54.48
			l-5.955,4.918v50.41H9.935c-2.731,0-3.439,5.957,0,5.957h62.79l-4-5.957h-7.624 M143.578,59.727L72.843,1.298L2.083,59.763
			c-1.268,1.048-1.448,2.923-0.402,4.191c0.591,0.715,1.441,1.082,2.296,1.082c0.672,0,1.342-0.223,1.898-0.682L72.843,9.022
			l66.942,55.299c1.271,1.044,3.148,0.869,4.191-0.403C145.025,62.65,144.846,60.776,143.578,59.727"/>
	</g>
	<g>
		<defs>
			<rect id="SVGID_3_" width="145.66" height="137.242"/>
		</defs>
		<clipPath id="SVGID_4_">
			<use xlink:href="#SVGID_3_"  overflow="visible"/>
		</clipPath>
		<g clip-path="url(#SVGID_4_)">
			<path fill="#FFFFFF" d="M74.601,116.766H9.935c-1.986,0-3.321-1.497-3.321-3.726c0-0.987,0.285-1.99,0.782-2.752
				c0.624-0.955,1.526-1.479,2.539-1.479h12.624V58.927l7.955-6.569v56.451h38.744L74.601,116.766z M9.935,110.809
				c-0.779,0-1.321,1.177-1.321,2.231c0,0.52,0.129,1.726,1.321,1.726h60.914l-2.657-3.957H28.514V56.603l-3.955,3.267v50.939H9.935
				z M3.977,66.036c-1.19,0-2.308-0.527-3.067-1.445c-1.395-1.691-1.154-4.203,0.536-5.599L72.843,0.001l71.374,58.956
				c1.688,1.399,1.928,3.911,0.531,5.599c-0.668,0.815-1.619,1.323-2.674,1.427c-1.059,0.108-2.1-0.211-2.924-0.889L72.843,10.319
				L6.512,65.125C5.8,65.712,4.9,66.036,3.977,66.036z M72.843,2.595L2.72,60.534c-0.84,0.694-0.96,1.943-0.267,2.784
				c0.675,0.815,1.972,0.938,2.786,0.265L72.843,7.725l67.579,55.826c0.41,0.336,0.932,0.494,1.455,0.442
				c0.523-0.052,0.994-0.303,1.326-0.708c0.696-0.842,0.578-2.09-0.262-2.787L72.843,2.595z"/>
		</g>
	</g>
	<g>
		<defs>
			<rect id="SVGID_5_" width="145.66" height="137.242"/>
		</defs>
		<clipPath id="SVGID_6_">
			<use xlink:href="#SVGID_5_"  overflow="visible"/>
		</clipPath>
		<g clip-path="url(#SVGID_6_)">
			<path fill="#FFFFFF" stroke="#FFFFFF" stroke-miterlimit="10" d="M101.777,58.532c-21.701,0-39.354,17.654-39.354,39.354
				c0,21.701,17.653,39.355,39.354,39.355c21.698,0,39.35-17.654,39.35-39.355C141.126,76.186,123.476,58.532,101.777,58.532
				 M101.777,131.285c-18.417,0-33.398-14.982-33.398-33.398c0-18.414,14.981-33.396,33.398-33.396
				c18.41,0,33.393,14.982,33.393,33.396C135.169,116.302,120.188,131.285,101.777,131.285"/>
		</g>
	</g>
</g>
<g>
	<path fill="#FFFFFF" stroke="#FFFFFF" stroke-miterlimit="10" d="M114.005,113.063c-1.786,0.999-4.834,1.997-8.197,1.997
		c-5.203,0-9.88-2.104-12.823-5.991c-1.419-1.786-2.47-4.046-2.942-6.831h-3.416v-3.73h2.892c0-0.264,0-0.578,0-0.895
		c0-0.525,0.053-1.051,0.053-1.576h-2.942v-3.73h3.521c0.631-2.838,1.945-5.256,3.627-7.146c2.942-3.416,7.146-5.412,12.14-5.412
		c3.152,0,5.99,0.734,7.883,1.576l-1.473,5.99c-1.365-0.578-3.572-1.262-5.886-1.262c-2.47,0-4.782,0.894-6.411,2.838
		c-0.787,0.841-1.313,2.05-1.682,3.416h13.086v3.73H97.557c-0.054,0.525-0.054,1.051-0.054,1.629c0,0.315,0,0.578,0,0.842h13.928
		v3.73H98.24c0.367,1.576,0.945,2.785,1.733,3.68c1.682,1.892,4.151,2.68,6.778,2.68c2.418,0,4.889-0.788,5.992-1.366
		L114.005,113.063z"/>
</g>
</svg>
