<?xml version="1.0" encoding="utf-8"?>
<!-- Generator: Adobe Illustrator 15.1.0, SVG Export Plug-In . SVG Version: 6.00 Build 0)  -->
<!DOCTYPE svg PUBLIC "-//W3C//DTD SVG 1.1//EN" "http://www.w3.org/Graphics/SVG/1.1/DTD/svg11.dtd">
<svg version="1.1" id="Calque_1" xmlns="http://www.w3.org/2000/svg" xmlns:xlink="http://www.w3.org/1999/xlink" x="0px" y="0px"
	 width="106.264px" height="90.42px" viewBox="0 0 106.264 90.42" enable-background="new 0 0 106.264 90.42" xml:space="preserve">
<g>
	<defs>
		<rect id="SVGID_1_" width="106.264" height="90.42"/>
	</defs>
	<clipPath id="SVGID_2_">
		<use xlink:href="#SVGID_1_"  overflow="visible"/>
	</clipPath>
	<path clip-path="url(#SVGID_2_)" fill="#FFFFFF" d="M101.565,0H4.698C2.106,0,0,2.109,0,4.698v59.037
		c0,2.591,2.106,4.698,4.698,4.698h73.734l15.063,21.226c0.344,0.486,0.897,0.761,1.474,0.761c0.182,0,0.367-0.027,0.548-0.085
		c0.75-0.239,1.26-0.936,1.26-1.723V68.434h4.789c2.589,0,4.698-2.107,4.698-4.698V4.698C106.264,2.109,104.154,0,101.565,0
		 M102.649,63.735c0,0.597-0.487,1.084-1.084,1.084h-6.597c-1,0-1.808,0.81-1.808,1.808v16.317L80.839,65.58
		c-0.339-0.476-0.887-0.761-1.475-0.761H4.698c-0.599,0-1.084-0.487-1.084-1.084V4.698c0-0.597,0.485-1.084,1.084-1.084h96.867
		c0.597,0,1.084,0.487,1.084,1.084V63.735z"/>
	<path clip-path="url(#SVGID_2_)" fill="#FFFFFF" d="M47.416,23.944v-9.165c0-0.998-0.808-1.807-1.806-1.807h-7.088
		c-0.616,0-1.158,0.306-1.484,0.775l-2.79-2.742c-0.703-0.692-1.83-0.692-2.533,0L15.797,26.646c-0.346,0.34-0.54,0.805-0.54,1.29
		v26.161c0,0.999,0.809,1.808,1.807,1.808H48.9c0.996,0,1.806-0.809,1.806-1.808V27.937c0-0.485-0.194-0.95-0.541-1.29
		L47.416,23.944z M47.092,52.29H18.871V28.693L32.982,14.83l4.272,4.199c0.52,0.51,1.293,0.659,1.965,0.377
		c0.672-0.282,1.11-0.937,1.11-1.666v-1.152h3.473v8.115c0,0.484,0.195,0.949,0.54,1.289l2.75,2.702V52.29z"/>
	<rect x="64.155" y="13.495" clip-path="url(#SVGID_2_)" fill="#FFFFFF" width="28.555" height="3.615"/>
	<rect x="60.48" y="27.89" clip-path="url(#SVGID_2_)" fill="#FFFFFF" width="32.229" height="3.614"/>
	<rect x="60.48" y="39.76" clip-path="url(#SVGID_2_)" fill="#FFFFFF" width="32.229" height="3.614"/>
	<rect x="60.48" y="52.291" clip-path="url(#SVGID_2_)" fill="#FFFFFF" width="32.229" height="3.615"/>
	<path clip-path="url(#SVGID_2_)" fill="#FFFFFF" d="M6.145,9.036v5.061h3.614v-3.254h4.457V7.229H7.952
		C6.953,7.229,6.145,8.038,6.145,9.036"/>
</g>
</svg>
