<?xml version="1.0" encoding="utf-8"?>
<!-- Generator: Adobe Illustrator 15.1.0, SVG Export Plug-In . SVG Version: 6.00 Build 0)  -->
<!DOCTYPE svg PUBLIC "-//W3C//DTD SVG 1.1//EN" "http://www.w3.org/Graphics/SVG/1.1/DTD/svg11.dtd">
<svg version="1.1" id="Calque_1" xmlns="http://www.w3.org/2000/svg" xmlns:xlink="http://www.w3.org/1999/xlink" x="0px" y="0px"
	 width="157.89px" height="143.42px" viewBox="0 0 157.89 143.42" enable-background="new 0 0 157.89 143.42" xml:space="preserve">
<g>
	<defs>
		<rect id="SVGID_1_" width="157.89" height="143.42"/>
	</defs>
	<clipPath id="SVGID_2_">
		<use xlink:href="#SVGID_1_"  overflow="visible"/>
	</clipPath>
	<path clip-path="url(#SVGID_2_)" fill="#DF2F6C" d="M100.586,58.204h31.288c1.848,0,3.347-1.499,3.347-3.347V37.412l1.453,1.261
		c0.634,0.549,1.414,0.819,2.192,0.819c0.938,0,1.866-0.392,2.529-1.154c1.212-1.396,1.061-3.511-0.334-4.72l-22.702-19.701
		c-1.263-1.096-3.134-1.094-4.396,0.004L91.387,33.61c-1.393,1.216-1.536,3.331-0.323,4.722c1.217,1.393,3.323,1.541,4.725,0.325
		l1.451-1.266v17.465C97.239,56.705,98.738,58.204,100.586,58.204 M116.171,20.879l12.356,10.722v19.908h-8.332v-9.417h-7.932v9.417
		h-8.331V31.553L116.171,20.879z"/>
	<path clip-path="url(#SVGID_2_)" fill="#DF2F6C" d="M138.367,0H93.396C82.63,0,73.873,8.758,73.873,19.522v34.399
		c0,10.764,8.757,19.523,19.522,19.523h1.989L83.985,84.022c-1.58,1.464-1.674,3.936-0.207,5.517
		c0.769,0.828,1.814,1.248,2.862,1.248c0.952,0,1.904-0.343,2.656-1.043l25.939-24.108H93.396c-6.458,0-11.714-5.253-11.714-11.714
		V19.522c0-6.46,5.256-11.714,11.714-11.714h44.972c6.458,0,11.713,5.254,11.713,11.714v34.399c0,6.461-5.255,11.714-11.713,11.714
		h-11.533l-8.397,7.809h19.931c10.765,0,19.522-8.759,19.522-19.523V19.522C157.89,8.758,149.132,0,138.367,0"/>
	<path clip-path="url(#SVGID_2_)" fill="#DF2F6C" d="M40.458,99.063c11.089,0,23.976-12.021,23.976-27.521v-5.55
		c0-10.621-6.298-21.971-23.976-21.971c-16.567,0-23.98,11.034-23.98,21.971v5.55C16.478,86.79,29.597,99.063,40.458,99.063
		 M24.287,65.992c0-8.734,6.196-14.162,16.171-14.162c4.029,0,7.351,0.761,9.92,2.207c-0.797,2.039-4.209,7.537-18.223,9.84
		c-1.823,0.298-3.059,2.02-2.762,3.844c0.272,1.641,1.69,2.803,3.301,2.803c0.18,0,0.364-0.014,0.546-0.045
		c13.405-2.201,19.335-7.335,21.961-11.337c0.93,1.931,1.424,4.214,1.424,6.85v5.55c0,11.436-9.656,19.712-16.167,19.712
		c-6.386,0-16.171-8.831-16.171-19.712V65.992z"/>
	<path clip-path="url(#SVGID_2_)" fill="#DF2F6C" d="M40.457,104.229c-2.158,0-3.905,1.746-3.905,3.903v35.287h7.808v-35.287
		C44.36,105.976,42.613,104.229,40.457,104.229"/>
	<path clip-path="url(#SVGID_2_)" fill="#DF2F6C" d="M23.935,100.438c-0.022,0.002-0.04,0.009-0.062,0.011l-0.422,0.081
		l-0.865,0.287l-6.341,2.121C14.4,103.438,0,107.787,0,121.221v22.199h7.773v-22.199c0-7.934,10.117-10.645,10.535-10.752
		l2.512-0.834l2.949,33.785h7.837l-3.442-39.435C27.976,101.839,26.091,100.237,23.935,100.438"/>
	<path clip-path="url(#SVGID_2_)" fill="#DF2F6C" d="M64.575,102.938l-6.034-2.049l-1.148-0.383l-0.443-0.068
		c-2.12-0.152-3.963,1.427-4.148,3.547l-3.443,39.436h7.837l2.945-33.73l0.003-0.031l2.167,0.725l0.278,0.084
		c0.433,0.109,10.587,2.82,10.587,10.754v22.199h7.713v-22.199C80.89,107.784,66.424,103.437,64.575,102.938"/>
</g>
</svg>
