<?xml version="1.0" encoding="utf-8"?>
<!-- Generator: Adobe Illustrator 15.1.0, SVG Export Plug-In . SVG Version: 6.00 Build 0)  -->
<!DOCTYPE svg PUBLIC "-//W3C//DTD SVG 1.1//EN" "http://www.w3.org/Graphics/SVG/1.1/DTD/svg11.dtd">
<svg version="1.1" id="Calque_1" xmlns="http://www.w3.org/2000/svg" xmlns:xlink="http://www.w3.org/1999/xlink" x="0px" y="0px"
	 width="103.018px" height="94.376px" viewBox="0 0 103.018 94.376" enable-background="new 0 0 103.018 94.376"
	 xml:space="preserve">
<g>
	<defs>
		<rect id="SVGID_1_" width="103.018" height="94.376"/>
	</defs>
	<clipPath id="SVGID_2_">
		<use xlink:href="#SVGID_1_"  overflow="visible"/>
	</clipPath>
	<path clip-path="url(#SVGID_2_)" fill="#DF2F6C" d="M67.965,9.146H35.051v5.08h32.914V9.146z M100.479,9.146H85.742v5.079h12.195
		v14.619H5.079V14.225h12.195V9.146H2.538C1.137,9.146,0,10.283,0,11.686v80.15c0,1.403,1.137,2.54,2.538,2.54h97.941
		c1.4,0,2.539-1.137,2.539-2.54v-80.15C103.018,10.283,101.879,9.146,100.479,9.146 M97.938,89.296H5.079V33.923h92.859V89.296z
		 M26.163,20.853c1.402,0,2.541-1.136,2.541-2.539V2.538C28.704,1.136,27.564,0,26.163,0c-1.403,0-2.538,1.136-2.538,2.538v15.776
		C23.625,19.717,24.76,20.853,26.163,20.853 M76.854,20.853c1.404,0,2.542-1.136,2.542-2.539V2.538C79.396,1.136,78.258,0,76.854,0
		c-1.4,0-2.537,1.136-2.537,2.538v15.776C74.316,19.717,75.453,20.853,76.854,20.853 M48.846,76.422H33.383l11.89-14.609
		c1.385-1.67,2.328-3.084,2.824-4.24c0.501-1.154,0.749-2.479,0.749-3.972c0-3.164-1.006-5.723-3.014-7.678
		c-2.007-1.955-4.648-2.933-7.918-2.933c-2.382,0-4.469,0.542-6.265,1.626c-1.795,1.085-3.121,2.623-3.973,4.613
		c-0.463,1.101-0.746,2.596-0.853,4.478h5.439c0.178-3.91,2.043-5.865,5.599-5.865c1.708,0,3.057,0.517,4.052,1.546
		c0.996,1.031,1.492,2.438,1.492,4.214c0,1.74-0.674,3.432-2.024,5.065L26.768,76.422v4.854h22.078V76.422z M65.476,76.742
		c-1.635,0-2.88-0.408-3.731-1.227c-0.855-0.816-1.439-2.167-1.76-4.054h-5.439c0.32,3.237,1.277,5.654,2.88,7.253
		c1.919,1.92,4.622,2.88,8.104,2.88c3.341,0,5.992-0.978,7.945-2.934c1.137-1.136,1.953-2.469,2.454-3.999
		c0.496-1.527,0.746-3.519,0.746-5.971c0-4.657-1.084-8.07-3.253-10.239c-1.673-1.67-3.946-2.505-6.826-2.505
		c-2.629,0-4.71,0.764-6.237,2.292V48.161h15.518v-4.852H55.396v20.689h4.961c0.852-2.239,2.629-3.357,5.331-3.357
		c1.956,0,3.378,0.63,4.267,1.891s1.332,3.298,1.332,6.105c0,3.129-0.586,5.332-1.76,6.611
		C68.533,76.245,67.184,76.742,65.476,76.742"/>
</g>
</svg>
