<?xml version="1.0" encoding="utf-8"?>
<!-- Generator: Adobe Illustrator 15.1.0, SVG Export Plug-In . SVG Version: 6.00 Build 0)  -->
<!DOCTYPE svg PUBLIC "-//W3C//DTD SVG 1.1//EN" "http://www.w3.org/Graphics/SVG/1.1/DTD/svg11.dtd">
<svg version="1.1" id="grille_1_" xmlns="http://www.w3.org/2000/svg" xmlns:xlink="http://www.w3.org/1999/xlink" x="0px" y="0px"
	 width="1196px" height="289px" viewBox="0 0 1196 289" enable-background="new 0 0 1196 289" xml:space="preserve">
<g id="Calque_3">
	
		<line fill="none" stroke="#828282" stroke-linecap="round" stroke-linejoin="round" stroke-miterlimit="10" x1="3" y1="284.584" x2="912.297" y2="284.584"/>
	<line fill="none" stroke="#828282" stroke-miterlimit="10" x1="73.336" y1="213.664" x2="981.606" y2="214.995"/>
	<line fill="none" stroke="#828282" stroke-miterlimit="10" x1="145.336" y1="142.5" x2="1053.899" y2="142.5"/>
	<line fill="none" stroke="#828282" stroke-miterlimit="10" x1="216.002" y1="71.665" x2="1124.536" y2="71.665"/>
	<line fill="none" stroke="#828282" stroke-miterlimit="10" x1="286.516" y1="-0.047" x2="1196" y2="0"/>
	
		<line fill="none" stroke="#828282" stroke-linecap="round" stroke-linejoin="round" stroke-miterlimit="10" x1="912.297" y1="284.5" x2="1196" y2="0"/>
	<line fill="none" stroke="#828282" stroke-miterlimit="10" x1="812.003" y1="284.5" x2="1096.67" y2="0"/>
	<line fill="none" stroke="#828282" stroke-miterlimit="10" x1="711.337" y1="284.5" x2="995.337" y2="0"/>
	<line fill="none" stroke="#828282" stroke-miterlimit="10" x1="610.003" y1="284.5" x2="892.003" y2="0"/>
	<line fill="none" stroke="#828282" stroke-miterlimit="10" x1="508.003" y1="284.5" x2="790.67" y2="0"/>
	<line fill="none" stroke="#828282" stroke-miterlimit="10" x1="406.67" y1="284.5" x2="690.67" y2="0"/>
	<line fill="none" stroke="#828282" stroke-miterlimit="10" x1="307.336" y1="284.5" x2="592.003" y2="0"/>
	<line fill="none" stroke="#828282" stroke-miterlimit="10" x1="204.003" y1="285" x2="490.003" y2="0"/>
	<line fill="none" stroke="#828282" stroke-miterlimit="10" x1="104.67" y1="284.5" x2="390.003" y2="0"/>
	
		<line fill="none" stroke="#828282" stroke-linecap="round" stroke-linejoin="round" stroke-miterlimit="10" x1="3.354" y1="284.5" x2="286.484" y2="0"/>
</g>
<g id="grille_copie_5_xA0_Image_1_" display="none">
	
		<image display="inline" overflow="visible" width="1193" height="285" id="grille_copie_5_xA0_Image_2_" xlink:href="CC15FD99.png"  transform="matrix(1 0 0 1 2.499 -0.4844)">
	</image>
</g>
<g id="Ellipse_3_copie_3">
	<g>
		<circle fill-rule="evenodd" clip-rule="evenodd" fill="#DF306C" cx="609.5" cy="284.499" r="4.5"/>
	</g>
</g>
<g id="Ellipse_3_copie_4">
	<g>
		<circle fill-rule="evenodd" clip-rule="evenodd" fill="#DF306C" cx="913.5" cy="284.499" r="4.5"/>
	</g>
</g>
<g id="Ellipse_3_copie_6">
	<g>
		<circle fill-rule="evenodd" clip-rule="evenodd" fill="#DF306C" cx="4.5" cy="284.499" r="4.5"/>
	</g>
</g>
<g id="Ellipse_3_copie_7">
	<g>
		<circle fill-rule="evenodd" clip-rule="evenodd" fill="#DF306C" cx="306.5" cy="284.499" r="4.5"/>
	</g>
</g>
</svg>
