<?xml version="1.0" encoding="utf-8"?>
<!-- Generator: Adobe Illustrator 15.1.0, SVG Export Plug-In . SVG Version: 6.00 Build 0)  -->
<!DOCTYPE svg PUBLIC "-//W3C//DTD SVG 1.1//EN" "http://www.w3.org/Graphics/SVG/1.1/DTD/svg11.dtd">
<svg version="1.1"
	 id="svg2" xmlns:dc="http://purl.org/dc/elements/1.1/" xmlns:rdf="http://www.w3.org/1999/02/22-rdf-syntax-ns#" xmlns:cc="http://creativecommons.org/ns#" xmlns:svg="http://www.w3.org/2000/svg"
	 xmlns="http://www.w3.org/2000/svg" xmlns:xlink="http://www.w3.org/1999/xlink" x="0px" y="0px" width="653.333px"
	 height="113.208px" viewBox="68.5 47.924 653.333 113.208" enable-background="new 68.5 47.924 653.333 113.208"
	 xml:space="preserve">
<g id="g10" transform="matrix(1.3333333,0,0,-1.3333333,0,213.33333)">
	<g id="g12" transform="scale(0.1)">
		<path id="path16" fill="#FFFFFF" d="M4539.139,391.513h12.759v849.06h-12.759V391.513z"/>
		<path id="path18" fill="#FFFFFF" d="M776.431,990.393c8.394,1.545,27.048-0.015,36.145,0.396
			c11.865,0.535,21.27-4.277,33.289-0.359c9.47,3.091,9.771,0.894,17.351,9.998c3.025,3.625,4.9,14.502,2.271,16.414
			c-4.585,3.347,1.75,10.181-2.271,12.378c-1.047,6.27-1.545,12.891-3.281,18.823c-8.027,27.466,9.419,24.961-43.784,20.977
			c-9.009-0.659-31.919,1.772-39.631-2.256c-5.757-3.025,1.26-17.38-2.695-24.441c-10.298-18.303-3.362-33.948,1.956-34.805
			C777.171,1007.289,769.312,989.096,776.431,990.393z M1020.98,998.486c1.289-1.025,2.52-2.695,3.918-2.996
			c13.77-2.886,26.492,2.278,40.181,1.743c10.063-0.381,25.459-5.369,34.834,0.571c2.417,1.516,9.06,11.089,7.266,14.897
			c-3.999,8.496-0.82,16.78-2.871,24.836c-1.685,6.584,4.116,21.35-0.93,25.203c-6.138,4.702,10.32,11.191-19.57,11.03
			c-18.303-0.388-43.118,4.431-60.088-3.984c-7.485-3.706,1.729-20.09,2.651-25.759c1.062-6.46-0.688-9.814,3.582-14.81
			c-2.014-1.509-3.589-3.589-4.761-6.255C1029.732,1019.477,1026.553,1007.099,1020.98,998.486L1020.98,998.486z M900.013,998.647
			c1.318-1.077,2.549-2.813,3.933-3.127c13.872-3.003,26.689,2.38,40.444,1.838c10.166-0.417,25.664-5.618,35.098,0.586
			c2.432,1.589,9.133,11.536,7.324,15.535c-4.036,8.855-0.828,17.468-2.9,25.862c-1.721,6.877,2.886,29.063-2.197,33.069
			c-6.189,4.9-18.765,5.112-26.697,4.929c-18.413-0.417-35.881,1.003-52.976-7.749c-7.522-3.867,2.454-17.571,3.406-23.467
			c1.055-6.731-0.022-19.189-1.187-21.965C908.817,1020.532,905.631,1007.634,900.013,998.647z M789.007,449.25
			c16.23-1.252,32.922-1.787,49.036,0.74c31.201,4.849,63.34,5.046,94.966,7.822c61.267,5.339,122.19-9.133,183.545-8.489
			c28.967,0.3,58.257,1.436,86.748,6.76c13.777,2.563,27.839,3.42,41.067,8.145c9.419,3.354,41.931,0.674,46.963,10.503
			c2.512,4.915,3.867,7.17-1.113,9.69c2.9,7.91-3.721,17.307,1.531,23.818c4.841,5.999-9.756,7.2-2.688,11.711
			c2.41,1.538-0.22,32.314-0.132,36.123c0.374,16.853-5.149,33.018-2.952,49.753c2.051,15.718-4.775,37.009,0,52.178
			c5.574,17.666,5.801,21.738,4.021,38.789c-1.67,15.718-1.545,35.486-2.681,50.83c-1.04,13.901,6.526,23.086,3.325,35.867
			c-2.043,8.167-4.995,16.421-5.105,24.91c-0.095,7.566,2.93,25.884,1.699,33.457c-2.205,13.748-1.274,38.921-2.139,39.111
			c2.922,10.708-0.33,13.359-3.45,23.181c-4.299,13.491,6.409,30.476,2.988,44.121c-3.398,13.601-1.414,26.396,4.043,54.412
			c1.377,7.104-4.636,27.898-5.889,34.446c-2.82,14.81,10.195,53.87,7.266,68.672c-2.534,12.788,4.204,57.158-3.816,67.39
			c-20.259,25.869-117.188-4.124-148.059,1.348c-15.103,2.673-29.539,1.311-44.795,1.56c-17.043,0.264-33.765,3.604-50.845,2.476
			c-35.361-2.322-70.393-2.783-105.71-5.493c-32.542-2.498-62.439,3.391-94.915-0.41c-34.08-3.97-103.052,11.462-135.337-0.374
			c-26.851-9.807-50.669,13.55-70.671-6.98c-9.624-9.888-3.12-114.265-4.504-127.734c-0.828-8.196-0.652-16.435-0.923-24.646
			c-0.227-7.244,1.399-19.688,1.787-25.847c1.318-20.984,3.01-13.821,1.787-34.783c-1.912-0.168,2.49-26.638,0.732-26.785
			c-0.93-6.987,3.772-41.104,3.083-47.959c-0.637-6.394,13.828,8.298,16.062,8.914c-2.476,1.377,13,10.32,10.686,11.602
			c5.588,0.879,3.691,11.938,9.382,11.609c9.866-0.623,18.472,23.101,28.074,25.386c12.649,3.047,11.279,19.937,21.094,22.61
			c12.59,3.42,0.242,6.995-0.747,18.171c-0.403,4.739,0.139,3.208,0.623,7.917c0.52,5.046-3.567,9.17-2.856,14.055
			c1.604,11.001-5.229,32.051,0.176,42.063c5.149,9.521-9.148,67.222-2.256,75.564c5.706,6.899,32.271,0.645,41.492,2.908
			c11.001,2.666,48.911,6.731,60.198,8.027c13.455,1.531,130.598,7.91,152.556-1.86c30.227-13.528,82.573,9.448,114.976,1.633
			c14.48-3.523,56.323-8.979,69.39-16.37c12.151-6.841,10.583-92.981,14.099-102.524c3.508-9.529,3.34-19.709,10.92-26.748
			c-2.271-2.82-2.688-11.221,2.131-13.997c-3.582-6.921-0.879-13.594,0.52-21.094c1.89-10.203,0.93-20.391,2.051-30.806
			c2.439-22.456,4.482-45.029,10.151-66.965c-0.051-0.037-0.916-0.703-1.055-0.806c4.409-42.056,13.374-84.214,16.941-126.467
			c1.685-19.988,1.069-39.705,4.944-59.487c4.189-21.416-1.223-44.077,2.549-65.859c-4.578-10.789-2.974-67.83-14.993-70.239
			c-43.381-8.65-88.359-10.767-132.62-10.408c-47.021,0.396-89.875-8.218-136.853-6.211c-2.256,0.103-1.274,14.7-1.348,17.637
			c-0.293,10.466-2.703,20.991-2.446,31.443c0.234,8.848,1.685,17.754,2.139,26.58c0.278,5.442-2.417,10.1-2.029,15.483
			c0.403,5.5,2.659,11.44,0.981,16.956c-1.948,6.526-0.513,16.904-4.241,22.522c-3.354,5.046-5.244,6.299-6.328,12.634
			c-0.791,4.651-8.416,5.083-12.297,5.544c-5.493,0.652-11.001,1.165-16.494,1.729c-2.549-3.354-7.185-2.388-10.576-1.458
			c-1.523,0.425-2.637,2.285-4.424,3.918c-0.659-0.381-2.461-1.421-4.739-2.732c-1.436,2.842-40.093-1.384-50.281-5.603
			c-2.534-1.04-5.127-1.992-7.427-2.864c8.357-22.478-1.384-46.553,3.157-69.822c4.6-23.591-0.542-45.315,1.289-69.294
			c-24.434,0-46.904-3.252-71.331-1.882c-0.132,0.029-4.504-0.52-4.907-0.264c-10.898-0.117-10.005-0.688-10.269,6.585
			c-0.542,14.934-1.685,31.67-0.542,47.278c1.208,16.838,4.453,28.931-0.337,41.016c-2.153,5.405-0.205,13.096-0.139,19.592
			c0.095,7.676-1.772,15.557-2.249,23.357c-0.432,7.361-2.278,12.371-2.659,19.512c-0.366,6.819,0.835,16.187-2.285,20.317
			c1.318,8.13,2.073,16.655-0.989,23.232c-2.175,4.717,6.643,21.98-3.281,20.156c-11.807-2.175-75.996-6.951-87.451-5.061
			c-3.611,0.601-11.331,11.125-6.335,16.37c20.515,21.519,56.733,51.812,77.769,69.763c10.085,8.599,25.92,23.73,36.035,32.527
			c12.371,10.752,23.577,23.357,34.534,35.522c9.624,10.73,22.258,24.463,31.523,35.537c4.424,5.295,19.856,14.846,27.92,12.92
			c25.32-6.042,50.859-20.259,73.828-32.271c24.236-12.671,49.072-30.813,72.62-44.714c24.053-14.18,118.813-71.162,142.529-86.06
			c22.705-14.253,15.22-28.528,5.295-29.568c-10.042-1.055-18.494-0.696-21.775-0.952c-11.587-0.952-29.927-1.428-41.345-3.53
			c-24.053-4.438-50.435,2.783-74.026-3.574c-1.597-0.417,1.157-13.931,0.938-16.743c0-13.733,3.464-32.52,4.753-22.698
			c-2.637-20.061,1.113-94.46,2.322-103.242c1.948-14.033,37.69-1.912,59.084-4.402c11.294-1.296,18.896,11.104,17.395,20.955
			c-2.241,14.795,0.439,33.816-6.812,47.263c-2.3,4.307,1.033,9.924-2.029,14.377c-4.036,5.881-4.036,12.883-2.659,19.6
			c0.374,1.846,2.271,4.285,3.962,4.775c9.932,2.959,19.841,3.398,30.037,4.49c4.46,0.483,8.884,1.472,13.132,2.996
			c6.152,2.205,11.836,0.3,17.966,1.978c21.086,5.764,36.995,20.186,57.092,26.06c2.322,0.667,8.701,8.584,8.643,10.862
			c-0.923,24.338-27.385,39.302-42.195,56.843c-19.805,23.438-43.037,42.737-68.738,59.59c-3.552,2.336-22.456,16.619-21.687,19.783
			c0.571,0.088,7.097-2.461,15.71,0.769c21.687,1.729,36.189-3.193,35.508,10.752c-0.923,18.04,13.843,72.854-15.513,68.174
			c-4.526-0.718-8.621,2.432-13.176,2.739c-5.002,0.344-9.983-0.425-14.978-0.535c-13.374-0.322-25.525-6.335-38.276-9.492
			c-5.984-1.465-5.596-5.977-4.819-10.664c1.743-10.444,2.19-35.845,0.989-46.377c-10.488,5.662-20.955,11.287-31.436,16.926
			c0.176,0.527-1.479,14.583-3.435,21.431c-0.366,1.238,0.916,9.397,0.894,10.693c-0.146,6.965,1.978,8.137-3.787,10.847
			c-16.428,7.749-41.873,5.024-59.539,2.527c-15.366-2.168-6.57-9.492-21.357-3.721c-14.963,5.852-32.168,10.437-46.194,18.164
			c-16.765,9.229-26.477,13.718-45.901,7.793c-34.863-10.664-58.916-44.583-84.58-68.298
			c-11.777-10.862-22.881-22.742-34.241-34.094c-12.81-12.751-26.309-25.979-38.503-39.221
			c-22.918-24.895-36.694-37.91-64.548-63.45c-10.605-9.712-38.745-36.855-44.993-49.746c-2.205-4.57-9.807-13.638-7.632-20.698
			c1.721-5.574,1.582-9.631,4.666-10.891c6.951-2.82,36.211-4.849,43.784-4.753c9.082,0.139,33.801,4.863,42.942,5.706
			c2.117,0.198,5.464-2.439,6.526-4.6c3.538-7.214-3.523-33.721-4.951-41.536c-2.263-12.502-0.029-25.122,1.318-37.603
			c1.34-12.429,0.996-22.705-0.081-35.178c-0.535-6.116-4.146-110.12,1.223-114.558C643.988,446.43,774.791,450.37,789.007,449.25"
			/>
		<path id="path20" fill="#FFFFFF" d="M1453.343,816.369h11.697v-89.993h39.302v-9.902h-50.999V816.369"/>
		<path id="path22" fill="none" stroke="#FFFFFF" stroke-width="2.5" stroke-miterlimit="10" d="M1453.343,816.369h11.697v-89.993
			h39.302v-9.902h-50.999V816.369z"/>
		<path id="path24" fill="#FFFFFF" d="M1615.919,754.274l-33.435,62.095h13.037l26.697-50.999h0.154l26.697,50.999h11.25
			l-32.695-62.095v-37.8h-11.704V754.274"/>
		<path id="path26" fill="none" stroke="#FFFFFF" stroke-width="2.5" stroke-miterlimit="10" d="M1615.919,754.274l-33.435,62.095
			h13.037l26.697-50.999h0.154l26.697,50.999h11.25l-32.695-62.095v-37.8h-11.704V754.274z"/>
		<path id="path28" fill="#FFFFFF" d="M1833.668,766.271c0,22.5-12.744,42.151-36.584,42.151c-23.855,0-36.907-19.351-36.907-41.851
			s12.744-42.144,36.592-42.144C1820.631,724.428,1833.668,743.771,1833.668,766.271z M1747.879,766.271
			c0,27.451,18.149,51.907,48.889,51.907c30.754,0,49.204-24.155,49.204-51.606s-18.149-51.892-48.889-51.892
			C1766.329,714.68,1747.879,738.828,1747.879,766.271"/>
		<path id="path30" fill="none" stroke="#FFFFFF" stroke-width="2.5" stroke-miterlimit="10" d="M1833.668,766.271
			c0,22.5-12.744,42.151-36.584,42.151c-23.855,0-36.907-19.351-36.907-41.851s12.744-42.144,36.592-42.144
			C1820.631,724.428,1833.668,743.771,1833.668,766.271z M1747.879,766.271c0,27.451,18.149,51.907,48.889,51.907
			c30.754,0,49.204-24.155,49.204-51.606s-18.149-51.892-48.889-51.892C1766.329,714.68,1747.879,738.828,1747.879,766.271z"/>
		<path id="path32" fill="#FFFFFF" d="M1950.921,816.369h11.55l47.102-67.646c4.636-6.753,7.5-11.704,9.287-14.7h0.308
			c-0.161,1.956-0.608,6.152-0.608,13.499v68.848h10.803v-99.895h-10.803l-49.351,71.25c-2.988,4.204-5.999,9.749-7.793,12.898
			h-0.308c0.154-1.948,0.601-6.152,0.601-10.957v-73.191h-10.789V816.369"/>
		<path id="path34" fill="none" stroke="#FFFFFF" stroke-width="2.5" stroke-miterlimit="10" d="M1950.921,816.369h11.55
			l47.102-67.646c4.636-6.753,7.5-11.704,9.287-14.7h0.308c-0.161,1.956-0.608,6.152-0.608,13.499v68.848h10.803v-99.895h-10.803
			l-49.351,71.25c-2.988,4.204-5.999,9.749-7.793,12.898h-0.308c0.154-1.948,0.601-6.152,0.601-10.957v-73.191h-10.789V816.369z"/>
		<path id="path36" fill="#FFFFFF" stroke="#FFFFFF" stroke-miterlimit="10" d="M2252.115,759.372c0,10.356,8.408,18.75,18.75,18.75
			c10.356,0,18.75-8.394,18.75-18.75c0-10.349-8.394-18.604-18.75-18.604C2260.523,740.768,2252.115,749.023,2252.115,759.372"/>
		<path id="path38" fill="none" stroke="#FFFFFF" stroke-width="2.5" stroke-miterlimit="10" d="M2252.115,759.372
			c0,10.356,8.408,18.75,18.75,18.75c10.356,0,18.75-8.394,18.75-18.75c0-10.349-8.394-18.604-18.75-18.604
			C2260.523,740.768,2252.115,749.023,2252.115,759.372z"/>
		<path id="path40" fill="#FFFFFF" d="M2539.371,772.116c14.839,0,21.592,6.299,21.592,17.402s-7.2,16.963-22.493,16.963h-14.099
			v-34.365H2539.371z M2512.674,816.369h27.136c20.852,0,33.149-9.741,33.149-26.543c0-16.648-12.136-25.21-28.037-26.104v-0.308
			c1.948-1.348,4.651-4.343,10.496-12.437l24.741-34.504h-13.799l-20.098,28.352c-11.689,16.487-13.499,17.695-20.244,17.695h-1.648
			v-46.047h-11.697V816.369"/>
		<path id="path42" fill="none" stroke="#FFFFFF" stroke-width="2.5" stroke-miterlimit="10" d="M2539.371,772.116
			c14.839,0,21.592,6.299,21.592,17.402s-7.2,16.963-22.493,16.963h-14.099v-34.365H2539.371z M2512.674,816.369h27.136
			c20.852,0,33.149-9.741,33.149-26.543c0-16.648-12.136-25.21-28.037-26.104v-0.308c1.948-1.348,4.651-4.343,10.496-12.437
			l24.741-34.504h-13.799l-20.098,28.352c-11.689,16.487-13.499,17.695-20.244,17.695h-1.648v-46.047h-11.697V816.369z"/>
		<path id="path44" fill="#FFFFFF" d="M2680.04,816.369h11.711v-42.297h56.543v42.297h11.697v-99.895h-11.697v47.695h-56.543
			v-47.695h-11.711V816.369"/>
		<path id="path46" fill="none" stroke="#FFFFFF" stroke-width="2.5" stroke-miterlimit="10" d="M2680.04,816.369h11.711v-42.297
			h56.543v42.297h11.697v-99.895h-11.697v47.695h-56.543v-47.695h-11.711V816.369z"/>
		<path id="path48" fill="#FFFFFF" d="M2910.46,847.578h8.101l18.149-22.954h-10.349l-12.151,12.759l-11.851-12.759h-10.349
			L2910.46,847.578z M2951.109,766.271c0,22.5-12.744,42.151-36.599,42.151c-23.848,0-36.885-19.351-36.885-41.851
			s12.737-42.144,36.584-42.144C2938.065,724.428,2951.109,743.771,2951.109,766.271z M2865.313,766.271
			c0,27.451,18.157,51.907,48.896,51.907c30.754,0,49.204-24.155,49.204-51.606s-18.149-51.892-48.904-51.892
			C2883.763,714.68,2865.313,738.828,2865.313,766.271"/>
		<path id="path50" fill="none" stroke="#FFFFFF" stroke-width="2.5" stroke-miterlimit="10" d="M2910.46,847.578h8.101
			l18.149-22.954h-10.349l-12.151,12.759l-11.851-12.759h-10.349L2910.46,847.578z M2951.109,766.271
			c0,22.5-12.744,42.151-36.599,42.151c-23.848,0-36.885-19.351-36.885-41.851s12.737-42.144,36.584-42.144
			C2938.065,724.428,2951.109,743.771,2951.109,766.271z M2865.313,766.271c0,27.451,18.157,51.907,48.896,51.907
			c30.754,0,49.204-24.155,49.204-51.606s-18.149-51.892-48.904-51.892C2883.763,714.68,2865.313,738.828,2865.313,766.271z"/>
		<path id="path52" fill="#FFFFFF" d="M3068.355,816.369h11.536l47.102-67.646c4.651-6.753,7.5-11.704,9.309-14.7h0.293
			c-0.139,1.956-0.593,6.152-0.593,13.499v68.848h10.803v-99.895h-10.803l-49.351,71.25c-3.01,4.204-6.006,9.749-7.8,12.898h-0.308
			c0.161-1.948,0.608-6.152,0.608-10.957v-73.191h-10.796V816.369"/>
		<path id="path54" fill="none" stroke="#FFFFFF" stroke-width="2.5" stroke-miterlimit="10" d="M3068.355,816.369h11.536
			l47.102-67.646c4.651-6.753,7.5-11.704,9.309-14.7h0.293c-0.139,1.956-0.593,6.152-0.593,13.499v68.848h10.803v-99.895h-10.803
			l-49.351,71.25c-3.01,4.204-6.006,9.749-7.8,12.898h-0.308c0.161-1.948,0.608-6.152,0.608-10.957v-73.191h-10.796V816.369z"/>
		<path id="path56" fill="#FFFFFF" d="M3257.892,816.369h51.292v-9.888h-39.595v-32.109h34.79v-9.902h-34.79v-38.093h40.642v-9.902
			h-52.339V816.369"/>
		<path id="path58" fill="none" stroke="#FFFFFF" stroke-width="2.5" stroke-miterlimit="10" d="M3257.892,816.369h51.292v-9.888
			h-39.595v-32.109h34.79v-9.902h-34.79v-38.093h40.642v-9.902h-52.339V816.369z"/>
		<path id="path60" fill="#FFFFFF" d="M3406.639,764.323h30.161v9.602h-30.161V764.323z"/>
		<path id="path62" fill="none" stroke="#FFFFFF" stroke-width="2.5" stroke-miterlimit="10" d="M3406.639,764.323h30.161v9.602
			h-30.161V764.323z"/>
		<path id="path64" fill="#FFFFFF" d="M3588.104,751.118l-12.605,34.204c-3.157,8.401-4.497,12.598-6.145,17.241h-0.315
			c-1.648-4.944-3.296-9.595-6.138-17.241l-12.751-34.204H3588.104z M3563.949,816.369h11.404l38.401-99.895h-12.751l-9.148,24.749
			H3546.4l-9.148-24.749h-11.55L3563.949,816.369"/>
		<path id="path66" fill="none" stroke="#FFFFFF" stroke-width="2.5" stroke-miterlimit="10" d="M3588.104,751.118l-12.605,34.204
			c-3.157,8.401-4.497,12.598-6.145,17.241h-0.315c-1.648-4.944-3.296-9.595-6.138-17.241l-12.751-34.204H3588.104z
			 M3563.949,816.369h11.404l38.401-99.895h-12.751l-9.148,24.749H3546.4l-9.148-24.749h-11.55L3563.949,816.369z"/>
		<path id="path68" fill="#FFFFFF" d="M3713.341,816.369h11.704v-89.993h39.295v-9.902h-50.999V816.369"/>
		<path id="path70" fill="none" stroke="#FFFFFF" stroke-width="2.5" stroke-miterlimit="10" d="M3713.341,816.369h11.704v-89.993
			h39.295v-9.902h-50.999V816.369z"/>
		<path id="path72" fill="#FFFFFF" d="M3888.58,766.718c17.549,0,24.749,7.207,24.749,20.398c0,11.404-6.599,19.365-24.294,19.365
			h-12.151v-39.763H3888.58z M3865.179,816.369h25.056c20.098,0,35.098-9.595,35.098-28.806c0-19.644-13.499-30.74-36.753-30.74
			h-11.697v-40.349h-11.704V816.369"/>
		<path id="path74" fill="none" stroke="#FFFFFF" stroke-width="2.5" stroke-miterlimit="10" d="M3888.58,766.718
			c17.549,0,24.749,7.207,24.749,20.398c0,11.404-6.599,19.365-24.294,19.365h-12.151v-39.763H3888.58z M3865.179,816.369h25.056
			c20.098,0,35.098-9.595,35.098-28.806c0-19.644-13.499-30.74-36.753-30.74h-11.697v-40.349h-11.704V816.369z"/>
		<path id="path76" fill="#FFFFFF" d="M4026.781,816.369h51.292v-9.888h-39.587v-32.109h34.79v-9.902h-34.79v-38.093h40.635v-9.902
			h-52.339V816.369"/>
		<path id="path78" fill="none" stroke="#FFFFFF" stroke-width="2.5" stroke-miterlimit="10" d="M4026.781,816.369h51.292v-9.888
			h-39.587v-32.109h34.79v-9.902h-34.79v-38.093h40.635v-9.902h-52.339V816.369z"/>
		<path id="path80" fill="#FFFFFF" d="M4177.674,724.868l5.991,8.401c2.256-2.095,9.456-8.84,22.793-8.84
			c12.305,0,20.413,8.093,20.413,16.948c0,12.144-11.411,17.241-22.947,22.947c-12.151,5.999-23.262,12.444-23.262,28.352
			c0,16.355,13.799,25.503,29.106,25.503c14.846,0,22.939-5.398,26.25-7.947l-5.706-8.708c-3.442,2.695-10.188,6.899-20.698,6.899
			c-9.895,0-17.395-5.999-17.395-15.154c0-9.902,8.093-14.546,17.988-19.197c13.206-6.299,28.506-13.052,28.506-32.549
			c0-15.754-13.352-26.843-32.695-26.843C4190.711,714.68,4181.263,721.425,4177.674,724.868"/>
		<path id="path82" fill="none" stroke="#FFFFFF" stroke-width="2.5" stroke-miterlimit="10" d="M4177.674,724.868l5.991,8.401
			c2.256-2.095,9.456-8.84,22.793-8.84c12.305,0,20.413,8.093,20.413,16.948c0,12.144-11.411,17.241-22.947,22.947
			c-12.151,5.999-23.262,12.444-23.262,28.352c0,16.355,13.799,25.503,29.106,25.503c14.846,0,22.939-5.398,26.25-7.947
			l-5.706-8.708c-3.442,2.695-10.188,6.899-20.698,6.899c-9.895,0-17.395-5.999-17.395-15.154c0-9.902,8.093-14.546,17.988-19.197
			c13.206-6.299,28.506-13.052,28.506-32.549c0-15.754-13.352-26.843-32.695-26.843
			C4190.711,714.68,4181.263,721.425,4177.674,724.868z"/>
		<path id="path84" fill="#FFFFFF" d="M1436.388,948.593l11.902,16.67c4.468-4.167,18.757-17.563,45.249-17.563
			c24.412,0,40.488,16.077,40.488,33.64c0,24.119-22.617,34.233-45.549,45.549c-24.104,11.909-46.135,24.712-46.135,56.265
			c0,32.454,27.385,50.618,57.751,50.618c29.48,0,45.549-10.723,52.097-15.791l-11.309-17.263
			c-6.855,5.361-20.251,13.696-41.089,13.696c-19.644,0-34.534-11.917-34.534-30.066c0-19.651,16.084-28.879,35.728-38.108
			c26.191-12.502,56.565-25.898,56.565-64.6c0-31.26-26.499-53.291-64.9-53.291C1462.293,928.349,1443.529,941.745,1436.388,948.593
			"/>
		<path id="path86" fill="#FFFFFF" d="M1683.851,1000.69l-25.012,67.866c-6.248,16.677-8.928,25.012-12.202,34.241h-0.593
			c-3.274-9.814-6.555-19.05-12.202-34.241l-25.313-67.866H1683.851z M1635.921,1130.19h22.617l76.223-198.267h-25.313
			l-18.157,49.124h-90.205l-18.157-49.124h-22.932L1635.921,1130.19"/>
		<path id="path88" fill="#FFFFFF" d="M1750.772,1130.19h23.218V951.567h77.988v-19.644h-101.206V1130.19"/>
		<path id="path90" fill="#FFFFFF" d="M2019.483,1030.764c0,44.648-25.305,83.65-72.634,83.65
			c-47.336,0-73.242-38.401-73.242-83.057c0-44.656,25.313-83.657,72.642-83.657S2019.483,986.108,2019.483,1030.764z
			 M1849.203,1030.764c0,54.463,36.021,103.008,97.046,103.008c61.033,0,97.654-47.944,97.654-102.415
			c0-54.485-36.021-103.008-97.053-103.008C1885.824,928.349,1849.203,976.279,1849.203,1030.764"/>
		<path id="path92" fill="#FFFFFF" d="M2070.599,1130.19h22.932l93.472-134.26c9.229-13.403,14.875-23.225,18.457-29.172h0.593
			c-0.293,3.867-1.194,12.209-1.194,26.792v136.641h21.438V931.923h-21.438l-97.939,141.409
			c-5.947,8.335-11.909,19.358-15.476,25.598h-0.601c0.3-3.867,1.194-12.202,1.194-21.731V931.923h-21.438V1130.19"/>
		<path id="path94" fill="#FFFFFF" d="M2367.142,950.974c57.158,0,87.231,28.286,87.231,81.87c0,53.884-28.279,78.296-88.711,78.296
			h-22.332V950.974H2367.142z M2320.113,1130.19h46.436c78.003,0,112.236-39.587,112.236-96.753
			c0-57.158-34.541-101.514-113.723-101.514h-44.949V1130.19"/>
		<path id="path96" fill="#FFFFFF" d="M2505.782,1130.19h101.807v-19.651H2529v-63.699h69.075v-19.651H2529v-75.622h80.684v-19.644
			h-103.901V1130.19"/>
		<path id="path98" fill="#FFFFFF" d="M2692.755,1130.19h23.218V951.567h78.003v-19.644h-101.221V1130.19"/>
		<path id="path100" fill="#FFFFFF" d="M2785.055,1093.283c0,11.309-11.616,13.396-11.616,25.898c0,8.328,6.855,14.59,16.084,14.59
			c10.107,0,19.343-7.749,19.343-21.138c0-19.651-13.096-40.195-18.75-47.043h-16.077
			C2778.214,1071.252,2785.055,1082.267,2785.055,1093.283"/>
		<path id="path102" fill="#FFFFFF" d="M2839.063,931.923h23.218v198.267h-23.218V931.923z"/>
		<path id="path104" fill="#FFFFFF" d="M2917.191,1130.19h21.738l49.124-134.861c5.94-16.67,8.921-25.305,12.502-36.606h0.586
			c3.274,10.708,6.548,20.244,12.502,36.606l49.116,134.861h22.031l26.799-198.267h-23.518l-16.97,129.8
			c-1.78,14.29-2.681,21.738-3.281,27.678h-0.586c-2.08-6.841-4.475-14.883-8.936-27.378l-47.036-130.1h-22.324l-48.237,130.1
			c-4.746,12.795-7.141,20.537-9.521,27.378h-0.586c-0.601-7.134-1.494-14.883-2.981-28.271l-15.784-129.206h-21.738
			L2917.191,1130.19"/>
		<path id="path106" fill="#FFFFFF" d="M3154.701,1130.19h21.738l49.124-134.861c5.94-16.67,8.921-25.305,12.502-36.606h0.586
			c3.274,10.708,6.548,20.244,12.502,36.606l49.116,134.861h22.031l26.799-198.267h-23.518l-16.97,129.8
			c-1.78,14.29-2.681,21.738-3.281,27.678h-0.586c-2.08-6.841-4.475-14.883-8.936-27.378l-47.036-130.1h-22.324l-48.23,130.1
			c-4.753,12.795-7.148,20.537-9.529,27.378h-0.586c-0.601-7.134-1.494-14.883-2.981-28.271l-15.769-129.206h-21.738
			L3154.701,1130.19"/>
		<path id="path108" fill="#FFFFFF" d="M3532.645,1030.764c0,44.648-25.313,83.65-72.642,83.65s-73.242-38.401-73.242-83.057
			c0-44.656,25.313-83.657,72.642-83.657C3506.739,947.7,3532.645,986.108,3532.645,1030.764z M3362.35,1030.764
			c0,54.463,36.021,103.008,97.053,103.008s97.639-47.944,97.639-102.415c0-54.485-36.013-103.008-97.039-103.008
			C3398.963,928.349,3362.35,976.279,3362.35,1030.764"/>
		<path id="path110" fill="#FFFFFF" d="M3634.913,951.267c35.127,0,50.911,10.723,50.911,35.735
			c0,23.811-12.803,39.001-49.124,39.001h-29.766v-74.736H3634.913z M3634.02,1045.053c30.366,0,43.469,11.008,43.469,34.233
			c0,22.024-14.89,31.553-42.869,31.553h-27.686v-65.786H3634.02z M3584.002,1130.19h52.412c36.907,0,64.885-13.689,64.885-49.417
			c0-23.225-13.689-38.101-35.42-43.762v-0.593c24.404-4.167,44.055-21.438,44.055-48.823c0-40.488-30.073-55.671-74.421-55.671
			h-51.511V1130.19"/>
		<path id="path112" fill="#FFFFFF" d="M3739.012,931.923h23.225v198.267h-23.225V931.923z"/>
		<path id="path114" fill="#FFFFFF" d="M3801.722,1130.19h23.218V951.567h78.003v-19.644h-101.221V1130.19"/>
		<path id="path116" fill="#FFFFFF" d="M3922.272,931.923h23.225v198.267h-23.225V931.923z"/>
		<path id="path118" fill="#FFFFFF" d="M3984.982,1130.19h101.814v-19.651h-78.604v-63.699h69.082v-19.651h-69.082v-75.622h80.691
			v-19.644h-103.901V1130.19"/>
		<path id="path120" fill="#FFFFFF" d="M4165.025,1042.38c29.465,0,42.854,12.502,42.854,34.519c0,22.031-14.29,33.64-44.648,33.64
			h-27.986v-68.159H4165.025z M4112.035,1130.19h53.877c41.382,0,65.793-19.351,65.793-52.69c0-33.047-24.111-50.017-55.664-51.797
			v-0.593c3.86-2.688,9.221-8.628,20.837-24.719l49.116-68.467h-27.393l-39.888,56.265c-23.225,32.754-26.807,35.134-40.181,35.134
			h-3.296v-91.399h-23.21v198.267"/>
		<path id="path122" fill="#FFFFFF" d="M1450.853,605.226h10.847V530.3h35.911v-9.104h-46.758V605.226"/>
		<path id="path124" fill="#FFFFFF" d="M1575.592,521.196v35.662l-26.565,48.369h12.356l11.836-23.188
			c3.245-6.357,5.735-11.47,8.35-17.329h0.249c2.373,5.493,5.244,10.972,8.481,17.329l12.092,23.188h12.341l-28.169-48.245v-35.786
			H1575.592"/>
		<path id="path126" fill="#FFFFFF" d="M1683.873,562.709c0-17.937,9.719-34.028,26.799-34.028c17.197,0,26.931,15.828,26.931,34.9
			c0,16.707-8.73,34.16-26.814,34.16C1692.838,597.741,1683.873,581.159,1683.873,562.709z M1749.058,564.079
			c0-28.909-17.578-44.246-39.016-44.246c-22.185,0-37.771,17.197-37.771,42.627c0,26.682,16.582,44.136,39.016,44.136
			C1734.227,606.596,1749.058,589.018,1749.058,564.079"/>
		<path id="path128" fill="#FFFFFF" d="M1816.09,521.196v84.031h11.851l26.931-42.517c6.226-9.851,11.089-18.699,15.081-27.297
			l0.249,0.125c-1.003,11.228-1.238,21.445-1.238,34.534v35.156h10.21v-84.031h-10.972l-26.675,42.642
			c-5.859,9.346-11.47,18.94-15.703,28.044l-0.381-0.117c0.63-10.605,0.879-20.706,0.879-34.658v-35.911H1816.09"/>
		<path id="path130" fill="#FFFFFF" d="M2031.993,521.196h12.656v98.123h-12.656V521.196z"/>
		<path id="path132" fill="#FFFFFF" d="M2229.681,523.95c-3.992-2-11.968-3.999-22.192-3.999c-23.687,0-41.521,14.956-41.521,42.51
			c0,26.309,17.834,44.136,43.879,44.136c10.481,0,17.08-2.241,19.951-3.743l-2.615-8.855c-4.116,2-9.976,3.501-16.956,3.501
			c-19.695,0-32.791-12.598-32.791-34.658c0-20.574,11.843-33.787,32.292-33.787c6.614,0,13.337,1.377,17.703,3.494L2229.681,523.95
			"/>
		<path id="path134" fill="#FFFFFF" d="M2296.2,521.196h10.854v84.031H2296.2V521.196z"/>
		<path id="path136" fill="#FFFFFF" d="M2389.752,595.998h-25.562v9.229h62.212v-9.229h-25.679v-74.802h-10.972V595.998"/>
		<path id="path138" fill="#FFFFFF" d="M2532.193,560.6h-32.659v-30.3h36.394v-9.104h-47.249v84.031h45.381v-9.104h-34.526v-26.55
			h32.659V560.6"/>
		<path id="path140" fill="#FFFFFF" d="M2655.833,521.196h10.847v84.031h-10.847V521.196z"/>
		<path id="path142" fill="#FFFFFF" d="M2738.539,521.196v84.031h11.843l26.931-42.517c6.226-9.851,11.089-18.699,15.081-27.297
			l0.249,0.125c-0.989,11.228-1.238,21.445-1.238,34.534v35.156h10.217v-84.031h-10.979l-26.667,42.642
			c-5.867,9.346-11.47,18.94-15.71,28.044l-0.374-0.117c0.623-10.605,0.872-20.706,0.872-34.658v-35.911h-10.217"/>
		<path id="path144" fill="#FFFFFF" d="M2884.349,595.998h-25.554v9.229H2921v-9.229h-25.679v-74.802h-10.972V595.998"/>
		<path id="path146" fill="#FFFFFF" d="M3026.783,560.6h-32.659v-30.3h36.394v-9.104h-47.249v84.031h45.381v-9.104h-34.526v-26.55
			h32.659V560.6"/>
		<path id="path148" fill="#FFFFFF" d="M3108.382,565.829h11.089c11.594,0,18.948,6.365,18.948,15.959
			c0,10.854-7.844,15.579-19.314,15.71c-5.244,0-8.972-0.513-10.723-1.011V565.829z M3097.535,604.099
			c5.486,1.128,13.337,1.75,20.815,1.75c11.594,0,19.072-2.117,24.309-6.863c4.233-3.735,6.614-9.463,6.614-15.945
			c0-11.104-6.98-18.464-15.835-21.453v-0.366c6.482-2.256,10.342-8.232,12.334-16.956c2.747-11.719,4.746-19.827,6.489-23.071
			h-11.221c-1.37,2.373-3.252,9.602-5.61,20.076c-2.49,11.587-6.98,15.959-16.831,16.34h-10.217v-36.416h-10.847v82.91"/>
		<path id="path150" fill="#FFFFFF" d="M3217.535,521.196v84.031h11.851l26.917-42.517c6.24-9.851,11.089-18.699,15.088-27.297
			l0.242,0.125c-0.996,11.228-1.238,21.445-1.238,34.534v35.156h10.225v-84.031h-10.979l-26.675,42.642
			c-5.859,9.346-11.47,18.94-15.703,28.044l-0.381-0.117c0.623-10.605,0.872-20.706,0.872-34.658v-35.911H3217.535"/>
		<path id="path152" fill="#FFFFFF" d="M3393.639,556.103l-8.225,24.185c-1.875,5.493-3.12,10.474-4.365,15.337h-0.249
			c-1.245-4.995-2.615-10.093-4.241-15.205l-8.225-24.316H3393.639z M3366.092,547.629l-8.73-26.433h-11.221l28.55,84.031h13.088
			l28.682-84.031h-11.602l-8.965,26.433H3366.092"/>
		<path id="path154" fill="#FFFFFF" d="M3492.574,595.998h-25.562v9.229h62.212v-9.229h-25.686v-74.802h-10.964V595.998"/>
		<path id="path156" fill="#FFFFFF" d="M3591.495,521.196h10.847v84.031h-10.847V521.196z"/>
		<path id="path158" fill="#FFFFFF" d="M3680.814,562.709c0-17.937,9.719-34.028,26.799-34.028c17.197,0,26.931,15.828,26.931,34.9
			c0,16.707-8.73,34.16-26.814,34.16C3689.793,597.741,3680.814,581.159,3680.814,562.709z M3746.014,564.079
			c0-28.909-17.585-44.246-39.023-44.246c-22.2,0-37.771,17.197-37.771,42.627c0,26.682,16.575,44.136,39.009,44.136
			C3731.175,606.596,3746.014,589.018,3746.014,564.079"/>
		<path id="path160" fill="#FFFFFF" d="M3813.046,521.196v84.031h11.836l26.931-42.517c6.24-9.851,11.089-18.699,15.081-27.297
			l0.249,0.125c-1.003,11.228-1.238,21.445-1.238,34.534v35.156h10.217v-84.031h-10.972l-26.675,42.642
			c-5.867,9.346-11.47,18.94-15.71,28.044l-0.374-0.117c0.623-10.605,0.872-20.706,0.872-34.658v-35.911H3813.046"/>
		<path id="path162" fill="#FFFFFF" d="M3989.149,556.103l-8.225,24.185c-1.875,5.493-3.12,10.474-4.365,15.337h-0.249
			c-1.245-4.995-2.615-10.093-4.241-15.205l-8.225-24.316H3989.149z M3961.603,547.629l-8.73-26.433h-11.221l28.55,84.031h13.088
			l28.674-84.031h-11.594l-8.965,26.433H3961.603"/>
		<path id="path164" fill="#FFFFFF" d="M4077.245,605.226h10.847V530.3h35.888v-9.104h-46.736V605.226"/>
		<path id="path166" fill="#FFFFFF" d="M4232.511,560.6h-32.659v-30.3h36.401v-9.104h-47.249v84.031h45.374v-9.104h-34.526v-26.55
			h32.659V560.6"/>
		<path id="path168" fill="#FFFFFF" d="M4813.893,733.84l-43.66,117.759c-4.578,12.4-8.621,24.8-8.621,24.8h-0.542
			c0,0-1.34-13.477-2.688-25.598l-14.29-116.96h-19.673l24.521,179.473h19.673l44.458-122.08
			c5.933-15.894,11.316-33.142,11.316-33.142h0.557c0,0,5.376,17.249,11.309,33.142l44.458,122.08h19.937l24.265-179.473h-21.292
			l-15.359,117.495c-1.611,12.129-2.959,25.063-2.959,25.063h-0.549c0,0-3.765-12.935-8.071-24.8l-42.583-117.759H4813.893"/>
		<path id="path170" fill="#FFFFFF" d="M5035.165,857.538c-5.662,15.088-11.052,30.981-11.052,30.981h-0.542
			c0,0-5.391-16.165-11.038-30.981l-22.91-61.45h68.167C5058.075,796.088,5035.165,857.538,5035.165,857.538z M4966.442,733.84
			h-20.75l68.723,179.473h20.479l68.987-179.473h-22.896l-16.45,44.465c0,0-81.379,0-81.65,0L4966.442,733.84"/>
		<path id="path172" fill="#FFFFFF" d="M5181.781,895.522h-25.342v-61.707h26.96c26.675,0,38.804,11.316,38.804,31.26
			S5209.269,895.522,5181.781,895.522z M5231.901,733.84l-36.108,50.933c-21.021,29.648-24.25,31.794-36.379,31.794h-2.974V733.84
			h-21.006v179.473h48.772c37.456,0,59.561-17.512,59.561-47.703c0-29.912-21.833-45.264-50.391-46.882v-0.535
			c3.486-2.424,8.35-7.822,18.86-22.375l44.458-61.978H5231.901"/>
		<path id="path174" fill="#FFFFFF" d="M5326.515,730.61c-27.48,0-44.465,12.122-50.933,18.318l10.789,15.095
			c4.043-3.779,16.97-15.908,40.95-15.908c22.104,0,36.65,14.568,36.65,30.461c0,21.826-20.479,30.989-41.228,41.228
			c-21.819,10.781-41.763,22.375-41.763,50.933c0,29.37,24.792,45.813,52.273,45.813c26.682,0,41.228-9.705,47.161-14.29
			l-10.239-15.63c-6.204,4.856-18.333,12.4-37.185,12.4c-17.798,0-31.26-10.781-31.26-27.217c0-17.783,14.553-26.14,32.329-34.49
			c23.716-11.316,51.204-23.452,51.204-58.484C5385.263,750.554,5361.283,730.61,5326.515,730.61"/>
		<path id="path176" fill="#FFFFFF" d="M4759.401,1139.389h-0.608l-34.644-18.699l-5.208,20.537l43.528,23.306h22.991V965.27h-26.06
			V1139.389"/>
		<path id="path178" fill="#FFFFFF" d="M4987.462,1164.533v-17.783l-86.748-181.479h-27.905l86.455,176.257v0.623h-97.478v22.383
			H4987.462"/>
		<path id="path180" fill="#FFFFFF" d="M5160.351,1139.389h-0.608l-34.644-18.699l-5.208,20.537l43.528,23.306h22.991V965.27h-26.06
			V1139.389"/>
		<path id="path182" fill="#FFFFFF" d="M5284.496,1098.93c0-24.836,15.015-42.312,38.313-42.312c18.091,0,32.19,8.892,39.243,20.845
			c1.531,2.454,2.454,5.515,2.454,9.807c0,34.028-12.576,60.088-40.774,60.088
			C5300.741,1147.358,5284.496,1127.128,5284.496,1098.93L5284.496,1098.93z M5274.682,984.277c5.83-0.615,12.568,0,21.76,0.916
			c15.637,2.146,30.359,8.584,41.689,19.321c13.191,11.946,22.69,29.414,26.375,53.027h-0.923
			c-11.03-13.491-26.982-21.46-46.897-21.46c-35.874,0-58.865,26.982-58.865,61.011c0,37.698,27.29,70.796,68.064,70.796
			c40.767,0,65.911-33.098,65.911-83.987c0-43.828-14.722-74.487-34.343-93.494c-15.33-15.022-36.482-24.221-57.942-26.675
			c-9.8-1.531-18.391-1.838-24.829-1.531V984.277"/>
		<path id="path184" fill="#FFFFFF" d="M4722.985,465.927v18.105l23.115,22.456c55.664,52.976,80.793,81.13,81.145,113.98
			c0,22.126-10.745,42.576-43.264,42.576c-19.768,0-36.196-10.056-46.26-18.435l-9.375,20.779
			c15.088,12.751,36.541,22.134,61.677,22.134c46.934,0,66.724-32.19,66.724-63.362c0-40.232-29.172-72.737-75.103-116.997
			l-17.432-16.091v-0.674h97.888v-24.47H4722.985"/>
		<path id="path186" fill="#FFFFFF" d="M4921.464,573.879c0-56.66,17.439-88.843,44.246-88.843c30.183,0,44.59,35.193,44.59,90.857
			c0,53.628-13.748,88.835-44.26,88.835C4940.236,664.728,4921.464,633.212,4921.464,573.879z M5039.801,577.233
			c0-74.106-27.488-114.998-75.769-114.998c-42.568,0-71.396,39.895-72.07,111.973c0,73.088,31.523,113.313,75.762,113.313
			C5013.654,687.521,5039.801,646.623,5039.801,577.233"/>
		<path id="path188" fill="#FFFFFF" d="M5130.995,656.342h-0.659l-37.881-20.449l-5.706,22.456l47.6,25.481h25.144V465.927h-28.499
			V656.342"/>
		<path id="path190" fill="#FFFFFF" d="M5380.443,683.83v-19.446l-94.871-198.457h-30.498l94.526,192.766v0.659h-106.597v24.478
			H5380.443"/>
		<path id="path192" fill="#FFFFFF" d="M5032.689,1049.799c0,10.349,8.401,18.75,18.75,18.75c10.356,0,18.75-8.401,18.75-18.75
			s-8.394-18.596-18.75-18.596C5041.09,1031.203,5032.689,1039.45,5032.689,1049.799"/>
	</g>
</g>
</svg>
