<?xml version="1.0" encoding="utf-8"?>
<!-- Generator: Adobe Illustrator 15.1.0, SVG Export Plug-In . SVG Version: 6.00 Build 0)  -->
<!DOCTYPE svg PUBLIC "-//W3C//DTD SVG 1.1//EN" "http://www.w3.org/Graphics/SVG/1.1/DTD/svg11.dtd">
<svg version="1.1" id="Calque_1" xmlns="http://www.w3.org/2000/svg" xmlns:xlink="http://www.w3.org/1999/xlink" x="0px" y="0px"
	 width="131.291px" height="82.158px" viewBox="0 0 131.291 82.158" enable-background="new 0 0 131.291 82.158"
	 xml:space="preserve">
<g>
	<defs>
		<rect id="SVGID_1_" y="0" width="131.291" height="82.158"/>
	</defs>
	<clipPath id="SVGID_2_">
		<use xlink:href="#SVGID_1_"  overflow="visible"/>
	</clipPath>
	<path clip-path="url(#SVGID_2_)" fill="#1A04C4" d="M128.315,17.597h-7.93v5.954h4.951v52.651H24.307v-4.197h-5.958v7.174
		c0,1.646,1.335,2.978,2.979,2.978h106.987c1.644,0,2.976-1.331,2.976-2.978V20.572C131.291,18.929,129.959,17.597,128.315,17.597
		 M65.646,32.089c-1.489-1.237-3.584-2.058-6.276-2.471l-1.615-0.238V19.105c1.49,0.161,2.693,0.447,3.613,0.86
		c0.823,0.378,1.695,0.948,2.615,1.71l3.281-3.236c-1.586-1.36-2.972-2.286-4.159-2.78c-1.19-0.492-2.847-0.832-4.97-1.023v-4.23
		H54.28v4.278c-1.68,0.255-3.072,0.612-4.183,1.073c-1.109,0.455-2.155,1.214-3.139,2.254c-1.586,1.744-2.377,3.936-2.377,6.562
		c0,2.54,0.788,4.613,2.354,6.233c1.571,1.617,3.748,2.582,6.54,2.9l1.236,0.143v10.558c-1.872-0.128-3.41-0.46-4.614-1.001
		c-0.98-0.443-2.061-1.203-3.232-2.28l-3.427,3.423c1.715,1.586,3.34,2.685,4.874,3.303c1.541,0.619,3.53,1.007,5.968,1.164v5.138
		h3.854v-5.279c2.313-0.346,4.011-0.807,5.085-1.376c3.488-1.808,5.235-4.629,5.235-8.467C68.454,36.02,67.518,33.706,65.646,32.089
		 M54.711,29.046c-1.776-0.287-3.076-0.808-3.899-1.571c-0.827-0.758-1.235-1.822-1.235-3.185c0-2.979,1.708-4.69,5.134-5.136
		V29.046z M61.914,42.789c-0.969,0.761-2.355,1.283-4.16,1.57V34.183c1.805,0.253,3.191,0.726,4.16,1.426
		c0.968,0.697,1.451,1.884,1.451,3.566C63.365,40.823,62.882,42.029,61.914,42.789 M112.941,61.583V2.975
		c0-1.643-1.332-2.975-2.979-2.975H2.979C1.333,0,0,1.332,0,2.975v58.607c0,1.643,1.332,2.979,2.978,2.979h106.984
		C111.609,64.561,112.941,63.225,112.941,61.583 M11.62,5.294c3.532,0,6.408,2.877,6.408,6.408c0,3.536-2.876,6.413-6.408,6.413
		c-3.532,0-6.408-2.877-6.408-6.413C5.212,8.171,8.088,5.294,11.62,5.294 M11.62,59.433c-3.532,0-6.408-2.874-6.408-6.408
		c0-3.535,2.876-6.41,6.408-6.41c3.535,0,6.411,2.875,6.411,6.41C18.031,56.559,15.155,59.433,11.62,59.433 M20.939,58.602
		c0.982-1.634,1.557-3.538,1.557-5.577c0-5.996-4.88-10.877-10.876-10.877c-2.075,0-4.012,0.596-5.665,1.609V20.972
		c1.653,1.012,3.587,1.607,5.665,1.607c5.996,0,10.876-4.88,10.876-10.877c0-2.113-0.617-4.078-1.663-5.748H39.15
		c-8.551,5.648-14.216,15.332-14.216,26.329c0,10.992,5.662,20.675,14.213,26.319H20.939z M50.271,58.602
		c-11.944-2.81-20.868-13.529-20.868-26.319c0-12.792,8.924-23.515,20.868-26.329H62.67c11.944,2.814,20.872,13.537,20.872,26.329
		c0,12.79-8.928,23.509-20.872,26.319H50.271z M92.002,58.602H73.794c8.551-5.644,14.213-15.327,14.213-26.319
		c0-10.997-5.662-20.681-14.216-26.329h18.314c-1.046,1.67-1.66,3.635-1.66,5.748c0,5.997,4.88,10.877,10.877,10.877
		c2.074,0,4.011-0.595,5.665-1.607v22.785c-1.654-1.014-3.591-1.609-5.665-1.609c-5.997,0-10.877,4.881-10.877,10.877
		C90.445,55.064,91.021,56.968,92.002,58.602 M101.322,59.433c-3.536,0-6.412-2.874-6.412-6.408c0-3.535,2.876-6.41,6.412-6.41
		c3.535,0,6.408,2.875,6.408,6.41C107.73,56.559,104.857,59.433,101.322,59.433 M101.322,18.115c-3.536,0-6.412-2.877-6.412-6.413
		c0-3.531,2.876-6.408,6.412-6.408c3.535,0,6.408,2.877,6.408,6.408C107.73,15.238,104.857,18.115,101.322,18.115"/>
</g>
</svg>
