<?xml version="1.0" encoding="utf-8"?>
<!-- Generator: Adobe Illustrator 15.1.0, SVG Export Plug-In . SVG Version: 6.00 Build 0)  -->
<!DOCTYPE svg PUBLIC "-//W3C//DTD SVG 1.1//EN" "http://www.w3.org/Graphics/SVG/1.1/DTD/svg11.dtd">
<svg version="1.1"
	 id="svg2" xmlns:dc="http://purl.org/dc/elements/1.1/" xmlns:rdf="http://www.w3.org/1999/02/22-rdf-syntax-ns#" xmlns:cc="http://creativecommons.org/ns#" xmlns:svg="http://www.w3.org/2000/svg"
	 xmlns="http://www.w3.org/2000/svg" xmlns:xlink="http://www.w3.org/1999/xlink" x="0px" y="0px" width="573px" height="110px"
	 viewBox="98.833 53.833 573 110" enable-background="new 98.833 53.833 573 110" xml:space="preserve">
<g id="g10" transform="matrix(1.3333333,0,0,-1.3333333,0,226.66667)">
	<g id="g12" transform="scale(0.1)">
		<path id="path16" fill="#FFFFFF" d="M1692.512,1022.281l11.792,16.501c4.417-4.124,18.567-17.395,44.788-17.395
			c24.155,0,40.071,15.923,40.071,33.303c0,23.87-22.39,33.882-45.081,45.081c-23.87,11.777-45.674,24.456-45.674,55.686
			c0,32.109,27.114,50.09,57.166,50.09c29.165,0,45.073-10.605,51.555-15.615l-11.191-17.095
			c-6.775,5.31-20.039,13.564-40.664,13.564c-19.446,0-34.182-11.792-34.182-29.766c0-19.446,15.923-28.579,35.369-37.72
			c25.92-12.363,55.979-25.627,55.979-63.933c0-30.93-26.228-52.742-64.241-52.742
			C1718.147,1002.242,1699.58,1015.499,1692.512,1022.281"/>
		<path id="path18" fill="#FFFFFF" d="M1947.79,1073.844l-24.749,67.178c-6.182,16.501-8.84,24.749-12.085,33.882h-0.579
			c-3.245-9.727-6.489-18.853-12.085-33.882l-25.042-67.178H1947.79z M1900.359,1202.017h22.39l75.432-196.238h-25.049
			l-17.974,48.618h-89.275l-17.974-48.618h-22.69L1900.359,1202.017"/>
		<path id="path20" fill="#FFFFFF" d="M2024.328,1202.017h22.983v-176.785h77.197v-19.453h-100.181V1202.017"/>
		<path id="path22" fill="#FFFFFF" d="M2300.642,1103.602c0,44.202-25.042,82.8-71.895,82.8c-46.846,0-72.488-38.013-72.488-82.214
			c0-44.194,25.049-82.8,71.902-82.8C2275.007,1021.388,2300.642,1059.408,2300.642,1103.602L2300.642,1103.602z M2132.097,1103.602
			c0,53.921,35.662,101.946,96.064,101.946c60.396,0,96.636-47.439,96.636-101.36s-35.647-101.946-96.05-101.946
			C2168.352,1002.242,2132.097,1049.681,2132.097,1103.602"/>
		<path id="path24" fill="#FFFFFF" d="M2361.521,1202.017h22.69l92.52-132.891c9.126-13.257,14.729-22.983,18.267-28.879h0.593
			c-0.3,3.845-1.179,12.085-1.179,26.521v135.249h21.218V1005.78h-21.218l-96.943,139.951c-5.889,8.247-11.792,19.16-15.322,25.342
			h-0.586c0.3-3.831,1.179-12.07,1.179-21.504V1005.78h-21.218V1202.017"/>
		<path id="path26" fill="#FFFFFF" d="M2628.408,1202.017h22.683l92.52-132.891c9.126-13.257,14.729-22.983,18.267-28.879h0.593
			c-0.293,3.845-1.179,12.085-1.179,26.521v135.249h21.218V1005.78h-21.218l-96.936,139.951c-5.896,8.247-11.785,19.16-15.33,25.342
			h-0.586c0.3-3.831,1.179-12.07,1.179-21.504V1005.78h-21.211V1202.017"/>
		<path id="path28" fill="#FFFFFF" d="M2931.22,1073.844l-24.749,67.178c-6.196,16.501-8.833,24.749-12.085,33.882h-0.586
			c-3.245-9.727-6.482-18.853-12.085-33.882l-25.042-67.178H2931.22z M2883.781,1202.017h22.39l75.425-196.238h-25.042
			l-17.974,48.618h-89.275l-17.966-48.618h-22.69L2883.781,1202.017"/>
		<path id="path30" fill="#FFFFFF" d="M3023.762,1182.572h-55.693v19.446h134.648v-19.446h-55.686V1005.78h-23.269V1182.572"/>
		<path id="path32" fill="#FFFFFF" d="M3129.751,1005.78h22.969v196.238h-22.969V1005.78z"/>
		<path id="path34" fill="#FFFFFF" d="M3359.541,1103.602c0,44.202-25.042,82.8-71.895,82.8c-46.846,0-72.48-38.013-72.48-82.214
			c0-44.194,25.042-82.8,71.895-82.8C3333.906,1021.388,3359.541,1059.408,3359.541,1103.602L3359.541,1103.602z M3191.01,1103.602
			c0,53.921,35.647,101.946,96.05,101.946c60.396,0,96.65-47.439,96.65-101.36s-35.654-101.946-96.064-101.946
			C3227.251,1002.242,3191.01,1049.681,3191.01,1103.602"/>
		<path id="path36" fill="#FFFFFF" d="M3420.42,1202.017h22.69l92.52-132.891c9.141-13.257,14.729-22.983,18.267-28.879h0.579
			c-0.286,3.845-1.165,12.085-1.165,26.521v135.249h21.211V1005.78h-21.211l-96.943,139.951c-5.889,8.247-11.792,19.16-15.33,25.342
			h-0.579c0.293-3.831,1.179-12.07,1.179-21.504V1005.78h-21.218V1202.017"/>
		<path id="path38" fill="#FFFFFF" d="M3723.24,1073.844l-24.741,67.178c-6.196,16.501-8.84,24.749-12.078,33.882h-0.601
			c-3.245-9.727-6.482-18.853-12.085-33.882l-25.034-67.178H3723.24z M3675.801,1202.017h22.397l75.432-196.238h-25.049
			l-17.974,48.618h-89.282l-17.966-48.618h-22.69L3675.801,1202.017"/>
		<path id="path40" fill="#FFFFFF" d="M3799.785,1202.017h22.976v-176.785h77.197v-19.453h-100.173V1202.017"/>
		<path id="path42" fill="#FFFFFF" d="M1026.359,1057.679c8.394,1.538,27.048-0.022,36.138,0.388
			c11.873,0.535,21.27-4.277,33.296-0.359c9.47,3.091,9.771,0.894,17.358,10.005c3.01,3.625,4.885,14.495,2.271,16.399
			c-4.592,3.354,1.736,10.188-2.271,12.385c-1.062,6.27-1.56,12.891-3.289,18.823c-8.02,27.466,9.419,24.961-43.784,20.977
			c-9.009-0.659-31.919,1.772-39.631-2.256c-5.757-3.025,1.252-17.38-2.695-24.434c-10.305-18.311-3.362-33.955,1.956-34.805
			C1027.099,1074.569,1019.233,1056.383,1026.359,1057.679L1026.359,1057.679z M1270.9,1065.772
			c1.296-1.033,2.527-2.703,3.933-3.003c13.77-2.878,26.484,2.278,40.173,1.75c10.063-0.388,25.452-5.383,34.834,0.571
			c2.417,1.516,9.053,11.082,7.273,14.89c-4.014,8.496-0.82,16.78-2.886,24.836c-1.677,6.584,4.124,21.35-0.916,25.203
			c-6.145,4.702,10.32,11.199-19.585,11.03c-18.296-0.388-43.118,4.431-60.081-3.977c-7.485-3.713,1.736-20.09,2.651-25.767
			c1.062-6.46-0.688-9.814,3.574-14.81c-2-1.509-3.589-3.589-4.753-6.255C1279.66,1086.764,1276.481,1074.378,1270.9,1065.772
			L1270.9,1065.772z M1149.941,1065.933c1.311-1.084,2.549-2.813,3.926-3.135c13.887-2.996,26.697,2.38,40.452,1.838
			c10.159-0.417,25.664-5.618,35.105,0.586c2.424,1.597,9.126,11.55,7.31,15.535c-4.021,8.855-0.813,17.476-2.893,25.862
			c-1.721,6.877,2.878,29.07-2.197,33.083c-6.182,4.885-18.765,5.098-26.704,4.915c-18.406-0.417-35.881,1.003-52.969-7.734
			c-7.522-3.882,2.454-17.585,3.413-23.481c1.047-6.731-0.029-19.189-1.194-21.958
			C1158.737,1087.818,1155.559,1074.913,1149.941,1065.933L1149.941,1065.933z M1038.928,516.529
			c16.245-1.245,32.922-1.78,49.043,0.74c31.201,4.849,63.333,5.054,94.966,7.822c61.267,5.339,122.197-9.133,183.545-8.489
			c28.967,0.293,58.257,1.436,86.741,6.76c13.777,2.571,27.839,3.428,41.082,8.152c9.404,3.347,41.917,0.667,46.956,10.503
			c2.498,4.915,3.867,7.163-1.106,9.683c2.9,7.91-3.721,17.314,1.523,23.818c4.841,5.999-9.756,7.2-2.695,11.711
			c2.41,1.538-0.212,32.322-0.132,36.13c0.374,16.853-5.149,33.01-2.937,49.746c2.051,15.71-4.783,37.009,0,52.178
			c5.559,17.666,5.786,21.738,4.006,38.789c-1.655,15.718-1.538,35.493-2.681,50.83c-1.04,13.909,6.519,23.086,3.333,35.867
			c-2.043,8.167-4.988,16.421-5.098,24.91c-0.11,7.573,2.915,25.884,1.699,33.457c-2.219,13.748-1.289,38.928-2.139,39.111
			c2.915,10.715-0.337,13.359-3.457,23.189c-4.299,13.484,6.416,30.476,2.996,44.121c-3.406,13.594-1.421,26.389,4.028,54.404
			c1.392,7.112-4.629,27.898-5.881,34.446c-2.82,14.81,10.203,53.87,7.273,68.672c-2.542,12.788,4.189,57.158-3.823,67.39
			c-20.259,25.869-117.188-4.116-148.059,1.348c-15.103,2.673-29.553,1.311-44.788,1.56c-17.051,0.264-33.772,3.604-50.852,2.483
			c-35.361-2.329-70.393-2.791-105.71-5.5c-32.542-2.498-62.439,3.391-94.907-0.41c-34.094-3.97-103.066,11.462-135.337-0.366
			c-26.865-9.814-50.676,13.55-70.679-6.973c-9.624-9.902-3.12-114.28-4.504-127.749c-0.828-8.181-0.659-16.428-0.923-24.639
			c-0.227-7.251,1.399-19.695,1.787-25.854c1.318-20.977,3.018-13.821,1.787-34.775c-1.919-0.176,2.49-26.646,0.732-26.785
			c-0.93-6.995,3.772-41.111,3.083-47.966c-0.637-6.394,13.828,8.306,16.055,8.914c-2.468,1.384,13.008,10.313,10.693,11.602
			c5.596,0.879,3.691,11.946,9.375,11.609c9.88-0.615,18.472,23.101,28.081,25.393c12.649,3.04,11.279,19.929,21.094,22.603
			c12.583,3.428,0.242,7.002-0.747,18.179c-0.403,4.739,0.139,3.201,0.623,7.91c0.52,5.046-3.567,9.17-2.849,14.063
			c1.589,10.994-5.237,32.051,0.168,42.056c5.149,9.521-9.148,67.222-2.256,75.564c5.698,6.899,32.263,0.645,41.492,2.908
			c11.001,2.673,48.911,6.731,60.205,8.027c13.447,1.531,130.583,7.925,152.549-1.86c30.227-13.521,82.566,9.456,114.976,1.633
			c14.48-3.523,56.316-8.979,69.39-16.37c12.151-6.841,10.583-92.981,14.099-102.524c3.516-9.529,3.347-19.709,10.92-26.748
			c-2.278-2.82-2.695-11.221,2.131-13.989c-3.582-6.929-0.879-13.601,0.513-21.101c1.897-10.21,0.938-20.391,2.058-30.806
			c2.432-22.456,4.482-45.029,10.144-66.965c-0.044-0.037-0.916-0.703-1.04-0.798c4.409-42.063,13.367-84.214,16.934-126.467
			c1.685-19.995,1.077-39.705,4.944-59.495c4.189-21.416-1.23-44.07,2.549-65.859c-4.592-10.789-2.966-67.83-14.993-70.239
			c-43.374-8.65-88.367-10.767-132.62-10.408c-47.014,0.403-89.875-8.21-136.86-6.211c-2.249,0.103-1.267,14.7-1.333,17.644
			c-0.3,10.459-2.71,20.984-2.454,31.436c0.242,8.855,1.677,17.747,2.139,26.58c0.278,5.449-2.417,10.1-2.029,15.483
			c0.403,5.508,2.651,11.448,0.981,16.956c-1.948,6.519-0.513,16.904-4.241,22.522c-3.362,5.054-5.251,6.299-6.321,12.634
			c-0.798,4.651-8.43,5.09-12.297,5.544c-5.5,0.659-11.016,1.165-16.501,1.736c-2.549-3.354-7.192-2.395-10.583-1.465
			c-1.516,0.417-2.637,2.292-4.417,3.926c-0.659-0.388-2.461-1.421-4.739-2.739c-1.436,2.849-40.093-1.384-50.281-5.603
			c-2.534-1.04-5.12-1.992-7.434-2.856c8.364-22.485-1.377-46.56,3.164-69.829c4.6-23.584-0.542-45.315,1.289-69.302
			c-24.434,0-46.897-3.245-71.338-1.875c-0.125,0.029-4.504-0.52-4.9-0.264c-10.898-0.117-9.998-0.688-10.269,6.584
			c-0.542,14.941-1.685,31.67-0.549,47.278c1.216,16.838,4.453,28.931-0.337,41.023c-2.153,5.405-0.198,13.088-0.132,19.592
			c0.095,7.676-1.772,15.557-2.241,23.35c-0.439,7.361-2.278,12.371-2.673,19.512c-0.366,6.819,0.835,16.187-2.285,20.317
			c1.326,8.13,2.08,16.655-0.989,23.24c-2.168,4.709,6.658,21.973-3.274,20.149c-11.807-2.175-75.996-6.951-87.451-5.054
			c-3.611,0.593-11.331,11.118-6.335,16.37c20.515,21.519,56.733,51.804,77.769,69.756c10.085,8.599,25.92,23.73,36.028,32.527
			c12.378,10.759,23.584,23.364,34.534,35.522c9.631,10.73,22.266,24.463,31.523,35.537c4.431,5.295,19.856,14.846,27.92,12.92
			c25.327-6.042,50.859-20.251,73.828-32.271c24.243-12.671,49.08-30.806,72.62-44.714c24.053-14.18,118.821-71.155,142.544-86.052
			c22.698-14.26,15.22-28.535,5.281-29.575c-10.034-1.055-18.486-0.696-21.76-0.952c-11.602-0.952-29.934-1.421-41.353-3.523
			c-24.053-4.446-50.442,2.783-74.033-3.582c-1.597-0.417,1.165-13.931,0.945-16.736c0-13.733,3.457-32.52,4.746-22.712
			c-2.629-20.054,1.113-94.453,2.329-103.228c1.956-14.033,37.69-1.912,59.084-4.409c11.287-1.289,18.896,11.104,17.388,20.955
			c-2.227,14.795,0.454,33.816-6.797,47.271c-2.314,4.299,1.025,9.917-2.043,14.37c-4.028,5.881-4.028,12.883-2.659,19.607
			c0.381,1.838,2.271,4.277,3.962,4.768c9.924,2.959,19.849,3.406,30.037,4.497c4.468,0.483,8.892,1.472,13.132,2.996
			c6.16,2.205,11.851,0.293,17.966,1.978c21.079,5.764,37.002,20.178,57.092,26.052c2.322,0.674,8.708,8.591,8.65,10.869
			c-0.923,24.338-27.378,39.294-42.202,56.843c-19.797,23.43-43.03,42.729-68.73,59.59c-3.56,2.336-22.456,16.611-21.687,19.783
			c0.571,0.088,7.097-2.468,15.71,0.762c21.68,1.736,36.182-3.186,35.5,10.752c-0.923,18.04,13.85,72.854-15.498,68.181
			c-4.534-0.718-8.621,2.424-13.184,2.732c-5.01,0.352-9.983-0.417-14.993-0.527c-13.359-0.322-25.51-6.343-38.269-9.492
			c-5.977-1.472-5.588-5.984-4.805-10.671c1.729-10.437,2.175-35.845,0.974-46.37c-10.488,5.654-20.955,11.279-31.436,16.926
			c0.176,0.513-1.472,14.575-3.42,21.431c-0.374,1.23,0.908,9.39,0.886,10.686c-0.146,6.965,1.97,8.137-3.787,10.854
			c-16.428,7.742-41.873,5.024-59.539,2.52c-15.366-2.168-6.57-9.485-21.35-3.713c-14.971,5.845-32.175,10.437-46.201,18.157
			c-16.758,9.229-26.484,13.718-45.901,7.8c-34.863-10.671-58.923-44.583-84.587-68.306c-11.77-10.862-22.874-22.742-34.241-34.087
			c-12.803-12.751-26.301-25.979-38.503-39.221c-22.91-24.895-36.687-37.91-64.548-63.45c-10.598-9.712-38.745-36.863-44.985-49.753
			c-2.205-4.563-9.807-13.638-7.632-20.698c1.721-5.574,1.575-9.631,4.666-10.891c6.951-2.82,36.218-4.849,43.784-4.746
			c9.075,0.132,33.801,4.863,42.942,5.698c2.109,0.198,5.464-2.439,6.519-4.6c3.545-7.214-3.516-33.713-4.937-41.536
			c-2.271-12.502-0.044-25.122,1.311-37.603c1.34-12.415,0.989-22.712-0.081-35.178c-0.542-6.108-4.146-110.12,1.223-114.558
			C893.915,513.709,1024.719,517.65,1038.928,516.529"/>
		<path id="path44" fill="#FFFFFF" d="M1748.828,730.711c57.166,0,87.224,28.279,87.224,81.863
			c0,53.884-28.279,78.296-88.711,78.296h-22.332V730.711H1748.828z M1701.792,909.928h46.436
			c78.003,0,112.236-39.602,112.236-96.753c0-57.166-34.534-101.521-113.723-101.521h-44.949V909.928"/>
		<path id="path46" fill="#FFFFFF" d="M1906.782,909.928h101.807v-19.658H1930v-63.699h69.067V806.92H1930v-75.615h80.684v-19.651
			h-103.901V909.928"/>
		<path id="path48" fill="#FFFFFF" d="M2132.47,909.928h23.218V731.305h78.003v-19.651H2132.47V909.928"/>
		<path id="path50" fill="#FFFFFF" d="M2244.092,873.013c0,11.309-11.616,13.396-11.616,25.891c0,8.335,6.855,14.59,16.077,14.59
			c10.129,0,19.358-7.734,19.358-21.138c0-19.644-13.11-40.181-18.765-47.036h-16.069
			C2237.236,850.982,2244.092,861.998,2244.092,873.013"/>
		<path id="path52" fill="#FFFFFF" d="M2317.451,711.654h23.218v198.274h-23.218V711.654z"/>
		<path id="path54" fill="#FFFFFF" d="M2414.9,909.928h21.738l49.124-134.861c5.947-16.67,8.928-25.305,12.495-36.614h0.601
			c3.274,10.715,6.548,20.244,12.502,36.614l49.116,134.861h22.031l26.792-198.274h-23.511l-16.978,129.8
			c-1.78,14.282-2.673,21.738-3.274,27.686h-0.586c-2.095-6.848-4.475-14.883-8.936-27.385l-47.036-130.1h-22.332l-48.23,130.1
			c-4.761,12.803-7.141,20.537-9.521,27.385h-0.601c-0.586-7.141-1.487-14.883-2.974-28.286l-15.776-129.199h-21.738L2414.9,909.928
			"/>
		<path id="path56" fill="#FFFFFF" d="M2671.731,909.928h21.738l49.116-134.861c5.955-16.67,8.921-25.305,12.502-36.614h0.593
			c3.281,10.715,6.548,20.244,12.495,36.614l49.124,134.861h22.039l26.792-198.274h-23.518l-16.97,129.8
			c-1.78,14.282-2.681,21.738-3.281,27.686h-0.593c-2.08-6.848-4.468-14.883-8.928-27.385l-47.043-130.1h-22.317l-48.23,130.1
			c-4.761,12.803-7.141,20.537-9.529,27.385h-0.593c-0.601-7.141-1.487-14.883-2.981-28.286l-15.769-129.199h-21.738
			L2671.731,909.928"/>
		<path id="path58" fill="#FFFFFF" d="M3068.982,810.494c0,44.648-25.305,83.657-72.634,83.657
			c-47.336,0-73.242-38.416-73.242-83.064c0-44.656,25.313-83.65,72.642-83.65C3043.091,727.437,3068.982,765.838,3068.982,810.494z
			 M2898.701,810.494c0,54.478,36.021,103,97.046,103c61.033,0,97.639-47.93,97.639-102.407s-36.021-103.008-97.039-103.008
			C2935.307,708.079,2898.701,756.009,2898.701,810.494"/>
		<path id="path60" fill="#FFFFFF" d="M3190.615,731.004c35.127,0,50.903,10.723,50.903,35.728
			c0,23.811-12.803,39.001-49.124,39.001h-29.758v-74.729H3190.615z M3189.729,824.784c30.359,0,43.462,11.016,43.462,34.233
			c0,22.031-14.89,31.56-42.876,31.56h-27.678v-65.793H3189.729z M3139.712,909.928h52.397c36.907,0,64.893-13.696,64.893-49.424
			c0-23.225-13.696-38.108-35.42-43.755v-0.601c24.404-4.167,44.048-21.431,44.048-48.816c0-40.488-30.059-55.679-74.421-55.679
			h-51.497V909.928"/>
		<path id="path62" fill="#FFFFFF" d="M3314.057,711.654h23.232v198.274h-23.232V711.654z"/>
		<path id="path64" fill="#FFFFFF" d="M3396.089,909.928h23.232V731.305h77.988v-19.651h-101.221V909.928"/>
		<path id="path66" fill="#FFFFFF" d="M3535.967,711.654h23.225v198.274h-23.225V711.654z"/>
		<path id="path68" fill="#FFFFFF" d="M3618.005,909.928h101.807v-19.658h-78.596v-63.699h69.075V806.92h-69.075v-75.615h80.684
			v-19.651h-103.894V909.928"/>
		<path id="path70" fill="#FFFFFF" d="M3817.385,822.103c29.48,0,42.861,12.502,42.861,34.534c0,22.024-14.275,33.633-44.641,33.633
			h-27.986v-68.167H3817.385z M3764.387,909.928h53.892c41.389,0,65.786-19.351,65.786-52.69c0-33.047-24.104-50.024-55.657-51.797
			v-0.601c3.867-2.681,9.229-8.635,20.837-24.712l49.116-68.474h-27.385l-39.895,56.272c-23.225,32.747-26.792,35.127-40.181,35.127
			h-3.281v-91.399h-23.232V909.928"/>
		<path id="path72" fill="#FFFFFF" d="M4183.179,512.471h12.759v738.684h-12.759V512.471z"/>
		<path id="path74" fill="#FFFFFF" d="M1708.23,568.377c1.948-0.505,4.409-0.718,7.39-0.718c10.759,0,17.322,5.229,17.322,14.773
			c0,9.126-6.46,13.528-16.304,13.528c-3.896,0-6.87-0.3-8.408-0.71V568.377z M1699.309,601.71c4.314,0.71,9.954,1.326,17.131,1.326
			c8.811,0,15.271-2.051,19.38-5.735c3.787-3.281,6.05-8.313,6.05-14.458c0-6.262-1.853-11.184-5.339-14.773
			c-4.709-5.032-12.4-7.581-21.123-7.581c-2.666,0-5.127,0.088-7.178,0.615v-27.686h-8.921V601.71"/>
		<path id="path76" fill="#FFFFFF" d="M1816.203,562.13l-6.775,19.893c-1.531,4.512-2.556,8.606-3.589,12.605h-0.198
			c-1.033-4.109-2.153-8.298-3.494-12.495l-6.76-20.002H1816.203z M1793.542,555.15l-7.185-21.731h-9.229l23.489,69.111h10.759
			l23.591-69.111h-9.536l-7.383,21.731H1793.542"/>
		<path id="path78" fill="#FFFFFF" d="M1891.159,570.12h9.119c9.543,0,15.593,5.229,15.593,13.132c0,8.921-6.46,12.817-15.894,12.92
			c-4.307,0-7.39-0.41-8.818-0.82V570.12z M1882.238,601.6c4.512,0.93,10.972,1.436,17.124,1.436c9.536,0,15.688-1.736,19.995-5.64
			c3.479-3.076,5.435-7.786,5.435-13.125c0-9.126-5.742-15.168-13.022-17.629v-0.308c5.332-1.846,8.511-6.76,10.151-13.953
			c2.249-9.631,3.896-16.296,5.332-18.962h-9.236c-1.128,1.956-2.659,7.888-4.607,16.501c-2.051,9.543-5.742,13.118-13.843,13.44
			h-8.408v-29.941h-8.921V601.6"/>
		<path id="path80" fill="#FFFFFF" d="M1974.524,533.419h8.921v69.111h-8.921V533.419z"/>
		<path id="path82" fill="#FFFFFF" d="M2034.912,544.281c3.999-2.461,9.851-4.512,15.996-4.512c9.126,0,14.465,4.819,14.465,11.792
			c0,6.46-3.706,10.159-13.03,13.748c-11.286,3.992-18.252,9.836-18.252,19.585c0,10.767,8.921,18.757,22.361,18.757
			c7.068,0,12.195-1.641,15.271-3.384l-2.461-7.28c-2.249,1.23-6.87,3.281-13.125,3.281c-9.433,0-13.015-5.64-13.015-10.349
			c0-6.467,4.197-9.639,13.74-13.337c11.675-4.512,17.629-10.144,17.629-20.303c0-10.657-7.888-19.885-24.199-19.885
			c-6.665,0-13.945,1.934-17.629,4.395L2034.912,544.281"/>
		<path id="path84" fill="#FFFFFF" d="M2177.947,565.499h25.334v6.672h-25.334V565.499z"/>
		<path id="path86" fill="#FFFFFF" d="M2319.04,568.377c1.948-0.505,4.409-0.718,7.375-0.718c10.774,0,17.329,5.229,17.329,14.773
			c0,9.126-6.46,13.528-16.296,13.528c-3.896,0-6.87-0.3-8.408-0.71V568.377z M2310.119,601.71c4.299,0.71,9.939,1.326,17.117,1.326
			c8.826,0,15.286-2.051,19.38-5.735c3.801-3.281,6.05-8.313,6.05-14.458c0-6.262-1.838-11.184-5.325-14.773
			c-4.724-5.032-12.415-7.581-21.123-7.581c-2.666,0-5.127,0.088-7.178,0.615v-27.686h-8.921V601.71"/>
		<path id="path88" fill="#FFFFFF" d="M2427.007,562.13l-6.768,19.893c-1.538,4.512-2.563,8.606-3.589,12.605h-0.205
			c-1.025-4.109-2.153-8.298-3.486-12.495l-6.768-20.002H2427.007z M2404.345,555.15l-7.178-21.731h-9.229l23.481,69.111h10.767
			l23.584-69.111h-9.536l-7.383,21.731H2404.345"/>
		<path id="path90" fill="#FFFFFF" d="M2493.042,602.53h8.914v-61.633h29.531v-7.478h-38.445V602.53"/>
		<path id="path92" fill="#FFFFFF" d="M2612.39,562.13l-6.76,19.893c-1.538,4.512-2.571,8.606-3.589,12.605h-0.212
			c-1.018-4.109-2.153-8.298-3.494-12.495l-6.753-20.002H2612.39z M2589.729,555.15l-7.178-21.731h-9.221l23.481,69.111h10.759
			l23.591-69.111h-9.543l-7.383,21.731H2589.729"/>
		<path id="path94" fill="#FFFFFF" d="M2678.418,533.419h8.921v69.111h-8.921V533.419z"/>
		<path id="path96" fill="#FFFFFF" d="M2738.821,544.281c3.999-2.461,9.836-4.512,15.989-4.512c9.126,0,14.458,4.819,14.458,11.792
			c0,6.46-3.691,10.159-13.022,13.748c-11.279,3.992-18.245,9.836-18.245,19.585c0,10.767,8.921,18.757,22.346,18.757
			c7.083,0,12.202-1.641,15.286-3.384l-2.461-7.28c-2.263,1.23-6.87,3.281-13.132,3.281c-9.434,0-13.022-5.64-13.022-10.349
			c0-6.467,4.211-9.639,13.74-13.337c11.689-4.512,17.644-10.144,17.644-20.303c0-10.657-7.903-19.885-24.199-19.885
			c-6.672,0-13.953,1.934-17.644,4.395L2738.821,544.281"/>
		<path id="path98" fill="#FFFFFF" d="M2895.486,540.487c2.263-0.403,5.552-0.505,9.023-0.505c19.08,0,29.436,10.657,29.436,29.319
			c0.095,16.304-9.126,26.66-27.986,26.66c-4.622,0-8.108-0.41-10.474-0.923V540.487z M2886.572,601.6
			c5.435,0.82,11.895,1.436,18.977,1.436c12.81,0,21.929-2.966,27.986-8.606c6.152-5.64,9.741-13.638,9.741-24.822
			c0-11.265-3.486-20.508-9.946-26.858c-6.453-6.46-17.124-9.946-30.564-9.946c-6.35,0-11.689,0.3-16.194,0.82V601.6"/>
		<path id="path100" fill="#FFFFFF" d="M3027.746,565.821h-26.851v-24.924h29.941v-7.478h-38.87v69.111h37.332v-7.493h-28.403
			v-21.841h26.851V565.821"/>
		<path id="path102" fill="#FFFFFF" d="M3138.401,602.53h8.921v-61.633h29.539v-7.478h-38.459V602.53"/>
		<path id="path104" fill="#FFFFFF" d="M3257.741,562.13l-6.76,19.893c-1.553,4.512-2.563,8.606-3.604,12.605h-0.19
			c-1.04-4.109-2.161-8.298-3.501-12.495l-6.76-20.002H3257.741z M3235.08,555.15l-7.17-21.731h-9.243l23.489,69.111h10.774
			l23.569-69.111h-9.529l-7.383,21.731H3235.08"/>
		<path id="path106" fill="#FFFFFF" d="M3391.555,540.179c1.743-0.3,4.307-0.41,7.485-0.41c9.229,0,17.739,3.391,17.739,13.433
			c0,9.426-8.101,13.337-17.834,13.337h-7.39V540.179z M3391.555,573.299h8.101c9.434,0,14.971,4.922,14.971,11.594
			c0,8.093-6.145,11.279-15.176,11.279c-4.102,0-6.46-0.315-7.896-0.623V573.299z M3382.641,601.6
			c3.889,0.82,10.049,1.436,16.304,1.436c8.914,0,14.656-1.538,18.962-5.024c3.589-2.659,5.742-6.76,5.742-12.188
			c0-6.672-4.409-12.524-11.689-15.183v-0.212c6.57-1.641,14.246-7.068,14.246-17.329c0-5.94-2.351-10.459-5.837-13.85
			c-4.819-4.395-12.62-6.445-23.892-6.445c-6.145,0-10.869,0.41-13.835,0.82V601.6"/>
		<path id="path108" fill="#FFFFFF" d="M3480.757,567.557c0-14.766,7.991-27.986,22.039-27.986c14.15,0,22.156,13.022,22.156,28.711
			c0,13.74-7.185,28.088-22.046,28.088C3488.139,596.37,3480.757,582.733,3480.757,567.557z M3534.377,568.692
			c0-23.796-14.458-36.409-32.087-36.409c-18.252,0-31.069,14.158-31.069,35.076c0,21.929,13.638,36.292,32.095,36.292
			C3522.19,603.651,3534.377,589.2,3534.377,568.692"/>
		<path id="path110" fill="#FFFFFF" d="M3592.011,602.53v-40.906c0-15.498,6.877-22.053,16.106-22.053
			c10.254,0,16.809,6.76,16.809,22.053v40.906h9.031v-40.313c0-21.218-11.191-29.934-26.147-29.934
			c-14.158,0-24.822,8.108-24.822,29.524v40.723H3592.011"/>
		<path id="path112" fill="#FFFFFF" d="M3695.466,570.12h9.133c9.536,0,15.586,5.229,15.586,13.132
			c0,8.921-6.46,12.817-15.886,12.92c-4.321,0-7.39-0.41-8.833-0.82V570.12z M3686.545,601.6c4.512,0.93,10.972,1.436,17.124,1.436
			c9.536,0,15.696-1.736,20.002-5.64c3.486-3.076,5.427-7.786,5.427-13.125c0-9.126-5.742-15.168-13.022-17.629v-0.308
			c5.339-1.846,8.511-6.76,10.151-13.953c2.271-9.631,3.911-16.296,5.332-18.962h-9.221c-1.128,1.956-2.673,7.888-4.622,16.501
			c-2.051,9.543-5.742,13.118-13.828,13.44h-8.423v-29.941h-8.921V601.6"/>
		<path id="path114" fill="#FFFFFF" d="M3777.6,544.281c3.999-2.461,9.836-4.512,15.989-4.512c9.119,0,14.458,4.819,14.458,11.792
			c0,6.46-3.691,10.159-13.015,13.748c-11.287,3.992-18.252,9.836-18.252,19.585c0,10.767,8.921,18.757,22.346,18.757
			c7.083,0,12.202-1.641,15.286-3.384l-2.461-7.28c-2.263,1.23-6.87,3.281-13.125,3.281c-9.434,0-13.03-5.64-13.03-10.349
			c0-6.467,4.204-9.639,13.74-13.337c11.689-4.512,17.644-10.144,17.644-20.303c0-10.657-7.903-19.885-24.199-19.885
			c-6.672,0-13.953,1.934-17.644,4.395L3777.6,544.281"/>
		<path id="path116" fill="#FFFFFF" d="M3902.287,565.821h-26.858v-24.924h29.941v-7.478h-38.87v69.111h37.324v-7.493h-28.396
			v-21.841h26.858V565.821"/>
		<path id="path118" fill="#FFFFFF" d="M4358.477,1161.551c0-49.043,15.095-76.912,38.313-76.912
			c26.118,0,38.599,30.483,38.599,78.662c0,46.428-11.902,76.897-38.313,76.897
			C4374.729,1240.199,4358.477,1212.923,4358.477,1161.551z M4460.928,1164.459c0-64.138-23.796-99.551-65.596-99.551
			c-36.855,0-61.816,34.541-62.395,96.929c0,63.274,27.268,98.101,65.588,98.101
			C4438.289,1259.937,4460.928,1224.532,4460.928,1164.459"/>
		<path id="path120" fill="#FFFFFF" d="M4606.921,1256.751v-16.838l-82.134-171.812h-26.411l81.841,166.882v0.579h-92.292v21.189
			H4606.921"/>
		<path id="path122" fill="#FFFFFF" d="M4739.856,1161.551c0-49.043,15.103-76.912,38.313-76.912
			c26.133,0,38.606,30.483,38.606,78.662c0,46.428-11.909,76.897-38.306,76.897
			C4756.108,1240.199,4739.856,1212.923,4739.856,1161.551z M4842.307,1164.459c0-64.138-23.789-99.551-65.588-99.551
			c-36.863,0-61.816,34.541-62.388,96.929c0,63.274,27.268,98.101,65.581,98.101
			C4819.675,1259.937,4842.307,1224.532,4842.307,1164.459"/>
		<path id="path124" fill="#FFFFFF" d="M4889.922,1194.642c0-23.511,14.216-40.049,36.277-40.049
			c17.117,0,30.469,8.408,37.148,19.724c1.443,2.329,2.322,5.229,2.322,9.294c0,32.219-11.902,56.887-38.599,56.887
			c-21.775,0-37.156-19.16-37.156-45.857H4889.922z M4880.627,1086.097c5.522-0.579,11.902,0,20.61,0.864
			c14.802,2.036,28.733,8.13,39.47,18.289c12.48,11.323,21.482,27.861,24.961,50.208h-0.879
			c-10.43-12.766-25.532-20.317-44.399-20.317c-33.955,0-55.723,25.547-55.723,57.759c0,35.698,25.833,67.039,64.431,67.039
			c38.606,0,62.402-31.34,62.402-79.519c0-41.499-13.931-70.525-32.512-88.521c-14.509-14.216-34.534-22.925-54.851-25.247
			c-9.287-1.45-17.41-1.743-23.511-1.45V1086.097"/>
		<path id="path126" fill="#FFFFFF" d="M4364.028,894.693c0-46.384,25.129-87.942,69.258-87.942
			c44.443,0,69.573,40.913,69.573,90.19c0,43.169-22.551,88.264-69.25,88.264C4387.231,985.206,4364.028,942.367,4364.028,894.693
			L4364.028,894.693z M4532.5,898.231c0-74.729-45.425-114.346-100.818-114.346c-57.341,0-97.61,44.451-97.61,110.164
			c0,68.928,42.839,114.031,100.825,114.031C4494.172,1008.079,4532.5,962.655,4532.5,898.231"/>
		<path id="path128" fill="#FFFFFF" d="M4720.63,794.52c-10.313-5.156-30.923-10.313-57.341-10.313
			c-61.201,0-107.263,38.65-107.263,109.841c0,67.969,46.062,114.031,113.386,114.031c27.056,0,44.128-5.801,51.541-9.668
			l-6.76-22.866c-10.642,5.149-25.774,9.016-43.813,9.016c-50.896,0-84.719-32.534-84.719-89.546c0-53.152,30.608-87.29,83.43-87.29
			c17.073,0,34.46,3.538,45.74,9.023L4720.63,794.52"/>
		<path id="path130" fill="#FFFFFF" d="M4806.008,980.694h-66.042v23.833h160.73v-23.833h-66.35V787.43h-28.337V980.694"/>
		<path id="path132" fill="#FFFFFF" d="M4346.479,512.017v17.805l22.742,22.075c54.719,52.068,79.431,79.761,79.761,112.061
			c0,21.753-10.547,41.858-42.524,41.858c-19.438,0-35.588-9.888-45.469-18.127l-9.229,20.435
			c14.817,12.532,35.918,21.753,60.637,21.753c46.143,0,65.588-31.641,65.588-62.292c0-39.551-28.667-71.528-73.828-115.027
			l-17.139-15.82v-0.652h96.24v-24.067H4346.479"/>
		<path id="path134" fill="#FFFFFF" d="M4541.589,618.138c0-55.686,17.139-87.327,43.506-87.327c29.67,0,43.843,34.6,43.843,89.312
			c0,52.734-13.521,87.349-43.513,87.349C4560.046,707.471,4541.589,676.483,4541.589,618.138z M4657.942,621.441
			c0-72.839-27.034-113.042-74.495-113.042c-41.858,0-70.21,39.207-70.862,110.068c0,71.858,30.981,111.409,74.48,111.409
			C4632.227,729.876,4657.942,689.674,4657.942,621.441"/>
		<path id="path136" fill="#FFFFFF" d="M4747.568,699.232h-0.659l-37.244-20.112l-5.61,22.09l46.802,25.034h24.734V512.017h-28.022
			V699.232"/>
		<path id="path138" fill="#FFFFFF" d="M4967.72,582.22c0,30.652-17.468,49.109-44.158,49.109
			c-17.476,0-33.625-10.869-41.536-26.367c-1.97-3.289-3.289-7.581-3.289-12.854c0.652-35.266,16.809-61.296,47.131-61.296
			C4950.918,530.811,4967.72,551.568,4967.72,582.22z M4975.967,705.816c-5.925,0.33-13.521,0-21.746-1.318
			c-45.491-7.573-69.551-40.869-74.495-76.128h0.981c10.232,13.499,28.022,24.705,51.753,24.705c37.896,0,64.6-27.341,64.6-69.214
			c0-39.214-26.704-75.461-71.191-75.461c-45.813,0-75.813,35.588-75.813,91.282c0,42.188,15.161,75.476,36.262,96.584
			c17.798,17.461,41.528,28.337,68.547,31.633c8.569,1.318,15.82,1.648,21.101,1.648V705.816"/>
		<path id="path140" fill="#FFFFFF" d="M4630.461,1150.001c0,10.356,8.394,18.75,18.75,18.75c10.349,0,18.75-8.394,18.75-18.75
			c0-10.349-8.401-18.604-18.75-18.604C4638.855,1131.397,4630.461,1139.652,4630.461,1150.001"/>
		<path id="path142" fill="#FFFFFF" d="M4926.689,802.386c0,10.349,8.401,18.75,18.75,18.75s18.75-8.401,18.75-18.75
			s-8.401-18.604-18.75-18.604S4926.689,792.037,4926.689,802.386"/>
	</g>
</g>
</svg>
