<?xml version="1.0" encoding="utf-8"?>
<!-- Generator: Adobe Illustrator 15.1.0, SVG Export Plug-In . SVG Version: 6.00 Build 0)  -->
<!DOCTYPE svg PUBLIC "-//W3C//DTD SVG 1.1//EN" "http://www.w3.org/Graphics/SVG/1.1/DTD/svg11.dtd">
<svg version="1.1" id="Calque_1" xmlns="http://www.w3.org/2000/svg" xmlns:xlink="http://www.w3.org/1999/xlink" x="0px" y="0px"
	 width="138.592px" height="128.925px" viewBox="0 0 138.592 128.925" enable-background="new 0 0 138.592 128.925"
	 xml:space="preserve">
<g>
	<defs>
		<rect id="SVGID_1_" width="138.592" height="128.925"/>
	</defs>
	<clipPath id="SVGID_2_">
		<use xlink:href="#SVGID_1_"  overflow="visible"/>
	</clipPath>
	<path clip-path="url(#SVGID_2_)" fill="#1A04C4" d="M29.403,93.188v2.367c0,1.92,0.623,3.614,3.125,3.614
		c1.829,0,2.631-1.651,2.631-3.346c0-2.813-2.319-3.883-4.374-5.133c-2.411-1.387-4.463-2.681-5.936-4.374
		c-1.427-1.697-2.275-3.749-2.275-6.695c0-6.292,3.794-9.508,9.862-9.508c6.831,0,10.31,4.554,9.952,10.848h-7.229
		c-0.089-1.966,0-4.643-2.588-4.824c-1.608-0.13-2.545,0.761-2.723,2.234c-0.222,2.007,0.806,3.037,2.366,4.104
		c2.945,1.879,5.49,3.036,7.321,4.732c1.83,1.696,2.899,3.926,2.899,7.988c0,6.427-3.57,10-10.086,10
		c-7.184,0-10.22-4.019-10.22-8.438v-3.57H29.403z"/>
	<path clip-path="url(#SVGID_2_)" fill="#1A04C4" d="M46.358,104.392l7.32-33.472h9.461l7.275,33.472h-7.945l-1.116-6.518h-6.157
		l-0.938,6.518H46.358z M58.408,76.99h-0.089l-2.278,14.994h4.554L58.408,76.99z"/>
	<polygon clip-path="url(#SVGID_2_)" fill="#1A04C4" points="74.648,104.392 74.648,70.921 82.503,70.921 82.503,97.695 
		92.102,97.695 92.102,104.392 	"/>
	<polygon clip-path="url(#SVGID_2_)" fill="#1A04C4" points="97.094,104.392 97.094,70.921 115.08,70.921 115.08,77.612 
		104.948,77.612 104.948,83.771 114.766,83.771 114.766,90.469 104.948,90.469 104.948,97.695 115.615,97.695 115.615,104.392 	"/>
	<path clip-path="url(#SVGID_2_)" fill="#1A04C4" d="M80.77,14.078c0.156-0.762,0.239-1.553,0.239-2.361
		C81.009,5.255,75.754,0,69.296,0S57.582,5.255,57.582,11.717c0,0.806,0.083,1.595,0.238,2.355L25.204,37.417H38.62l23.298-16.674
		c2.02,1.654,4.567,2.689,7.378,2.689c2.808,0,5.353-1.032,7.373-2.687l23.294,16.672h13.415L80.77,14.078z M69.296,16.739
		c-0.508,0-0.99-0.098-1.452-0.239c-2.057-0.629-3.569-2.522-3.569-4.783c0-1.021,0.31-1.969,0.834-2.763
		c0.901-1.359,2.44-2.261,4.187-2.261c1.744,0,3.281,0.898,4.181,2.256c0.527,0.795,0.839,1.746,0.839,2.768
		c0,2.263-1.514,4.159-3.574,4.785C70.28,16.641,69.801,16.739,69.296,16.739"/>
	<path clip-path="url(#SVGID_2_)" fill="#1A04C4" d="M127.436,45.1H11.156C5.019,45.1,0,50.121,0,56.254v61.514
		c0,6.137,5.019,11.156,11.156,11.156h116.279c6.135,0,11.156-5.02,11.156-11.156V56.254C138.592,50.121,133.57,45.1,127.436,45.1
		 M130.782,117.769c0,1.816-1.534,3.347-3.347,3.347H11.156c-1.815,0-3.348-1.53-3.348-3.347V56.254
		c0-1.814,1.533-3.346,3.348-3.346h116.279c1.813,0,3.347,1.532,3.347,3.346V117.769z"/>
</g>
</svg>
