<?xml version="1.0" encoding="utf-8"?>
<!-- Generator: Adobe Illustrator 15.1.0, SVG Export Plug-In . SVG Version: 6.00 Build 0)  -->
<!DOCTYPE svg PUBLIC "-//W3C//DTD SVG 1.1//EN" "http://www.w3.org/Graphics/SVG/1.1/DTD/svg11.dtd">
<svg version="1.1"
	 id="svg2" xmlns:dc="http://purl.org/dc/elements/1.1/" xmlns:rdf="http://www.w3.org/1999/02/22-rdf-syntax-ns#" xmlns:cc="http://creativecommons.org/ns#" xmlns:svg="http://www.w3.org/2000/svg"
	 xmlns="http://www.w3.org/2000/svg" xmlns:xlink="http://www.w3.org/1999/xlink" x="0px" y="0px" width="642px" height="111.466px"
	 viewBox="94.833 47.87 642 111.466" enable-background="new 94.833 47.87 642 111.466" xml:space="preserve">
<g id="g10" transform="matrix(1.3333333,0,0,-1.3333333,0,204.66667)">
	<g id="g12" transform="scale(0.1)">
		<path id="path18" fill="#FFFFFF" d="M4693.845,339.979h12.561v835.994h-12.561V339.979z"/>
		<path id="path20" fill="#FFFFFF" d="M989.064,929.644c8.262,1.531,26.638,0,35.596,0.396c11.682,0.52,20.933-4.219,32.783-0.352
			c9.309,3.04,9.609,0.872,17.08,9.844c2.966,3.567,4.805,14.275,2.234,16.15c-4.519,3.303,1.714,10.027-2.234,12.195
			c-1.033,6.182-1.531,12.693-3.245,18.53c-7.896,27.056,9.294,24.573-43.11,20.662c-8.87-0.659-31.421,1.743-39.016-2.227
			c-5.669-2.974,1.245-17.117-2.659-24.067c-10.137-18.01-3.303-33.428,1.934-34.255
			C989.797,946.285,982.063,928.37,989.064,929.644z M1229.841,937.613c1.282-1.003,2.498-2.651,3.867-2.944
			c13.564-2.834,26.089,2.249,39.565,1.714c9.91-0.374,25.063-5.288,34.299,0.564c2.38,1.501,8.921,10.913,7.156,14.663
			c-3.94,8.372-0.806,16.531-2.827,24.456c-1.663,6.489,4.05,21.028-0.923,24.814c-6.035,4.629,10.173,11.023-19.27,10.869
			c-18.018-0.388-42.458,4.358-59.158-3.926c-7.383-3.655,1.707-19.775,2.607-25.364c1.04-6.357-0.681-9.675,3.523-14.583
			c-1.97-1.479-3.53-3.53-4.68-6.16C1238.469,958.297,1235.341,946.095,1229.841,937.613L1229.841,937.613z M1110.749,937.767
			c1.304-1.055,2.512-2.754,3.86-3.076c13.674-2.944,26.279,2.351,39.829,1.824c10.012-0.417,25.261-5.537,34.563,0.564
			c2.388,1.575,8.987,11.367,7.207,15.3c-3.97,8.716-0.806,17.205-2.856,25.466c-1.692,6.775,2.842,28.616-2.168,32.556
			c-6.086,4.827-18.464,5.032-26.287,4.856c-18.127-0.41-35.325,0.996-52.156-7.625c-7.405-3.816,2.417-17.307,3.362-23.115
			c1.04-6.621-0.037-18.889-1.172-21.621C1119.406,959.322,1116.279,946.622,1110.749,937.767L1110.749,937.767z M1001.45,396.837
			c15.981-1.23,32.41-1.758,48.281,0.725c30.718,4.79,62.358,4.98,93.508,7.705c60.308,5.266,120.3-8.987,180.71-8.372
			c28.521,0.315,57.363,1.428,85.422,6.672c13.557,2.52,27.407,3.362,40.43,8.02c9.28,3.303,41.287,0.659,46.238,10.342
			c2.468,4.841,3.809,7.053-1.091,9.536c2.849,7.786-3.669,17.043,1.501,23.459c4.768,5.896-9.609,7.09-2.637,11.521
			c2.366,1.523-0.22,31.816-0.132,35.566c0.359,16.597-5.068,32.52-2.908,48.992c2.014,15.476-4.702,36.431,0,51.365
			c5.486,17.402,5.706,21.416,3.955,38.203c-1.641,15.476-1.531,34.937-2.637,50.046c-1.025,13.689,6.416,22.734,3.267,35.31
			c-2.007,8.049-4.907,16.172-5.017,24.529c-0.103,7.456,2.878,25.481,1.67,32.937c-2.168,13.542-1.26,38.328-2.102,38.518
			c2.871,10.547-0.33,13.154-3.398,22.822c-4.241,13.286,6.306,30.007,2.937,43.44c-3.347,13.389-1.384,25.994,3.984,53.569
			c1.355,7.002-4.57,27.473-5.801,33.911c-2.783,14.597,10.049,53.057,7.156,67.625c-2.498,12.598,4.131,56.279-3.757,66.35
			c-19.951,25.481-115.393-4.05-145.781,1.333c-14.868,2.629-29.092,1.289-44.099,1.538c-16.787,0.256-33.252,3.538-50.068,2.432
			c-34.819-2.292-69.309-2.739-104.084-5.405c-32.036-2.468-61.479,3.333-93.45-0.41c-33.56-3.904-101.47,11.279-133.257-0.359
			c-26.433-9.661-49.893,13.345-69.58-6.87c-9.478-9.749-3.069-112.522-4.438-125.771c-0.82-8.064-0.645-16.179-0.908-24.265
			c-0.227-7.141,1.377-19.387,1.765-25.452c1.304-20.669,2.959-13.608,1.765-34.248c-1.897-0.176,2.439-26.228,0.71-26.375
			c-0.916-6.885,3.713-40.466,3.047-47.219c-0.63-6.299,13.608,8.167,15.806,8.767c-2.439,1.37,12.795,10.166,10.518,11.433
			c5.508,0.872,3.633,11.755,9.236,11.418c9.719-0.608,18.193,22.749,27.649,25.005c12.451,2.996,11.111,19.629,20.772,22.258
			c12.393,3.369,0.234,6.899-0.732,17.893c-0.403,4.666,0.125,3.157,0.601,7.793c0.513,4.98-3.501,9.031-2.805,13.85
			c1.575,10.833-5.149,31.545,0.176,41.396c5.061,9.382-9.009,66.196-2.227,74.407c5.618,6.79,31.772,0.637,40.854,2.864
			c10.833,2.629,48.149,6.628,59.275,7.896c13.235,1.523,128.577,7.8,150.198-1.809c29.773-13.33,81.313,9.287,113.21,1.604
			c14.26-3.486,55.452-8.855,68.32-16.121c11.96-6.731,10.422-91.553,13.887-100.942c3.45-9.382,3.296-19.409,10.752-26.338
			c-2.241-2.783-2.651-11.052,2.087-13.784c-3.516-6.819-0.857-13.389,0.52-20.764c1.86-10.064,0.916-20.083,2.021-30.344
			c2.402-22.112,4.402-44.333,9.99-65.925c-0.051-0.044-0.901-0.696-1.04-0.798c4.351-41.404,13.169-82.91,16.685-124.504
			c1.655-19.695,1.055-39.104,4.871-58.579c4.116-21.094-1.216-43.396,2.505-64.849c-4.512-10.62-2.93-66.782-14.758-69.163
			c-42.708-8.511-86.997-10.598-130.583-10.239c-46.289,0.388-88.484-8.101-134.744-6.123c-2.219,0.103-1.252,14.48-1.326,17.373
			c-0.3,10.298-2.659,20.662-2.395,30.945c0.22,8.723,1.641,17.498,2.095,26.177c0.271,5.354-2.388,9.954-2.007,15.242
			c0.403,5.42,2.607,11.265,0.967,16.699c-1.919,6.423-0.498,16.641-4.167,22.17c-3.296,4.973-5.178,6.204-6.233,12.444
			c-0.769,4.585-8.284,5.002-12.107,5.464c-5.413,0.637-10.84,1.135-16.238,1.699c-2.512-3.296-7.075-2.351-10.415-1.436
			c-1.509,0.417-2.6,2.256-4.358,3.86c-0.659-0.381-2.432-1.392-4.666-2.688c-1.414,2.798-39.47-1.37-49.504-5.522
			c-2.498-1.025-5.046-1.963-7.31-2.813c8.218-22.141-1.37-45.85,3.098-68.752c4.534-23.218-0.527-44.619,1.274-68.232
			c-24.053,0-46.179-3.201-70.239-1.846c-0.125,0.015-4.438-0.52-4.834-0.264c-10.723-0.117-9.844-0.681-10.1,6.482
			c-0.542,14.707-1.663,31.187-0.542,46.545c1.194,16.582,4.38,28.499-0.33,40.4c-2.117,5.31-0.19,12.883-0.132,19.277
			c0.088,7.566-1.75,15.33-2.219,22.998c-0.417,7.258-2.227,12.188-2.607,19.211c-0.374,6.709,0.813,15.938-2.256,20.002
			c1.296,8.005,2.043,16.399-0.981,22.881c-2.139,4.636,6.548,21.636-3.23,19.849c-11.616-2.146-74.817-6.848-86.104-4.988
			c-3.545,0.593-11.14,10.964-6.233,16.121c20.193,21.182,55.862,51.006,76.575,68.687c9.924,8.467,25.525,23.364,35.479,32.029
			c12.173,10.576,23.21,22.998,33.992,34.973c9.485,10.562,21.929,24.089,31.047,34.995c4.351,5.215,19.556,14.612,27.495,12.715
			c24.924-5.947,50.076-19.951,72.686-31.78c23.862-12.466,48.325-30.33,71.492-44.019c23.694-13.967,116.99-70.071,140.354-84.734
			c22.346-14.033,14.985-28.088,5.208-29.106c-9.888-1.04-18.208-0.696-21.438-0.952c-11.411-0.938-29.465-1.399-40.715-3.464
			c-23.679-4.38-49.658,2.739-72.891-3.53c-1.56-0.41,1.143-13.704,0.923-16.472c0-13.521,3.42-32.021,4.68-22.361
			c-2.593-19.746,1.099-92.996,2.3-101.638c1.919-13.828,37.112-1.89,58.169-4.329c11.118-1.296,18.611,10.928,17.131,20.618
			c-2.212,14.568,0.432,33.296-6.709,46.538c-2.271,4.233,1.018,9.771-1.992,14.158c-3.992,5.779-3.992,12.686-2.622,19.292
			c0.366,1.816,2.234,4.219,3.896,4.702c9.778,2.908,19.534,3.354,29.575,4.424c4.395,0.469,8.752,1.45,12.935,2.944
			c6.057,2.183,11.66,0.293,17.688,1.956c20.757,5.676,36.431,19.863,56.206,25.657c2.292,0.659,8.569,8.452,8.511,10.686
			c-0.908,23.972-26.96,38.701-41.536,55.979c-19.512,23.071-42.385,42.07-67.683,58.667c-3.486,2.3-22.112,16.362-21.357,19.482
			c0.571,0.088,6.987-2.424,15.469,0.754c21.357,1.707,35.632-3.149,34.958,10.591c-0.901,17.761,13.63,71.726-15.271,67.112
			c-4.46-0.696-8.489,2.402-12.979,2.703c-4.922,0.337-9.822-0.417-14.736-0.527c-13.176-0.322-25.137-6.233-37.683-9.338
			c-5.903-1.458-5.522-5.881-4.753-10.503c1.714-10.283,2.161-35.295,0.981-45.659c-10.327,5.559-20.64,11.111-30.959,16.663
			c0.183,0.505-1.458,14.355-3.376,21.101c-0.359,1.223,0.901,9.243,0.879,10.518c-0.154,6.87,1.941,8.02-3.728,10.686
			c-16.187,7.632-41.235,4.951-58.623,2.49c-15.132-2.131-6.467-9.346-21.028-3.669c-14.744,5.772-31.67,10.283-45.491,17.886
			c-16.501,9.089-26.06,13.513-45.19,7.676c-34.321-10.496-58.008-43.894-83.284-67.251c-11.587-10.693-22.522-22.39-33.706-33.56
			c-12.62-12.561-25.906-25.583-37.917-38.621c-22.559-24.507-36.123-37.332-63.552-62.468
			c-10.444-9.565-38.152-36.284-44.297-48.992c-2.175-4.482-9.653-13.418-7.507-20.383c1.692-5.479,1.545-9.463,4.585-10.723
			c6.841-2.776,35.662-4.768,43.11-4.666c8.936,0.132,33.289,4.79,42.29,5.61c2.073,0.198,5.376-2.402,6.416-4.534
			c3.486-7.097-3.464-33.186-4.863-40.891c-2.234-12.312-0.044-24.734,1.289-37.024c1.318-12.231,0.974-22.354-0.081-34.636
			c-0.527-6.013-4.087-108.428,1.201-112.8C858.671,394.061,987.446,397.943,1001.45,396.837"/>
		<path id="path22" fill="#FFFFFF" d="M1665.962,493.311c11.396,0,16.077,4.68,16.077,13.25c0,7.419-4.277,12.59-15.791,12.59
			h-7.896v-25.84H1665.962z M1650.749,525.589h16.289c13.059,0,22.815-6.24,22.815-18.721c0-12.788-8.782-19.995-23.892-19.995
			h-7.61v-26.235h-7.603V525.589"/>
		<path id="path24" fill="#FFFFFF" d="M1768.632,483.16l-8.203,22.236c-2.036,5.457-2.922,8.181-3.992,11.228h-0.198
			c-1.069-3.23-2.146-6.248-3.992-11.228l-8.298-22.236H1768.632z M1752.929,525.589h7.412l24.961-64.951h-8.291l-5.955,16.091
			h-29.539l-5.947-16.091h-7.507L1752.929,525.589"/>
		<path id="path26" fill="#FFFFFF" d="M1850.539,496.82c9.661,0,14.041,4.087,14.041,11.301c0,7.222-4.68,11.03-14.626,11.03h-9.163
			V496.82H1850.539z M1833.188,525.589h17.644c13.55,0,21.548-6.343,21.548-17.271c0-10.833-7.903-16.377-18.237-16.97v-0.19
			c1.267-0.872,3.025-2.82,6.826-8.086l16.091-22.434h-8.972l-13.059,18.442c-7.61,10.723-8.767,11.492-13.169,11.492h-1.069
			v-29.934h-7.603V525.589"/>
		<path id="path28" fill="#FFFFFF" d="M1920.229,493.311c0,17.542,11.799,33.435,31.794,33.435c8.284,0,13.447-1.838,18.215-4.871
			l-3.787-5.757c-3.816,2.644-8.481,4.307-14.634,4.307c-15.601,0-23.599-12.883-23.599-26.924c0-14.231,7.712-27.59,23.899-27.59
			c7.024,0,12.092,2.336,15.894,5.559l3.508-5.457c-3.413-3.12-10.54-6.548-19.6-6.548
			C1931.64,459.466,1920.229,475.762,1920.229,493.311"/>
		<path id="path30" fill="#FFFFFF" d="M2094.23,466.878c18.721,0,28.572,9.25,28.572,26.821c0,17.651-9.265,25.649-29.063,25.649
			h-7.31v-52.471H2094.23z M2078.828,525.589h15.212c25.54,0,36.753-12.971,36.753-31.699c0-18.721-11.316-33.252-37.244-33.252
			h-14.722V525.589"/>
		<path id="path32" fill="#FFFFFF" d="M2182.239,525.589h33.34v-6.438h-25.737V498.27h22.617v-6.431h-22.617v-24.763h26.426v-6.438
			h-34.028V525.589"/>
		<path id="path34" fill="#FFFFFF" d="M2263.42,466.102l3.896,5.471c1.472-1.377,6.145-5.764,14.824-5.764
			c7.991,0,13.257,5.273,13.257,11.016c0,7.91-7.412,11.228-14.912,14.927c-7.896,3.889-15.117,8.101-15.117,18.406
			c0,10.649,8.972,16.589,18.911,16.589c9.646,0,14.927-3.508,17.065-5.156l-3.699-5.662c-2.249,1.75-6.628,4.497-13.455,4.497
			c-6.431,0-11.316-3.904-11.316-9.858c0-6.438,5.266-9.456,11.704-12.48c8.577-4.102,18.53-8.481,18.53-21.167
			c0-10.217-8.679-17.454-21.262-17.454C2271.909,459.466,2265.771,463.861,2263.42,466.102"/>
		<path id="path36" fill="#FFFFFF" d="M2411.582,525.589h33.347v-6.438h-25.73V498.27h22.61v-6.431h-22.61v-24.763h26.411v-6.438
			h-34.028V525.589"/>
		<path id="path38" fill="#FFFFFF" d="M2512.407,494.285l-19.497,31.304h8.679l15.688-25.166l14.832,25.166h7.991l-19.014-31.304
			l20.969-33.647h-8.679l-17.161,27.502l-16.384-27.502h-7.991L2512.407,494.285"/>
		<path id="path40" fill="#FFFFFF" d="M2605.395,493.311c11.426,0,16.106,4.68,16.106,13.25c0,7.419-4.299,12.59-15.806,12.59
			h-7.896v-25.84H2605.395z M2590.19,525.589h16.296c13.059,0,22.815-6.24,22.815-18.721c0-12.788-8.782-19.995-23.906-19.995
			h-7.595v-26.235h-7.61V525.589"/>
		<path id="path42" fill="#FFFFFF" d="M2731.526,493.011c0,14.634-8.284,27.415-23.789,27.415
			c-15.498,0-23.987-12.583-23.987-27.217c0-14.626,8.291-27.4,23.789-27.4C2723.052,465.809,2731.526,478.392,2731.526,493.011z
			 M2675.759,493.011c0,17.842,11.792,33.735,31.78,33.735s31.978-15.696,31.978-33.538c0-17.849-11.799-33.743-31.78-33.743
			C2687.749,459.466,2675.759,475.169,2675.759,493.011"/>
		<path id="path44" fill="#FFFFFF" d="M2785.11,466.102l3.896,5.471c1.465-1.377,6.152-5.764,14.824-5.764
			c7.998,0,13.25,5.273,13.25,11.016c0,7.91-7.405,11.228-14.905,14.927c-7.903,3.889-15.125,8.101-15.125,18.406
			c0,10.649,8.987,16.589,18.918,16.589c9.661,0,14.919-3.508,17.073-5.156l-3.706-5.662c-2.256,1.75-6.636,4.497-13.455,4.497
			c-6.445,0-11.316-3.904-11.316-9.858c0-6.438,5.251-9.456,11.711-12.48c8.569-4.102,18.501-8.481,18.501-21.167
			c0-10.217-8.657-17.454-21.24-17.454C2793.576,459.466,2787.446,463.861,2785.11,466.102"/>
		<path id="path46" fill="#FFFFFF" d="M2875.769,460.638h7.61v64.951h-7.61V460.638z"/>
		<path id="path48" fill="#FFFFFF" d="M2949.948,519.151h-18.42v6.438h44.561v-6.438h-18.428v-58.513h-7.712V519.151"/>
		<path id="path50" fill="#FFFFFF" d="M3024.289,460.638h7.61v64.951h-7.61V460.638z"/>
		<path id="path52" fill="#FFFFFF" d="M3139.551,493.011c0,14.634-8.291,27.415-23.782,27.415c-15.52,0-23.987-12.583-23.987-27.217
			c0-14.626,8.276-27.4,23.774-27.4C3131.069,465.809,3139.551,478.392,3139.551,493.011z M3083.777,493.011
			c0,17.842,11.792,33.735,31.78,33.735c19.995,0,31.985-15.696,31.985-33.538c0-17.849-11.799-33.743-31.772-33.743
			C3095.766,459.466,3083.777,475.169,3083.777,493.011"/>
		<path id="path54" fill="#FFFFFF" d="M3198.891,525.589h7.515l30.615-43.989c3.025-4.373,4.871-7.603,6.05-9.558h0.19
			c-0.103,1.267-0.396,4.006-0.396,8.789v44.758h7.031v-64.951h-7.031l-32.08,46.326c-1.941,2.732-3.889,6.335-5.068,8.379h-0.176
			c0.088-1.267,0.366-3.992,0.366-7.126v-47.578h-7.017V525.589"/>
		<path id="path56" fill="#FFFFFF" d="M3300.127,466.102l3.918,5.471c1.45-1.377,6.13-5.764,14.81-5.764
			c7.991,0,13.257,5.273,13.257,11.016c0,7.91-7.405,11.228-14.912,14.927c-7.91,3.889-15.125,8.101-15.125,18.406
			c0,10.649,8.987,16.589,18.926,16.589c9.646,0,14.919-3.508,17.065-5.156l-3.706-5.662c-2.249,1.75-6.628,4.497-13.462,4.497
			c-6.431,0-11.301-3.904-11.301-9.858c0-6.438,5.251-9.456,11.704-12.48c8.569-4.102,18.53-8.481,18.53-21.167
			c0-10.217-8.687-17.454-21.262-17.454C3308.615,459.466,3302.485,463.861,3300.127,466.102"/>
		<path id="path58" fill="#FFFFFF" d="M3463.72,466.878c18.721,0,28.564,9.25,28.564,26.821c0,17.651-9.265,25.649-29.055,25.649
			h-7.31v-52.471H3463.72z M3448.31,525.589h15.198c25.562,0,36.768-12.971,36.768-31.699c0-18.721-11.309-33.252-37.236-33.252
			h-14.729V525.589"/>
		<path id="path60" fill="#FFFFFF" d="M3551.706,525.589h33.362v-6.438h-25.759V498.27h22.617v-6.431h-22.617v-24.763h26.44v-6.438
			h-34.043V525.589"/>
		<path id="path62" fill="#FFFFFF" d="M3706.196,519.151h-18.42v6.438h44.561v-6.438h-18.42v-58.513h-7.72V519.151"/>
		<path id="path64" fill="#FFFFFF" d="M3829.28,493.011c0,14.634-8.284,27.415-23.789,27.415s-23.979-12.583-23.979-27.217
			c0-14.626,8.276-27.4,23.789-27.4C3820.798,465.809,3829.28,478.392,3829.28,493.011z M3773.498,493.011
			c0,17.842,11.799,33.735,31.802,33.735c19.98,0,31.97-15.696,31.97-33.538c0-17.849-11.792-33.743-31.78-33.743
			C3785.495,459.466,3773.498,475.169,3773.498,493.011"/>
		<path id="path66" fill="#FFFFFF" d="M3888.225,484.925v40.664h7.595v-39.697c0-13.462,5.581-19.878,17.747-19.878
			c11.689,0,17.263,7.595,17.263,18.516v41.06h7.119v-40.269c0-15.894-7.712-25.854-24.58-25.854
			C3895.63,459.466,3888.225,469.713,3888.225,484.925"/>
		<path id="path68" fill="#FFFFFF" d="M3992.947,525.589h7.595v-58.513h25.547v-6.438h-33.142V525.589"/>
		<path id="path70" fill="#FFFFFF" d="M4123.831,493.011c0,14.634-8.284,27.415-23.782,27.415
			c-15.513,0-23.987-12.583-23.987-27.217c0-14.626,8.284-27.4,23.789-27.4S4123.831,478.392,4123.831,493.011z M4068.057,493.011
			c0,17.842,11.799,33.735,31.794,33.735c19.988,0,31.978-15.696,31.978-33.538c0-17.849-11.799-33.743-31.78-33.743
			C4080.061,459.466,4068.057,475.169,4068.057,493.011"/>
		<path id="path72" fill="#FFFFFF" d="M4182.776,484.925v40.664h7.603v-39.697c0-13.462,5.559-19.878,17.747-19.878
			c11.697,0,17.256,7.595,17.256,18.516v41.06h7.119v-40.269c0-15.894-7.705-25.854-24.573-25.854
			C4190.188,459.466,4182.776,469.713,4182.776,484.925"/>
		<path id="path74" fill="#FFFFFF" d="M4281.807,466.102l3.904,5.471c1.458-1.377,6.145-5.764,14.817-5.764
			c7.998,0,13.264,5.273,13.264,11.016c0,7.91-7.412,11.228-14.912,14.927c-7.91,3.889-15.125,8.101-15.125,18.406
			c0,10.649,8.972,16.589,18.926,16.589c9.646,0,14.919-3.508,17.058-5.156l-3.699-5.662c-2.256,1.75-6.636,4.497-13.462,4.497
			c-6.438,0-11.323-3.904-11.323-9.858c0-6.438,5.273-9.456,11.711-12.48c8.584-4.102,18.523-8.481,18.523-21.167
			c0-10.217-8.679-17.454-21.262-17.454C4290.288,459.466,4284.15,463.861,4281.807,466.102"/>
		<path id="path76" fill="#FFFFFF" d="M4372.012,525.589h33.34v-6.438H4379.6V498.27h22.632v-6.431H4379.6v-24.763h26.44v-6.438
			h-34.028V525.589"/>
		<path id="path78" fill="#FFFFFF" d="M1669.162,728.338h-25.13v8.782h60.769v-8.782h-25.129v-79.783h-10.51V728.338"/>
		<path id="path80" fill="#FFFFFF" d="M1835.503,692.713c0,19.937-11.301,37.354-32.439,37.354
			c-21.145,0-32.703-17.146-32.703-37.09s11.287-37.361,32.439-37.361S1835.503,672.769,1835.503,692.713z M1759.448,692.713
			c0,24.324,16.091,45.989,43.352,45.989s43.608-21.394,43.608-45.725c0-24.338-16.091-46.011-43.345-46.011
			C1775.803,646.966,1759.448,668.367,1759.448,692.713"/>
		<path id="path82" fill="#FFFFFF" d="M1914.568,681.661v55.459h10.371v-54.126c0-18.347,7.581-27.114,24.214-27.114
			c15.938,0,23.525,10.364,23.525,25.269v55.972h9.705v-54.91c0-21.672-10.503-35.244-33.501-35.244
			C1924.682,646.966,1914.568,660.933,1914.568,681.661"/>
		<path id="path84" fill="#FFFFFF" d="M2056.042,737.12h10.371v-79.775h34.834v-8.789h-45.205V737.12"/>
		<path id="path86" fill="#FFFFFF" d="M2233.017,692.713c0,19.937-11.294,37.354-32.446,37.354
			c-21.138,0-32.703-17.146-32.703-37.09s11.301-37.361,32.439-37.361C2221.452,655.616,2233.017,672.769,2233.017,692.713z
			 M2156.97,692.713c0,24.324,16.077,45.989,43.337,45.989c27.253,0,43.608-21.394,43.608-45.725
			c0-24.338-16.077-46.011-43.345-46.011C2173.318,646.966,2156.97,668.367,2156.97,692.713"/>
		<path id="path88" fill="#FFFFFF" d="M2312.075,681.661v55.459h10.371v-54.126c0-18.347,7.581-27.114,24.199-27.114
			c15.967,0,23.54,10.364,23.54,25.269v55.972h9.705v-54.91c0-21.672-10.51-35.244-33.501-35.244
			C2322.19,646.966,2312.075,660.933,2312.075,681.661"/>
		<path id="path90" fill="#FFFFFF" d="M2445.83,656.012l5.317,7.449c1.992-1.868,8.364-7.844,20.2-7.844
			c10.913,0,18.083,7.17,18.083,15.007c0,10.789-10.115,15.3-20.339,20.347c-10.774,5.325-20.603,11.045-20.603,25.144
			c0,14.487,12.231,22.588,25.781,22.588c13.169,0,20.361-4.775,23.276-7.024l-5.061-7.727c-3.054,2.395-9.038,6.116-18.34,6.116
			c-8.774,0-15.417-5.317-15.417-13.425c0-8.782,7.17-12.891,15.952-17.014c11.689-5.596,25.269-11.58,25.269-28.865
			c0-13.96-11.843-23.796-28.989-23.796C2457.387,646.966,2449.016,652.943,2445.83,656.012"/>
		<path id="path92" fill="#FFFFFF" d="M2567.47,737.12h45.469v-8.782h-35.098v-28.447h30.835v-8.774h-30.835v-33.772h36.028v-8.789
			h-46.399V737.12"/>
		<path id="path94" fill="#FFFFFF" d="M2757.805,686.583c0,9.185,7.441,16.626,16.626,16.626c9.17,0,16.619-7.441,16.619-16.626
			c0-9.163-7.449-16.479-16.619-16.479C2765.246,670.103,2757.805,677.42,2757.805,686.583"/>
		<path id="path96" fill="#FFFFFF" d="M2946.557,737.12h9.712l21.936-60.234c2.651-7.449,3.984-11.301,5.581-16.348h0.271
			c1.458,4.768,2.93,9.031,5.581,16.348l21.951,60.234h9.829l11.968-88.564h-10.51l-7.566,57.979
			c-0.813,6.387-1.201,9.712-1.472,12.371h-0.256c-0.93-3.062-1.992-6.643-4.006-12.231l-20.999-58.118h-9.968l-21.541,58.118
			c-2.131,5.72-3.201,9.17-4.263,12.231h-0.256c-0.271-3.201-0.667-6.643-1.333-12.642l-7.046-57.708h-9.705L2946.557,737.12"/>
		<path id="path98" fill="#FFFFFF" d="M3102.871,648.555h10.378v88.564h-10.378V648.555z"/>
		<path id="path100" fill="#FFFFFF" d="M3208.72,657.074c25.525,0,38.958,12.634,38.958,36.57c0,24.067-12.627,34.973-39.617,34.973
			h-9.976v-71.543H3208.72z M3187.707,737.12h20.764c34.827,0,50.12-17.695,50.12-43.213c0-25.54-15.432-45.352-50.793-45.352
			h-20.09V737.12"/>
		<path id="path102" fill="#FFFFFF" d="M3327.746,648.555h10.378v88.564h-10.378V648.555z"/>
		<path id="path104" fill="#FFFFFF" d="M3407.785,690.97h26.726v8.518h-26.726V690.97z"/>
		<path id="path106" fill="#FFFFFF" d="M3524.577,693.109c15.564,0,21.943,6.379,21.943,18.083c0,10.107-5.852,17.146-21.541,17.146
			h-10.781v-35.229H3524.577z M3503.85,737.12h22.2c17.805,0,31.121-8.503,31.121-25.518c0-17.432-11.982-27.268-32.593-27.268
			h-10.378v-35.779h-10.349V737.12"/>
		<path id="path108" fill="#FFFFFF" d="M3642.915,682.064l-29.656,55.056h11.572l23.657-45.205h0.139l23.679,45.205h9.968
			l-28.997-55.056v-33.508h-10.364V682.064"/>
		<path id="path110" fill="#FFFFFF" d="M3769.77,697.891c13.162,0,19.146,5.581,19.146,15.425c0,9.836-6.387,15.022-19.944,15.022
			h-12.495v-30.447H3769.77z M3746.106,737.12h24.06c18.479,0,29.385-8.643,29.385-23.533c0-14.758-10.774-22.339-24.866-23.137
			v-0.271c1.721-1.194,4.124-3.86,9.324-11.038l21.929-30.586h-12.231l-17.82,25.144c-10.371,14.619-11.968,15.681-17.959,15.681
			h-1.45v-40.825h-10.371V737.12"/>
		<path id="path112" fill="#FFFFFF" d="M3901.43,761.048h14.487l-17.937-16.758h-8.789L3901.43,761.048z M3870.185,737.12h45.476
			v-8.782h-35.112v-28.447h30.842v-8.774h-30.842v-33.772h36.05v-8.789h-46.414V737.12"/>
		<path id="path114" fill="#FFFFFF" d="M3983.659,737.12h10.232l41.748-59.971c4.109-5.977,6.65-10.378,8.247-13.03h0.271
			c-0.139,1.736-0.542,5.449-0.542,11.968v61.033h9.58v-88.564h-9.58l-43.74,63.164c-2.666,3.728-5.317,8.643-6.914,11.433h-0.271
			c0.139-1.721,0.527-5.442,0.527-9.705v-64.893h-9.558V737.12"/>
		<path id="path116" fill="#FFFFFF" d="M4158.591,761.048h14.487l-17.937-16.758h-8.774L4158.591,761.048z M4127.361,737.12h45.469
			v-8.782h-35.112v-28.447h30.842v-8.774h-30.842v-33.772h36.042v-8.789h-46.399V737.12"/>
		<path id="path118" fill="#FFFFFF" d="M4240.952,737.12h45.476v-8.782h-35.098v-28.447h30.835v-8.774h-30.835v-33.772h36.035
			v-8.789h-46.414V737.12"/>
		<path id="path120" fill="#FFFFFF" d="M4350.391,656.012l5.317,7.449c1.992-1.868,8.394-7.844,20.208-7.844
			c10.906,0,18.091,7.17,18.091,15.007c0,10.789-10.1,15.3-20.347,20.347c-10.759,5.325-20.603,11.045-20.603,25.144
			c0,14.487,12.231,22.588,25.803,22.588c13.162,0,20.325-4.775,23.254-7.024l-5.054-7.727c-3.054,2.395-9.045,6.116-18.34,6.116
			c-8.782,0-15.425-5.317-15.425-13.425c0-8.782,7.17-12.891,15.952-17.014c11.697-5.596,25.261-11.58,25.261-28.865
			c0-13.96-11.829-23.796-28.989-23.796C4361.956,646.966,4353.577,652.943,4350.391,656.012"/>
		<path id="path122" fill="#FFFFFF" d="M1638.869,877.108l11.712,16.414c4.402-4.102,18.472-17.285,44.546-17.285
			c24.045,0,39.873,15.828,39.873,33.106c0,23.76-22.273,33.721-44.846,44.861c-23.745,11.733-45.425,24.331-45.425,55.4
			c0,31.948,26.961,49.827,56.858,49.827c29.026,0,44.846-10.547,51.292-15.542l-11.125-17
			c-6.753,5.295-19.944,13.491-40.459,13.491c-19.343,0-34.006-11.726-34.006-29.612c0-19.343,15.842-28.425,35.186-37.507
			c25.789-12.312,55.686-25.503,55.686-63.611c0-30.776-26.089-52.471-63.896-52.471
			C1664.372,857.179,1645.9,870.369,1638.869,877.108"/>
		<path id="path124" fill="#FFFFFF" d="M1882.517,928.407l-24.617,66.826c-6.152,16.406-8.789,24.624-12.019,33.721h-0.593
			c-3.215-9.675-6.438-18.765-12.004-33.721l-24.924-66.826H1882.517z M1835.327,1055.907h22.273l75.044-195.212h-24.917
			l-17.878,48.362h-88.821l-17.878-48.362h-22.566L1835.327,1055.907"/>
		<path id="path126" fill="#FFFFFF" d="M1948.413,1055.907h22.859V880.045h76.802v-19.351h-99.661V1055.907"/>
		<path id="path128" fill="#FFFFFF" d="M2212.949,958.018c0,43.96-24.91,82.361-71.506,82.361c-46.612,0-72.122-37.83-72.122-81.782
			c0-43.967,24.932-82.361,71.529-82.361C2187.453,876.236,2212.949,914.044,2212.949,958.018z M2045.29,958.018
			c0,53.621,35.478,101.411,95.559,101.411c60.088,0,96.152-47.197,96.152-100.833c0-53.643-35.471-101.419-95.559-101.419
			C2081.347,857.179,2045.29,904.369,2045.29,958.018"/>
		<path id="path130" fill="#FFFFFF" d="M2263.259,1055.907h22.566l92.036-132.195c9.089-13.191,14.656-22.866,18.179-28.726h0.586
			c-0.3,3.816-1.179,12.026-1.179,26.382v134.539h21.116V860.694h-21.116l-96.438,139.233c-5.852,8.21-11.711,19.05-15.242,25.203
			h-0.579c0.293-3.809,1.172-12.012,1.172-21.401V860.694h-21.101V1055.907"/>
		<path id="path132" fill="#FFFFFF" d="M2555.232,879.451c56.279,0,85.876,27.847,85.876,80.61c0,53.057-27.847,77.08-87.349,77.08
			h-21.973v-157.69H2555.232z M2508.906,1055.907h45.74c76.794,0,110.5-38.987,110.5-95.259c0-56.279-34.006-99.954-111.98-99.954
			h-44.26V1055.907"/>
		<path id="path134" fill="#FFFFFF" d="M2691.689,1055.907h100.247v-19.336h-77.38v-62.732h68.005v-19.351h-68.005v-74.443h79.446
			v-19.351h-102.312V1055.907"/>
		<path id="path136" fill="#FFFFFF" d="M2875.805,1055.907h22.866V880.045h76.794v-19.351h-99.661V1055.907"/>
		<path id="path138" fill="#FFFFFF" d="M2966.67,1019.571c0,11.14-11.44,13.191-11.44,25.488c0,8.218,6.738,14.37,15.828,14.37
			c9.961,0,19.05-7.632,19.05-20.808c0-19.343-12.898-39.573-18.472-46.326h-15.82
			C2959.917,997.884,2966.67,1008.717,2966.67,1019.571"/>
		<path id="path140" fill="#FFFFFF" d="M3019.822,860.694h22.866v195.212h-22.866V860.694z"/>
		<path id="path142" fill="#FFFFFF" d="M3096.74,1055.907h21.401l48.354-132.781c5.859-16.406,8.804-24.91,12.312-36.042h0.593
			c3.215,10.547,6.438,19.929,12.305,36.042l48.362,132.781h21.687l26.382-195.212h-23.159l-16.699,127.8
			c-1.758,14.055-2.651,21.394-3.223,27.253h-0.601c-2.036-6.731-4.387-14.648-8.789-26.953l-46.318-128.101h-21.973l-47.49,128.101
			c-4.673,12.605-7.024,20.222-9.375,26.953h-0.579c-0.593-7.031-1.472-14.648-2.944-27.839l-15.527-127.214h-21.401
			L3096.74,1055.907"/>
		<path id="path144" fill="#FFFFFF" d="M3330.537,1055.907h21.409l48.369-132.781c5.852-16.406,8.796-24.91,12.305-36.042h0.586
			c3.23,10.547,6.445,19.929,12.312,36.042l48.369,132.781h21.68l26.389-195.212h-23.159l-16.699,127.8
			c-1.758,14.055-2.651,21.394-3.23,27.253h-0.586c-2.051-6.731-4.395-14.648-8.804-26.953l-46.311-128.101h-21.98l-47.468,128.101
			c-4.702,12.605-7.046,20.222-9.39,26.953h-0.593c-0.586-7.031-1.458-14.648-2.93-27.839l-15.527-127.214h-21.409
			L3330.537,1055.907"/>
		<path id="path146" fill="#FFFFFF" d="M3702.629,958.018c0,43.96-24.91,82.361-71.521,82.361c-46.597,0-72.122-37.83-72.122-81.782
			c0-43.967,24.932-82.361,71.528-82.361C3677.126,876.236,3702.629,914.044,3702.629,958.018z M3534.978,958.018
			c0,53.621,35.449,101.411,95.537,101.411c60.095,0,96.145-47.197,96.145-100.833c0-53.643-35.464-101.419-95.552-101.419
			S3534.978,904.369,3534.978,958.018"/>
		<path id="path148" fill="#FFFFFF" d="M3803.337,879.744c34.592,0,50.12,10.562,50.12,35.178c0,23.445-12.598,38.401-48.369,38.401
			h-29.297v-73.579H3803.337z M3802.458,972.088c29.897,0,42.788,10.84,42.788,33.699c0,21.694-14.656,31.069-42.195,31.069h-27.261
			v-64.768H3802.458z M3753.225,1055.907h51.584c36.343,0,63.889-13.477,63.889-48.647c0-22.866-13.477-37.529-34.871-43.088v-0.593
			c24.031-4.102,43.381-21.101,43.381-48.069c0-39.858-29.612-54.815-73.293-54.815h-50.691V1055.907"/>
		<path id="path150" fill="#FFFFFF" d="M3905.825,860.694h22.866v195.212h-22.866V860.694z"/>
		<path id="path152" fill="#FFFFFF" d="M3967.546,1055.907h22.859V880.045h76.802v-19.351h-99.661V1055.907"/>
		<path id="path154" fill="#FFFFFF" d="M4086.199,860.694h22.859v195.212h-22.859V860.694z"/>
		<path id="path156" fill="#FFFFFF" d="M4147.92,1055.907h100.239v-19.336h-77.38v-62.732h68.013v-19.351h-68.013v-74.443h79.431
			v-19.351h-102.29V1055.907"/>
		<path id="path158" fill="#FFFFFF" d="M4325.188,969.444c29.019,0,42.209,12.312,42.209,34.006c0,21.68-14.077,33.12-43.967,33.12
			h-27.561v-67.126H4325.188z M4273.01,1055.907h53.057c40.745,0,64.768-19.043,64.768-51.87c0-32.542-23.738-49.248-54.807-51.006
			v-0.586c3.809-2.644,9.089-8.496,20.53-24.331l48.347-67.419h-26.953l-39.28,55.408c-22.866,32.234-26.396,34.592-39.565,34.592
			h-3.237v-90h-22.859V1055.907"/>
		<path id="path160" fill="#FFFFFF" d="M4858.787,957.462l2.329,13.726c2.314-0.637,8.225-1.692,17.952-1.692
			c25.752,0,39.69,11.404,39.69,29.773c0,21.541-18.999,28.931-45.19,29.143v11.411c21.123,0.205,40.972,10.979,40.972,29.136
			c0,11.609-8.232,18.369-22.808,18.369c-13.521,0-21.321-4.219-28.931-10.129l-7.603,10.342
			c7.39,6.548,20.061,13.938,37.588,13.938c25.554,0,38.43-13.726,38.43-31.677c0-17.732-14.568-29.348-30.615-33.779v-0.22
			c18.369-1.685,35.061-16.26,35.061-35.684c0-28.931-24.082-44.348-56.169-44.348
			C4867.869,955.77,4860.896,956.825,4858.787,957.462"/>
		<path id="path162" fill="#FFFFFF" d="M5034.246,1028.631c0,33.149-11.184,59.546-36.108,59.546
			c-25.137,0-36.321-26.396-36.321-59.546c0-33.157,11.184-59.561,36.116-59.561
			C5023.062,969.071,5034.246,995.474,5034.246,1028.631z M4945.132,1028.631c0,35.046,13.938,72.847,52.793,72.847
			c38.21,0,53.21-38.218,53.21-72.847c0-34.636-15-72.861-52.998-72.861C4959.919,955.77,4945.132,993.995,4945.132,1028.631"/>
		<path id="path164" fill="#FFFFFF" d="M5092.7,970.133l8.452,11.821c3.164-2.959,13.293-12.458,32.087-12.458
			c17.322,0,28.718,11.404,28.718,23.862c0,17.102-16.047,24.28-32.307,32.314c-17.109,8.445-32.732,17.527-32.732,39.91
			c0,23.02,19.431,35.896,40.972,35.896c20.911,0,32.307-7.595,36.951-11.184l-8.02-12.253c-4.863,3.801-14.363,9.712-29.143,9.712
			c-13.938,0-24.492-8.445-24.492-21.321c0-13.938,11.396-20.493,25.334-27.041c18.582-8.87,40.122-18.369,40.122-45.82
			c0-22.17-18.794-37.8-46.033-37.8C5111.069,955.77,5097.761,965.277,5092.7,970.133"/>
		<path id="path166" fill="#FFFFFF" d="M5196.36,1098.951h72.217v-13.938h-55.759v-45.19h48.999v-13.945h-48.999v-53.635h57.231
			v-13.938h-73.689V1098.951"/>
		<path id="path168" fill="#FFFFFF" d="M5322.82,1029.049c24.697,0,34.849,10.129,34.849,28.718
			c0,16.055-9.302,27.246-34.219,27.246h-17.102v-55.964H5322.82z M5289.868,1098.951h35.273c28.293,0,49.409-13.521,49.409-40.554
			c0-27.664-18.999-43.286-51.731-43.286h-16.472v-56.807h-16.479V1098.951"/>
		<path id="path170" fill="#FFFFFF" d="M5415.5,1085.013h-39.91v13.938h96.497v-13.938h-39.902V958.304H5415.5V1085.013"/>
		<path id="path172" fill="#FFFFFF" d="M5462.061,965.621c0,4.783,3.787,8.452,8.577,8.452s8.584-3.669,8.584-8.452
			s-3.794-8.584-8.584-8.584S5462.061,960.838,5462.061,965.621"/>
		<path id="path174" fill="#FFFFFF" d="M4948.955,794.058c0,33.149-11.184,59.546-36.108,59.546
			c-25.129,0-36.321-26.396-36.321-59.546c0-33.164,11.191-59.561,36.116-59.561
			C4937.771,734.498,4948.955,760.894,4948.955,794.058z M4859.841,794.058c0,35.046,13.938,72.854,52.8,72.854
			c38.218,0,53.218-38.225,53.218-72.854c0-34.636-15-72.869-53.013-72.869C4874.629,721.19,4859.841,759.422,4859.841,794.058"/>
		<path id="path176" fill="#FFFFFF" d="M4972.788,732.813c24.067,24.067,65.669,63.56,65.669,94.812
			c0,17.534-10.972,25.562-24.492,25.562c-14.773,0-24.287-6.768-31.465-13.938l-8.232,10.137
			c9.082,9.287,22.17,17.527,40.327,17.527c23.65,0,41.184-13.726,41.184-36.958c0-32.527-34.424-66.306-60.813-92.71
			c0,0,8.65,0.425,16.04,0.425h47.732v-13.938h-85.95V732.813"/>
		<path id="path178" fill="#FFFFFF" d="M5228.477,793.846c0,31.677-17.952,59.341-51.519,59.341
			c-33.582,0-51.958-27.246-51.958-58.923c0-31.67,17.952-59.348,51.541-59.348C5210.107,734.915,5228.477,762.169,5228.477,793.846
			z M5107.686,793.846c0,38.635,25.554,73.066,68.855,73.066c43.279,0,69.258-34.006,69.258-72.649
			c0-38.65-25.562-73.074-68.84-73.074C5133.657,721.19,5107.686,755.196,5107.686,793.846"/>
		<path id="path180" fill="#FFFFFF" d="M5257.568,794.476c0,38.005,25.562,72.437,68.848,72.437
			c17.952,0,29.143-4.014,39.492-10.569l-8.232-12.451c-8.24,5.698-18.376,9.294-31.677,9.294
			c-33.787,0-51.108-27.876-51.108-58.286c0-30.835,16.692-59.758,51.738-59.758c15.198,0,26.191,5.061,34.424,12.026l7.595-11.814
			c-7.375-6.768-22.8-14.165-42.437-14.165C5282.28,721.19,5257.568,756.463,5257.568,794.476"/>
		<path id="path182" fill="#FFFFFF" d="M5411.062,850.433h-39.917v13.938h96.504v-13.938h-39.917V723.731h-16.67V850.433"/>
		<path id="path184" fill="#FFFFFF" d="M5461.848,731.055c0,4.783,3.794,8.438,8.584,8.438s8.577-3.655,8.577-8.438
			c0-4.79-3.787-8.584-8.577-8.584S5461.848,726.265,5461.848,731.055"/>
		<path id="path186" fill="#FFFFFF" d="M4862.346,420.252c41.184,41.177,112.339,108.728,112.339,162.188
			c0,29.985-18.779,43.711-41.895,43.711c-25.283,0-41.543-11.565-53.818-23.848l-14.092,17.336
			c15.527,15.901,37.932,29.985,68.987,29.985c40.459,0,70.444-23.474,70.444-63.215c0-55.627-58.879-113.423-104.033-158.569
			c0,0,14.81,0.718,27.451,0.718h81.628v-23.84h-147.012V420.252"/>
		<path id="path188" fill="#FFFFFF" d="M5176.98,525.003c0,56.719-19.138,101.858-61.772,101.858
			c-42.979,0-62.117-45.139-62.117-101.858c0-56.711,19.138-101.858,61.758-101.858
			C5157.842,423.145,5176.98,468.292,5176.98,525.003L5176.98,525.003z M5024.541,525.003c0,59.963,23.848,124.622,90.308,124.622
			c65.383,0,91.033-65.376,91.033-124.622c0-59.238-25.649-124.614-90.674-124.614
			C5049.832,400.389,5024.541,465.765,5024.541,525.003"/>
		<path id="path190" fill="#FFFFFF" d="M5261.86,620.365l-47.322-15.527l-5.779,22.39l57.795,18.062h22.405V404.718h-27.1V620.365"
			/>
		<path id="path192" fill="#FFFFFF" d="M5447.896,475.521c0,34.321-16.619,52.727-48.398,52.727
			c-22.771,0-37.932-7.214-51.658-20.588v-5.413c0-48.406,18.787-79.102,54.536-79.102
			C5434.177,423.145,5447.896,450.23,5447.896,475.521z M5320.029,502.247c0,89.941,52.368,147.378,140.508,147.378l5.061-21.313
			c-35.398,0-64.299-9.023-84.521-28.176c-16.619-15.886-27.458-39.009-31.428-70.437c12.642,13.374,33.23,20.947,52.368,20.947
			c44.795,0,74.063-30.696,74.063-73.315c0-42.634-28.901-76.941-75.864-76.941C5343.511,400.389,5320.029,454.215,5320.029,502.247
			"/>
	</g>
</g>
</svg>
