<?xml version="1.0" encoding="utf-8"?>
<!-- Generator: Adobe Illustrator 15.1.0, SVG Export Plug-In . SVG Version: 6.00 Build 0)  -->
<!DOCTYPE svg PUBLIC "-//W3C//DTD SVG 1.1//EN" "http://www.w3.org/Graphics/SVG/1.1/DTD/svg11.dtd">
<svg version="1.1" id="Calque_1" xmlns="http://www.w3.org/2000/svg" xmlns:xlink="http://www.w3.org/1999/xlink" x="0px" y="0px"
	 width="150.02px" height="120.519px" viewBox="0 0 150.02 120.519" enable-background="new 0 0 150.02 120.519"
	 xml:space="preserve">
<g>
	<defs>
		<rect id="SVGID_1_" width="150.02" height="120.519"/>
	</defs>
	<clipPath id="SVGID_2_">
		<use xlink:href="#SVGID_1_"  overflow="visible"/>
	</clipPath>
	<path clip-path="url(#SVGID_2_)" fill="#1A04C4" d="M126.374,31.74c8.776,0,15.885-7.105,15.885-15.87
		c0-6.241-3.614-11.625-8.858-14.217C131.28,0.604,128.9,0,126.374,0c-2.525,0-4.903,0.605-7.023,1.653
		c-5.242,2.592-8.855,7.976-8.855,14.217C110.495,24.635,117.603,31.74,126.374,31.74 M126.374,7.81c4.454,0,8.076,3.615,8.076,8.06
		c0,4.445-3.622,8.062-8.076,8.062c-4.449,0-8.07-3.617-8.07-8.062C118.304,11.424,121.925,7.81,126.374,7.81"/>
	<path clip-path="url(#SVGID_2_)" fill="#1A04C4" d="M82.536,87.403c0-2.155-1.749-3.904-3.903-3.904H55.157
		c-2.157,0-3.905,1.749-3.905,3.904v25.307H25.773V67.013l41.015-36.731l29.249,26.033v-2.158c0-2.526,0.439-4.95,1.211-7.219
		L69.373,22.131c-1.483-1.321-3.723-1.318-5.199,0.007L19.264,62.36c-0.831,0.74-1.299,1.798-1.299,2.908v51.348
		c0,2.155,1.747,3.903,3.903,3.903h37.176l0.017-29.211h15.666l0.013,29.211h30.727v-7.81H82.536V87.403z"/>
	<path clip-path="url(#SVGID_2_)" fill="#1A04C4" d="M25.599,20.505h6.859l0.004,20.106l34.251-29.878l34.114,29.595
		c1.624-2.08,3.607-3.859,5.852-5.26l-37.41-32.46c-1.473-1.278-3.661-1.273-5.125,0.007L40.267,23.442v-6.84
		c0-2.156-1.75-3.906-3.905-3.906H21.695c-2.157,0-3.904,1.75-3.904,3.906v26.446L1.34,57.398c-1.626,1.417-1.796,3.883-0.377,5.509
		c1.418,1.626,3.885,1.792,5.51,0.376l19.148-16.703L25.599,20.505z"/>
	<path clip-path="url(#SVGID_2_)" fill="#1A04C4" d="M134.209,38.345h-15.664c-8.699,0-15.814,7.115-15.814,15.812v21.73
		c0,6.429,3.891,11.982,9.43,14.447v30.038l7.809,0.015l0.029-36.496h-1.453c-4.416,0-8.006-3.59-8.006-8.004v-21.73
		c0-4.413,3.59-8.002,8.006-8.002h15.664c4.41,0,8.002,3.589,8.002,8.002v21.73c0,4.414-3.592,8.004-8.002,8.004h-1.454l0.03,36.496
		h7.809V90.334c5.535-2.467,9.426-8.021,9.426-14.447v-21.73C150.02,45.46,142.903,38.345,134.209,38.345"/>
</g>
</svg>
