<?xml version="1.0" encoding="utf-8"?>
<!-- Generator: Adobe Illustrator 15.1.0, SVG Export Plug-In . SVG Version: 6.00 Build 0)  -->
<!DOCTYPE svg PUBLIC "-//W3C//DTD SVG 1.1//EN" "http://www.w3.org/Graphics/SVG/1.1/DTD/svg11.dtd">
<svg version="1.1" id="Calque_1" xmlns="http://www.w3.org/2000/svg" xmlns:xlink="http://www.w3.org/1999/xlink" x="0px" y="0px"
	 width="156.519px" height="93.827px" viewBox="0 0 156.519 93.827" enable-background="new 0 0 156.519 93.827"
	 xml:space="preserve">
<g>
	<defs>
		<rect id="SVGID_1_" width="156.519" height="93.827"/>
	</defs>
	<clipPath id="SVGID_2_">
		<use xlink:href="#SVGID_1_"  overflow="visible"/>
	</clipPath>
	<path clip-path="url(#SVGID_2_)" fill="#DF2F6C" d="M137.223,20.116C123.545,9.865,101.202,0,78.259,0
		C55.316,0,32.975,9.865,19.292,20.116C8.411,28.271,0,40.62,0,46.914c0,6.295,10.598,19.525,19.291,27.198
		c13.526,11.927,33.894,19.716,58.967,19.716c25.072,0,45.441-7.789,58.964-19.716c8.696-7.673,19.296-20.902,19.296-27.198
		C156.519,40.62,148.104,28.271,137.223,20.116 M78.259,75.301c-15.654,0-28.389-12.737-28.389-28.391
		c0-15.651,12.735-28.382,28.389-28.382c15.653,0,28.387,12.731,28.387,28.382C106.646,62.563,93.912,75.301,78.259,75.301
		 M9.867,46.768c0.71-3.181,6.37-12.093,15.311-18.795c9.369-7.019,24.107-14.411,40.509-17.094
		c-14.9,5.214-25.634,19.376-25.634,36.031c0,17.118,11.316,31.646,26.862,36.488c-16.478-1.798-30.812-7.55-41.126-16.646
		C17.672,59.591,10.875,50.14,9.867,46.768 M130.729,66.749c-10.314,9.099-24.65,14.851-41.128,16.649
		c15.545-4.843,26.861-19.37,26.861-36.489c0-16.656-10.734-30.819-25.636-36.031c16.404,2.683,31.139,10.074,40.508,17.093
		c8.943,6.703,14.608,15.615,15.317,18.796C145.643,50.14,138.845,59.591,130.729,66.749"/>
	<path clip-path="url(#SVGID_2_)" fill="#DF2F6C" d="M78.259,27.06v9.816c5.532,0,10.036,4.504,10.036,10.038
		c0,5.536-4.504,10.039-10.036,10.039c-5.534,0-10.036-4.503-10.036-10.039h-9.818c0,10.949,8.908,19.855,19.854,19.855
		c10.946,0,19.852-8.906,19.852-19.855C98.11,35.966,89.205,27.06,78.259,27.06"/>
</g>
</svg>
