<?xml version="1.0" encoding="utf-8"?>
<!-- Generator: Adobe Illustrator 15.1.0, SVG Export Plug-In . SVG Version: 6.00 Build 0)  -->
<!DOCTYPE svg PUBLIC "-//W3C//DTD SVG 1.1//EN" "http://www.w3.org/Graphics/SVG/1.1/DTD/svg11.dtd">
<svg version="1.1" xmlns="http://www.w3.org/2000/svg" xmlns:xlink="http://www.w3.org/1999/xlink" x="0px" y="0px"
	 width="143.333px" height="128.387px" viewBox="0 0 143.333 128.387" enable-background="new 0 0 143.333 128.387"
	 xml:space="preserve">
<g id="Calque_1">
	<g>
		<defs>
			<rect id="SVGID_1_" x="48.044" width="47.289" height="120.387"/>
		</defs>
		<clipPath id="SVGID_2_">
			<use xlink:href="#SVGID_1_"  overflow="visible"/>
		</clipPath>
		<path clip-path="url(#SVGID_2_)" fill="#1A04C4" d="M55.809,15.87c0,8.765,7.108,15.87,15.879,15.87
			c8.776,0,15.885-7.105,15.885-15.87S80.464,0,71.688,0C62.917,0,55.809,7.104,55.809,15.87 M71.688,7.81
			c4.454,0,8.076,3.615,8.076,8.06s-3.622,8.062-8.076,8.062c-4.449,0-8.07-3.617-8.07-8.062S67.239,7.81,71.688,7.81"/>
		<polygon clip-path="url(#SVGID_2_)" fill="#3A444F" points="65.282,120.387 65.282,120.387 65.022,120.387 		"/>
		<path clip-path="url(#SVGID_2_)" fill="#3A444F" d="M78.099,120.387h7.81H78.099z"/>
		<path clip-path="url(#SVGID_2_)" fill="#1A04C4" d="M95.333,75.887v-21.73c0-8.697-7.116-15.812-15.811-15.812H63.858
			c-8.699,0-15.814,7.115-15.814,15.812v21.73c0,6.429,3.891,11.982,9.43,14.447v30.038l7.548,0.015h0.26l0.03-36.496h-1.454
			c-4.416,0-8.005-3.59-8.005-8.004v-21.73c0-4.413,3.589-8.002,8.005-8.002h15.665c4.41,0,8.002,3.589,8.002,8.002v21.73
			c0,4.414-3.592,8.004-8.002,8.004h-1.454l0.03,36.496h7.809V90.334C91.442,87.868,95.333,82.314,95.333,75.887"/>
	</g>
</g>
<g id="Calque_1_-_copie">
	<g>
		<defs>
			<rect id="SVGID_3_" y="8" width="47.289" height="120.387"/>
		</defs>
		<clipPath id="SVGID_4_">
			<use xlink:href="#SVGID_3_"  overflow="visible"/>
		</clipPath>
		<path clip-path="url(#SVGID_4_)" fill="#1A04C4" d="M7.765,23.87c0,8.765,7.108,15.87,15.879,15.87
			c8.776,0,15.885-7.105,15.885-15.87S32.42,8,23.644,8C14.873,8,7.765,15.104,7.765,23.87 M23.644,15.81
			c4.454,0,8.076,3.615,8.076,8.06s-3.622,8.062-8.076,8.062c-4.449,0-8.07-3.617-8.07-8.062S19.195,15.81,23.644,15.81"/>
		<polygon clip-path="url(#SVGID_4_)" fill="#3A444F" points="17.238,128.387 17.238,128.387 16.979,128.387 		"/>
		<path clip-path="url(#SVGID_4_)" fill="#3A444F" d="M30.055,128.387h7.81H30.055z"/>
		<path clip-path="url(#SVGID_4_)" fill="#1A04C4" d="M47.289,83.887v-21.73c0-8.697-7.116-15.812-15.811-15.812H15.814
			C7.115,46.345,0,53.46,0,62.157v21.73c0,6.429,3.891,11.982,9.43,14.447v30.038l7.548,0.015h0.26l0.03-36.496h-1.454
			c-4.416,0-8.005-3.59-8.005-8.004v-21.73c0-4.413,3.589-8.002,8.005-8.002h15.665c4.41,0,8.002,3.589,8.002,8.002v21.73
			c0,4.414-3.592,8.004-8.002,8.004h-1.454l0.03,36.496h7.809V98.334C43.398,95.868,47.289,90.314,47.289,83.887"/>
	</g>
</g>
<g id="Calque_1_-_copie_2">
	<g>
		<defs>
			<rect id="SVGID_5_" x="96.044" y="8" width="47.289" height="120.387"/>
		</defs>
		<clipPath id="SVGID_6_">
			<use xlink:href="#SVGID_5_"  overflow="visible"/>
		</clipPath>
		<path clip-path="url(#SVGID_6_)" fill="#1A04C4" d="M103.809,23.87c0,8.765,7.108,15.87,15.879,15.87
			c8.776,0,15.885-7.105,15.885-15.87S128.464,8,119.688,8C110.917,8,103.809,15.104,103.809,23.87 M119.688,15.81
			c4.454,0,8.076,3.615,8.076,8.06s-3.622,8.062-8.076,8.062c-4.448,0-8.069-3.617-8.069-8.062S115.239,15.81,119.688,15.81"/>
		<polygon clip-path="url(#SVGID_6_)" fill="#3A444F" points="113.282,128.387 113.282,128.387 113.022,128.387 		"/>
		<path clip-path="url(#SVGID_6_)" fill="#3A444F" d="M126.099,128.387h7.81H126.099z"/>
		<path clip-path="url(#SVGID_6_)" fill="#1A04C4" d="M143.333,83.887v-21.73c0-8.697-7.116-15.812-15.811-15.812h-15.664
			c-8.699,0-15.814,7.115-15.814,15.812v21.73c0,6.429,3.891,11.982,9.43,14.447v30.038l7.549,0.015h0.26l0.029-36.496h-1.453
			c-4.416,0-8.006-3.59-8.006-8.004v-21.73c0-4.413,3.59-8.002,8.006-8.002h15.664c4.41,0,8.002,3.589,8.002,8.002v21.73
			c0,4.414-3.592,8.004-8.002,8.004h-1.454l0.03,36.496h7.809V98.334C139.442,95.868,143.333,90.314,143.333,83.887"/>
	</g>
</g>
</svg>
