<?xml version="1.0" encoding="utf-8"?>
<!-- Generator: Adobe Illustrator 15.1.0, SVG Export Plug-In . SVG Version: 6.00 Build 0)  -->
<!DOCTYPE svg PUBLIC "-//W3C//DTD SVG 1.1//EN" "http://www.w3.org/Graphics/SVG/1.1/DTD/svg11.dtd">
<svg version="1.1" id="Calque_1" xmlns="http://www.w3.org/2000/svg" xmlns:xlink="http://www.w3.org/1999/xlink" x="0px" y="0px"
	 width="188.787px" height="189.176px" viewBox="0 0 188.787 189.176" enable-background="new 0 0 188.787 189.176"
	 xml:space="preserve">
<g>
	<defs>
		<rect id="SVGID_1_" width="188.787" height="189.176"/>
	</defs>
	<clipPath id="SVGID_2_">
		<use xlink:href="#SVGID_1_"  overflow="visible"/>
	</clipPath>
	<path clip-path="url(#SVGID_2_)" fill="#1A04C4" d="M112.086,164.589H76.458c-2.71,0-4.909,2.2-4.909,4.909
		c0,19.678,16.509,19.678,22.724,19.678c6.213,0,22.721,0,22.721-19.678C116.994,166.789,114.798,164.589,112.086,164.589
		 M94.273,179.36c-7.531,0-10.999-1.172-12.28-4.952h24.56C105.268,178.188,101.803,179.36,94.273,179.36"/>
	<path clip-path="url(#SVGID_2_)" fill="#1A04C4" d="M94.273,52.802c-29.42,0-53.356,23.937-53.356,53.355
		c0,15.176,6.493,29.666,17.813,39.786c3.365,3.372,6.233,5.278,8.334,6.676c3.141,2.09,3.141,2.09,3.141,4.604
		c0,2.712,2.196,4.909,4.911,4.909c2.711,0,4.907-2.197,4.907-4.909c0-7.773-3.825-10.316-7.526-12.779
		c-1.968-1.309-4.197-2.794-6.908-5.524c-0.074-0.074-0.147-0.146-0.225-0.214c-9.298-8.26-14.63-20.123-14.63-32.548
		c0-24.005,19.531-43.538,43.539-43.538c24.006,0,43.537,19.532,43.537,43.538c0,12.422-5.334,24.284-14.637,32.55
		c-0.075,0.069-0.148,0.14-0.223,0.213c-2.711,2.729-4.938,4.215-6.903,5.523c-3.699,2.458-7.523,5.006-7.523,12.779
		c0,2.712,2.198,4.909,4.909,4.909c2.71,0,4.907-2.197,4.907-4.909c0-2.514,0-2.514,3.146-4.605
		c2.095-1.397,4.962-3.304,8.327-6.677c11.321-10.12,17.813-24.611,17.813-39.783C147.627,76.739,123.692,52.802,94.273,52.802"/>
	<path clip-path="url(#SVGID_2_)" fill="#1A04C4" d="M94.273,143.756c3.719,0,6.732-3.016,6.732-6.732
		c0-3.715-3.014-6.733-6.732-6.733c-3.719,0-6.735,3.019-6.735,6.733C87.539,140.74,90.554,143.756,94.273,143.756"/>
	<path clip-path="url(#SVGID_2_)" fill="#1A04C4" d="M94.395,36.818c2.71,0,4.907-2.195,4.907-4.906V4.909
		c0-2.71-2.197-4.909-4.907-4.909c-2.712,0-4.909,2.199-4.909,4.909v27.003C89.485,34.623,91.683,36.818,94.395,36.818"/>
	<path clip-path="url(#SVGID_2_)" fill="#1A04C4" d="M55.337,46.941c0.884,0,1.777-0.237,2.584-0.738
		c2.304-1.432,3.011-4.456,1.581-6.759L45.258,16.505c-1.43-2.305-4.456-3.013-6.759-1.582c-2.304,1.429-3.011,4.456-1.583,6.759
		L51.162,44.62C52.09,46.118,53.694,46.941,55.337,46.941"/>
	<path clip-path="url(#SVGID_2_)" fill="#1A04C4" d="M30.877,67.781L7.303,54.622c-2.367-1.323-5.356-0.476-6.678,1.892
		c-1.324,2.367-0.474,5.358,1.893,6.679l23.575,13.16c0.758,0.423,1.58,0.623,2.388,0.623c1.721,0,3.392-0.906,4.292-2.516
		C34.093,72.093,33.246,69.102,30.877,67.781"/>
	<path clip-path="url(#SVGID_2_)" fill="#1A04C4" d="M150.288,14.923c-2.302-1.431-5.328-0.721-6.761,1.583l-14.24,22.938
		c-1.43,2.303-0.725,5.327,1.581,6.759c0.808,0.501,1.7,0.738,2.584,0.738c1.642,0,3.247-0.823,4.175-2.321l14.24-22.938
		C153.3,19.379,152.592,16.352,150.288,14.923"/>
	<path clip-path="url(#SVGID_2_)" fill="#1A04C4" d="M188.163,56.515c-1.319-2.369-4.314-3.221-6.677-1.892l-23.579,13.159
		c-2.366,1.32-3.214,4.312-1.892,6.679c0.898,1.609,2.568,2.516,4.289,2.516c0.811,0,1.635-0.201,2.391-0.624l23.574-13.159
		C188.639,61.873,189.485,58.882,188.163,56.515"/>
	<path clip-path="url(#SVGID_2_)" fill="#1A04C4" d="M94.274,123.216c2.712,0,4.909-2.198,4.909-4.909V83.074
		c0-2.71-2.197-4.905-4.909-4.905c-2.71,0-4.908,2.195-4.908,4.905v35.232C89.366,121.018,91.564,123.216,94.274,123.216"/>
</g>
</svg>
