<?xml version="1.0" encoding="utf-8"?>
<!-- Generator: Adobe Illustrator 16.0.0, SVG Export Plug-In . SVG Version: 6.00 Build 0)  -->
<!DOCTYPE svg PUBLIC "-//W3C//DTD SVG 1.1//EN" "http://www.w3.org/Graphics/SVG/1.1/DTD/svg11.dtd">
<svg version="1.1" xmlns="http://www.w3.org/2000/svg" xmlns:xlink="http://www.w3.org/1999/xlink" x="0px" y="0px" width="815px"
	 height="192px" viewBox="107.249 435.147 815 192" enable-background="new 107.249 435.147 815 192" xml:space="preserve">
<g id="Toulouse">
	<rect x="107.249" y="435.147" fill="#121037" width="815" height="192"/>
	<rect x="757.418" y="475.634" fill="#FFFFFF" width="1.997" height="111.722"/>
	<path fill="#FFFFFF" d="M170.034,587.728c2.542,0.194,5.156,0.28,7.68-0.116c4.886-0.761,9.921-0.79,14.875-1.225
		c9.597-0.839,19.138,1.43,28.748,1.332c4.538-0.049,9.125-0.226,13.588-1.062c2.158-0.4,4.36-0.533,6.434-1.275
		c1.475-0.523,6.567-0.104,7.355-1.643c0.393-0.772,0.606-1.123-0.174-1.519c0.455-1.239-0.583-2.711,0.24-3.731
		c0.759-0.938-1.528-1.126-0.42-1.834c0.377-0.242-0.034-5.062-0.021-5.657c0.058-2.641-0.807-5.173-0.462-7.794
		c0.321-2.461-0.748-5.795,0-8.172c0.872-2.768,0.909-3.406,0.629-6.077c-0.261-2.462-0.243-5.557-0.419-7.959
		c-0.163-2.18,1.021-3.618,0.52-5.62c-0.319-1.279-0.782-2.572-0.798-3.902c-0.016-1.185,0.458-4.052,0.266-5.237
		c-0.346-2.155-0.199-6.099-0.335-6.128c0.456-1.678-0.052-2.093-0.541-3.631c-0.674-2.114,1.003-4.773,0.467-6.912
		c-0.533-2.129-0.223-4.134,0.633-8.52c0.216-1.115-0.728-4.371-0.923-5.395c-0.441-2.321,1.599-8.439,1.139-10.757
		c-0.398-2.003,0.657-8.953-0.599-10.557c-3.173-4.053-18.355,0.645-23.19-0.212c-2.366-0.419-4.627-0.207-7.015-0.245
		c-2.67-0.04-5.29-0.563-7.964-0.387c-5.539,0.364-11.025,0.437-16.558,0.86c-5.097,0.393-9.78-0.53-14.864,0.065
		c-5.339,0.62-16.143-1.797-21.2,0.057c-4.205,1.537-7.936-2.123-11.069,1.094c-1.508,1.551-0.488,17.899-0.707,20.007
		c-0.13,1.282-0.101,2.573-0.144,3.859c-0.037,1.137,0.219,3.083,0.28,4.05c0.208,3.287,0.472,2.164,0.281,5.448
		c-0.301,0.027,0.389,4.171,0.114,4.195c-0.145,1.095,0.591,6.436,0.485,7.512c-0.101,1,2.164-1.3,2.513-1.396
		c-0.387-0.217,2.036-1.615,1.675-1.817c0.876-0.139,0.578-1.869,1.468-1.816c1.546,0.097,2.893-3.618,4.399-3.977
		c1.98-0.48,1.768-3.122,3.303-3.542c1.972-0.537,0.038-1.098-0.117-2.847c-0.064-0.741,0.02-0.504,0.095-1.24
		c0.081-0.791-0.556-1.437-0.446-2.205c0.25-1.722-0.82-5.017,0.028-6.585c0.805-1.494-1.433-10.532-0.353-11.838
		c0.892-1.078,5.053-0.1,6.498-0.452c1.722-0.419,7.659-1.055,9.429-1.259c2.106-0.242,20.454-1.241,23.893,0.289
		c4.734,2.12,12.936-1.479,18.01-0.255c2.268,0.554,8.821,1.406,10.868,2.563c1.903,1.072,1.657,14.564,2.208,16.059
		c0.55,1.49,0.524,3.087,1.712,4.19c-0.356,0.44-0.421,1.756,0.333,2.192c-0.56,1.082-0.137,2.125,0.083,3.302
		c0.295,1.601,0.146,3.195,0.321,4.825c0.381,3.52,0.701,7.054,1.588,10.488c-0.006,0.006-0.143,0.111-0.163,0.127
		c0.69,6.587,2.094,13.189,2.653,19.808c0.263,3.133,0.167,6.22,0.775,9.318c0.656,3.356-0.19,6.903,0.399,10.313
		c-0.718,1.692-0.465,10.625-2.348,11.004c-6.794,1.353-13.838,1.686-20.772,1.629c-7.364-0.062-14.078,1.289-21.436,0.973
		c-0.352-0.016-0.199-2.303-0.21-2.764c-0.046-1.639-0.423-3.286-0.382-4.925c0.036-1.386,0.261-2.779,0.334-4.162
		c0.043-0.853-0.38-1.583-0.318-2.426c0.063-0.859,0.415-1.79,0.154-2.655c-0.306-1.022-0.08-2.647-0.664-3.526
		c-0.526-0.793-0.823-0.985-0.992-1.98c-0.124-0.729-1.317-0.794-1.927-0.867c-0.86-0.101-1.724-0.182-2.582-0.272
		c-0.4,0.526-1.126,0.376-1.657,0.229c-0.24-0.065-0.413-0.357-0.694-0.613c-0.102,0.06-0.384,0.222-0.743,0.427
		c-0.224-0.444-6.279,0.219-7.875,0.88c-0.397,0.163-0.804,0.313-1.164,0.447c1.308,3.521-0.217,7.295,0.495,10.935
		c0.72,3.697-0.085,7.101,0.201,10.855c-3.827,0-7.345,0.509-11.172,0.294c-0.02-0.005-0.705,0.083-0.768,0.041
		c-1.707,0.02-1.565,0.107-1.608-1.03c-0.087-2.34-0.264-4.961-0.087-7.406c0.19-2.637,0.698-4.532-0.053-6.425
		c-0.336-0.846-0.03-2.05-0.021-3.067c0.013-1.204-0.279-2.438-0.352-3.659c-0.067-1.153-0.355-1.938-0.417-3.057
		c-0.059-1.068,0.13-2.534-0.358-3.182c0.206-1.274,0.326-2.61-0.155-3.64c-0.34-0.738,1.042-3.441-0.513-3.157
		c-1.848,0.342-11.902,1.089-13.698,0.794c-0.564-0.095-1.772-1.743-0.993-2.563c3.213-3.372,8.886-8.116,12.181-10.928
		c1.579-1.345,4.061-3.716,5.645-5.096c1.937-1.683,3.693-3.659,5.407-5.564c1.509-1.68,3.488-3.831,4.939-5.566
		c0.692-0.828,3.11-2.324,4.373-2.022c3.966,0.945,7.966,3.173,11.565,5.055c3.793,1.986,7.686,4.826,11.374,7.004
		c3.768,2.22,18.611,11.147,22.326,13.479c3.555,2.232,2.383,4.469,0.828,4.632c-1.573,0.164-2.896,0.109-3.411,0.151
		c-1.815,0.15-4.688,0.221-6.476,0.552c-3.767,0.696-7.899-0.437-11.595,0.561c-0.249,0.066,0.183,2.18,0.148,2.621
		c0,2.149,0.543,5.094,0.745,3.556c-0.412,3.141,0.176,14.794,0.365,16.169c0.306,2.201,5.904,0.3,9.254,0.69
		c1.77,0.205,2.959-1.739,2.726-3.28c-0.351-2.317,0.069-5.298-1.065-7.404c-0.362-0.673,0.16-1.553-0.318-2.253
		c-0.634-0.92-0.634-2.017-0.417-3.069c0.058-0.287,0.355-0.67,0.62-0.747c1.556-0.461,3.108-0.534,4.705-0.705
		c0.7-0.075,1.392-0.229,2.057-0.467c0.965-0.346,1.854-0.046,2.815-0.311c3.301-0.903,5.794-3.159,8.942-4.081
		c0.365-0.104,1.363-1.346,1.354-1.7c-0.145-3.815-4.289-6.157-6.607-8.905c-3.103-3.672-6.742-6.694-10.767-9.334
		c-0.557-0.365-3.519-2.602-3.397-3.098c0.09-0.015,1.113,0.385,2.461-0.122c3.397-0.271,5.67,0.501,5.563-1.683
		c-0.145-2.825,2.167-11.412-2.429-10.678c-0.71,0.11-1.351-0.381-2.063-0.43c-0.782-0.054-1.564,0.065-2.347,0.084
		c-2.094,0.051-3.997,0.992-5.994,1.487c-0.938,0.23-0.876,0.937-0.756,1.672c0.274,1.635,0.343,5.611,0.156,7.263
		c-1.644-0.886-3.284-1.768-4.924-2.65c0.029-0.082-0.231-2.285-0.537-3.357c-0.058-0.194,0.143-1.47,0.139-1.675
		c-0.025-1.091,0.308-1.275-0.593-1.7c-2.573-1.214-6.558-0.79-9.323-0.396c-2.408,0.338-1.029,1.485-3.347,0.585
		c-2.345-0.919-5.038-1.639-7.235-2.848c-2.626-1.446-4.146-2.149-7.188-1.221c-5.461,1.67-9.228,6.981-13.25,10.697
		c-1.843,1.701-3.583,3.562-5.361,5.337c-2.007,1.998-4.122,4.071-6.033,6.146c-3.589,3.897-5.746,5.938-10.109,9.936
		c-1.661,1.523-6.069,5.772-7.047,7.795c-0.346,0.714-1.536,2.134-1.195,3.241c0.27,0.872,0.247,1.506,0.73,1.706
		c1.088,0.441,5.673,0.76,6.857,0.743c1.422-0.021,5.295-0.762,6.728-0.893c0.331-0.031,0.855,0.382,1.021,0.721
		c0.555,1.13-0.551,5.28-0.773,6.505c-0.355,1.957-0.007,3.934,0.204,5.886c0.211,1.949,0.156,3.559-0.012,5.512
		c-0.084,0.957-0.65,17.249,0.191,17.942C147.32,588.169,167.808,587.552,170.034,587.728 M187.424,501.677
		c0.206,0.167,0.398,0.438,0.613,0.49c2.174,0.467,4.181-0.374,6.337-0.288c1.592,0.064,4.017,0.88,5.496-0.093
		c0.381-0.248,1.43-1.806,1.147-2.432c-0.632-1.387-0.129-2.735-0.454-4.052c-0.27-1.077,0.451-4.553-0.345-5.179
		c-0.966-0.767-2.937-0.8-4.182-0.771c-2.884,0.064-5.62-0.157-8.297,1.212c-1.178,0.606,0.383,2.753,0.535,3.677
		c0.165,1.055-0.004,3.006-0.188,3.439C188.8,498.248,188.301,500.269,187.424,501.677z M206.368,501.701
		c0.202,0.16,0.397,0.421,0.615,0.47c2.156,0.451,4.148-0.357,6.293-0.273c1.577,0.06,3.987,0.842,5.456-0.09
		c0.379-0.238,1.42-1.734,1.14-2.334c-0.626-1.331-0.128-2.629-0.45-3.888c-0.263-1.031,0.645-3.346-0.146-3.948
		c-0.961-0.737,1.615-1.752-3.066-1.729c-2.867,0.062-6.755-0.694-9.412,0.622c-1.173,0.582,0.272,3.147,0.415,4.036
		c0.166,1.011-0.107,1.539,0.56,2.318c-0.313,0.236-0.562,0.563-0.745,0.981C207.739,498.412,207.24,500.353,206.368,501.701z
		 M168.064,502.968c1.313-0.241,4.235,0.001,5.663-0.062c1.858-0.083,3.33,0.67,5.213,0.057c1.482-0.482,1.528-0.139,2.718-1.565
		c0.473-0.567,0.766-2.269,0.355-2.568c-0.718-0.526,0.273-1.596-0.355-1.94c-0.164-0.983-0.243-2.021-0.515-2.947
		c-1.257-4.304,1.478-3.908-6.856-3.288c-1.412,0.105-5.001-0.275-6.208,0.354c-0.901,0.474,0.197,2.725-0.422,3.829
		c-1.613,2.866-0.525,5.318,0.308,5.45C168.181,500.323,166.95,503.173,168.064,502.968z"/>
	<path fill="#FFFFFF" d="M273.325,567.248h2.591c2.077,0,3.628,0.992,3.628,2.978c0,2.032-1.397,3.18-3.799,3.18h-1.212v4.174
		h-1.209V567.248 M275.744,572.381c1.814,0,2.558-0.745,2.558-2.108c0-1.179-0.683-2.001-2.513-2.001h-1.257v4.109H275.744
		L275.744,572.381z"/>
	<path fill="#FFFFFF" d="M289.579,567.248h1.177l3.97,10.331h-1.318l-0.946-2.561h-4.698l-0.946,2.561h-1.196L289.579,567.248
		 M292.076,573.996l-1.304-3.537c-0.326-0.868-0.466-1.303-0.636-1.786h-0.032c-0.17,0.514-0.342,0.994-0.636,1.786l-1.32,3.537
		H292.076z"/>
	<path fill="#FFFFFF" d="M302.347,567.248h2.807c2.156,0,3.427,1.009,3.427,2.745c0,1.725-1.255,2.607-2.9,2.699v0.033
		c0.202,0.139,0.482,0.449,1.086,1.287l2.56,3.568H307.9l-2.079-2.933c-1.211-1.707-1.396-1.831-2.094-1.831h-0.17v4.762h-1.209
		L302.347,567.248 M305.107,571.823c1.537,0,2.234-0.652,2.234-1.798c0-1.149-0.745-1.754-2.327-1.754h-1.458v3.552H305.107
		L305.107,571.823z"/>
	<path fill="#FFFFFF" d="M316.191,572.381c0-2.79,1.878-5.317,5.057-5.317c1.32,0,2.141,0.291,2.899,0.773l-0.605,0.914
		c-0.604-0.418-1.347-0.684-2.326-0.684c-2.483,0-3.754,2.05-3.754,4.284c0,2.264,1.227,4.388,3.801,4.388
		c1.116,0,1.924-0.373,2.529-0.885l0.557,0.869c-0.542,0.497-1.675,1.04-3.116,1.04
		C318.009,577.764,316.191,575.174,316.191,572.381"/>
	<path fill="#FFFFFF" d="M341.423,567.248h2.421c4.063,0,5.846,2.061,5.846,5.041c0,2.979-1.8,5.29-5.926,5.29h-2.341V567.248
		 M343.872,576.584c2.979,0,4.544-1.471,4.544-4.266c0-2.806-1.472-4.078-4.622-4.078h-1.165v8.346h1.242V576.584z"/>
	<polyline fill="#FFFFFF" points="357.874,567.248 363.176,567.248 363.176,568.272 359.083,568.272 359.083,571.593 
		362.679,571.593 362.679,572.615 359.083,572.615 359.083,576.553 363.286,576.553 363.286,577.577 357.874,577.577 
		357.874,567.248 	"/>
	<path fill="#FFFFFF" d="M370.788,576.709l0.621-0.87c0.233,0.218,0.977,0.917,2.358,0.917c1.271,0,2.11-0.84,2.11-1.755
		c0-1.258-1.181-1.784-2.374-2.373c-1.257-0.619-2.404-1.288-2.404-2.931c0-1.693,1.427-2.639,3.01-2.639
		c1.534,0,2.374,0.559,2.715,0.822l-0.59,0.9c-0.356-0.279-1.054-0.715-2.142-0.715c-1.023,0-1.798,0.62-1.798,1.567
		c0,1.025,0.837,1.506,1.861,1.985c1.364,0.652,2.948,1.349,2.948,3.365c0,1.629-1.381,2.778-3.382,2.778
		C372.137,577.764,371.162,577.067,370.788,576.709"/>
	<polyline fill="#FFFFFF" points="394.358,567.248 399.662,567.248 399.662,568.272 395.568,568.272 395.568,571.593 
		399.165,571.593 399.165,572.615 395.568,572.615 395.568,576.553 399.771,576.553 399.771,577.577 394.358,577.577 
		394.358,567.248 	"/>
	<polyline fill="#FFFFFF" points="410.396,572.227 407.295,567.248 408.674,567.248 411.171,571.251 413.529,567.248 
		414.802,567.248 411.778,572.227 415.111,577.577 413.732,577.577 411.001,573.203 408.395,577.577 407.124,577.577 
		410.396,572.227 	"/>
	<path fill="#FFFFFF" d="M422.77,567.248h2.592c2.079,0,3.629,0.992,3.629,2.978c0,2.032-1.397,3.18-3.802,3.18h-1.209v4.174h-1.21
		V567.248 M425.19,572.381c1.815,0,2.561-0.745,2.561-2.108c0-1.179-0.683-2.001-2.514-2.001h-1.257v4.109H425.19L425.19,572.381z"
		/>
	<path fill="#FFFFFF" d="M436.382,572.429c0-2.838,1.875-5.367,5.054-5.367c3.182,0,5.087,2.496,5.087,5.333
		c0,2.839-1.876,5.369-5.054,5.369C438.288,577.764,436.382,575.268,436.382,572.429 M445.255,572.429
		c0-2.329-1.32-4.361-3.785-4.361c-2.467,0-3.817,2.001-3.817,4.327c0,2.329,1.318,4.361,3.783,4.361
		C443.904,576.757,445.255,574.756,445.255,572.429z"/>
	<path fill="#FFFFFF" d="M453.776,576.709l0.623-0.87c0.23,0.218,0.978,0.917,2.356,0.917c1.271,0,2.107-0.84,2.107-1.755
		c0-1.258-1.177-1.784-2.37-2.373c-1.258-0.619-2.406-1.288-2.406-2.931c0-1.693,1.43-2.639,3.009-2.639
		c1.535,0,2.375,0.559,2.716,0.822l-0.59,0.9c-0.359-0.279-1.057-0.715-2.142-0.715c-1.025,0-1.799,0.62-1.799,1.567
		c0,1.025,0.837,1.506,1.862,1.985c1.365,0.652,2.945,1.349,2.945,3.365c0,1.629-1.378,2.778-3.381,2.778
		C455.125,577.764,454.149,577.067,453.776,576.709"/>
	<rect x="468.199" y="567.248" fill="#FFFFFF" width="1.21" height="10.331"/>
	<polyline fill="#FFFFFF" points="480,568.272 477.069,568.272 477.069,567.248 484.157,567.248 484.157,568.272 481.227,568.272 
		481.227,577.577 480,577.577 480,568.272 	"/>
	<rect x="491.826" y="567.248" fill="#FFFFFF" width="1.209" height="10.331"/>
	<path fill="#FFFFFF" d="M501.288,572.429c0-2.838,1.876-5.367,5.055-5.367c3.182,0,5.087,2.496,5.087,5.333
		c0,2.839-1.876,5.369-5.053,5.369C503.194,577.764,501.288,575.268,501.288,572.429 M510.161,572.429
		c0-2.329-1.319-4.361-3.783-4.361c-2.47,0-3.815,2.001-3.815,4.327c0,2.329,1.316,4.361,3.78,4.361
		C508.813,576.757,510.161,574.756,510.161,572.429z"/>
	<path fill="#FFFFFF" d="M519.6,567.248h1.197l4.87,6.996c0.482,0.697,0.774,1.209,0.962,1.521h0.031
		c-0.018-0.203-0.061-0.639-0.061-1.399v-7.118h1.118v10.331H526.6l-5.104-7.367c-0.308-0.437-0.618-1.009-0.806-1.334h-0.029
		c0.015,0.201,0.057,0.636,0.057,1.132v7.569h-1.116L519.6,567.248"/>
	<path fill="#FFFFFF" d="M535.706,576.709l0.622-0.87c0.23,0.218,0.976,0.917,2.357,0.917c1.271,0,2.106-0.84,2.106-1.755
		c0-1.258-1.176-1.784-2.372-2.373c-1.257-0.619-2.404-1.288-2.404-2.931c0-1.693,1.428-2.639,3.01-2.639
		c1.535,0,2.373,0.559,2.715,0.822l-0.591,0.9c-0.357-0.279-1.055-0.715-2.142-0.715c-1.023,0-1.798,0.62-1.798,1.567
		c0,1.025,0.835,1.506,1.861,1.985c1.364,0.652,2.947,1.349,2.947,3.365c0,1.629-1.379,2.778-3.382,2.778
		C537.056,577.764,536.08,577.067,535.706,576.709"/>
	<path fill="#FFFFFF" d="M559.278,567.248h2.418c4.066,0,5.848,2.061,5.848,5.041c0,2.979-1.799,5.29-5.925,5.29h-2.341V567.248
		 M561.73,576.584c2.977,0,4.542-1.471,4.542-4.266c0-2.806-1.473-4.078-4.622-4.078h-1.161v8.346h1.241V576.584z"/>
	<polyline fill="#FFFFFF" points="575.727,567.248 581.032,567.248 581.032,568.272 576.937,568.272 576.937,571.593 
		580.535,571.593 580.535,572.615 576.937,572.615 576.937,576.553 581.142,576.553 581.142,577.577 575.727,577.577 
		575.727,567.248 	"/>
	<polyline fill="#FFFFFF" points="600.305,568.272 597.372,568.272 597.372,567.248 604.463,567.248 604.463,568.272 
		601.529,568.272 601.529,577.577 600.305,577.577 600.305,568.272 	"/>
	<path fill="#FFFFFF" d="M611.008,572.429c0-2.838,1.878-5.367,5.06-5.367c3.178,0,5.085,2.496,5.085,5.333
		c0,2.839-1.875,5.369-5.057,5.369C612.919,577.764,611.008,575.268,611.008,572.429 M619.883,572.429
		c0-2.329-1.316-4.361-3.785-4.361c-2.466,0-3.814,2.001-3.814,4.327c0,2.329,1.316,4.361,3.784,4.361
		C618.534,576.757,619.883,574.756,619.883,572.429z"/>
	<path fill="#FFFFFF" d="M629.26,573.716v-6.468h1.209v6.313c0,2.143,0.886,3.162,2.824,3.162c1.858,0,2.743-1.211,2.743-2.947
		v-6.531h1.134v6.406c0,2.527-1.226,4.112-3.909,4.112C630.438,577.764,629.26,576.137,629.26,573.716"/>
	<polyline fill="#FFFFFF" points="645.918,567.248 647.125,567.248 647.125,576.553 651.19,576.553 651.19,577.577 645.918,577.577 
		645.918,567.248 	"/>
	<path fill="#FFFFFF" d="M657.865,572.429c0-2.838,1.878-5.367,5.06-5.367c3.18,0,5.088,2.496,5.088,5.333
		c0,2.839-1.878,5.369-5.058,5.369S657.865,575.268,657.865,572.429 M666.738,572.429c0-2.329-1.318-4.361-3.783-4.361
		c-2.467,0-3.817,2.001-3.817,4.327c0,2.329,1.319,4.361,3.786,4.361C665.39,576.757,666.738,574.756,666.738,572.429z"/>
	<path fill="#FFFFFF" d="M676.118,573.716v-6.468h1.208v6.313c0,2.143,0.887,3.162,2.823,3.162c1.861,0,2.746-1.211,2.746-2.947
		v-6.531h1.133v6.406c0,2.527-1.226,4.112-3.909,4.112C677.296,577.764,676.118,576.137,676.118,573.716"/>
	<path fill="#FFFFFF" d="M691.868,576.709l0.621-0.87c0.232,0.218,0.979,0.917,2.358,0.917c1.272,0,2.109-0.84,2.109-1.755
		c0-1.258-1.179-1.784-2.373-2.373c-1.259-0.619-2.405-1.288-2.405-2.931c0-1.693,1.427-2.639,3.011-2.639
		c1.537,0,2.374,0.559,2.715,0.822l-0.591,0.9c-0.356-0.279-1.055-0.715-2.141-0.715c-1.026,0-1.799,0.62-1.799,1.567
		c0,1.025,0.837,1.506,1.861,1.985c1.363,0.652,2.947,1.349,2.947,3.365c0,1.629-1.382,2.778-3.384,2.778
		C693.22,577.764,692.242,577.067,691.868,576.709"/>
	<polyline fill="#FFFFFF" points="706.219,567.248 711.521,567.248 711.521,568.272 707.426,568.272 707.426,571.593 
		711.026,571.593 711.026,572.615 707.426,572.615 707.426,576.553 711.633,576.553 711.633,577.577 706.219,577.577 
		706.219,567.248 	"/>
	<polyline fill="#FFFFFF" points="276.253,534.992 272.256,534.992 272.256,533.598 281.922,533.598 281.922,534.992 
		277.924,534.992 277.924,547.684 276.253,547.684 276.253,534.992 	"/>
	<path fill="#FFFFFF" d="M290.616,540.661c0-3.869,2.559-7.316,6.896-7.316c4.336,0,6.937,3.403,6.937,7.272
		c0,3.874-2.56,7.321-6.896,7.321C293.218,547.939,290.616,544.532,290.616,540.661 M302.715,540.661
		c0-3.173-1.798-5.943-5.161-5.943s-5.201,2.728-5.201,5.899c0,3.174,1.796,5.944,5.161,5.944
		C300.876,546.562,302.715,543.835,302.715,540.661z"/>
	<path fill="#FFFFFF" d="M315.293,542.417v-8.819h1.65v8.609c0,2.919,1.205,4.313,3.85,4.313c2.538,0,3.744-1.646,3.744-4.018
		v-8.904h1.545v8.736c0,3.447-1.672,5.606-5.331,5.606C316.901,547.939,315.293,545.717,315.293,542.417"/>
	<polyline fill="#FFFFFF" points="337.799,533.598 339.448,533.598 339.448,546.287 344.989,546.287 344.989,547.684 
		337.799,547.684 337.799,533.598 	"/>
	<path fill="#FFFFFF" d="M353.854,540.661c0-3.869,2.557-7.316,6.894-7.316c4.336,0,6.937,3.403,6.937,7.272
		c0,3.874-2.558,7.321-6.896,7.321C356.454,547.939,353.854,544.532,353.854,540.661 M365.951,540.661
		c0-3.173-1.799-5.943-5.162-5.943s-5.203,2.728-5.203,5.899c0,3.174,1.799,5.944,5.162,5.944
		C364.11,546.562,365.951,543.835,365.951,540.661z"/>
	<path fill="#FFFFFF" d="M378.529,542.417v-8.819h1.648v8.609c0,2.919,1.207,4.313,3.852,4.313c2.539,0,3.745-1.646,3.745-4.018
		v-8.904h1.542v8.736c0,3.447-1.671,5.606-5.329,5.606C380.136,547.939,378.529,545.717,378.529,542.417"/>
	<path fill="#FFFFFF" d="M399.805,546.499l0.847-1.185c0.316,0.297,1.331,1.247,3.214,1.247c1.735,0,2.875-1.142,2.875-2.389
		c0-1.714-1.609-2.434-3.236-3.236c-1.714-0.848-3.277-1.757-3.277-4.001c0-2.305,1.946-3.594,4.103-3.594
		c2.093,0,3.237,0.762,3.702,1.119l-0.806,1.229c-0.486-0.38-1.438-0.974-2.918-0.974c-1.395,0-2.454,0.847-2.454,2.139
		c0,1.396,1.141,2.051,2.538,2.705c1.861,0.89,4.019,1.841,4.019,4.592c0,2.221-1.882,3.786-4.61,3.786
		C401.643,547.939,400.312,546.988,399.805,546.499"/>
	<polyline fill="#FFFFFF" points="419.153,533.598 426.388,533.598 426.388,534.992 420.805,534.992 420.805,539.518 
		425.71,539.518 425.71,540.914 420.805,540.914 420.805,546.287 426.536,546.287 426.536,547.684 419.153,547.684 419.153,533.598 
			"/>
	<path fill="#FFFFFF" d="M449.435,541.635c0-1.463,1.184-2.643,2.644-2.643c1.458,0,2.644,1.182,2.644,2.643
		c0,1.459-1.186,2.622-2.644,2.622C450.618,544.257,449.435,543.094,449.435,541.635"/>
	<path fill="#FFFFFF" d="M479.46,533.598h1.546l3.489,9.582c0.423,1.185,0.635,1.798,0.889,2.6h0.042
		c0.232-0.76,0.466-1.437,0.887-2.6l3.491-9.582h1.564l1.903,14.086H491.6l-1.204-9.223c-0.129-1.017-0.191-1.544-0.234-1.967h-0.04
		c-0.148,0.487-0.317,1.057-0.635,1.945l-3.34,9.244h-1.587l-3.427-9.244c-0.34-0.908-0.508-1.458-0.679-1.945h-0.042
		c-0.042,0.51-0.105,1.057-0.211,2.01l-1.123,9.18h-1.544L479.46,533.598"/>
	<rect x="504.325" y="533.598" fill="#FFFFFF" width="1.65" height="14.086"/>
	<path fill="#FFFFFF" d="M517.822,533.598h3.303c5.542,0,7.974,2.814,7.974,6.875c0,4.062-2.457,7.213-8.081,7.213h-3.195V533.598
		 M521.164,546.329c4.063,0,6.198-2.009,6.198-5.815c0-3.828-2.013-5.563-6.303-5.563h-1.588v11.379H521.164z"/>
	<rect x="540.1" y="533.598" fill="#FFFFFF" width="1.652" height="14.086"/>
	<rect x="552.831" y="539.583" fill="#FFFFFF" width="4.254" height="1.354"/>
	<path fill="#FFFFFF" d="M568.111,533.598h3.532c2.833,0,4.949,1.353,4.949,4.06c0,2.771-1.902,4.337-5.184,4.337h-1.649v5.691
		h-1.648V533.598 M571.411,540.598c2.474,0,3.489-1.015,3.489-2.878c0-1.606-0.93-2.728-3.426-2.728h-1.714v5.605H571.411z"/>
	<polyline fill="#FFFFFF" points="590.236,542.355 585.518,533.598 587.359,533.598 591.122,540.787 591.146,540.787 
		594.91,533.598 596.498,533.598 591.885,542.355 591.885,547.684 590.236,547.684 590.236,542.355 	"/>
	<path fill="#FFFFFF" d="M606.652,533.598h3.828c2.938,0,4.673,1.373,4.673,3.743c0,2.349-1.711,3.553-3.955,3.681v0.044
		c0.276,0.188,0.656,0.612,1.483,1.754l3.488,4.866h-1.947l-2.833-4c-1.649-2.326-1.903-2.494-2.857-2.494h-0.23v6.494h-1.649
		V533.598 M610.416,539.836c2.093,0,3.045-0.888,3.045-2.454s-1.016-2.391-3.172-2.391h-1.988v4.844L610.416,539.836
		L610.416,539.836z"/>
	<path fill="#FFFFFF" d="M626.388,533.598h7.236v1.396h-5.586v4.525h4.906v1.396h-4.906v5.372h5.734v1.397h-7.383v-14.088
		 M631.359,529.789h2.304l-2.852,2.667h-1.399L631.359,529.789z"/>
	<path fill="#FFFFFF" d="M644.44,533.598h1.629l6.641,9.54c0.653,0.95,1.058,1.65,1.311,2.073h0.044
		c-0.021-0.276-0.086-0.868-0.086-1.903v-9.709h1.524v14.087h-1.524l-6.961-10.046c-0.42-0.593-0.842-1.375-1.099-1.82h-0.041
		c0.021,0.275,0.086,0.866,0.086,1.543v10.323h-1.523V533.598"/>
	<path fill="#FFFFFF" d="M667.301,533.598h7.231v1.396h-5.583v4.525h4.905v1.396h-4.905v5.372h5.732v1.397h-7.38L667.301,533.598
		 M672.268,529.789h2.305l-2.853,2.667h-1.396L672.268,529.789z"/>
	<polyline fill="#FFFFFF" points="685.371,533.598 692.604,533.598 692.604,534.992 687.021,534.992 687.021,539.518 
		691.928,539.518 691.928,540.914 687.021,540.914 687.021,546.287 692.755,546.287 692.755,547.684 685.371,547.684 
		685.371,533.598 	"/>
	<path fill="#FFFFFF" d="M702.779,546.499l0.846-1.185c0.318,0.297,1.336,1.247,3.215,1.247c1.734,0,2.878-1.142,2.878-2.389
		c0-1.714-1.605-2.434-3.236-3.236c-1.713-0.848-3.277-1.757-3.277-4.001c0-2.305,1.946-3.594,4.104-3.594
		c2.092,0,3.233,0.762,3.701,1.119l-0.807,1.229c-0.485-0.38-1.438-0.974-2.918-0.974c-1.396,0-2.453,0.847-2.453,2.139
		c0,1.396,1.142,2.051,2.538,2.705c1.86,0.89,4.017,1.841,4.017,4.592c0,2.221-1.883,3.786-4.612,3.786
		C704.62,547.939,703.288,546.988,702.779,546.499"/>
	<path fill="#FFFFFF" d="M271.434,511.327l1.864-2.611c0.7,0.653,2.937,2.75,7.087,2.75c3.824,0,6.341-2.52,6.341-5.266
		c0-3.781-3.542-5.364-7.134-7.139c-3.775-1.864-7.227-3.87-7.227-8.812c0-5.082,4.29-7.926,9.046-7.926
		c4.618,0,7.134,1.679,8.159,2.471l-1.771,2.707c-1.074-0.843-3.171-2.146-6.436-2.146c-3.076,0-5.408,1.863-5.408,4.709
		c0,3.077,2.52,4.523,5.596,5.968c4.102,1.958,8.858,4.056,8.858,10.117c0,4.896-4.151,8.348-10.166,8.348
		C275.49,514.499,272.553,512.401,271.434,511.327"/>
	<path fill="#FFFFFF" d="M302.688,482.884h3.543l11.937,31.055h-3.962l-2.845-7.693h-14.13l-2.844,7.693h-3.589L302.688,482.884
		 M310.193,503.165l-3.916-10.63c-0.979-2.611-1.399-3.916-1.913-5.361h-0.094c-0.512,1.536-1.024,2.983-1.911,5.361l-3.963,10.63
		H310.193z"/>
	<polyline fill="#FFFFFF" points="320.676,482.884 324.312,482.884 324.312,510.861 336.528,510.861 336.528,513.939 
		320.676,513.939 320.676,482.884 	"/>
	<path fill="#FFFFFF" d="M336.088,498.458c0-8.532,5.644-16.134,15.203-16.134c9.559,0,15.294,7.507,15.294,16.041
		c0,8.532-5.642,16.134-15.2,16.134C341.823,514.499,336.088,506.99,336.088,498.458 M362.759,498.458
		c0-6.994-3.963-13.103-11.376-13.103c-7.415,0-11.473,6.017-11.473,13.01c0,6.992,3.965,13.101,11.378,13.101
		C358.701,511.466,362.759,505.452,362.759,498.458z"/>
	<path fill="#FFFFFF" d="M370.76,482.884h3.592l14.64,21.029c1.445,2.098,2.333,3.637,2.892,4.569h0.094
		c-0.048-0.605-0.188-1.912-0.188-4.195v-21.403h3.359v31.055h-3.359l-15.341-22.148c-0.931-1.306-1.864-3.032-2.426-4.011h-0.091
		c0.045,0.606,0.185,1.91,0.185,3.404v22.755h-3.357V482.884"/>
	<path fill="#FFFFFF" d="M409.84,482.884h7.275c12.215,0,17.578,6.201,17.578,15.153s-5.409,15.9-17.814,15.9h-7.041v-31.054
		 M417.208,510.955c8.954,0,13.662-4.431,13.662-12.824c0-8.441-4.43-12.262-13.895-12.262h-3.496v25.086H417.208L417.208,510.955z"
		/>
	<polyline fill="#FFFFFF" points="438.917,482.884 454.862,482.884 454.862,485.961 442.554,485.961 442.554,495.94 453.372,495.94 
		453.372,499.02 442.554,499.02 442.554,510.861 455.191,510.861 455.191,513.939 438.917,513.939 438.917,482.884 	"/>
	<polyline fill="#FFFFFF" points="468.204,482.884 471.842,482.884 471.842,510.861 484.06,510.861 484.06,513.939 468.204,513.939 
		468.204,482.884 	"/>
	<path fill="#FFFFFF" d="M482.658,488.664c0-1.771-1.818-2.098-1.818-4.056c0-1.306,1.072-2.284,2.519-2.284
		c1.587,0,3.031,1.214,3.031,3.31c0,3.076-2.052,6.295-2.94,7.367h-2.516C481.586,492.114,482.658,490.39,482.658,488.664"/>
	<rect x="491.114" y="482.884" fill="#FFFFFF" width="3.638" height="31.055"/>
	<path fill="#FFFFFF" d="M503.35,482.884h3.406l7.692,21.123c0.931,2.611,1.4,3.962,1.957,5.735h0.096
		c0.511-1.679,1.021-3.172,1.957-5.735l7.693-21.123h3.448l4.196,31.055h-3.683l-2.655-20.331c-0.281-2.235-0.422-3.404-0.514-4.337
		h-0.096c-0.325,1.071-0.697,2.333-1.397,4.289l-7.367,20.378h-3.498l-7.553-20.378c-0.745-2.005-1.118-3.218-1.492-4.289h-0.093
		c-0.095,1.119-0.235,2.333-0.468,4.429l-2.47,20.238h-3.405L503.35,482.884"/>
	<path fill="#FFFFFF" d="M540.545,482.884h3.403l7.694,21.123c0.933,2.611,1.398,3.962,1.958,5.735h0.094
		c0.514-1.679,1.025-3.172,1.96-5.735l7.692-21.123h3.451l4.198,31.055h-3.687l-2.655-20.331c-0.28-2.235-0.421-3.404-0.516-4.337
		h-0.096c-0.324,1.071-0.697,2.333-1.399,4.289l-7.365,20.378h-3.498l-7.552-20.378c-0.748-2.005-1.121-3.218-1.492-4.289h-0.097
		c-0.093,1.119-0.231,2.333-0.467,4.429l-2.47,20.238h-3.405L540.545,482.884"/>
	<path fill="#FFFFFF" d="M573.064,498.458c0-8.532,5.64-16.134,15.2-16.134c9.557,0,15.294,7.507,15.294,16.041
		c0,8.532-5.641,16.134-15.201,16.134C578.798,514.499,573.064,506.99,573.064,498.458 M599.734,498.458
		c0-6.994-3.962-13.103-11.377-13.103c-7.414,0-11.475,6.017-11.475,13.01c0,6.992,3.967,13.101,11.381,13.101
		S599.734,505.452,599.734,498.458z"/>
	<path fill="#FFFFFF" d="M607.783,482.884h8.207c5.779,0,10.162,2.145,10.162,7.74c0,3.638-2.144,5.97-5.548,6.854v0.096
		c3.823,0.652,6.898,3.354,6.898,7.646c0,6.341-4.709,8.72-11.657,8.72h-8.063V482.884 M615.617,496.218
		c4.754,0,6.804-1.723,6.804-5.361c0-3.451-2.332-4.944-6.712-4.944h-4.338v10.306H615.617z M615.757,510.906
		c5.501,0,7.972-1.679,7.972-5.598c0-3.729-2.004-6.107-7.693-6.107h-4.662v11.703h4.384V510.906z"/>
	<rect x="632.06" y="482.884" fill="#FFFFFF" width="3.635" height="31.055"/>
	<polyline fill="#FFFFFF" points="641.878,482.884 645.516,482.884 645.516,510.861 657.73,510.861 657.73,513.939 641.878,513.939 
		641.878,482.884 	"/>
	<rect x="660.753" y="482.884" fill="#FFFFFF" width="3.636" height="31.055"/>
	<polyline fill="#FFFFFF" points="670.57,482.884 686.518,482.884 686.518,485.961 674.208,485.961 674.208,495.94 685.026,495.94 
		685.026,499.02 674.208,499.02 674.208,510.861 686.844,510.861 686.844,513.939 670.57,513.939 670.57,482.884 	"/>
	<path fill="#FFFFFF" d="M690.471,482.884h8.44c6.479,0,10.304,3.028,10.304,8.252c0,5.176-3.776,7.834-8.721,8.114v0.095
		c0.605,0.419,1.447,1.352,3.268,3.87l7.69,10.724h-4.289l-6.249-8.813c-3.635-5.13-4.196-5.505-6.295-5.505h-0.514v14.317h-3.639
		v-31.055 M698.77,496.637c4.619,0,6.715-1.957,6.715-5.408s-2.238-5.269-6.995-5.269h-4.384v10.677H698.77z"/>
	<g>
		<path fill="#FFFFFF" d="M783.65,587.356v-3.159l4.037-3.921c9.713-9.242,14.158-14.157,14.158-19.893
			c0-3.862-1.813-7.433-7.489-7.433c-3.452,0-6.317,1.758-8.074,3.218l-1.638-3.628c2.574-2.165,6.375-3.859,10.766-3.859
			c8.132,0,11.583,5.616,11.583,11.057c0,7.021-5.088,12.696-13.104,20.422l-2.983,2.807v0.117h17.023v4.27H783.65V587.356z"/>
		<path fill="#FFFFFF" d="M822.852,588.001c-7.432,0-12.522-6.963-12.637-19.543c0-12.813,5.559-19.776,13.28-19.776
			c7.956,0,12.579,7.138,12.579,19.247c0,12.932-4.855,20.069-13.163,20.069h-0.06V588.001z M823.144,584.022
			c5.208,0,7.724-6.145,7.724-15.856c0-9.361-2.34-15.505-7.724-15.505c-4.68,0-7.724,5.968-7.724,15.505
			c-0.117,9.889,2.926,15.856,7.665,15.856H823.144z"/>
		<path fill="#FFFFFF" d="M846.081,554.123h-0.117l-6.611,3.571l-0.995-3.923l8.309-4.446h4.385v38.03h-4.971L846.081,554.123
			L846.081,554.123z"/>
		<path fill="#FFFFFF" d="M880.837,549.325v3.393l-16.559,34.638h-5.265l16.44-33.643v-0.117h-18.606v-4.271H880.837z"/>
	</g>
	<g>
		<path fill="#FFFFFF" d="M784.684,507.433v-2.364l3.021-2.937c7.274-6.923,10.603-10.604,10.603-14.898
			c0-2.895-1.357-5.566-5.609-5.566c-2.583,0-4.731,1.314-6.045,2.411l-1.229-2.717c1.93-1.622,4.777-2.893,8.063-2.893
			c6.091,0,8.676,4.205,8.676,8.281c0,5.258-3.813,9.51-9.814,15.294l-2.235,2.103v0.089h12.752v3.197H784.684z"/>
		<path fill="#FFFFFF" d="M818.163,507.433v-7.8h-13.232v-2.497l12.708-18.185h4.163v17.701h3.988v2.98h-3.988v7.8H818.163z
			 M818.163,496.654v-9.509c0-1.489,0.043-2.979,0.132-4.471h-0.132c-0.878,1.665-1.578,2.895-2.368,4.206l-6.964,9.684v0.089
			L818.163,496.654L818.163,496.654z"/>
		<path fill="#FFFFFF" d="M833.013,507.756c-1.494,0-2.575-1.141-2.575-2.689c0-1.608,1.081-2.72,2.633-2.72
			c1.522,0,2.575,1.082,2.603,2.72c0,1.549-1.051,2.689-2.63,2.689H833.013z"/>
		<path fill="#FFFFFF" d="M840.771,507.433v-2.364l3.023-2.937c7.272-6.923,10.604-10.604,10.604-14.898
			c0-2.895-1.358-5.566-5.609-5.566c-2.583,0-4.732,1.314-6.046,2.411l-1.228-2.717c1.93-1.622,4.775-2.893,8.062-2.893
			c6.092,0,8.676,4.205,8.676,8.281c0,5.258-3.813,9.51-9.815,15.294l-2.233,2.103v0.089h12.751v3.197H840.771z"/>
		<path fill="#FFFFFF" d="M878.108,481.669c-0.788-0.044-1.798,0.044-2.894,0.219c-6.09,0.964-9.243,5.348-9.902,10.079h0.088
			c1.357-1.841,3.766-3.331,6.924-3.331c5.039,0,8.589,3.681,8.589,9.204c0,5.258-3.55,10.076-9.51,10.076
			c-6.047,0-10.034-4.73-10.034-12.137c0-5.609,1.972-10.034,4.819-12.84c2.366-2.322,5.521-3.769,9.114-4.206
			c1.14-0.175,2.104-0.218,2.805-0.218L878.108,481.669L878.108,481.669z M871.491,504.936c3.287,0,5.521-2.761,5.521-6.835
			c0-4.076-2.323-6.529-5.873-6.529c-2.322,0-4.512,1.401-5.566,3.507c-0.218,0.438-0.394,0.965-0.394,1.664
			c0.044,4.69,2.234,8.196,6.267,8.196h0.045V504.936z"/>
	</g>
	<g>
		<path fill="#FFFFFF" d="M809.396,530.616c-0.204-3.821-0.451-8.549-0.451-11.962h-0.085c-0.985,3.207-2.094,6.743-3.493,10.525
			l-4.893,13.439h-2.712l-4.521-13.193c-1.316-3.905-2.385-7.483-3.166-10.771h-0.082c-0.082,3.452-0.286,8.1-0.535,12.249
			l-0.739,11.881h-3.41l1.93-27.708h4.565l4.727,13.402c1.15,3.412,2.055,6.495,2.796,9.374h0.08
			c0.742-2.796,1.729-5.878,2.961-9.374l4.935-13.402h4.564l1.726,27.708h-3.537L809.396,530.616z"/>
		<path fill="#FFFFFF" d="M823.176,534.071l-2.879,8.715h-3.701l9.414-27.708h4.316l9.457,27.708h-3.824l-2.96-8.715H823.176z
			 M832.26,531.275l-2.755-7.975c-0.576-1.809-0.986-3.452-1.397-5.057h-0.124c-0.37,1.604-0.823,3.327-1.355,5.015l-2.715,8.015
			h8.347V531.275z"/>
		<path fill="#FFFFFF" d="M843.858,515.49c1.809-0.37,4.44-0.617,6.866-0.617c3.823,0,6.33,0.741,8.057,2.302
			c1.356,1.193,2.18,3.085,2.18,5.263c0,3.618-2.344,6.042-5.222,7.028v0.124c2.097,0.738,3.371,2.713,4.069,5.591
			c0.905,3.865,1.563,6.538,2.098,7.605h-3.701c-0.451-0.823-1.067-3.165-1.808-6.619c-0.822-3.824-2.344-5.263-5.589-5.384h-3.374
			v12.003h-3.574V515.49H843.858z M847.435,528.071h3.66c3.824,0,6.249-2.098,6.249-5.263c0-3.577-2.59-5.139-6.372-5.139
			c-1.727,0-2.919,0.165-3.537,0.33V528.071z"/>
		<path fill="#FFFFFF" d="M865.529,538.426c1.604,0.989,3.905,1.77,6.373,1.77c3.657,0,5.796-1.892,5.796-4.686
			c0-2.591-1.479-4.11-5.22-5.509c-4.522-1.563-7.318-3.946-7.318-7.812c0-4.315,3.575-7.521,8.963-7.521
			c2.794,0,4.892,0.656,6.082,1.315l-0.985,2.959c-0.862-0.533-2.713-1.313-5.222-1.313c-3.782,0-5.221,2.26-5.221,4.149
			c0,2.55,1.687,3.824,5.51,5.303c4.688,1.852,7.027,4.072,7.027,8.143c0,4.233-3.123,7.975-9.66,7.975
			c-2.672,0-5.589-0.822-7.067-1.81L865.529,538.426z"/>
	</g>
</g>
<g id="Lyon">
</g>
<g id="Paris">
</g>
<g id="Salons">
</g>
</svg>
