<?xml version="1.0" encoding="utf-8"?>
<!-- Generator: Adobe Illustrator 16.0.0, SVG Export Plug-In . SVG Version: 6.00 Build 0)  -->
<!DOCTYPE svg PUBLIC "-//W3C//DTD SVG 1.1//EN" "http://www.w3.org/Graphics/SVG/1.1/DTD/svg11.dtd">
<svg version="1.1" id="Calque_1" xmlns="http://www.w3.org/2000/svg" xmlns:xlink="http://www.w3.org/1999/xlink" x="0px" y="0px"
	 width="960px" height="226.159px" viewBox="107.25 111.529 960 226.159" enable-background="new 107.25 111.529 960 226.159"
	 xml:space="preserve">
<path fill="#121037" d="M107.25,111.529h960v226.159h-960V111.529z"/>
<path fill="#FFFFFF" d="M808.772,138.348h2.913v168.896h-2.913V138.348z M196.166,306.864c3.704,0.283,7.511,0.409,11.19-0.168
	c7.119-1.109,14.453-1.154,21.673-1.786c13.979-1.213,27.881,2.085,41.882,1.944c6.61-0.071,13.296-0.33,19.798-1.544
	c3.145-0.589,6.353-0.777,9.373-1.86c2.148-0.766,9.568-0.153,10.717-2.392c0.571-1.119,0.883-1.638-0.254-2.214
	c0.659-1.803-0.848-3.946,0.341-5.431c1.107-1.366-2.226-1.637-0.612-2.674c0.542-0.342-0.059-7.374-0.036-8.233
	c0.083-3.852-1.178-7.539-0.683-11.355c0.459-3.58-1.095-8.445,0-11.908c1.272-4.028,1.319-4.959,0.919-8.847
	c-0.389-3.58-0.354-8.092-0.612-11.59c-0.236-3.169,1.484-5.266,0.753-8.187c-0.471-1.861-1.143-3.746-1.166-5.678
	c-0.023-1.72,0.66-5.901,0.389-7.633c-0.506-3.134-0.294-8.882-0.495-8.929c0.66-2.438-0.083-3.051-0.789-5.289
	c-0.99-3.074,1.46-6.949,0.671-10.071c-0.777-3.098-0.33-6.019,0.918-12.415c0.318-1.614-1.06-6.36-1.343-7.856
	c-0.647-3.381,2.321-12.298,1.661-15.667c-0.589-2.909,0.954-13.039-0.872-15.371c-4.629-5.901-26.75,0.942-33.794-0.307
	c-3.451-0.612-6.738-0.294-10.225-0.354c-3.887-0.059-7.703-0.813-11.602-0.554c-8.069,0.53-16.067,0.637-24.124,1.249
	c-7.433,0.577-14.252-0.766-21.662,0.094c-7.786,0.907-23.523-2.614-30.885,0.083c-6.125,2.238-11.567-3.086-16.126,1.602
	c-2.203,2.262-0.718,26.079-1.037,29.153c-0.188,1.873-0.153,3.746-0.212,5.619c-0.059,1.661,0.318,4.499,0.4,5.901
	c0.306,4.794,0.683,3.156,0.413,7.939c-0.448,0.035,0.565,6.077,0.165,6.113c-0.212,1.59,0.86,9.376,0.707,10.942
	c-0.153,1.449,3.145-1.896,3.663-2.038c-0.565-0.317,2.957-2.355,2.438-2.65c1.272-0.2,0.836-2.721,2.144-2.642
	c2.25,0.142,4.217-5.272,6.408-5.795c2.886-0.695,2.568-4.547,4.806-5.16c2.874-0.781,0.047-1.602-0.177-4.146
	c-0.094-1.084,0.024-0.73,0.142-1.803c0.118-1.154-0.813-2.097-0.648-3.216c0.365-2.509-1.202-7.311,0.035-9.596
	c1.167-2.18-2.085-15.337-0.518-17.245c1.296-1.578,7.362-0.146,9.47-0.659c2.509-0.613,11.155-1.531,13.735-1.838
	c3.063-0.354,29.801-1.803,34.807,0.424c6.891,3.086,18.835-2.155,26.232-0.365c3.298,0.81,12.851,2.05,15.831,3.734
	c2.768,1.566,2.415,21.223,3.216,23.394c0.801,2.175,0.766,4.499,2.489,6.102c-0.519,0.647-0.613,2.563,0.495,3.191
	c-0.819,1.579-0.2,3.106,0.118,4.818c0.429,2.332,0.212,4.652,0.467,7.032c0.559,5.124,1.024,10.278,2.32,15.282l-0.236,0.188
	c1.001,9.6,3.051,19.218,3.864,28.858c0.382,4.564,0.248,9.059,1.131,13.575c0.954,4.889-0.283,10.06,0.58,15.03
	c-1.048,2.462-0.68,15.479-3.422,16.032c-9.895,1.972-20.166,2.455-30.261,2.373c-10.731-0.095-20.513,1.873-31.238,1.413
	c-0.511-0.023-0.288-3.356-0.306-4.028c-0.071-2.391-0.613-4.788-0.554-7.173c0.059-2.021,0.389-4.053,0.495-6.066
	c0.064-1.242-0.554-2.309-0.459-3.534c0.094-1.253,0.613-2.609,0.224-3.867c-0.442-1.487-0.118-3.855-0.966-5.136
	c-0.766-1.154-1.196-1.437-1.437-2.886c-0.177-1.06-1.92-1.159-2.804-1.266c-1.258-0.142-2.509-0.26-3.766-0.396
	c-0.589,0.766-1.637,0.545-2.415,0.33c-0.349-0.094-0.601-0.519-1.013-0.893l-1.084,0.618c-0.33-0.647-9.152,0.318-11.473,1.284
	c-0.577,0.235-1.171,0.459-1.696,0.653c1.908,5.13-0.318,10.625,0.719,15.934c1.048,5.384-0.124,10.343,0.294,15.808
	c-5.576,0-10.702,0.742-16.279,0.425c-0.03-0.008-1.025,0.117-1.119,0.059c-2.485,0.028-2.285,0.153-2.344-1.496
	c-0.124-3.416-0.383-7.232-0.124-10.79c0.273-3.847,1.013-6.607-0.08-9.364c-0.495-1.231-0.047-2.987-0.035-4.47
	c0.014-1.755-0.413-3.548-0.519-5.324c-0.104-1.685-0.518-2.827-0.612-4.453c-0.089-1.555,0.188-3.698-0.527-4.641
	c0.307-1.861,0.483-3.805-0.224-5.307c-0.495-1.071,1.52-5.006-0.742-4.594c-2.697,0.495-17.339,1.587-19.962,1.154
	c-0.819-0.137-2.58-2.539-1.443-3.733c4.676-4.907,12.945-11.82,17.745-15.914c2.305-1.965,5.913-5.418,8.222-7.428
	c2.827-2.45,5.383-5.331,7.88-8.104c2.203-2.45,5.089-5.583,7.197-8.112c1.013-1.209,4.535-3.389,6.373-2.949
	c5.78,1.378,11.602,4.622,16.851,7.362c5.524,2.897,11.195,7.032,16.573,10.2c5.489,3.239,27.116,16.243,32.524,19.636
	c5.173,3.263,3.475,6.514,1.202,6.75c-2.292,0.247-4.217,0.165-4.968,0.224c-2.639,0.224-6.832,0.325-9.436,0.801
	c-5.489,1.021-11.508-0.636-16.891,0.824c-0.365,0.095,0.262,3.175,0.212,3.816c0,3.134,0.79,7.421,1.084,5.184
	c-0.601,4.57,0.259,21.549,0.535,23.558c0.448,3.204,8.599,0.437,13.481,1.002c2.58,0.294,4.311-2.533,3.969-4.782
	c-0.506-3.376,0.102-7.716-1.555-10.785c-0.519-0.982,0.235-2.266-0.459-3.287c-0.919-1.335-0.919-2.937-0.601-4.469
	c0.083-0.424,0.518-0.978,0.907-1.096c2.262-0.671,4.526-0.777,6.855-1.024c1.013-0.113,2.026-0.342,2.992-0.684
	c1.401-0.506,2.697-0.07,4.099-0.454c4.806-1.313,8.439-4.605,13.027-5.944c0.53-0.152,1.985-1.961,1.971-2.485
	c-0.212-5.548-6.25-8.964-9.629-12.969c-4.523-5.348-9.824-9.743-15.689-13.593c-0.813-0.53-5.124-3.793-4.947-4.512
	c0.129-0.023,1.614,0.559,3.581-0.177c4.947-0.396,8.257,0.73,8.104-2.45c-0.212-4.117,3.157-16.62-3.545-15.555
	c-1.037,0.156-1.967-0.554-3.012-0.632c-1.143-0.076-2.281,0.095-3.422,0.124c-3.051,0.079-5.819,1.448-8.729,2.167
	c-1.366,0.34-1.272,1.366-1.095,2.438c0.4,2.391,0.506,8.187,0.224,10.59l-7.173-3.864c0.047-0.117-0.33-3.333-0.778-4.888
	c-0.082-0.283,0.212-2.145,0.208-2.438c-0.035-1.591,0.456-1.861-0.86-2.485c-3.746-1.768-9.553-1.148-13.582-0.577
	c-3.51,0.494-1.496,2.167-4.876,0.852c-3.416-1.343-7.338-2.392-10.542-4.146c-3.828-2.108-6.042-3.133-10.471-1.778
	c-7.955,2.426-13.444,10.165-19.306,15.583c-2.686,2.474-5.218,5.184-7.81,7.774c-2.921,2.91-6.007,5.929-8.787,8.952
	c-5.23,5.678-8.369,8.658-14.724,14.477c-2.42,2.222-8.846,8.41-10.267,11.355c-0.507,1.044-2.238,3.114-1.744,4.724
	c0.395,1.271,0.365,2.197,1.065,2.485c1.59,0.647,8.269,1.107,9.989,1.083c2.073-0.029,7.715-1.106,9.8-1.295
	c0.483-0.048,1.249,0.554,1.496,1.048c0.806,1.649-0.801,7.692-1.131,9.482c-0.519,2.851-0.012,5.725,0.294,8.575
	c0.306,2.839,0.229,5.183-0.012,8.021c-0.13,1.398-0.954,25.137,0.273,26.145c1.036,0.896,30.885-0.008,34.131,0.248
	 M221.508,181.487c0.298,0.243,0.577,0.639,0.895,0.714c3.163,0.684,6.09-0.542,9.228-0.418c2.32,0.095,5.854,1.284,8.01-0.13
	c0.554-0.353,2.085-2.626,1.673-3.533c-0.919-2.015-0.188-3.981-0.66-5.901c-0.401-1.566,0.66-6.632-0.507-7.539
	c-1.413-1.119-4.288-1.166-6.102-1.119c-4.193,0.106-8.187-0.224-12.085,1.779c-1.708,0.883,0.565,4.017,0.778,5.359
	c0.247,1.543,0,4.382-0.271,5.018c1.048,0.825,0.318,3.77-0.966,5.819L221.508,181.487z M249.106,181.523
	c0.294,0.23,0.577,0.612,0.895,0.683c3.137,0.655,6.043-0.519,9.164-0.4c2.297,0.087,5.811,1.225,7.951-0.13
	c0.554-0.349,2.067-2.532,1.661-3.399c-0.914-1.943-0.188-3.833-0.656-5.67c-0.389-1.503,0.942-4.877-0.212-5.756
	c-1.401-1.071,2.356-2.552-4.464-2.521c-4.17,0.092-9.836-1.008-13.711,0.912c-1.708,0.846,0.4,4.584,0.612,5.878
	c0.248,1.472-0.153,2.242,0.813,3.378c-0.448,0.345-0.813,0.818-1.084,1.43c1.037,0.801,0.318,3.626-0.954,5.592L249.106,181.523z
	 M193.297,183.371c1.913-0.354,6.172,0.005,8.245-0.089c2.709-0.123,4.853,0.978,7.598,0.082c2.159-0.704,2.227-0.202,3.96-2.281
	c0.689-0.837,1.115-3.311,0.518-3.746c-1.048-0.766,0.397-2.332-0.518-2.827c-0.239-1.437-0.354-2.944-0.75-4.299
	c-1.832-6.267,2.153-5.695-9.989-4.791c-2.057,0.153-7.287-0.404-9.046,0.519c-1.312,0.688,0.289,3.97-0.612,5.576
	c-2.353,4.175-0.768,7.747,0.447,7.939c0.316,0.05-1.478,4.205,0.146,3.91L193.297,183.371z M339.394,216.047l3.742-5.242
	c1.405,1.314,5.898,5.524,14.227,5.524c7.676,0,12.729-5.056,12.729-10.572c0-7.586-7.111-10.767-14.323-14.326
	c-7.58-3.746-14.505-7.769-14.505-17.688c0-10.203,8.61-15.914,18.157-15.914c9.271,0,14.324,3.369,16.381,4.959l-3.557,5.431
	c-2.153-1.688-6.365-4.308-12.918-4.308c-6.176,0-10.855,3.745-10.855,9.452c0,6.179,5.056,9.077,11.234,11.978
	c8.233,3.934,17.782,8.151,17.782,20.318c0,9.836-8.33,16.762-20.406,16.762c-9.543,0.013-15.442-4.205-17.688-6.36 M593.6,216.06
	l3.742-5.241c1.405,1.318,5.898,5.524,14.227,5.524c7.678,0,12.729-5.054,12.729-10.566c0-7.586-7.111-10.766-14.321-14.323
	c-7.581-3.746-14.507-7.763-14.507-17.681c0-10.2,8.61-15.913,18.159-15.913c9.27,0,14.32,3.368,16.38,4.959l-3.556,5.43
	c-2.155-1.685-6.367-4.3-12.921-4.3c-6.173,0-10.854,3.746-10.854,9.459c0,6.185,5.053,9.082,11.233,11.979
	c8.231,3.935,17.782,8.151,17.782,20.319c0,9.835-8.328,16.762-20.401,16.762c-9.541,0.012-15.442-4.205-17.692-6.361
	 M402.13,158.978h7.115l23.971,62.336h-7.951l-5.701-15.442h-28.377l-5.713,15.442h-7.209L402.13,158.978 M417.204,199.698
	l-7.866-21.356c-1.962-5.242-2.807-7.864-3.837-10.767h-0.188c-1.03,3.087-2.059,5.987-3.836,10.767l-7.955,21.339h23.68
	L417.204,199.698z M438.244,158.978h7.297v56.163h24.524v6.185h-31.821V158.978 M469.181,190.24
	c0-17.115,11.332-32.381,30.514-32.381c19.188,0,30.696,15.077,30.696,32.204s-11.319,32.393-30.508,32.393
	c-19.188,0-30.696-15.065-30.696-32.192 M522.723,190.264c0-14.029-7.951-26.291-22.828-26.291s-23.027,12.073-23.027,26.114
	c0,14.04,7.962,26.291,22.839,26.291c14.878,0,23.028-12.074,23.028-26.114H522.723z M538.79,159.002h7.208l29.39,42.216
	c2.909,4.217,4.688,7.303,5.807,9.176h0.188c-0.094-1.213-0.377-3.84-0.377-8.422v-42.983h6.75V221.3h-6.738l-30.813-44.471
	c-1.871-2.624-3.741-6.083-4.865-8.045h-0.188c0.083,1.213,0.365,3.833,0.365,6.832v45.672h-6.737v-62.335 M668.585,158.953h14.606
	c24.513,0,35.278,12.45,35.278,30.421c0,17.969-10.86,31.918-35.762,31.918h-14.135v-62.339 M683.359,215.303
	c17.976,0,27.43-8.894,27.43-25.741c0-16.943-8.894-24.614-27.894-24.614h-7.007v50.346h7.485L683.359,215.303z M726.942,158.953
	h32.01v6.18h-24.7v20.031h21.715v6.179h-21.709v23.77h25.363v6.18h-32.67v-62.339 M339.639,233.242h6.344v48.814h21.318v5.372
	h-27.658v-54.187 M364.862,243.329c0-3.093-3.168-3.659-3.168-7.076c0-2.282,1.873-3.988,4.394-3.988
	c2.768,0,5.289,2.115,5.289,5.777c0,5.367-3.581,10.981-5.124,12.855h-4.394c1.143-1.549,3.016-4.556,3.016-7.568 M379.633,233.242
	h6.349v54.184h-6.349V233.242z M400.98,233.242h5.941l13.428,36.856c1.625,4.557,2.439,6.914,3.417,10.006h0.165
	c0.895-2.928,1.778-5.532,3.415-10.006l13.417-36.856h6.019l7.327,54.184h-6.432l-4.641-35.472
	c-0.495-3.902-0.742-5.938-0.896-7.565h-0.165c-0.565,1.873-1.225,4.075-2.438,7.491l-12.874,35.55h-6.102l-13.181-35.55
	c-1.307-3.498-1.955-5.606-2.603-7.479h-0.165c-0.165,1.955-0.412,4.075-0.825,7.738l-4.299,35.314h-5.937l7.409-54.185
	 M465.854,233.269h5.937l13.428,36.857c1.626,4.559,2.438,6.914,3.416,10.012h0.165c0.896-2.921,1.778-5.524,3.416-10l13.416-36.857
	h6.02l7.326,54.185h-6.431l-4.642-35.467c-0.494-3.899-0.73-5.937-0.895-7.563h-0.165c-0.565,1.873-1.214,4.075-2.438,7.491
	l-12.861,35.525h-6.102l-13.182-35.55c-1.303-3.498-1.955-5.612-2.603-7.483h-0.165c-0.165,1.952-0.404,4.067-0.813,7.73
	l-4.312,35.309h-5.937l7.409-54.185 M522.583,260.448c0-14.889,9.839-28.152,26.521-28.152c16.676,0,26.68,13.099,26.68,27.987
	s-9.838,28.152-26.519,28.152c-16.667,0-26.68-13.099-26.68-27.989 M569.126,260.447c0-12.204-6.903-22.859-19.849-22.859
	c-12.934,0-20.013,10.495-20.013,22.698c0,12.2,6.927,22.86,19.86,22.86s20.013-10.495,20.013-22.698L569.126,260.447z
	 M583.178,233.272h14.313c10.095,0,17.739,3.746,17.739,13.507c0,6.349-3.734,10.425-9.683,11.968v0.165
	c6.679,1.143,12.05,5.854,12.05,13.346c0,11.072-8.215,15.219-20.343,15.219h-14.067v-54.185 M596.851,256.555
	c8.298,0,11.875-3.007,11.875-9.353c0-6.019-4.067-8.622-11.714-8.622h-7.564v17.939h7.402L596.851,256.555z M597.094,282.187
	c9.601,0,13.911-2.93,13.911-9.765c0-6.506-3.498-10.655-13.425-10.655h-8.132v20.413h7.646L597.094,282.187z M625.541,233.291
	h6.346v54.185h-6.345L625.541,233.291z M642.671,233.291h6.349v48.789h21.314v5.372h-27.663v-54.208 M675.607,233.244h6.346v54.185
	h-6.349L675.607,233.244z M692.74,233.244h27.822v5.368h-21.478v17.413h18.875v5.368h-18.875v20.663h22.047v5.372H692.74v-54.187
	 M727.461,233.242h14.729c11.308,0,17.979,5.288,17.979,14.397c0,9.034-6.585,13.676-15.207,14.158v0.165
	c1.061,0.73,2.533,2.355,5.701,6.75l13.429,18.717h-7.479l-10.896-15.372c-6.349-8.94-7.326-9.6-10.978-9.6h-0.896v24.972h-6.349
	v-54.185 M741.971,257.251c8.057,0,11.72-3.416,11.72-9.435c0-6.02-3.898-9.188-12.203-9.188h-7.645v18.622h8.14H741.971z
	 M855.121,161.9h-7.716v-2.521h18.776v2.533h-7.751v20.506h-3.31v-20.531V161.9z M889.669,170.663
	c0,7.938-5.301,12.145-11.768,12.145c-6.702,0-11.402-4.724-11.402-11.697c0-7.314,5.007-12.108,11.779-12.108
	c6.915,0,11.402,4.829,11.402,11.673L889.669,170.663z M869.998,171.04c0,4.936,2.944,9.341,8.092,9.341
	c5.195,0,8.128-4.347,8.128-9.577c0-4.582-2.639-9.364-8.093-9.364c-5.418,0-8.127,4.559-8.127,9.612V171.04z M897.208,159.379
	v13.627c0,5.164,2.521,7.354,5.913,7.354c3.769,0,6.172-2.262,6.172-7.354v-13.652h3.31v13.44c0,7.079-4.099,9.988-9.588,9.988
	c-5.194,0-9.105-2.709-9.105-9.859v-13.58h3.311L897.208,159.379z M918.292,159.379h3.275v20.541h10.836v2.497h-14.111v-23.063
	V159.379z M956.231,170.662c0,7.938-5.31,12.144-11.778,12.144c-6.7,0-11.402-4.723-11.402-11.7c0-7.314,5-12.108,11.775-12.108
	c6.926,0,11.402,4.829,11.402,11.673L956.231,170.662z M936.549,171.039c0,4.928,2.933,9.341,8.092,9.341
	c5.19,0,8.123-4.347,8.123-9.58c0-4.582-2.639-9.364-8.092-9.364c-5.419,0-8.128,4.552-8.128,9.611L936.549,171.039z
	 M963.759,159.372v13.634c0,5.164,2.521,7.354,5.909,7.354c3.765,0,6.173-2.262,6.173-7.354v-13.652h3.31v13.44
	c0,7.079-4.1,9.988-9.594,9.988c-5.195,0-9.105-2.709-9.105-9.859v-13.58h3.31L963.759,159.372z M984.381,178.796
	c1.467,0.821,3.611,1.506,5.868,1.506c3.345,0,5.3-1.604,5.3-3.935c0-2.155-1.354-3.383-4.782-4.582
	c-4.146-1.331-6.702-3.274-6.702-6.525c0-3.593,3.274-6.258,8.198-6.258c2.592,0,4.477,0.541,5.607,1.13l-0.907,2.438
	c-0.824-0.412-2.521-1.095-4.817-1.095c-3.464,0-4.782,1.884-4.782,3.451c0,2.155,1.543,3.216,5.041,4.452
	c4.289,1.507,6.468,3.392,6.468,6.771c0,3.558-2.886,6.639-8.869,6.639c-2.45,0-5.124-0.647-6.479-1.472l0.824-2.497
	L984.381,178.796z M1016.518,171.612h-9.859v8.315h10.99v2.497h-14.265v-23.063h13.695v2.498h-10.425v7.287h9.859v2.462
	L1016.518,171.612z M850.29,265.303c1.579-0.236,3.648-0.442,6.284-0.442c3.228,0,5.596,0.684,7.104,1.92
	c1.396,1.096,2.226,2.769,2.226,4.818c0,2.085-0.683,3.733-1.955,4.936c-1.735,1.672-4.559,2.532-7.751,2.532
	c-0.978,0-1.885-0.035-2.639-0.2v9.234h-3.274v-22.806h-0.005L850.29,265.303z M853.561,276.422
	c0.715,0.172,1.619,0.241,2.709,0.241c3.951,0,6.36-1.743,6.36-4.924c0-3.051-2.371-4.511-5.983-4.511
	c-1.428,0-2.521,0.094-3.086,0.235v8.964V276.422z M871.25,280.837l-2.632,7.256h-3.39l8.614-23.063h3.95l8.658,23.052h-3.499
	l-2.709-7.253h-8.987L871.25,280.837z M879.566,278.517l-2.485-6.636c-0.565-1.496-0.942-2.874-1.316-4.205h-0.074
	c-0.377,1.378-0.789,2.78-1.283,4.182l-2.485,6.679h7.633L879.566,278.517z M890.183,265.347c1.653-0.306,4.028-0.478,6.285-0.478
	c3.499,0,5.756,0.579,7.339,1.879c1.276,1.024,1.99,2.6,1.99,4.382c0,3.043-2.108,5.062-4.777,5.883v0.106
	c1.955,0.612,3.121,2.262,3.733,4.652c0.825,3.216,1.426,5.442,1.956,6.326h-3.393c-0.412-0.648-0.978-2.627-1.696-5.501
	c-0.754-3.181-2.108-4.382-5.08-4.479h-3.087v9.988h-3.27v-22.775L890.183,265.347z M893.457,275.85h3.346
	c3.501,0,5.72-1.743,5.72-4.376c0-2.975-2.371-4.278-5.831-4.312c-1.583,0-2.712,0.138-3.236,0.274v8.41L893.457,275.85z
	 M913.706,265.043v23.045h-3.275v-23.063h3.275V265.043z M918.971,284.476c1.467,0.82,3.61,1.503,5.866,1.503
	c3.351,0,5.307-1.614,5.307-3.935c0-2.155-1.346-3.393-4.771-4.582c-4.141-1.331-6.699-3.286-6.699-6.537
	c0-3.593,3.274-6.267,8.203-6.267c2.604,0,4.488,0.542,5.606,1.131l-0.895,2.427c-0.837-0.413-2.521-1.096-4.818-1.096
	c-3.463,0-4.782,1.873-4.782,3.451c0,2.144,1.543,3.216,5.042,4.44c4.287,1.496,6.467,3.381,6.467,6.773
	c0,3.557-2.897,6.632-8.882,6.632c-2.45,0-5.124-0.648-6.479-1.473l0.837-2.497L918.971,284.476z M850.278,214.507h3.27v20.555
	h10.837v2.497h-14.108v-23.06L850.278,214.507z M870.522,237.559v-9.783l-8.017-13.275h3.734l3.581,6.363
	c0.978,1.743,1.731,3.145,2.521,4.747h0.082c0.719-1.508,1.591-3.016,2.557-4.759l3.651-6.361h3.723l-8.505,13.229v9.823h-3.31
	L870.522,237.559z M905.558,225.792c0,7.936-5.308,12.144-11.779,12.144c-6.697,0-11.401-4.723-11.401-11.701
	c0-7.326,5.003-12.108,11.778-12.108c6.924-0.013,11.402,4.817,11.402,11.661V225.792z M885.875,226.166
	c0,4.936,2.937,9.341,8.09,9.341c5.194,0,8.13-4.335,8.13-9.576c0-4.582-2.636-9.376-8.092-9.376
	C888.586,216.555,885.875,221.114,885.875,226.166L885.875,226.166z M909.813,237.569v-23.064h3.575l8.127,11.666
	c1.881,2.697,3.348,5.127,4.553,7.491l0.076-0.035c-0.302-3.08-0.377-5.886-0.377-9.479V214.5h3.086v23.056h-3.313l-8.052-11.699
	c-1.768-2.568-3.464-5.199-4.741-7.697l-0.113,0.035c0.188,2.905,0.265,5.677,0.265,9.51v9.852h-3.086V237.569z"/>
</svg>
