<?xml version="1.0" encoding="UTF-8"?>
<svg width="831px" height="182px" viewBox="0 0 831 182" version="1.1" xmlns="http://www.w3.org/2000/svg" xmlns:xlink="http://www.w3.org/1999/xlink">
    <!-- Generator: Sketch 46.2 (44496) - http://www.bohemiancoding.com/sketch -->
    <title>logo-paris-2018</title>
    <desc>Created with Sketch.</desc>
    <defs></defs>
    <g id="Page-1" stroke="none" stroke-width="1" fill="none" fill-rule="evenodd">
        <g id="logo-paris-2018">
            <rect id="Rectangle-path" fill="#121037" fill-rule="nonzero" x="0" y="0" width="831" height="182"></rect>
            <path d="M193,61.234406 L195.254153,58.1524912 C197.549818,60.3078292 200.630578,61.4777715 203.812292,61.4025105 C208.435216,61.4025105 211.453488,58.4326653 211.453488,55.1826461 C211.453488,50.7185392 207.174419,48.8507121 202.83804,46.7587457 C198.501661,44.6667793 194.107973,42.1825692 194.107973,36.3549485 C194.107973,30.5273278 199.284884,27.0158128 205.034884,27.0158128 C208.549676,26.858412 212.013984,27.8798696 214.853821,29.9109449 L212.714286,33.1049293 C210.495867,31.4139987 207.751806,30.5174507 204.939369,30.5646844 C201.233389,30.5646844 198.406146,32.7687204 198.406146,36.1681658 C198.406146,39.5676112 201.481728,41.4727949 205.302326,43.2098741 C210.25,45.5259798 216,47.9915116 216,55.1452895 C216,60.9168754 210.995017,64.9887386 203.73588,64.9887386 C199.79592,65.1383151 195.9493,63.7931537 193,61.234406 Z" id="Shape" fill="#FFFFFF" fill-rule="nonzero"></path>
            <path d="M232.344509,28 L236.617341,28 L251,65 L246.231214,65 L242.797688,55.8348624 L225.763584,55.8348624 L222.330058,65 L218,65 L232.344509,28 Z M241.386127,52.1763507 L236.655491,39.5035678 C235.472832,36.391947 234.976879,34.8267074 234.347399,33.1106014 L234.232948,33.1106014 C233.622543,34.9964322 232.993064,36.6748216 231.924855,39.5035678 L227.156069,52.1763507 L241.386127,52.1763507 Z" id="Shape" fill="#FFFFFF" fill-rule="nonzero"></path>
            <polygon id="Shape" fill="#FFFFFF" fill-rule="nonzero" points="255.038 28 259.332 28 259.332 61.3414883 274 61.3414883 274 65 255 65"></polygon>
            <path d="M276,46.046729 C276,35.9719626 282.669434,27 293.953295,27 C305.237156,27 312,35.8598131 312,45.953271 C312,56.046729 305.330566,65 294.046705,65 C282.762844,65 276,56.1214953 276,46.046729 Z M307.478983,46.046729 C307.478983,37.7850467 302.808511,30.5700935 294.046705,30.5700935 C285.284899,30.5700935 280.502335,37.6728972 280.502335,45.9345794 C280.502335,54.1962617 285.172807,61.411215 293.934613,61.411215 C302.696419,61.411215 307.478983,54.3084112 307.478983,46.046729 Z" id="Shape" fill="#FFFFFF" fill-rule="nonzero"></path>
            <path d="M319,28 L323.266364,28 L340.688918,53.1192661 C342.399222,55.627421 343.451717,57.4566769 344.128321,58.569317 L344.241089,58.569317 C344.241089,57.8527013 344.015554,56.2874618 344.015554,53.5718654 L344.015554,28 L348,28 L348,65 L344.015554,65 L325.803629,38.598369 C324.69475,37.0331295 323.585872,34.9775739 322.928062,33.8272171 L322.815295,33.8272171 C322.815295,34.5438328 323.04083,36.1090724 323.04083,37.8817533 L323.04083,65 L319.056384,65 L319,28 Z" id="Shape" fill="#FFFFFF" fill-rule="nonzero"></path>
            <path d="M369,28 L373.271901,28 L390.679429,53.1192661 C392.391953,55.627421 393.445814,57.4566769 394.123297,58.569317 L394.23621,58.569317 C394.23621,57.8527013 394.010383,56.2874618 394.010383,53.5718654 L394.010383,28 L398,28 L398,65 L394.010383,65 L375.774822,38.598369 C374.664504,37.0331295 373.554186,34.9775739 372.895522,33.8272171 L372.782609,33.8272171 C372.782609,34.5438328 373.008436,36.1090724 373.008436,37.8817533 L373.008436,65 L369.018819,65 L369,28 Z" id="Shape" fill="#FFFFFF" fill-rule="nonzero"></path>
            <path d="M416.867903,28 L421.020857,28 L435,65 L430.439166,65 L427.10197,55.8348624 L410.545771,55.8348624 L407.208575,65 L403,65 L416.867903,28 Z M425.655852,52.1763507 L421.169177,39.5035678 C420.019699,36.391947 419.537659,34.8267074 418.92584,33.1106014 L418.8146,33.1106014 C418.221321,34.9964322 417.609502,36.6748216 416.571263,39.5035678 L411.899189,52.1574924 L425.655852,52.1763507 Z" id="Shape" fill="#FFFFFF" fill-rule="nonzero"></path>
            <polygon id="Shape" fill="#FFFFFF" fill-rule="nonzero" points="443.337788 31.6585117 433 31.6585117 433 28 458 28 458 31.6585117 447.643653 31.6585117 447.643653 65 443.319228 65"></polygon>
            <polygon id="Shape" fill="#FFFFFF" fill-rule="nonzero" points="464 28 468 28 468 65 464 65"></polygon>
            <path d="M475,46.046729 C475,35.9719626 481.665975,27 492.943983,27 C504.221992,27 511,35.8598131 511,45.953271 C511,56.046729 504.334025,65 493.056017,65 C481.778008,65 475,56.1214953 475,46.046729 Z M506.462656,46.046729 C506.462656,37.7850467 501.794606,30.5700935 493.037344,30.5700935 C484.280083,30.5700935 479.5,37.6728972 479.5,45.9345794 C479.5,54.1962617 484.16805,61.411215 492.925311,61.411215 C501.682573,61.411215 506.462656,54.3084112 506.462656,46.046729 Z" id="Shape" fill="#FFFFFF" fill-rule="nonzero"></path>
            <path d="M518,28 L522.271901,28 L539.679429,53.1192661 C541.391953,55.627421 542.445814,57.4566769 543.123297,58.569317 L543.23621,58.569317 C543.23621,57.8527013 543.010383,56.2874618 543.010383,53.5718654 L543.010383,28 L547,28 L547,65 L543.010383,65 L524.774822,38.598369 C523.664504,37.0331295 522.554186,34.9775739 521.895522,33.8272171 L521.782609,33.8272171 C521.782609,34.5438328 522.008436,36.1090724 522.008436,37.8817533 L522.008436,65 L518.018819,65 L518,28 Z" id="Shape" fill="#FFFFFF" fill-rule="nonzero"></path>
            <path d="M566.344509,28 L570.617341,28 L585,65 L580.231214,65 L576.797688,55.8348624 L559.763584,55.8348624 L556.330058,65 L552,65 L566.344509,28 Z M575.386127,52.1763507 L570.674566,39.5035678 C569.491908,36.391947 568.995954,34.8267074 568.366474,33.1106014 L568.252023,33.1106014 C567.641618,34.9964322 567.012139,36.6748216 565.943931,39.5035678 L561.175145,52.1763507 L575.386127,52.1763507 Z" id="Shape" fill="#FFFFFF" fill-rule="nonzero"></path>
            <polygon id="Shape" fill="#FFFFFF" fill-rule="nonzero" points="590 28 594.361277 28 594.361277 61.3414883 609 61.3414883 609 65 590.037924 65"></polygon>
            <path d="M62.1380649,159.786018 C65.2030965,160.097822 68.2937136,160.053481 71.3486254,159.653875 C77.2133089,158.728875 83.2471659,158.709998 89.2058346,158.181426 C100.728434,157.180916 112.175845,159.899283 123.698444,159.786018 C129.157572,159.833242 134.610453,159.403734 139.995497,158.502345 C142.613804,158.193767 145.203464,157.676143 147.739887,156.954386 C149.506811,156.312549 155.615856,156.822243 156.574506,154.972243 C157.044433,154.047243 157.307591,153.61306 156.367738,153.084489 C156.912853,151.593162 155.672247,149.818673 156.649694,148.591632 C157.627141,147.364592 154.769988,147.232449 156.142174,146.382959 C156.593303,146.099796 156.142174,140.285512 156.142174,139.568165 C156.142174,136.37786 155.183523,133.338574 155.597059,130.129391 C156.010594,126.920208 154.6948,123.144699 155.597059,120.275312 C156.520721,117.951463 156.781092,115.415046 156.348941,112.950824 C156.029391,109.987049 156.066985,106.249295 155.841421,103.36103 C155.615856,100.472765 157.06323,99.0003165 156.461724,96.5839905 C155.96337,95.0593579 155.641697,93.4821091 155.503073,91.8834813 C155.7148,89.7821796 155.821451,87.6715354 155.822623,85.5595031 C155.409088,82.9732792 155.578262,78.2161374 155.427885,78.1783823 C155.973,76.1584847 155.427885,75.648791 154.769988,73.7987914 C153.961714,71.2503225 155.973,68.1355273 155.3339,65.4737932 C154.6948,62.812059 155.070741,60.4901208 156.085782,55.2044076 C155.966281,53.0041218 155.59414,50.8250588 154.976756,48.7105315 C154.450438,45.9166545 156.856462,38.5355337 156.348941,35.7416567 C155.879015,33.3253307 157.138418,24.9436999 155.634653,23.0181901 C151.87524,18.1289054 133.604496,23.7921695 127.796204,22.772782 C125.001961,22.4431178 122.18566,22.342105 119.37512,22.4707412 C116.179619,22.4707412 113.021713,21.7911495 109.826212,21.9988026 C103.172052,22.4329861 96.6682684,22.5273739 89.9577171,23.0370676 C83.8486719,23.5090063 78.2283502,22.395231 72.119305,23.0370676 C65.7095067,23.7921695 52.7395337,20.8661497 46.6868797,23.0370676 C41.6304699,24.9248223 37.1567691,20.4885988 33.3973566,24.3584959 C31.5176504,26.2462506 32.8146477,45.9355321 32.5514888,48.4651234 C32.4011123,50.0130822 32.4199094,51.5610411 32.3823153,53.1089999 C32.3447211,54.6569588 32.6454741,56.8845093 32.7206624,57.979407 C33.0712585,60.1503011 33.1847135,62.3531576 33.0590095,64.5487934 C32.7018653,64.5487934 33.5289361,69.5702209 33.1905889,69.607976 C33.0214154,70.9294042 33.9048773,77.3666477 33.7732979,78.6691985 C33.6417184,79.9717492 36.3672925,77.1023621 36.7996249,76.9890968 C36.3296983,76.7248111 39.243243,75.1013421 38.8109106,74.7993014 C39.8635461,74.6294034 39.5064019,72.5528733 40.5778344,72.6095059 C42.4575407,72.7227712 44.055291,68.2487926 45.8598089,67.814609 C48.2282388,67.2482826 47.983877,64.0390996 49.8259891,63.5482834 C52.1944189,62.9064468 49.8259891,62.2268551 49.6944097,60.1125698 C49.6487729,59.6126243 49.6868951,59.1085326 49.807192,58.6212436 C49.9011773,57.6773663 49.1304978,56.8845093 49.2620772,55.9595095 C49.5628302,53.8829793 48.28463,49.9186945 49.2620772,48.0120622 C50.2395245,46.10543 47.5515445,35.3263507 48.8297448,33.7406368 C50.107945,32.1549228 54.9011959,33.6084939 56.6305256,33.1931879 C58.6982025,32.6834941 65.8222891,31.9283922 67.908763,31.6829841 C70.4275694,31.3998209 92.4577264,30.1916579 96.5930801,32.0416575 C102.232199,34.5901264 112.119454,30.2482906 118.209702,31.7396168 C120.935276,32.4003309 128.792448,33.438596 131.254863,34.8355345 C133.717278,36.2324729 133.247352,52.3916531 133.905249,54.1850201 C134.563146,55.9783871 134.525552,57.9605295 135.954129,59.2442027 C135.412297,60.1010153 135.580565,61.2276081 136.348867,61.8870592 C135.912105,63.1844595 135.945389,64.5950542 136.442852,65.8702217 C136.799996,67.7579763 136.612026,69.645731 136.837591,71.6845061 C137.159699,75.9404911 137.787907,80.1675047 138.717297,84.3324626 L138.529326,84.4834829 C139.356397,92.4309302 141.048133,100.378377 141.70603,108.36358 C141.806033,112.121849 142.113523,115.871655 142.627086,119.59572 C143.416562,123.635515 142.401521,127.920718 143.097012,132.036024 C142.232347,134.074799 142.5331,144.835001 140.277453,145.250307 C132.054662,146.72892 123.703148,147.361444 115.352548,147.138061 C106.517929,147.138061 98.4351922,148.68602 89.61937,148.308469 C89.1870376,148.308469 89.3750082,145.53347 89.3750082,144.986021 C89.3750082,143.098266 88.8674875,141.021736 88.9238787,139.058471 C88.9238787,137.397247 89.2434288,135.717145 89.318617,134.037044 C89.318617,133.017656 88.8674875,132.149289 88.9426758,131.111024 C89.199809,130.061779 89.2635158,128.974125 89.1306464,127.901841 C88.7547051,126.6748 89.0366611,124.711535 88.3411698,123.654393 C87.7360018,122.986085 87.3262211,122.163014 87.1569548,121.275822 C87.0065784,120.388577 85.5780016,120.313067 84.8449162,120.237557 L81.7434009,119.916639 C81.2546773,120.558475 80.3900124,120.3697 79.7509123,120.199802 C79.4689564,120.199802 79.2621887,119.765618 78.9238416,119.463577 L78.0403796,119.973271 C77.7772208,119.4447 70.5215547,120.237557 68.6418485,121.030414 L67.2508659,121.577863 C68.8298191,125.825311 66.987707,130.3748 67.8523719,134.792146 C68.7170367,139.209492 67.7583865,143.343674 68.0967337,147.874286 C63.5102505,147.874286 59.2809114,148.497245 54.6944282,148.232959 C54.3878524,148.25638 54.079948,148.25638 53.7733722,148.232959 C51.7244924,148.232959 51.8936659,148.365102 51.8936659,146.987041 C51.6970717,144.014849 51.6594234,141.034205 51.7808836,138.057961 C52.0064483,134.886533 52.6267514,132.60235 51.7808836,130.318167 C51.5628137,129.069192 51.5628137,127.791633 51.7808836,126.542658 C51.7808836,125.089086 51.4425364,123.59776 51.3673482,122.125312 C51.2921599,120.652863 50.9350158,119.784496 50.8598275,118.349802 C50.7846393,116.915109 51.010204,115.29164 50.4274951,114.574293 C50.7832035,113.12642 50.7179676,111.606466 50.2395245,110.194702 C49.8259891,109.307457 51.4989276,106.041642 49.6192214,106.419192 C44.1654634,107.121194 38.6698286,107.442882 33.1717919,107.381947 C32.4950976,107.268682 31.0477238,105.28654 31.987577,104.28603 C35.8409747,100.227357 42.6455113,94.5074604 46.6116914,91.0717468 C48.4913977,89.4482778 51.4801306,86.5977682 53.3786339,84.9365441 C55.673141,82.8363466 57.8387745,80.5983996 59.8636204,78.2350149 C61.7433266,76.2151174 64.0553653,73.6100159 65.784695,71.5334857 C66.6117657,70.5329758 69.5441075,68.7396088 71.0290754,69.0982822 C75.8784718,70.5686168 80.5355596,72.6156089 84.9013074,75.1957298 C89.29982,78.0273619 93.9238973,81.4441979 98.3975981,84.0681769 C102.871299,86.6921559 120.728508,97.5089903 125.183412,100.321745 C129.638316,103.134499 128.040565,105.701846 126.179656,105.985009 C124.318747,106.268172 122.7022,105.985009 122.119491,105.985009 C119.939032,106.173784 116.480372,106.249295 114.337507,106.645723 C109.826212,107.476335 104.938976,106.117152 100.427681,107.325315 C100.126928,107.325315 100.653246,109.949294 100.596854,110.477865 C100.596854,113.064089 101.254752,116.613068 101.499113,114.763068 C101.247024,121.27826 101.385118,127.80278 101.912649,134.301329 C102.269793,136.944186 108.999141,134.660003 113.021713,135.131941 C114.009123,135.131475 114.945315,134.690568 115.577083,133.928472 C116.20885,133.166375 116.470916,132.161832 116.292401,131.186534 C115.878866,128.392657 116.292401,124.805923 115.014201,122.257454 C114.581869,121.44572 115.202172,120.3697 114.63826,119.539088 C113.946074,118.408927 113.761736,117.037613 114.130739,115.763578 C114.231013,115.36237 114.507756,115.028857 114.882622,114.857456 C116.732011,114.399186 118.61986,114.114796 120.52174,114.007966 C121.361882,113.917194 122.18841,113.727102 122.984156,113.44164 C124.149573,113.026334 125.202209,113.44164 126.367627,113.064089 C130.333807,111.969191 133.32254,109.28858 137.100749,108.137049 C137.837792,107.634778 138.402372,106.916142 138.717297,106.079397 C138.548123,101.492153 133.566902,98.6605207 130.784936,95.35695 C127.052865,90.9697694 122.702361,87.1539335 117.871355,84.0304218 C117.19466,83.5962382 113.642016,80.896749 113.792392,80.2549124 C114.768307,80.5091306 115.798401,80.456417 116.743531,80.1038921 C120.822493,79.7829738 123.548067,80.7079736 123.416488,78.065117 C123.247314,74.6671585 126.010483,64.3033853 120.502943,65.19063 C119.657076,65.3227728 118.886396,64.7375688 118.021731,64.6809362 C117.157066,64.6243036 116.142025,64.6809362 115.202172,64.7753239 C112.744222,65.1063376 110.32996,65.7077395 108.002897,66.5686909 C106.875073,66.8518541 106.950261,67.7013437 107.100638,68.5885884 C107.439139,71.4957644 107.502079,74.4286473 107.288609,77.3477702 L101.442722,74.4217504 C101.337494,73.0601678 101.123776,71.7092447 100.803622,70.3819554 C100.803622,70.1554248 100.972796,68.607466 100.972796,68.3620579 C100.972796,67.0406296 101.348737,66.8329765 100.258507,66.3044052 C97.1757891,64.8508341 92.3825382,65.3605279 88.9802699,65.8324666 C86.0855223,66.2477726 87.7396638,67.6258335 84.9576986,66.5309358 C81.9941178,65.5696004 79.0936493,64.4220992 76.2734558,63.0952223 C73.1155493,61.3584879 71.2922343,60.5089983 67.6456042,61.6227736 C61.0854294,63.6426711 56.5741345,70.0421595 51.7432894,74.5161382 C49.5252361,76.5737908 47.4387622,78.8013413 45.3146941,80.9533817 C43.1906261,83.105422 40.3710667,85.8615439 38.0778251,88.3533801 C33.7732979,93.0727668 31.1981003,95.5268479 25.972517,100.321745 C23.9800284,102.2095 18.6980539,107.28756 17.513839,109.760518 C17.1003036,110.628885 15.6341327,112.327865 16.0852622,113.668171 C16.5363917,115.008476 16.3860152,115.555925 16.9687242,115.725823 C19.6756415,116.305954 22.43406,116.609541 25.2018375,116.631945 C26.9123701,116.631945 31.5552445,115.706946 33.2657772,115.555925 C33.7876151,115.633183 34.2414753,115.955752 34.4875862,116.424292 C35.1454834,117.783476 33.8296891,122.786026 33.5665302,124.258474 C33.2971674,126.61592 33.3668028,129.000019 33.7732979,131.337554 C34.0009033,133.546623 34.0009033,135.773383 33.7732979,137.982451 C33.6793126,139.133981 33.0026183,158.747753 33.9988626,159.61612 C34.9951069,160.484487 59.4688821,159.578365 62.1380649,159.786018 Z M83.0028041,56.0727748 C83.2471659,56.2804278 83.4727306,56.6013461 83.7358895,56.6579787 C86.3486812,57.2243052 88.7547051,56.2049176 91.2547144,56.3181829 C93.1344207,56.3181829 96.0855594,57.3753255 97.8524833,56.2049176 C98.3036128,55.9028769 99.563016,54.0339997 99.2246689,53.2788978 C98.4727864,51.6176737 99.0742924,49.9753271 98.679554,48.3896132 C98.360004,47.0870624 99.2246689,42.896247 98.2660187,42.1411451 C96.7197253,41.3448416 94.97428,41.0231449 93.247203,41.2161453 C89.7885436,41.2161453 86.4990577,41.0273699 83.28476,42.6697165 C81.8749803,43.4059408 83.7546866,45.9921647 83.9238601,47.10594 C84.0816293,48.4931861 84.0053722,49.897218 83.6982954,51.2590003 C84.6569456,51.938592 84.0554396,54.3737956 83.0028041,56.0727748 L83.0028041,56.0727748 Z M105.747249,56.0727748 C105.991611,56.2615503 106.217176,56.5824686 106.480335,56.6391012 C109.07433,57.1865501 111.461556,56.2049176 113.99916,56.3181829 C115.878866,56.3181829 118.792411,57.3375704 120.540538,56.2049176 C120.991667,55.9217544 122.25107,54.1095099 121.912723,53.3921631 C121.160841,51.7875716 121.762347,50.2207352 121.367608,48.7105315 C120.97287,47.2003277 122.138288,44.6707364 121.198435,43.9533897 C120.258582,43.2360429 123.078141,41.8391044 117.439022,41.8768595 C113.99916,41.8768595 109.337488,41.0462474 106.160785,42.6319614 C104.751005,43.3304306 106.480335,46.4074708 106.649508,47.5023685 C106.818682,48.5972662 106.517929,49.3901232 107.326203,50.2962454 C106.926085,50.6056337 106.614762,51.0159935 106.423944,51.4855309 C107.382594,52.146245 106.781088,54.4870608 105.747249,56.1105299 L105.747249,56.0727748 Z M59.7884321,57.6018561 C61.3673854,57.3186929 64.8636389,57.6018561 66.5741716,57.6018561 C68.811022,57.5074684 70.5779459,58.4135906 72.8335934,57.6018561 C74.6193143,57.0166521 74.7132996,57.4319582 76.1042822,55.7141014 C76.6681941,55.0345097 77.0253383,52.9768571 76.5366146,52.6181837 C75.6719498,51.9763471 76.8561647,50.730429 76.1042822,50.2773679 C75.9651374,49.0834538 75.7580307,47.8985213 75.4839792,46.7283891 C73.9802142,41.5370636 77.250903,42.0090023 67.2508659,42.7641042 C65.5591302,42.896247 61.254603,42.4243083 59.7320409,43.1982878 C58.6418113,43.7646142 59.9764027,46.4829809 59.2245202,47.8044092 C57.344814,51.2590003 58.5854201,54.2227752 59.6004615,54.3737956 C59.9200116,54.4493058 58.4350436,57.8850193 59.7696351,57.6396112 L59.7884321,57.6018561 Z" id="Shape" fill="#FFFFFF"></path>
            <path d="M195,83 L203.776797,83 C218.530895,83 225,90.4672048 225,101.070636 C225,111.674067 218.474149,120 203.530895,120 L195.018916,120 L195,83 Z M203.89029,116.453078 C214.709962,116.453078 220.384615,111.17003 220.384615,101.163976 C220.384615,91.1579213 215.031526,86.5469223 203.606557,86.5469223 L199.388398,86.5469223 L199.388398,116.415742 L203.89029,116.453078 Z" id="Shape" fill="#FFFFFF" fill-rule="nonzero"></path>
            <polygon id="Shape" fill="#FFFFFF" fill-rule="nonzero" points="233 83 252.595765 83 252.595765 86.8133467 237.465833 86.8133467 237.465833 98.958856 250.767084 98.958856 250.767084 102.772203 237.465833 102.772203 237.465833 117.186653 253 117.186653 253 121 233 121"></polygon>
            <polygon id="Shape" fill="#FFFFFF" fill-rule="nonzero" points="276 83 280.355731 83 280.355731 116.273917 295 116.273917 295 120 276 120"></polygon>
            <path d="M297.285344,89.7344278 C297.285344,87.5785957 295,87.1779543 295,84.7931843 C295.019384,84.0097437 295.369697,83.2682775 295.969174,82.7418453 C296.568651,82.2154132 297.364837,81.9500792 298.1719,82.0077729 C299.23491,82.0370853 300.24055,82.4812434 300.960318,83.2393256 C301.680087,83.9974078 302.052862,85.0050389 301.993942,86.0332647 C301.719851,89.3151411 300.428912,92.4404191 298.290108,95 L295.118207,95 C296.360111,93.4896663 297.113991,91.6579361 297.285344,89.7344278 L297.285344,89.7344278 Z" id="Shape" fill="#FFFFFF" fill-rule="nonzero"></path>
            <polygon id="Shape" fill="#FFFFFF" fill-rule="nonzero" points="311 83 315 83 315 120 311 120"></polygon>
            <path d="M329.167192,83 L333.33123,83 L342.624606,108.170449 C343.760252,111.286435 344.309148,112.891074 344.990536,114.999496 L345.104101,114.999496 C345.728707,113.003026 346.334385,111.267776 347.470032,108.170449 L356.763407,83 L360.927445,83 L366,120 L361.55205,120 L358.334385,95.7438225 C357.993691,93.075643 357.823344,91.6949067 357.709779,90.5753908 L357.596215,90.5753908 C357.198738,91.8441755 356.744479,93.3555219 355.911672,95.6878467 L347.015773,119.944024 L342.794953,119.944024 L333.671924,95.6878467 C332.763407,93.2995461 332.328076,91.8628341 331.77918,90.5753908 L331.665615,90.5753908 C331.55205,91.9001513 331.381703,93.3555219 331.097792,95.8557741 L328.107256,119.962683 L324,119.962683 L329.167192,83 Z" id="Shape" fill="#FFFFFF" fill-rule="nonzero"></path>
            <path d="M377.280757,83 L381.388013,83 L390.681388,108.170449 C391.798107,111.286435 392.365931,112.891074 393.047319,114.999496 L393.160883,114.999496 C393.785489,113.003026 394.391167,111.267776 395.526814,108.170449 L404.763407,83 L408.927445,83 L414,120 L409.55205,120 L406.334385,95.7438225 C405.993691,93.075643 405.823344,91.6949067 405.709779,90.5753908 L405.596215,90.5753908 C405.198738,91.8441755 404.744479,93.3555219 403.911672,95.6878467 L395.015773,119.944024 L390.794953,119.944024 L381.671924,95.6878467 C380.763407,93.2995461 380.328076,91.8628341 379.77918,90.5753908 L379.665615,90.5753908 C379.55205,91.9001513 379.381703,93.3555219 379.097792,95.8557741 L376.107256,119.962683 L372,119.962683 L377.280757,83 Z" id="Shape" fill="#FFFFFF" fill-rule="nonzero"></path>
            <path d="M420,101.556962 C420,91.2088608 426.841294,82 438.452491,82 C450.063688,82 457,91.0949367 457,101.443038 C457,111.791139 450.158706,121 438.566513,121 C426.974319,121 420,111.905063 420,101.556962 Z M452.306112,101.556962 C452.306112,93.0886076 447.498202,85.664557 438.509502,85.664557 C429.520801,85.664557 424.59887,92.9556962 424.59887,101.443038 C424.59887,109.93038 429.40678,117.335443 438.39548,117.335443 C447.384181,117.335443 452.344119,110.025316 452.344119,101.556962 L452.306112,101.556962 Z" id="Shape" fill="#FFFFFF" fill-rule="nonzero"></path>
            <path d="M465,83 L474.980952,83 C482.009524,83 487.342857,85.5562279 487.342857,92.2173475 C487.482331,96.204905 484.609389,99.6869621 480.6,100.389813 L480.6,100.501765 C485.368242,100.979896 488.995631,104.911898 489,109.607161 C489,117.0706 483.285714,120 474.828571,120 L465.019048,120 L465,83 Z M474.52381,98.878467 C480.238095,98.878467 482.809524,96.8260212 482.809524,92.4972264 C482.809524,88.1684317 479.971429,86.6011094 474.638095,86.6011094 L469.361905,86.6011094 L469.361905,98.878467 L474.52381,98.878467 Z M474.695238,116.380232 C481.380952,116.380232 484.390476,114.383762 484.390476,109.719112 C484.390476,105.054463 481.952381,102.442259 475.038095,102.442259 L469.32381,102.442259 L469.32381,116.380232 L474.695238,116.380232 Z" id="Shape" fill="#FFFFFF" fill-rule="nonzero"></path>
            <polygon id="Shape" fill="#FFFFFF" fill-rule="nonzero" points="498.051724 83 502 83 502 120 498 120"></polygon>
            <polygon id="Shape" fill="#FFFFFF" fill-rule="nonzero" points="514 83 518.373016 83 518.373016 116.273917 533 116.273917 533 120 514 120"></polygon>
            <polygon id="Shape" fill="#FFFFFF" fill-rule="nonzero" points="540 83 544 83 544 120 540 120"></polygon>
            <polygon id="Shape" fill="#FFFFFF" fill-rule="nonzero" points="556 83 575.595765 83 575.595765 86.8133467 560.465833 86.8133467 560.465833 98.958856 573.767084 98.958856 573.767084 102.772203 560.465833 102.772203 560.465833 117.186653 576 117.186653 576 121 556 121"></polygon>
            <path d="M583,83 L593.06348,83 C600.793129,83 605.348768,86.619768 605.348768,92.8330812 C605.348768,99.0463944 600.849141,102.16238 594.949216,102.498235 L594.949216,102.610187 C596.457998,103.952515 597.765871,105.504611 598.832711,107.21886 L608,120 L602.884242,120 L595.415982,109.495209 C591.084391,103.393848 590.412248,102.946041 587.947722,102.946041 L587.331591,102.946041 L587.331591,120 L583,120 L583,83 Z M592.895444,99.3822491 C598.403286,99.3822491 600.905153,97.0499244 600.905153,92.9450328 C600.905153,88.8401412 598.23525,86.6757438 592.578043,86.6757438 L587.350261,86.6757438 L587.350261,99.4009077 L592.895444,99.3822491 Z" id="Shape" fill="#FFFFFF" fill-rule="nonzero"></path>
            <rect id="Rectangle-path" fill="#FFFFFF" fill-rule="nonzero" x="647" y="22" width="2" height="137"></rect>
            <path d="M703.686163,111 C692.06467,111 684,102.46351 684,89.8735882 C684,76.6485665 692.578222,68 704.256776,68 C716.277699,68 724,76.7046047 724,89.0703736 C724,103.341442 714.832145,111 703.724204,111 L703.686163,111 Z M703.914408,106.610339 C712.873039,106.610339 717.951498,98.764987 717.951498,89.3132059 C717.951498,81.0382276 713.405611,72.3896612 703.99049,72.3896612 C694.575369,72.3896612 689.896339,80.7393571 689.896339,89.7615117 C689.896339,98.7836664 694.955777,106.57298 703.857347,106.57298 L703.914408,106.610339 Z" id="Shape" fill="#FFFFFF" fill-rule="nonzero"></path>
            <path d="M761.924399,108.999157 C758.274208,110.442181 754.36092,111.117827 750.43299,110.983199 C738.166667,110.983199 729,103.49625 729,89.8700022 C729,76.7678412 738.223368,68.0081107 751.680412,68.0081107 C755.213887,67.919563 758.727574,68.5568654 762,69.879848 L760.582474,74.3345827 C757.841932,73.1293146 754.867458,72.5350669 751.869416,72.5938671 C741.66323,72.5938671 734.859107,78.8454696 734.859107,89.7389806 C734.859107,99.9586662 740.982818,106.453595 751.510309,106.453595 C754.672409,106.501707 757.81108,105.909349 760.733677,104.712879 L761.924399,108.999157 Z" id="Shape" fill="#FFFFFF" fill-rule="nonzero"></path>
            <polygon id="Shape" fill="#FFFFFF" fill-rule="nonzero" points="778.176471 72.6164199 765 72.6164199 765 68 797 68 797 72.6164199 783.823529 72.6164199 783.823529 110 778.176471 110"></polygon>
            <path d="M801,110.999999 C799.911693,111.000837 798.870093,110.574568 798.115777,109.819649 C797.361462,109.06473 796.95967,108.046449 797.003203,107 C796.95967,105.953551 797.361462,104.93527 798.115777,104.180351 C798.870093,103.425432 799.911693,102.999163 801,103.000001 C802.088307,102.999163 803.129907,103.425432 803.884223,104.180351 C804.638538,104.93527 805.04033,105.953551 804.996797,107 C805.04033,108.046449 804.638538,109.06473 803.884223,109.819649 C803.129907,110.574568 802.088307,111.000837 801,110.999999 Z" id="Shape" fill="#FFFFFF" fill-rule="nonzero"></path>
            <path d="M193,144.288149 C194.230901,144.094557 195.476964,144.005011 196.724002,144.020532 C198.132103,143.905262 199.536684,144.278009 200.685706,145.071888 C201.542702,145.783592 202.022735,146.829392 201.993069,147.920107 C202.059257,148.999108 201.649051,150.054725 200.863983,150.825673 C199.698664,151.801812 198.185574,152.302242 196.644768,152.221109 C196.249837,152.263879 195.851187,152.263879 195.456257,152.221109 L195.456257,157 L193.039617,157 L193,144.288149 Z M195.41664,150.271321 C195.804527,150.367297 196.205251,150.405967 196.605151,150.386015 C198.427535,150.386015 199.536812,149.506699 199.536812,148.015685 C199.536812,146.524671 198.506769,145.83651 196.823045,145.83651 C196.35136,145.826673 195.879924,145.865119 195.41664,145.951204 L195.41664,150.271321 Z" id="Shape" fill="#FFFFFF" fill-rule="nonzero"></path>
            <path d="M211.4375,153.316024 L210.359797,157 L208,157 L212.013514,144 L214.912162,144 L219,157 L216.547297,157 L215.413851,153.316024 L211.4375,153.316024 Z M215.023649,151.522255 L214.038851,148.320475 C213.797297,147.529674 213.592905,146.642433 213.407095,145.890208 L213.407095,145.890208 C213.221284,146.642433 213.035473,147.548961 212.8125,148.320475 L211.846284,151.522255 L215.023649,151.522255 Z" id="Shape" fill="#FFFFFF" fill-rule="nonzero"></path>
            <path d="M227,144.313783 C228.16164,144.113873 229.338476,144.017972 230.516807,144.027197 C231.907014,143.893002 233.299541,144.258312 234.44958,145.058907 C235.185939,145.712336 235.589267,146.667982 235.546218,147.657289 C235.541612,149.123531 234.602452,150.419732 233.220588,150.867055 L233.220588,150.867055 C234.193536,151.334399 234.863552,152.27073 234.997899,153.350802 C235.263732,154.566462 235.598314,155.765723 236,156.942683 L233.617647,156.942683 C233.238856,155.959798 232.953946,154.942563 232.766807,153.904869 C232.388655,152.223563 231.802521,151.688602 230.478992,151.650391 L229.306723,151.650391 L229.306723,157 L227,157 L227,144.313783 Z M229.306723,150.045508 L230.686975,150.045508 C232.256303,150.045508 233.220588,149.204855 233.220588,147.92477 C233.220588,146.644685 232.256303,145.861349 230.743697,145.861349 C230.262015,145.84703 229.780214,145.885465 229.306723,145.975983 L229.306723,150.045508 Z" id="Shape" fill="#FFFFFF" fill-rule="nonzero"></path>
            <polygon id="Shape" fill="#FFFFFF" fill-rule="nonzero" points="245 144 245 157 243 157 243 144"></polygon>
            <path d="M254.511416,154.332384 C255.421545,154.855857 256.44579,155.133717 257.488584,155.140038 C258.913242,155.140038 259.716895,154.44508 259.716895,153.412034 C259.716895,152.378989 259.09589,151.89064 257.543379,151.308378 C255.497717,150.575855 254.200913,149.430113 254.200913,147.645762 C254.200913,145.86141 255.881279,144.001928 258.56621,144.001928 C259.579384,143.977281 260.584804,144.189203 261.506849,144.621756 L260.977169,146.50002 C260.213896,146.099562 259.368272,145.893436 258.511416,145.898976 C257.086758,145.898976 256.484018,146.669064 256.484018,147.42037 C256.484018,148.171676 257.196347,148.847851 258.840183,149.486461 C260.977169,150.33168 262,151.364726 262,153.24299 C262,155.121255 260.502283,156.99952 257.342466,156.99952 C256.183227,157.012998 255.037511,156.742592 254,156.210649 L254.511416,154.332384 Z" id="Shape" fill="#FFFFFF" fill-rule="nonzero"></path>
            <polygon id="Shape" fill="#FFFFFF" fill-rule="nonzero" points="285 149.02 285 150.7 280 150.7 280 149"></polygon>
            <path d="M311.942614,156.418334 C310.876645,156.822938 309.73814,157.013582 308.595073,156.978884 C306.825202,157.124942 305.078386,156.508093 303.813279,155.2903 C302.548172,154.072507 301.891165,152.375433 302.014765,150.644672 C301.92444,148.846648 302.621605,147.096014 303.932046,145.83024 C305.242486,144.564466 307.042401,143.903132 308.882005,144.011502 C309.949226,143.969716 311.013023,144.154589 312,144.553366 L311.502651,146.421865 C310.703746,146.093302 309.844438,145.927972 308.977649,145.936055 C307.717694,145.862672 306.488708,146.335647 305.618599,147.228785 C304.748489,148.121924 304.325779,149.344359 304.463251,150.569933 C304.335352,151.779949 304.762673,152.983161 305.630247,153.855849 C306.497822,154.728538 307.716543,155.181072 308.95852,155.0917 C309.833831,155.09665 310.70264,154.944653 311.52178,154.64326 L311.942614,156.418334 Z" id="Shape" fill="#FFFFFF" fill-rule="nonzero"></path>
            <path d="M322.4375,153.316024 L321.359797,157 L319,157 L323.013514,144 L325.930743,144 L330,157 L327.547297,157 L326.413851,153.316024 L322.4375,153.316024 Z M326.023649,151.522255 L325.038851,148.320475 C324.797297,147.529674 324.592905,146.642433 324.407095,145.890208 L324.407095,145.890208 C324.221284,146.642433 324.035473,147.548961 323.8125,148.320475 L322.846284,151.522255 L326.023649,151.522255 Z" id="Shape" fill="#FFFFFF" fill-rule="nonzero"></path>
            <path d="M338,144.313783 C339.16164,144.113873 340.338476,144.017972 341.516807,144.027197 C342.907014,143.893002 344.299541,144.258312 345.44958,145.058907 C346.185939,145.712336 346.589267,146.667982 346.546218,147.657289 C346.541612,149.123531 345.602452,150.419732 344.220588,150.867055 L344.220588,150.867055 C345.193536,151.334399 345.863552,152.27073 345.997899,153.350802 C346.263732,154.566462 346.598314,155.765723 347,156.942683 L344.617647,156.942683 C344.238856,155.959798 343.953946,154.942563 343.766807,153.904869 C343.388655,152.223563 342.802521,151.688602 341.478992,151.650391 L340.306723,151.650391 L340.306723,157 L338,157 L338,144.313783 Z M340.306723,150.045508 L341.686975,150.045508 C343.256303,150.045508 344.220588,149.204855 344.220588,147.92477 C344.220588,146.644685 343.256303,145.861349 341.743697,145.861349 C341.262015,145.84703 340.780214,145.885465 340.306723,145.975983 L340.306723,150.045508 Z" id="Shape" fill="#FFFFFF" fill-rule="nonzero"></path>
            <path d="M355.093555,144.313783 C356.24312,144.113873 357.407723,144.017972 358.573805,144.027197 C359.949561,143.893002 361.327612,144.258312 362.465696,145.058907 C363.194402,145.712336 363.593536,146.667982 363.550936,147.657289 C363.546377,149.123531 362.616979,150.419732 361.24948,150.867055 L361.24948,150.867055 C362.212314,151.334399 362.875365,152.27073 363.008316,153.350802 C363.271385,154.566462 363.60249,155.765723 364,156.942683 L361.548857,156.942683 C361.174003,155.959798 360.892054,154.942563 360.706861,153.904869 C360.33264,152.223563 359.752599,151.688602 358.442827,151.650391 L357.282744,151.650391 L357.282744,157 L355,157 L355.093555,144.313783 Z M357.376299,150.045508 L358.742204,150.045508 C360.295218,150.045508 361.24948,149.204855 361.24948,147.92477 C361.24948,146.644685 360.295218,145.861349 358.798337,145.861349 C358.321661,145.84703 357.844869,145.885465 357.376299,145.975983 L357.376299,150.045508 Z" id="Shape" fill="#FFFFFF" fill-rule="nonzero"></path>
            <path d="M376.897101,156.999991 C375.232268,157.002864 373.644052,156.307774 372.525775,155.086859 C371.407497,153.865944 370.863737,152.233381 371.029156,150.593475 C370.875995,148.906603 371.443935,147.233387 372.594997,145.980331 C373.746059,144.727276 375.374893,144.009063 377.085781,144.000181 C378.748558,143.987207 380.338824,144.673198 381.461298,145.887644 C382.583772,147.10209 383.133047,148.730946 382.972593,150.369341 C382.972593,154.590544 380.387679,156.999991 376.915969,156.999991 L376.897101,156.999991 Z M377.010309,155.132202 C379.255599,155.132202 380.519755,153.077635 380.519755,150.444052 C380.519755,147.81047 379.331071,145.830614 377.010309,145.830614 C374.689546,145.830614 373.481994,148.015927 373.481994,150.518764 C373.481994,153.021601 374.765018,155.132202 376.991441,155.132202 L377.010309,155.132202 Z" id="Shape" fill="#FFFFFF" fill-rule="nonzero"></path>
            <path d="M393.395437,144 L393.395437,151.458394 C393.395437,153.963504 394.441065,155.121168 396.019011,155.121168 C397.596958,155.121168 398.718631,153.963504 398.718631,151.458394 L398.718631,144 L401,144 L401,151.306569 C401,155.254015 398.965779,157 395.885932,157 C392.806084,157 391,155.348905 391,151.306569 L391,144 L393.395437,144 Z" id="Shape" fill="#FFFFFF" fill-rule="nonzero"></path>
            <path d="M409.511416,154.332404 C410.421545,154.855873 411.44579,155.133731 412.488584,155.140052 C413.913242,155.140052 414.716895,154.445099 414.716895,153.412061 C414.716895,152.379024 414.09589,151.890678 412.543379,151.308421 C410.497717,150.575903 409.200913,149.43017 409.200913,147.645832 C409.200913,145.861494 410.881279,144.002026 413.56621,144.002026 C414.579441,143.976723 415.585002,144.188674 416.506849,144.621849 L415.977169,146.5001 C415.213896,146.099644 414.368272,145.893519 413.511416,145.899059 C412.086758,145.899059 411.484018,146.669142 411.484018,147.420442 C411.484018,148.171742 412.196347,148.847913 413.840183,149.486518 C415.977169,150.331731 417,151.364768 417,153.243019 C417,155.121269 415.502283,156.99952 412.342466,156.99952 C411.183227,157.012998 410.037511,156.742594 409,156.210655 L409.511416,154.332404 Z" id="Shape" fill="#FFFFFF" fill-rule="nonzero"></path>
            <polygon id="Shape" fill="#FFFFFF" fill-rule="nonzero" points="433.410319 151.21365 428.41769 151.21365 428.41769 155.071217 434 155.071217 434 157 426 157 426 144 433.70516 144 433.70516 145.928783 428.41769 145.928783 428.41769 149.284866 433.410319 149.284866"></polygon>
            <polygon id="Shape" fill="#FFFFFF" fill-rule="nonzero" points="442 144 444.46 144 444.46 155.071217 450 155.071217 450 157 442 157"></polygon>
            <path d="M467,144.308135 C468.252912,144.111961 469.519676,144.017187 470.787905,144.024739 C472.639198,143.876279 474.48198,144.39958 475.977335,145.498401 C477.352258,146.655207 478.096898,148.393116 477.984925,150.183892 C478.112781,152.064818 477.422732,153.909617 476.090972,155.247245 C474.467429,156.487921 472.450783,157.104844 470.409115,156.985411 C469.271065,157.015926 468.132236,156.971747 467,156.853159 L467,144.308135 Z M469.329562,155.0961 C469.758254,155.128216 470.188757,155.128216 470.617449,155.0961 C471.952508,155.246285 473.282713,154.776234 474.225304,153.821204 C475.167895,152.866173 475.618341,151.532073 475.447028,150.202785 C475.571429,148.979404 475.130955,147.766037 474.250153,146.905776 C473.369352,146.045515 472.143965,145.631868 470.920482,145.781798 C470.386986,145.769865 469.853719,145.814195 469.329562,145.91405 L469.329562,155.0961 Z" id="Shape" fill="#FFFFFF" fill-rule="nonzero"></path>
            <path d="M488.338403,144 L488.338403,151.458394 C488.338403,153.963504 489.38403,155.121168 490.961977,155.121168 C492.539924,155.121168 493.661597,153.963504 493.661597,151.458394 L493.661597,144 L496,144 L496,151.306569 C496,155.254015 493.965779,157 490.885932,157 C487.806084,157 486,155.348905 486,151.306569 L486,144 L488.338403,144 Z" id="Shape" fill="#FFFFFF" fill-rule="nonzero"></path>
            <polygon id="Shape" fill="#FFFFFF" fill-rule="nonzero" points="515 144 517.46 144 517.46 155.071217 523 155.071217 523 157 515 157"></polygon>
            <path d="M534.897101,156.999991 C533.232268,157.002864 531.644052,156.307774 530.525775,155.086859 C529.407497,153.865944 528.863737,152.233381 529.029156,150.593475 C528.875995,148.906603 529.443935,147.233387 530.594997,145.980331 C531.746059,144.727276 533.374893,144.009063 535.085781,144.000181 C536.748558,143.987207 538.338824,144.673198 539.461298,145.887644 C540.583772,147.10209 541.133047,148.730946 540.972593,150.369341 C540.972593,154.590544 538.387679,156.999991 534.915969,156.999991 L534.897101,156.999991 Z M535.010309,155.132202 C537.255599,155.132202 538.519755,153.077635 538.519755,150.444052 C538.519755,147.81047 537.331071,145.830614 535.010309,145.830614 C532.689546,145.830614 531.481994,148.015927 531.481994,150.518764 C531.481994,153.021601 532.765018,155.132202 534.991441,155.132202 L535.010309,155.132202 Z" id="Shape" fill="#FFFFFF" fill-rule="nonzero"></path>
            <path d="M551.338403,144 L551.338403,151.458394 C551.338403,153.963504 552.38403,155.121168 553.961977,155.121168 C555.539924,155.121168 556.661597,153.963504 556.661597,151.458394 L556.661597,144 L559,144 L559,151.306569 C559,155.254015 556.965779,157 553.885932,157 C550.806084,157 549,155.348905 549,151.306569 L549,144 L551.338403,144 Z" id="Shape" fill="#FFFFFF" fill-rule="nonzero"></path>
            <path d="M570.050676,157 L566,144 L568.489865,144 L570.199324,149.921365 C570.682432,151.560831 571.109797,153.08457 571.425676,154.646884 L571.425676,154.646884 C571.760135,153.103858 572.224662,151.522255 572.70777,149.940653 L574.565878,144 L577,144 L572.670608,157 L570.050676,157 Z" id="Shape" fill="#FFFFFF" fill-rule="nonzero"></path>
            <path d="M585.037815,144.313783 C586.199443,144.113775 587.376288,144.017873 588.554622,144.027197 C589.944829,143.893002 591.337356,144.258312 592.487395,145.058907 C593.223755,145.712336 593.627082,146.667982 593.584034,147.657289 C593.574205,149.133869 592.61741,150.433281 591.220588,150.867055 L591.220588,150.867055 C592.193536,151.334399 592.863552,152.27073 592.997899,153.350802 C593.263732,154.566462 593.598314,155.765723 594,156.942683 L591.617647,156.942683 C591.237295,155.960327 590.952342,154.942939 590.766807,153.904869 C590.388655,152.223563 589.802521,151.688602 588.478992,151.650391 L587.306723,151.650391 L587.306723,157 L585,157 L585.037815,144.313783 Z M587.344538,150.045508 L588.72479,150.045508 C590.294118,150.045508 591.258403,149.204855 591.258403,147.92477 C591.258403,146.644685 590.294118,145.861349 588.781513,145.861349 C588.29983,145.84703 587.81803,145.885465 587.344538,145.975983 L587.344538,150.045508 Z" id="Shape" fill="#FFFFFF" fill-rule="nonzero"></path>
            <polygon id="Shape" fill="#FFFFFF" fill-rule="nonzero" points="609.410319 151.21365 604.41769 151.21365 604.41769 155.071217 610 155.071217 610 157 602 157 602 144 609.70516 144 609.70516 145.928783 604.41769 145.928783 604.41769 149.284866 609.410319 149.284866"></polygon>
            <polygon id="Shape" fill="#FFFFFF" fill-rule="nonzero" points="690.928169 26.0469043 690.8 26.0469043 684.025352 29.7992495 683 25.6716698 691.514085 21 696 21 696 61 690.909859 61"></polygon>
            <path d="M705,61.9432919 L705,58.5975158 L709.333333,54.4389239 C719.744838,44.6473304 724.442478,39.430188 724.519174,33.3624244 C724.519174,29.2605407 722.60177,25.4800026 716.427729,25.4800026 C713.233539,25.597412 710.178639,26.7994076 707.780236,28.8824869 L706.016224,25.1019488 C709.241248,22.4414532 713.315466,20.9887973 717.520649,21.0000651 C726.30236,21.0000651 730.00295,26.9544125 730.00295,32.719733 C730.00295,40.1673929 724.538348,46.1784483 715.948378,54.3633132 L712.688791,57.3310355 L712.688791,57.4633544 L731,57.4633544 L731,62 L705,61.9432919 Z" id="Shape" fill="#FFFFFF" fill-rule="nonzero"></path>
            <polygon id="Shape" fill="#FFFFFF" fill-rule="nonzero" points="751 43 751 47 736 47 736 43"></polygon>
            <polygon id="Shape" fill="#FFFFFF" fill-rule="nonzero" points="763.8 26.0469043 763.8 26.0469043 757.025352 29.7992495 756 25.6716698 764.514085 21 769 21 769 61 763.8 61"></polygon>
            <path d="M794.366667,61 L794.366667,50.1130924 L776,50.1130924 L776,46.5466917 L793.641667,21 L799.423077,21 L799.423077,45.8521821 L805,45.8521821 L805,50.1130924 L799.423077,50.1130924 L799.423077,61 L794.366667,61 Z M794.366667,45.8521821 L794.366667,32.4875645 C794.366667,30.3977788 794.428632,28.3017363 794.552564,26.1994369 L794.366667,26.1994369 C793.158333,28.5457532 792.173077,30.272642 791.076282,32.1121539 L781.409615,45.7207884 L781.409615,45.8521821 L794.366667,45.8521821 Z" id="Shape" fill="#FFFFFF" fill-rule="nonzero"></path>
            <path d="M683,160 L683,156.474812 L687.5,152.120169 C698.334034,141.846227 703.231092,136.379358 703.287815,130.007629 C703.287815,125.709539 701.207983,121.750772 694.87395,121.750772 C691.5498,121.875886 688.370824,123.141028 685.87395,125.332514 L683.983193,121.298342 C687.352201,118.499708 691.60442,116.977473 695.989496,117.000252 C705.121849,117.000252 708.978992,123.240023 708.978992,129.29128 C708.978992,137.095706 703.306723,143.410882 694.363445,151.912805 L691.092437,155.117521 L691.092437,155.24948 L710,155.24948 L710,160 L683,160 Z" id="Shape" fill="#FFFFFF" fill-rule="nonzero"></path>
            <path d="M746,138.544828 C746,153.015517 740.597103,161 731.108624,161 C722.727452,160.943103 717,153.205172 717,139.132759 C717,125.060345 723.20474,117 731.891376,117 C740.864384,117 746,124.908621 746,138.544828 Z M722.727452,139.189655 C722.727452,150.246552 726.144832,156.543103 731.43318,156.543103 C737.370639,156.543103 740.196182,149.677586 740.196182,138.810345 C740.196182,128.341379 737.485188,121.456897 731.490454,121.456897 C726.431205,121.456897 722.727452,127.601724 722.727452,139.189655 Z" id="Shape" fill="#FFFFFF" fill-rule="nonzero"></path>
            <polygon id="Shape" fill="#FFFFFF" fill-rule="nonzero" points="760.523364 122.271028 760.392523 122.271028 753.102804 126.214953 752 121.897196 761.158879 117 766 117 766 159 760.523364 159"></polygon>
            <path d="M777,149.445019 C777,144.075464 780.22859,140.280724 785.501318,138.060802 L785.501318,137.871065 C781.522987,136.350629 778.845219,132.615388 778.700264,128.384217 C778.700264,121.648555 784.431489,117 791.958498,117 C800.268775,117 804.414361,122.179819 804.414361,127.47348 C804.414361,131.078482 802.637681,134.930142 797.364954,137.43467 L797.364954,137.624407 C802.694993,139.711514 806,143.449332 806,148.62915 C806,156.028892 799.600132,161 791.423584,161 C782.33004,160.829237 777,155.573523 777,149.445019 Z M799.924901,149.084519 C799.924901,143.9047 796.295125,141.495041 790.487484,139.787408 C785.482213,141.229409 782.84585,144.511859 782.84585,148.572229 C782.767192,150.819812 783.659947,152.99354 785.298987,154.545257 C786.938027,156.096975 789.166914,156.878579 791.423584,156.692971 C796.658103,156.692971 799.924901,153.486417 799.924901,149.084519 Z M783.972991,127.796033 C783.972991,132.046141 787.201581,134.341958 792.149539,135.651143 C795.836627,134.398879 798.683136,131.856404 798.683136,127.928849 C798.785243,126.010464 798.043481,124.142595 796.650327,122.809925 C795.257173,121.477256 793.34996,120.811159 791.423584,120.984476 C789.514186,120.829843 787.627344,121.47991 786.224542,122.775684 C784.82174,124.071458 784.032337,125.893449 784.049407,127.796033 L783.972991,127.796033 Z" id="Shape" fill="#FFFFFF" fill-rule="nonzero"></path>
        </g>
    </g>
</svg>