<?xml version="1.0" encoding="utf-8"?>
<!-- Generator: Adobe Illustrator 16.0.0, SVG Export Plug-In . SVG Version: 6.00 Build 0)  -->
<!DOCTYPE svg PUBLIC "-//W3C//DTD SVG 1.1//EN" "http://www.w3.org/Graphics/SVG/1.1/DTD/svg11.dtd">
<svg version="1.1" xmlns="http://www.w3.org/2000/svg" xmlns:xlink="http://www.w3.org/1999/xlink" x="0px" y="0px" width="815px"
	 height="192px" viewBox="107.249 666.333 815 192" enable-background="new 107.249 666.333 815 192" xml:space="preserve">
<g id="Toulouse">
</g>
<g id="Lyon">
	<rect x="107.249" y="666.333" fill="#121037" width="815" height="192"/>
	<rect x="756.685" y="693.584" fill="#FFFFFF" width="1.99" height="132.493"/>
	<g>
		<path fill="#FFFFFF" d="M171.49,817.067c2.533,0.194,5.137,0.277,7.651-0.116c4.869-0.758,9.883-0.787,14.82-1.22
			c9.561-0.834,19.069,1.425,28.64,1.325c4.521-0.048,9.091-0.226,13.538-1.057c2.15-0.398,4.344-0.533,6.409-1.27
			c1.47-0.524,6.543-0.105,7.328-1.641c0.392-0.765,0.604-1.116-0.173-1.512c0.452-1.234-0.581-2.699,0.239-3.717
			c0.755-0.936-1.523-1.123-0.422-1.827c0.376-0.241-0.032-5.044-0.02-5.638c0.059-2.629-0.803-5.151-0.46-7.762
			c0.32-2.453-0.746-5.776,0-8.144c0.869-2.758,0.905-3.393,0.627-6.053c-0.258-2.453-0.241-5.539-0.418-7.933
			c-0.162-2.17,1.018-3.603,0.52-5.597c-0.319-1.276-0.779-2.562-0.796-3.887c-0.018-1.183,0.457-4.038,0.265-5.222
			c-0.345-2.146-0.201-6.074-0.333-6.104c0.456-1.672-0.052-2.084-0.539-3.619c-0.67-2.104,1-4.756,0.467-6.884
			c-0.531-2.122-0.222-4.118,0.629-8.489c0.217-1.109-0.723-4.354-0.918-5.376c-0.44-2.312,1.592-8.406,1.135-10.715
			c-0.396-1.996,0.654-8.92-0.597-10.518c-3.161-4.038-18.287,0.643-23.104-0.211c-2.357-0.418-4.611-0.205-6.992-0.243
			c-2.659-0.042-5.269-0.563-7.935-0.388c-5.518,0.364-10.984,0.436-16.496,0.857c-5.078,0.39-9.744-0.529-14.81,0.064
			c-5.318,0.619-16.081-1.789-21.12,0.057c-4.191,1.531-7.906-2.114-11.029,1.09c-1.502,1.545-0.487,17.832-0.702,19.933
			c-0.13,1.278-0.103,2.564-0.144,3.847c-0.036,1.131,0.218,3.072,0.28,4.033c0.205,3.274,0.469,2.158,0.278,5.428
			c-0.3,0.027,0.389,4.157,0.114,4.181c-0.146,1.091,0.588,6.413,0.483,7.485c-0.101,0.997,2.158-1.297,2.504-1.393
			c-0.385-0.216,2.029-1.609,1.668-1.81c0.872-0.139,0.576-1.865,1.464-1.813c1.54,0.099,2.882-3.604,4.381-3.962
			c1.975-0.474,1.761-3.109,3.292-3.528c1.964-0.534,0.037-1.091-0.115-2.836c-0.064-0.741,0.022-0.499,0.096-1.236
			c0.082-0.789-0.556-1.43-0.444-2.194c0.25-1.717-0.817-5.001,0.026-6.563c0.803-1.487-1.428-10.489-0.353-11.79
			c0.89-1.078,5.036-0.104,6.474-0.455c1.717-0.417,7.633-1.052,9.394-1.253c2.099-0.24,20.378-1.236,23.805,0.289
			c4.718,2.11,12.885-1.473,17.942-0.254c2.26,0.552,8.789,1.401,10.829,2.554c1.896,1.068,1.652,14.511,2.201,15.998
			c0.547,1.487,0.521,3.076,1.706,4.174c-0.356,0.441-0.422,1.752,0.332,2.184c-0.559,1.083-0.137,2.122,0.08,3.294
			c0.296,1.593,0.145,3.18,0.32,4.807c0.381,3.505,0.701,7.027,1.583,10.45c-0.006,0.006-0.142,0.109-0.164,0.123
			c0.688,6.563,2.087,13.142,2.644,19.733c0.263,3.119,0.166,6.197,0.771,9.283c0.653,3.343-0.192,6.878,0.397,10.277
			c-0.715,1.685-0.463,10.586-2.339,10.962c-6.769,1.351-13.788,1.679-20.695,1.624c-7.337-0.063-14.025,1.283-21.356,0.968
			c-0.351-0.015-0.198-2.293-0.209-2.751c-0.047-1.633-0.421-3.273-0.381-4.907c0.038-1.38,0.262-2.768,0.332-4.147
			c0.044-0.849-0.377-1.575-0.317-2.415c0.063-0.859,0.414-1.784,0.154-2.647c-0.305-1.017-0.081-2.637-0.663-3.513
			c-0.522-0.789-0.819-0.984-0.986-1.97c-0.124-0.728-1.313-0.796-1.919-0.867c-0.858-0.102-1.718-0.18-2.574-0.27
			c-0.398,0.522-1.122,0.373-1.651,0.228c-0.238-0.065-0.411-0.356-0.69-0.611c-0.103,0.06-0.384,0.222-0.74,0.426
			c-0.222-0.444-6.255,0.219-7.845,0.875c-0.396,0.164-0.799,0.312-1.158,0.447c1.305,3.508-0.217,7.267,0.493,10.896
			c0.718,3.682-0.083,7.072,0.202,10.813c-3.813,0-7.32,0.507-11.132,0.293c-0.021-0.002-0.702,0.081-0.766,0.042
			c-1.699,0.019-1.561,0.107-1.602-1.027c-0.084-2.329-0.263-4.94-0.086-7.378c0.189-2.629,0.695-4.514-0.051-6.4
			c-0.336-0.844-0.031-2.043-0.022-3.058c0.014-1.198-0.278-2.43-0.351-3.646c-0.067-1.146-0.356-1.93-0.417-3.044
			c-0.056-1.063,0.129-2.523-0.356-3.17c0.206-1.269,0.323-2.599-0.154-3.627c-0.338-0.734,1.038-3.428-0.512-3.146
			c-1.841,0.34-11.86,1.085-13.646,0.789c-0.563-0.092-1.768-1.734-0.988-2.553c3.201-3.36,8.854-8.087,12.136-10.888
			c1.573-1.343,4.045-3.701,5.623-5.075c1.93-1.678,3.679-3.645,5.388-5.543c1.503-1.675,3.476-3.816,4.92-5.547
			c0.69-0.826,3.099-2.316,4.357-2.015c3.953,0.941,7.937,3.16,11.521,5.034c3.781,1.978,7.657,4.81,11.332,6.979
			c3.753,2.212,18.541,11.104,22.243,13.427c3.542,2.224,2.375,4.452,0.824,4.615c-1.565,0.163-2.884,0.107-3.396,0.148
			c-1.809,0.147-4.669,0.223-6.451,0.551c-3.753,0.693-7.87-0.434-11.553,0.558c-0.25,0.066,0.181,2.175,0.146,2.612
			c0,2.143,0.54,5.076,0.741,3.543c-0.412,3.13,0.173,14.74,0.364,16.109c0.304,2.189,5.881,0.299,9.219,0.686
			c1.763,0.203,2.949-1.732,2.715-3.269c-0.348-2.31,0.071-5.277-1.063-7.375c-0.36-0.673,0.161-1.548-0.318-2.245
			c-0.628-0.917-0.628-2.01-0.415-3.059c0.06-0.287,0.354-0.666,0.618-0.745c1.55-0.461,3.098-0.53,4.688-0.7
			c0.698-0.074,1.385-0.229,2.049-0.468c0.961-0.343,1.849-0.046,2.805-0.309c3.289-0.899,5.773-3.147,8.908-4.065
			c0.363-0.106,1.358-1.342,1.349-1.694c-0.144-3.799-4.272-6.134-6.583-8.87c-3.09-3.657-6.715-6.67-10.727-9.299
			c-0.554-0.365-3.504-2.595-3.384-3.088c0.088-0.014,1.107,0.385,2.451-0.119c3.384-0.271,5.646,0.499,5.54-1.678
			c-0.144-2.815,2.161-11.367-2.419-10.64c-0.707,0.113-1.345-0.378-2.057-0.426c-0.782-0.055-1.558,0.066-2.337,0.084
			c-2.085,0.05-3.981,0.986-5.972,1.479c-0.935,0.229-0.872,0.933-0.751,1.666c0.27,1.63,0.34,5.592,0.153,7.235
			c-1.637-0.881-3.271-1.76-4.906-2.643c0.028-0.08-0.23-2.275-0.535-3.345c-0.057-0.193,0.142-1.464,0.139-1.666
			c-0.023-1.089,0.308-1.271-0.591-1.694c-2.564-1.209-6.535-0.783-9.291-0.393c-2.398,0.338-1.025,1.481-3.333,0.581
			c-2.336-0.914-5.02-1.63-7.209-2.834c-2.615-1.441-4.13-2.141-7.162-1.217c-5.44,1.664-9.192,6.956-13.199,10.656
			c-1.836,1.695-3.57,3.549-5.343,5.32c-1.999,1.991-4.103,4.055-6.007,6.119c-3.576,3.886-5.726,5.917-10.071,9.902
			c-1.654,1.516-6.047,5.752-7.021,7.763c-0.346,0.714-1.531,2.128-1.191,3.231c0.269,0.867,0.246,1.502,0.728,1.697
			c1.083,0.441,5.651,0.759,6.831,0.742c1.417-0.022,5.274-0.759,6.702-0.89c0.329-0.03,0.852,0.381,1.017,0.718
			c0.552,1.126-0.549,5.263-0.77,6.481c-0.354,1.951-0.007,3.92,0.204,5.868c0.209,1.938,0.156,3.543-0.012,5.491
			c-0.084,0.952-0.647,17.182,0.192,17.876C148.861,817.507,169.271,816.891,171.49,817.067z M188.813,731.334
			c0.205,0.17,0.396,0.44,0.613,0.489c2.166,0.467,4.165-0.373,6.313-0.287c1.585,0.064,4.004,0.878,5.477-0.092
			c0.38-0.249,1.425-1.8,1.143-2.424c-0.629-1.382-0.128-2.727-0.453-4.035c-0.268-1.073,0.449-4.535-0.343-5.16
			c-0.964-0.767-2.928-0.797-4.165-0.769c-2.872,0.065-5.599-0.156-8.267,1.21c-1.174,0.603,0.383,2.741,0.532,3.663
			c0.164,1.049-0.003,2.993-0.186,3.426C190.185,727.921,189.688,729.933,188.813,731.334z M207.688,731.362
			c0.203,0.162,0.394,0.42,0.614,0.467c2.149,0.449,4.134-0.356,6.27-0.271c1.571,0.061,3.973,0.838,5.437-0.09
			c0.377-0.236,1.412-1.73,1.134-2.325c-0.626-1.325-0.128-2.617-0.45-3.875c-0.264-1.026,0.642-3.332-0.145-3.931
			c-0.958-0.734,1.611-1.747-3.054-1.723c-2.857,0.062-6.729-0.692-9.375,0.619c-1.168,0.58,0.27,3.137,0.413,4.021
			c0.166,1.008-0.107,1.53,0.559,2.311c-0.312,0.236-0.56,0.561-0.741,0.977C209.054,728.084,208.558,730.016,207.688,731.362z
			 M169.528,732.624c1.308-0.243,4.221,0.001,5.639-0.063c1.852-0.084,3.319,0.668,5.195,0.056c1.477-0.482,1.524-0.14,2.707-1.56
			c0.471-0.565,0.762-2.264,0.354-2.562c-0.716-0.522,0.271-1.589-0.354-1.933c-0.165-0.979-0.242-2.012-0.512-2.938
			c-1.252-4.286,1.469-3.896-6.833-3.274c-1.405,0.105-4.98-0.275-6.184,0.354c-0.898,0.47,0.197,2.711-0.42,3.812
			c-1.607,2.857-0.525,5.299,0.305,5.434C169.643,729.987,168.416,732.825,169.528,732.624z"/>
	</g>
	<g>
		<g>
			<path fill="#FFFFFF" stroke="#121037" stroke-width="0.25" stroke-miterlimit="10" d="M275.156,759.778h1.826v14.045h6.132v1.546
				h-7.958V759.778L275.156,759.778z"/>
			<path fill="#FFFFFF" stroke="#121037" stroke-width="0.25" stroke-miterlimit="10" d="M300.526,769.469l-5.22-9.691h2.037
				l4.167,7.96h0.023l4.167-7.96h1.756l-5.103,9.691v5.897h-1.826V769.469L300.526,769.469z"/>
			<path fill="#FFFFFF" stroke="#121037" stroke-width="0.25" stroke-miterlimit="10" d="M321.118,767.597
				c0-4.283,2.833-8.102,7.631-8.102s7.677,3.771,7.677,8.055s-2.832,8.097-7.63,8.097
				C323.997,775.647,321.118,771.878,321.118,767.597z M334.506,767.597c0-3.512-1.99-6.578-5.711-6.578
				c-3.722,0-5.759,3.02-5.759,6.531s1.99,6.576,5.711,6.576C332.471,774.126,334.506,771.108,334.506,767.597z"/>
			<path fill="#FFFFFF" stroke="#121037" stroke-width="0.25" stroke-miterlimit="10" d="M352.802,759.778h1.803l7.35,10.558
				c0.725,1.054,1.17,1.825,1.451,2.295h0.047c-0.023-0.306-0.094-0.961-0.094-2.106v-10.746h1.686v15.591h-1.686l-7.701-11.118
				c-0.468-0.656-0.936-1.522-1.217-2.014h-0.047c0.023,0.305,0.093,0.96,0.093,1.71v11.422h-1.685V759.778z"/>
			<path fill="#FFFFFF" stroke="#121037" stroke-width="0.25" stroke-miterlimit="10" d="M399.802,768.674
				c0-1.616,1.311-2.926,2.926-2.926c1.615,0,2.926,1.31,2.926,2.926c0,1.615-1.312,2.901-2.926,2.901
				C401.115,771.575,399.802,770.289,399.802,768.674z"/>
			<path fill="#FFFFFF" stroke="#121037" stroke-width="0.25" stroke-miterlimit="10" d="M440.461,759.778h4.236
				c3.254,0,5.173,1.523,5.173,4.144c0,2.599-1.896,3.934-4.377,4.074v0.047c0.304,0.211,0.725,0.679,1.638,1.94l3.862,5.384h-2.153
				l-3.136-4.424c-1.826-2.573-2.107-2.762-3.16-2.762h-0.258v7.185h-1.825V759.778L440.461,759.778z M444.627,766.685
				c2.317,0,3.371-0.983,3.371-2.717c0-1.731-1.124-2.645-3.511-2.645h-2.201v5.361H444.627z"/>
			<path fill="#FFFFFF" stroke="#121037" stroke-width="0.25" stroke-miterlimit="10" d="M466.578,759.778h1.828v6.603h8.823v-6.603
				h1.825v15.591h-1.825v-7.443h-8.823v7.443h-1.828V759.778z"/>
			<path fill="#FFFFFF" stroke="#121037" stroke-width="0.25" stroke-miterlimit="10" d="M495.49,767.597
				c0-4.283,2.832-8.102,7.63-8.102c4.799,0,7.677,3.771,7.677,8.055s-2.831,8.097-7.631,8.097S495.49,771.878,495.49,767.597z
				 M508.877,767.597c0-3.512-1.988-6.578-5.711-6.578c-3.721,0-5.756,3.02-5.756,6.531s1.988,6.576,5.71,6.576
				S508.877,771.108,508.877,767.597z M502.534,754.91h1.267l2.83,3.582h-1.616l-1.895-1.989l-1.85,1.989h-1.615L502.534,754.91z"/>
			<path fill="#FFFFFF" stroke="#121037" stroke-width="0.25" stroke-miterlimit="10" d="M527.172,759.778h1.802l7.35,10.558
				c0.726,1.054,1.171,1.825,1.452,2.295h0.047c-0.025-0.306-0.094-0.961-0.094-2.106v-10.746h1.684v15.591h-1.684l-7.701-11.118
				c-0.471-0.656-0.939-1.522-1.218-2.014h-0.046c0.023,0.305,0.095,0.96,0.095,1.71v11.422h-1.687V759.778z"/>
			<path fill="#FFFFFF" stroke="#121037" stroke-width="0.25" stroke-miterlimit="10" d="M556.75,759.778h8.003v1.546h-6.179v5.007
				h5.431v1.545h-5.431v5.945h6.343v1.546h-8.167V759.778L556.75,759.778z"/>
			<path fill="#FFFFFF" stroke="#121037" stroke-width="0.25" stroke-miterlimit="10" d="M579.963,766.402h4.705v1.498h-4.705
				V766.402z"/>
			<path fill="#FFFFFF" stroke="#121037" stroke-width="0.25" stroke-miterlimit="10" d="M604.51,759.778h1.779l5.994,15.591h-1.991
				l-1.429-3.862h-7.093l-1.428,3.862h-1.801L604.51,759.778z M608.278,769.961l-1.968-5.337c-0.491-1.311-0.702-1.967-0.958-2.693
				h-0.048c-0.258,0.773-0.514,1.5-0.958,2.693l-1.989,5.337H608.278z"/>
			<path fill="#FFFFFF" stroke="#121037" stroke-width="0.25" stroke-miterlimit="10" d="M627.82,759.778h1.826v14.045h6.133v1.546
				h-7.959V759.778z"/>
			<path fill="#FFFFFF" stroke="#121037" stroke-width="0.25" stroke-miterlimit="10" d="M651.515,759.778h3.91
				c3.138,0,5.479,1.5,5.479,4.495c0,3.065-2.109,4.798-5.735,4.798h-1.825v6.296h-1.828V759.778L651.515,759.778z M655.167,767.527
				c2.738,0,3.861-1.125,3.861-3.183c0-1.781-1.03-3.021-3.791-3.021h-1.897v6.203H655.167z"/>
			<path fill="#FFFFFF" stroke="#121037" stroke-width="0.25" stroke-miterlimit="10" d="M676.732,759.778h8.003v1.546h-6.178v5.007
				h5.43v1.545h-5.43v5.945h6.343v1.546h-8.168V759.778z"/>
			<path fill="#FFFFFF" stroke="#121037" stroke-width="0.25" stroke-miterlimit="10" d="M700.277,774.058l0.936-1.312
				c0.354,0.329,1.477,1.38,3.56,1.38c1.918,0,3.183-1.263,3.183-2.645c0-1.896-1.78-2.691-3.581-3.58
				c-1.896-0.938-3.629-1.941-3.629-4.425c0-2.55,2.154-3.979,4.542-3.979c2.314,0,3.58,0.844,4.097,1.242l-0.892,1.358
				c-0.537-0.422-1.589-1.076-3.229-1.076c-1.543,0-2.713,0.937-2.713,2.363c0,1.544,1.264,2.271,2.809,2.997
				c2.059,0.983,4.447,2.035,4.447,5.079c0,2.457-2.083,4.188-5.104,4.188C702.313,775.647,700.838,774.594,700.277,774.058z"/>
		</g>
	</g>
	<g>
		<path fill="#FFFFFF" d="M272.511,739.146l1.857-2.602c0.698,0.651,2.926,2.742,7.061,2.742c3.811,0,6.318-2.509,6.318-5.249
			c0-3.765-3.53-5.342-7.108-7.108c-3.762-1.857-7.2-3.856-7.2-8.781c0-5.062,4.274-7.896,9.011-7.896
			c4.599,0,7.108,1.674,8.129,2.462l-1.764,2.695c-1.07-0.838-3.159-2.139-6.411-2.139c-3.066,0-5.388,1.858-5.388,4.692
			c0,3.066,2.508,4.507,5.574,5.947c4.088,1.951,8.826,4.041,8.826,10.081c0,4.877-4.134,8.315-10.128,8.315
			C276.553,742.305,273.626,740.214,272.511,739.146z"/>
		<path fill="#FFFFFF" d="M303.648,710.809h3.531l11.893,30.938h-3.948l-2.834-7.665h-14.077l-2.834,7.665H291.8L303.648,710.809z
			 M311.126,731.018l-3.901-10.593c-0.975-2.601-1.393-3.902-1.904-5.343h-0.094c-0.511,1.533-1.023,2.973-1.905,5.343
			l-3.949,10.593H311.126z"/>
		<path fill="#FFFFFF" d="M321.569,710.809h3.624v27.873h12.169v3.065h-15.794v-30.938H321.569z"/>
		<path fill="#FFFFFF" d="M336.929,726.323c0-8.499,5.623-16.071,15.145-16.071c9.523,0,15.238,7.479,15.238,15.98
			s-5.621,16.074-15.144,16.074S336.929,734.825,336.929,726.323z M363.5,726.323c0-6.967-3.948-13.053-11.335-13.053
			s-11.427,5.994-11.427,12.962c0,6.969,3.948,13.054,11.335,13.054C359.46,739.286,363.5,733.293,363.5,726.323z"/>
		<path fill="#FFFFFF" d="M371.477,710.809h3.578l14.586,20.95c1.441,2.092,2.323,3.624,2.881,4.552h0.093
			c-0.047-0.604-0.186-1.904-0.186-4.181v-21.321h3.346v30.938h-3.346l-15.283-22.066c-0.928-1.302-1.856-3.021-2.415-3.994h-0.094
			c0.047,0.603,0.186,1.904,0.186,3.391v22.669h-3.346V710.809z"/>
		<path fill="#FFFFFF" d="M410.412,710.809h7.248c12.171,0,17.514,6.179,17.514,15.098s-5.389,15.84-17.745,15.84h-7.017V710.809z
			 M417.751,738.773c8.92,0,13.612-4.412,13.612-12.774c0-8.409-4.414-12.219-13.842-12.219h-3.484v24.992L417.751,738.773
			L417.751,738.773z"/>
		<path fill="#FFFFFF" d="M439.385,710.809h15.889v3.066h-12.265v9.94h10.778v3.067h-10.778v11.801h12.589v3.064h-16.214
			L439.385,710.809L439.385,710.809z"/>
		<path fill="#FFFFFF" d="M468.562,710.809h3.623v27.873h12.172v3.065h-15.795V710.809L468.562,710.809z"/>
		<path fill="#FFFFFF" d="M482.966,716.569c0-1.765-1.813-2.091-1.813-4.041c0-1.3,1.068-2.275,2.508-2.275
			c1.578,0,3.019,1.208,3.019,3.298c0,3.067-2.044,6.271-2.926,7.341h-2.508C481.897,720.005,482.966,718.286,482.966,716.569z"/>
		<path fill="#FFFFFF" d="M491.393,710.809h3.623v30.938h-3.623V710.809z"/>
		<path fill="#FFFFFF" d="M503.585,710.809h3.393l7.665,21.043c0.928,2.603,1.394,3.95,1.95,5.714h0.093
			c0.512-1.672,1.021-3.157,1.95-5.714l7.666-21.043h3.438l4.182,30.938h-3.672l-2.647-20.254c-0.279-2.229-0.42-3.391-0.511-4.32
			h-0.094c-0.324,1.068-0.696,2.323-1.394,4.272l-7.34,20.302h-3.483l-7.526-20.302c-0.742-1.997-1.113-3.205-1.485-4.272h-0.094
			c-0.093,1.114-0.23,2.323-0.465,4.414l-2.463,20.16h-3.393L503.585,710.809z"/>
		<path fill="#FFFFFF" d="M540.647,710.809h3.393l7.664,21.043c0.93,2.603,1.394,3.95,1.95,5.714h0.094
			c0.511-1.672,1.021-3.157,1.951-5.714l7.666-21.043h3.437l4.183,30.938h-3.672l-2.647-20.254c-0.278-2.229-0.419-3.391-0.512-4.32
			h-0.093c-0.324,1.068-0.695,2.323-1.395,4.272l-7.34,20.302h-3.482l-7.525-20.302c-0.743-1.997-1.115-3.205-1.487-4.272h-0.093
			c-0.094,1.114-0.23,2.323-0.464,4.414l-2.462,20.16h-3.392L540.647,710.809z"/>
		<path fill="#FFFFFF" d="M573.051,726.323c0-8.499,5.62-16.071,15.144-16.071s15.237,7.479,15.237,15.98
			s-5.621,16.074-15.144,16.074C578.764,742.305,573.051,734.825,573.051,726.323z M599.624,726.323
			c0-6.967-3.948-13.053-11.336-13.053c-7.387,0-11.429,5.994-11.429,12.962c0,6.969,3.949,13.054,11.336,13.054
			S599.624,733.293,599.624,726.323z"/>
		<path fill="#FFFFFF" d="M607.638,710.809h8.177c5.759,0,10.126,2.137,10.126,7.711c0,3.624-2.137,5.947-5.527,6.828v0.095
			c3.807,0.65,6.874,3.347,6.874,7.617c0,6.319-4.694,8.688-11.613,8.688h-8.036V710.809L607.638,710.809z M615.442,724.094
			c4.738,0,6.784-1.72,6.784-5.342c0-3.438-2.324-4.924-6.689-4.924h-4.321v10.266H615.442z M615.582,738.729
			c5.481,0,7.944-1.674,7.944-5.576c0-3.715-1.998-6.084-7.665-6.084h-4.646v11.661L615.582,738.729L615.582,738.729z"/>
		<path fill="#FFFFFF" d="M631.826,710.809h3.624v30.938h-3.624V710.809z"/>
		<path fill="#FFFFFF" d="M641.612,710.809h3.624v27.873h12.172v3.065h-15.796V710.809L641.612,710.809z"/>
		<path fill="#FFFFFF" d="M660.424,710.809h3.623v30.938h-3.623V710.809z"/>
		<path fill="#FFFFFF" d="M670.209,710.809h15.888v3.066h-12.265v9.94h10.779v3.067h-10.779v11.801h12.591v3.064h-16.214V710.809
			L670.209,710.809z"/>
		<path fill="#FFFFFF" d="M690.034,710.809h8.408c6.458,0,10.267,3.02,10.267,8.222c0,5.157-3.762,7.806-8.686,8.083v0.094
			c0.604,0.421,1.439,1.348,3.252,3.856l7.663,10.685h-4.272l-6.225-8.78c-3.624-5.108-4.183-5.481-6.271-5.481h-0.513v14.262
			h-3.621v-30.939H690.034z M698.305,724.513c4.598,0,6.688-1.951,6.688-5.389s-2.229-5.249-6.967-5.249h-4.368v10.638H698.305z"/>
	</g>
	<g>
		<path fill="#FFFFFF" d="M274.768,792.728h1.693v11.69h5.602v1.422h-7.295V792.728z"/>
		<path fill="#FFFFFF" d="M294.233,805.84v-5.564l-4.144-7.548h1.926l1.848,3.617c0.506,0.992,0.895,1.79,1.303,2.704h0.039
			c0.37-0.856,0.816-1.713,1.323-2.704l1.887-3.617h1.925l-4.396,7.527v5.585H294.233z"/>
		<path fill="#FFFFFF" d="M321.302,799.147c0,4.514-2.742,6.906-6.088,6.906c-3.463,0-5.895-2.684-5.895-6.653
			c0-4.163,2.587-6.886,6.089-6.886C318.988,792.514,321.302,795.255,321.302,799.147z M311.129,799.362
			c0,2.801,1.517,5.312,4.183,5.312c2.685,0,4.202-2.472,4.202-5.448c0-2.606-1.363-5.329-4.184-5.329
			C312.529,793.896,311.129,796.484,311.129,799.362z"/>
		<path fill="#FFFFFF" d="M331.763,805.84v-13.112h1.849l4.202,6.634c0.973,1.537,1.73,2.918,2.353,4.26l0.04-0.021
			c-0.156-1.75-0.195-3.348-0.195-5.388v-5.487h1.595v13.112h-1.711l-4.163-6.654c-0.914-1.46-1.789-2.958-2.451-4.377l-0.06,0.021
			c0.099,1.652,0.136,3.228,0.136,5.404v5.605h-1.594V805.84z"/>
		<path fill="#FFFFFF" d="M367.428,790.529v15.312h-1.976v-15.312H367.428z"/>
		<path fill="#FFFFFF" d="M396.301,805.41c-0.622,0.31-1.868,0.623-3.462,0.623c-3.696,0-6.478-2.336-6.478-6.634
			c0-4.106,2.782-6.887,6.847-6.887c1.634,0,2.666,0.35,3.113,0.583l-0.409,1.382c-0.644-0.312-1.558-0.546-2.645-0.546
			c-3.074,0-5.117,1.966-5.117,5.407c0,3.212,1.848,5.272,5.039,5.272c1.031,0,2.08-0.214,2.762-0.546L396.301,805.41z"/>
		<path fill="#FFFFFF" d="M408.375,792.728v13.112h-1.693v-13.112H408.375z"/>
		<path fill="#FFFFFF" d="M421.28,794.166h-3.989v-1.44h9.708v1.44h-4.008v11.672h-1.711V794.166z"/>
		<path fill="#FFFFFF" d="M443.507,799.691h-5.096v4.727h5.68v1.421h-7.373v-13.112h7.082v1.422h-5.388v4.143h5.096V799.691
			L443.507,799.691z"/>
		<path fill="#FFFFFF" d="M464.494,792.728v13.112H462.8v-13.112H464.494z"/>
		<path fill="#FFFFFF" d="M475.707,805.84v-13.112h1.85l4.202,6.634c0.973,1.537,1.73,2.918,2.353,4.26l0.039-0.021
			c-0.156-1.75-0.195-3.348-0.195-5.388v-5.487h1.596v13.112h-1.713l-4.161-6.654c-0.914-1.46-1.79-2.958-2.452-4.377l-0.059,0.021
			c0.099,1.652,0.136,3.228,0.136,5.404v5.605h-1.595V805.84z"/>
		<path fill="#FFFFFF" d="M498.46,794.166h-3.988v-1.44h9.708v1.44h-4.006v11.672h-1.714V794.166L498.46,794.166z"/>
		<path fill="#FFFFFF" d="M520.687,799.691h-5.097v4.727h5.679v1.421h-7.372v-13.112h7.081v1.422h-5.388v4.143h5.097V799.691z"/>
		<path fill="#FFFFFF" d="M531.727,792.903c0.856-0.175,2.081-0.272,3.248-0.272c1.809,0,2.976,0.33,3.795,1.07
			c0.661,0.584,1.029,1.477,1.029,2.489c0,1.732-1.088,2.881-2.471,3.348v0.058c1.013,0.352,1.615,1.285,1.926,2.646
			c0.429,1.827,0.741,3.092,1.011,3.599h-1.75c-0.215-0.37-0.506-1.497-0.876-3.131c-0.389-1.809-1.09-2.491-2.626-2.551h-1.597
			v5.682h-1.691v-12.938H531.727z M533.418,798.874h1.732c1.809,0,2.956-0.992,2.956-2.49c0-1.693-1.226-2.432-3.014-2.451
			c-0.818,0-1.4,0.08-1.675,0.158V798.874z"/>
		<path fill="#FFFFFF" d="M550.453,805.84v-13.112h1.848l4.2,6.634c0.974,1.537,1.731,2.918,2.356,4.26l0.037-0.021
			c-0.156-1.75-0.193-3.348-0.193-5.388v-5.487h1.594v13.112h-1.714l-4.163-6.654c-0.915-1.46-1.789-2.958-2.45-4.377l-0.058,0.021
			c0.097,1.652,0.137,3.228,0.137,5.404v5.605h-1.594V805.84z"/>
		<path fill="#FFFFFF" d="M573.634,801.715l-1.362,4.125h-1.752l4.455-13.112h2.044l4.474,13.112h-1.81l-1.398-4.125H573.634z
			 M577.933,800.394l-1.284-3.775c-0.291-0.857-0.486-1.635-0.68-2.393h-0.04c-0.195,0.778-0.408,1.577-0.661,2.373l-1.285,3.796
			L577.933,800.394L577.933,800.394z"/>
		<path fill="#FFFFFF" d="M593.371,794.166h-3.988v-1.44h9.707v1.44h-4.005v11.672h-1.714V794.166L593.371,794.166z"/>
		<path fill="#FFFFFF" d="M610.499,792.728v13.112h-1.692v-13.112H610.499z"/>
		<path fill="#FFFFFF" d="M632.918,799.147c0,4.514-2.742,6.906-6.087,6.906c-3.464,0-5.895-2.684-5.895-6.653
			c0-4.163,2.586-6.886,6.088-6.886C630.603,792.514,632.918,795.255,632.918,799.147z M622.744,799.362
			c0,2.801,1.516,5.312,4.183,5.312c2.687,0,4.201-2.472,4.201-5.448c0-2.606-1.361-5.329-4.183-5.329
			C624.146,793.896,622.744,796.484,622.744,799.362z"/>
		<path fill="#FFFFFF" d="M643.379,805.84v-13.112h1.849l4.201,6.634c0.973,1.537,1.731,2.918,2.354,4.26l0.038-0.021
			c-0.157-1.75-0.193-3.348-0.193-5.388v-5.487h1.595v13.112h-1.714l-4.163-6.654c-0.915-1.46-1.789-2.958-2.45-4.377l-0.059,0.021
			c0.097,1.652,0.138,3.228,0.138,5.404v5.605h-1.596V805.84z"/>
		<path fill="#FFFFFF" d="M666.562,801.715l-1.363,4.125h-1.75l4.454-13.112h2.043l4.474,13.112h-1.809l-1.398-4.125H666.562z
			 M670.86,800.394l-1.285-3.775c-0.291-0.857-0.486-1.635-0.681-2.393h-0.038c-0.195,0.778-0.41,1.577-0.663,2.373l-1.283,3.796
			L670.86,800.394L670.86,800.394z"/>
		<path fill="#FFFFFF" d="M684.607,792.728h1.692v11.69h5.601v1.422h-7.293V792.728z"/>
		<path fill="#FFFFFF" d="M708.836,799.691h-5.098v4.727h5.682v1.421h-7.374v-13.112h7.081v1.422h-5.389v4.143h5.098V799.691
			L708.836,799.691z"/>
	</g>
	<g>
		<g>
			<path fill="#FFFFFF" d="M799.559,772.657l-6.813-18.377c-0.714-1.935-1.346-3.868-1.346-3.868h-0.083
				c0,0-0.212,2.103-0.423,3.996l-2.229,18.25h-3.069l3.825-28.005h3.069l6.938,19.05c0.926,2.481,1.766,5.172,1.766,5.172h0.087
				c0,0,0.84-2.692,1.765-5.172l6.938-19.05h3.112l3.784,28.005h-3.321l-2.396-18.336c-0.251-1.892-0.462-3.91-0.462-3.91h-0.086
				c0,0-0.589,2.019-1.261,3.868l-6.646,18.377H799.559z"/>
			<path fill="#FFFFFF" d="M823.361,772.657h-3.237l10.724-28.005h3.195l10.766,28.005h-3.574l-2.567-6.937c0,0-12.699,0-12.741,0
				L823.361,772.657z M834.085,753.355c-0.881-2.354-1.723-4.836-1.723-4.836h-0.084c0,0-0.841,2.523-1.725,4.836l-3.574,9.589
				h10.638C837.66,762.944,834.085,753.355,834.085,753.355z"/>
			<path fill="#FFFFFF" d="M864.786,772.657l-5.634-7.947c-3.281-4.628-3.785-4.963-5.678-4.963h-0.463v12.91h-3.28v-28.005h7.611
				c5.844,0,9.293,2.731,9.293,7.442c0,4.667-3.406,7.063-7.863,7.315v0.084c0.546,0.378,1.303,1.221,2.942,3.492l6.938,9.671
				H864.786z M856.965,747.428h-3.951v9.629h4.204c4.161,0,6.055-1.767,6.055-4.878
				C863.272,749.069,861.255,747.428,856.965,747.428z"/>
			<path fill="#FFFFFF" d="M879.549,773.161c-4.286,0-6.938-1.893-7.946-2.857l1.683-2.357c0.63,0.589,2.647,2.482,6.392,2.482
				c3.449,0,5.718-2.271,5.718-4.753c0-3.406-3.195-4.836-6.432-6.435c-3.408-1.681-6.52-3.49-6.52-7.948
				c0-4.584,3.867-7.148,8.158-7.148c4.162,0,6.435,1.514,7.36,2.229l-1.598,2.438c-0.968-0.757-2.86-1.935-5.804-1.935
				c-2.777,0-4.878,1.682-4.878,4.247c0,2.775,2.272,4.079,5.046,5.382c3.699,1.767,7.989,3.658,7.989,9.125
				C888.718,770.049,884.976,773.161,879.549,773.161z"/>
		</g>
	</g>
	<g>
		<path fill="#FFFFFF" d="M791.055,709.373h-0.097l-5.406,2.918l-0.813-3.205l6.794-3.636h3.587v31.093h-4.064V709.373z"/>
		<path fill="#FFFFFF" d="M826.643,705.45v2.774l-13.537,28.318h-4.354l13.49-27.504v-0.097H807.03v-3.492H826.643z"/>
		<path fill="#FFFFFF" d="M853.621,709.373h-0.097l-5.405,2.918l-0.813-3.205l6.792-3.636h3.589v31.093h-4.065V709.373z"/>
		<path fill="#FFFFFF" d="M871.462,733.578c0.909,0.096,1.964,0,3.396-0.143c2.439-0.336,4.737-1.339,6.507-3.015
			c2.057-1.862,3.541-4.591,4.116-8.273h-0.146c-1.722,2.104-4.209,3.348-7.316,3.348c-5.6,0-9.185-4.21-9.185-9.521
			c0-5.886,4.258-11.049,10.618-11.049c6.364,0,10.286,5.166,10.286,13.105c0,6.839-2.297,11.624-5.359,14.591
			c-2.392,2.344-5.69,3.78-9.04,4.161c-1.529,0.238-2.87,0.288-3.875,0.238v-3.443H871.462z M872.993,715.687
			c0,3.874,2.344,6.601,5.979,6.601c2.824,0,5.023-1.388,6.124-3.253c0.238-0.381,0.383-0.859,0.383-1.53
			c0-5.31-1.963-9.374-6.363-9.374C875.528,708.13,872.993,711.286,872.993,715.687z"/>
	</g>
	<g>
		<path fill="#FFFFFF" d="M785.371,814.464v-2.827l3.609-3.504c8.684-8.267,12.607-12.659,12.66-17.785
			c0-3.454-1.675-6.645-6.749-6.645c-3.086,0-5.648,1.571-7.219,2.878l-1.464-3.242c2.355-1.989,5.701-3.455,9.625-3.455
			c7.323,0,10.411,5.024,10.411,9.889c0,6.276-4.552,11.352-11.718,18.257l-2.721,2.509v0.105h15.275v3.819L785.371,814.464
			L785.371,814.464z"/>
		<path fill="#FFFFFF" d="M834.811,797.095c0,11.562-4.29,17.944-11.824,17.944c-6.644,0-11.143-6.225-11.246-17.473
			c0-11.405,4.916-17.683,11.821-17.683C830.728,779.884,834.811,786.268,834.811,797.095z M816.343,797.617
			c0,8.843,2.722,13.863,6.906,13.863c4.708,0,6.958-5.492,6.958-14.175c0-8.371-2.146-13.865-6.907-13.865
			C819.272,783.441,816.343,788.359,816.343,797.617z"/>
		<path fill="#FFFFFF" d="M849.04,784.75h-0.104l-5.911,3.191l-0.89-3.505l7.43-3.976h3.923v34.003h-4.445V784.75H849.04z"/>
		<path fill="#FFFFFF" d="M887.966,780.461v3.034l-14.804,30.969h-4.76l14.75-30.08v-0.103h-16.635v-3.819L887.966,780.461
			L887.966,780.461z"/>
	</g>
	<path fill="#FFFFFF" d="M833.7,723.352c0-1.613,1.313-2.926,2.926-2.926c1.615,0,2.926,1.313,2.926,2.926
		c0,1.616-1.311,2.903-2.926,2.903C835.013,726.255,833.7,724.968,833.7,723.352z"/>
</g>
<g id="Paris">
</g>
<g id="Salons">
</g>
</svg>
