<?xml version="1.0" encoding="utf-8"?>
<!-- Generator: Adobe Illustrator 16.0.0, SVG Export Plug-In . SVG Version: 6.00 Build 0)  -->
<!DOCTYPE svg PUBLIC "-//W3C//DTD SVG 1.1//EN" "http://www.w3.org/Graphics/SVG/1.1/DTD/svg11.dtd">
<svg version="1.1" xmlns="http://www.w3.org/2000/svg" xmlns:xlink="http://www.w3.org/1999/xlink" x="0px" y="0px" width="815px"
	 height="192px" viewBox="107.249 -55.392 815 192" enable-background="new 107.249 -55.392 815 192" xml:space="preserve">
<g id="Toulouse">
</g>
<g id="Lyon">
</g>
<g id="Paris">
</g>
<g id="Salons">
	<rect x="107.249" y="-55.392" fill="#121037" width="815" height="192"/>
	<rect x="702.813" y="-32.623" fill="#FFFFFF" width="2.473" height="143.385"/>
	<path fill="#FFFFFF" d="M182.736,110.439c3.144,0.242,6.376,0.348,9.5-0.142c6.044-0.942,12.27-0.979,18.399-1.516
		c11.869-1.036,23.671,1.769,35.557,1.646c5.612-0.06,11.288-0.279,16.808-1.311c2.669-0.499,5.393-0.661,7.957-1.579
		c1.824-0.649,8.123-0.129,9.098-2.034c0.485-0.954,0.75-1.389-0.216-1.878c0.563-1.532-0.72-3.353,0.297-4.615
		c0.938-1.161-1.89-1.394-0.521-2.269c0.467-0.299-0.042-6.261-0.026-6.997c0.072-3.268-0.997-6.398-0.572-9.641
		c0.397-3.044-0.925-7.169,0-10.107c1.078-3.423,1.124-4.213,0.779-7.516c-0.323-3.045-0.301-6.875-0.519-9.848
		c-0.201-2.693,1.263-4.473,0.645-6.949c-0.395-1.582-0.968-3.183-0.988-4.825c-0.021-1.466,0.566-5.015,0.329-6.48
		c-0.428-2.664-0.248-7.541-0.416-7.578c0.565-2.075-0.064-2.589-0.668-4.492c-0.834-2.613,1.241-5.903,0.578-8.547
		c-0.659-2.635-0.275-5.114,0.783-10.54c0.268-1.377-0.899-5.405-1.141-6.672c-0.546-2.871,1.978-10.438,1.409-13.306
		c-0.493-2.478,0.813-11.075-0.74-13.056c-3.925-5.013-22.704,0.798-28.684-0.263c-2.924-0.517-5.723-0.254-8.677-0.303
		c-3.303-0.05-6.543-0.695-9.851-0.478c-6.851,0.448-13.638,0.539-20.479,1.063c-6.305,0.485-12.096-0.657-18.388,0.079
		c-6.604,0.77-19.966-2.221-26.221,0.072c-5.201,1.899-9.816-2.626-13.691,1.352c-1.865,1.918-0.604,22.139-0.873,24.747
		c-0.161,1.586-0.126,3.183-0.179,4.774c-0.044,1.405,0.271,3.814,0.347,5.007c0.256,4.067,0.583,2.677,0.347,6.738
		c-0.373,0.035,0.48,5.16,0.141,5.189c-0.179,1.355,0.731,7.963,0.6,9.292c-0.124,1.236,2.677-1.608,3.109-1.727
		c-0.479-0.27,2.518-1.999,2.069-2.248c1.083-0.172,0.714-2.313,1.817-2.247c1.913,0.12,3.578-4.476,5.44-4.92
		c2.45-0.591,2.186-3.862,4.085-4.381c2.439-0.663,0.046-1.357-0.144-3.521c-0.079-0.92,0.024-0.622,0.118-1.534
		c0.1-0.979-0.688-1.776-0.552-2.726c0.31-2.13-1.014-6.206,0.035-8.146c0.995-1.847-1.772-13.024-0.438-14.641
		c1.104-1.336,6.251-0.125,8.039-0.561c2.13-0.519,9.474-1.306,11.662-1.557c2.605-0.299,25.299-1.534,29.553,0.358
		c5.856,2.621,15.997-1.83,22.275-0.315c2.804,0.685,10.911,1.738,13.442,3.171c2.354,1.326,2.049,18.014,2.732,19.861
		c0.679,1.846,0.648,3.817,2.116,5.182c-0.439,0.547-0.521,2.174,0.414,2.713c-0.694,1.34-0.17,2.632,0.102,4.085
		c0.365,1.979,0.181,3.951,0.397,5.969c0.473,4.352,0.868,8.725,1.966,12.973c-0.009,0.008-0.177,0.137-0.203,0.157
		c0.855,8.147,2.59,16.313,3.283,24.498c0.325,3.875,0.207,7.693,0.958,11.525c0.811,4.15-0.236,8.539,0.495,12.759
		c-0.888,2.092-0.576,13.142-2.904,13.608c-8.404,1.675-17.118,2.086-25.693,2.016c-9.109-0.077-17.413,1.594-26.515,1.204
		c-0.436-0.021-0.246-2.849-0.26-3.419c-0.057-2.027-0.522-4.065-0.473-6.091c0.044-1.715,0.323-3.439,0.414-5.148
		c0.054-1.055-0.469-1.959-0.393-3c0.078-1.065,0.513-2.216,0.19-3.284c-0.378-1.265-0.1-3.275-0.821-4.363
		c-0.65-0.979-1.017-1.22-1.226-2.447c-0.151-0.901-1.63-0.984-2.381-1.075c-1.065-0.125-2.132-0.223-3.194-0.336
		c-0.497,0.65-1.392,0.464-2.049,0.282c-0.297-0.081-0.511-0.442-0.858-0.758c-0.127,0.073-0.476,0.274-0.917,0.527
		c-0.277-0.55-7.767,0.27-9.74,1.088c-0.491,0.201-0.993,0.386-1.438,0.554c1.617,4.354-0.27,9.022,0.609,13.526
		c0.892,4.571-0.105,8.78,0.25,13.426c-4.734,0-9.085,0.629-13.819,0.363c-0.026-0.006-0.873,0.102-0.951,0.05
		c-2.11,0.024-1.937,0.133-1.988-1.273c-0.107-2.896-0.327-6.137-0.107-9.161c0.234-3.262,0.862-5.604-0.066-7.947
		c-0.417-1.045-0.037-2.535-0.026-3.794c0.017-1.49-0.345-3.017-0.436-4.525c-0.083-1.427-0.439-2.397-0.515-3.78
		c-0.072-1.32,0.16-3.135-0.443-3.937c0.255-1.576,0.402-3.227-0.192-4.503c-0.421-0.911,1.289-4.257-0.635-3.904
		c-2.285,0.423-14.721,1.347-16.942,0.98c-0.698-0.116-2.193-2.156-1.228-3.172c3.973-4.168,10.99-10.037,15.067-13.514
		c1.953-1.665,5.021-4.597,6.98-6.303c2.396-2.082,4.569-4.526,6.688-6.882c1.867-2.079,4.315-4.741,6.109-6.885
		c0.856-1.026,3.847-2.876,5.409-2.503c4.905,1.17,9.853,3.925,14.304,6.253c4.693,2.455,9.506,5.968,14.068,8.662
		c4.662,2.747,23.02,13.787,27.615,16.67c4.397,2.763,2.948,5.527,1.024,5.729c-1.946,0.204-3.583,0.136-4.218,0.188
		c-2.245,0.185-5.799,0.273-8.01,0.682c-4.658,0.862-9.77-0.539-14.343,0.694c-0.307,0.081,0.225,2.696,0.183,3.241
		c0,2.66,0.672,6.301,0.921,4.399c-0.51,3.885,0.218,18.299,0.452,20c0.378,2.721,7.301,0.37,11.446,0.853
		c2.189,0.253,3.661-2.15,3.371-4.058c-0.434-2.867,0.084-6.553-1.318-9.157c-0.447-0.833,0.199-1.922-0.393-2.786
		c-0.783-1.137-0.783-2.496-0.515-3.797c0.072-0.356,0.439-0.829,0.768-0.925c1.923-0.573,3.844-0.659,5.819-0.872
		c0.864-0.092,1.721-0.284,2.544-0.578c1.193-0.428,2.293-0.057,3.482-0.384c4.084-1.116,7.167-3.908,11.061-5.047
		c0.45-0.129,1.686-1.663,1.674-2.104c-0.179-4.717-5.304-7.613-8.173-11.015c-3.838-4.539-8.339-8.277-13.316-11.542
		c-0.688-0.454-4.352-3.22-4.202-3.834c0.11-0.017,1.375,0.476,3.044-0.149c4.202-0.336,7.012,0.618,6.879-2.083
		c-0.179-3.495,2.681-14.113-3.004-13.205c-0.878,0.137-1.67-0.471-2.553-0.532c-0.967-0.066-1.933,0.081-2.902,0.104
		c-2.59,0.064-4.944,1.228-7.414,1.839c-1.16,0.286-1.084,1.157-0.935,2.067c0.338,2.023,0.425,6.943,0.192,8.983
		c-2.033-1.095-4.062-2.186-6.091-3.278c0.035-0.1-0.286-2.825-0.665-4.152c-0.072-0.24,0.177-1.818,0.172-2.071
		c-0.03-1.35,0.382-1.576-0.733-2.103c-3.183-1.501-8.112-0.975-11.533-0.491c-2.978,0.421-1.272,1.839-4.139,0.724
		c-2.9-1.136-6.233-2.025-8.95-3.521c-3.248-1.789-5.127-2.658-8.891-1.51c-6.753,2.065-11.413,8.636-16.387,13.23
		c-2.28,2.105-4.433,4.405-6.633,6.603c-2.481,2.472-5.097,5.034-7.462,7.601c-4.438,4.822-7.106,7.346-12.502,12.291
		c-2.055,1.884-7.507,7.14-8.716,9.639c-0.428,0.885-1.9,2.643-1.479,4.012c0.334,1.078,0.305,1.863,0.903,2.11
		c1.346,0.547,7.017,0.939,8.481,0.92c1.759-0.028,6.55-0.943,8.32-1.106c0.41-0.039,1.058,0.473,1.263,0.892
		c0.687,1.397-0.681,6.53-0.956,8.046c-0.439,2.422-0.007,4.866,0.253,7.283c0.26,2.409,0.192,4.399-0.015,6.813
		c-0.105,1.186-0.805,21.337,0.236,22.195C154.642,110.986,179.982,110.221,182.736,110.439 M204.244,4.004
		c0.255,0.207,0.493,0.543,0.759,0.607c2.688,0.578,5.171-0.463,7.837-0.357c1.97,0.081,4.97,1.089,6.799-0.113
		c0.471-0.308,1.769-2.235,1.418-3.009c-0.781-1.715-0.159-3.384-0.562-5.011c-0.334-1.333,0.558-5.631-0.426-6.406
		c-1.196-0.948-3.633-0.989-5.173-0.954c-3.567,0.081-6.951-0.194-10.263,1.501c-1.457,0.749,0.474,3.404,0.661,4.547
		c0.203,1.304-0.005,3.718-0.23,4.254C205.946-0.238,205.33,2.262,204.244,4.004z M227.675,4.034
		c0.251,0.197,0.491,0.521,0.761,0.579c2.668,0.558,5.132-0.44,7.785-0.338c1.95,0.074,4.931,1.04,6.748-0.11
		c0.469-0.296,1.755-2.149,1.408-2.886c-0.775-1.646-0.159-3.251-0.556-4.811c-0.327-1.276,0.796-4.14-0.181-4.886
		c-1.189-0.91,2-2.167-3.792-2.138c-3.546,0.076-8.356-0.858-11.642,0.772c-1.451,0.718,0.336,3.892,0.513,4.989
		c0.205,1.252-0.133,1.905,0.692,2.869c-0.388,0.292-0.694,0.694-0.921,1.213C229.372-0.033,228.755,2.365,227.675,4.034z
		 M180.299,5.604c1.625-0.302,5.24,0.002,7.002-0.078c2.299-0.104,4.119,0.829,6.449,0.07c1.833-0.598,1.891-0.172,3.362-1.937
		c0.585-0.701,0.947-2.808,0.439-3.178c-0.888-0.651,0.338-1.973-0.439-2.399c-0.203-1.215-0.301-2.498-0.637-3.646
		c-1.555-5.322,1.828-4.833-8.481-4.065c-1.745,0.13-6.185-0.343-7.678,0.438c-1.115,0.586,0.244,3.37-0.522,4.736
		c-1.996,3.544-0.651,6.577,0.38,6.74C180.443,2.328,178.92,5.855,180.299,5.604z"/>
	<path fill="#FFFFFF" d="M304.33,33.344l3.177-4.449c1.193,1.113,5.007,4.688,12.078,4.688c6.517,0,10.807-4.293,10.807-8.977
		c0-6.441-6.037-9.141-12.159-12.162c-6.436-3.18-12.315-6.595-12.315-15.017c0-8.662,7.311-13.511,15.415-13.511
		c7.869,0,12.159,2.862,13.907,4.212l-3.019,4.609c-1.829-1.433-5.405-3.657-10.968-3.657c-5.243,0-9.216,3.179-9.216,8.025
		c0,5.245,4.292,7.706,9.537,10.168c6.989,3.338,15.096,6.914,15.096,17.245c0,8.345-7.072,14.225-17.324,14.225
		C311.244,38.747,306.237,35.169,304.33,33.344"/>
	<path fill="#FFFFFF" d="M520.139,33.344l3.178-4.449c1.193,1.113,5.008,4.688,12.078,4.688c6.518,0,10.807-4.293,10.807-8.977
		c0-6.441-6.037-9.141-12.158-12.162c-6.436-3.18-12.316-6.595-12.316-15.017c0-8.662,7.311-13.511,15.416-13.511
		c7.869,0,12.158,2.862,13.906,4.212l-3.018,4.609c-1.83-1.433-5.406-3.657-10.969-3.657c-5.242,0-9.215,3.179-9.215,8.025
		c0,5.245,4.291,7.706,9.537,10.168c6.988,3.338,15.096,6.914,15.096,17.245c0,8.345-7.072,14.225-17.324,14.225
		C527.051,38.747,522.045,35.169,520.139,33.344"/>
	<path fill="#FFFFFF" d="M357.589-15.129h6.041l20.343,52.922h-6.753l-4.848-13.111h-24.08l-4.846,13.111h-6.118L357.589-15.129
		 M370.385,19.439l-6.674-18.116c-1.667-4.449-2.384-6.676-3.259-9.141h-0.161c-0.873,2.62-1.747,5.084-3.256,9.141l-6.753,18.116
		H370.385z"/>
	<polyline fill="#FFFFFF" points="388.247,-15.129 394.444,-15.129 394.444,32.548 415.263,32.548 415.263,37.793 388.247,37.793 
		388.247,-15.129 	"/>
	<path fill="#FFFFFF" d="M414.512,11.411c0-14.538,9.619-27.493,25.905-27.493c16.291,0,26.064,12.794,26.064,27.336
		s-9.615,27.493-25.905,27.493S414.512,25.953,414.512,11.411 M459.964,11.411c0-11.919-6.753-22.327-19.387-22.327
		c-12.637,0-19.551,10.253-19.551,22.17s6.757,22.328,19.39,22.328S459.964,23.332,459.964,11.411z"/>
	<path fill="#FFFFFF" d="M473.602-15.129h6.119L504.67,20.71c2.463,3.574,3.975,6.198,4.928,7.785h0.16
		c-0.08-1.033-0.318-3.258-0.318-7.151v-36.473h5.723v52.922h-5.723L483.295,0.046c-1.586-2.227-3.174-5.163-4.131-6.832h-0.156
		c0.076,1.032,0.316,3.257,0.316,5.802v38.775h-5.721L473.602-15.129"/>
	<path fill="#FFFFFF" d="M583.801-15.129h12.396c20.816,0,29.957,10.569,29.957,25.825c0,15.255-9.219,27.097-30.357,27.097h-11.998
		v-52.922 M596.355,32.708c15.26,0,23.283-7.549,23.283-21.853c0-14.384-7.549-20.896-23.68-20.896h-5.957v42.749H596.355z"/>
	<polyline fill="#FFFFFF" points="633.354,-15.129 660.527,-15.129 660.527,-9.884 639.551,-9.884 639.551,7.122 657.986,7.122 
		657.986,12.367 639.551,12.367 639.551,32.548 661.086,32.548 661.086,37.793 633.354,37.793 633.354,-15.129 	"/>
	<polyline fill="#FFFFFF" points="304.537,47.938 309.923,47.938 309.923,89.38 328.021,89.38 328.021,93.94 304.537,93.94 
		304.537,47.938 	"/>
	<path fill="#FFFFFF" d="M325.948,56.502c0-2.626-2.695-3.107-2.695-6.008c0-1.937,1.589-3.386,3.731-3.386
		c2.348,0,4.49,1.796,4.49,4.905c0,4.557-3.039,9.323-4.353,10.914h-3.728C324.358,61.612,325.948,59.059,325.948,56.502"/>
	<rect x="338.474" y="47.938" fill="#FFFFFF" width="5.389" height="46"/>
	<path fill="#FFFFFF" d="M356.598,47.938h5.043l11.396,31.29c1.379,3.868,2.073,5.869,2.9,8.494h0.14
		c0.759-2.485,1.516-4.696,2.9-8.494l11.396-31.29h5.11l6.216,46h-5.455l-3.936-30.114c-0.416-3.313-0.624-5.042-0.761-6.423h-0.14
		c-0.482,1.588-1.034,3.452-2.072,6.353l-10.914,30.185h-5.179l-11.191-30.185c-1.104-2.971-1.656-4.765-2.211-6.353h-0.137
		c-0.14,1.656-0.347,3.452-0.692,6.562l-3.659,29.978h-5.042L356.598,47.938"/>
	<path fill="#FFFFFF" d="M411.695,47.938h5.043l11.398,31.29c1.379,3.868,2.072,5.869,2.9,8.494h0.139
		c0.761-2.485,1.518-4.696,2.902-8.494l11.396-31.29h5.11l6.218,46h-5.459l-3.936-30.114c-0.416-3.313-0.624-5.042-0.761-6.423
		h-0.14c-0.482,1.588-1.034,3.452-2.073,6.353L433.52,93.938h-5.181l-11.188-30.185c-1.108-2.971-1.66-4.765-2.212-6.353h-0.14
		c-0.139,1.656-0.343,3.452-0.69,6.562L410.45,93.94h-5.043L411.695,47.938"/>
	<path fill="#FFFFFF" d="M459.868,71.007c0-12.637,8.354-23.898,22.517-23.898c14.156,0,22.652,11.121,22.652,23.762
		s-8.355,23.898-22.516,23.898C468.362,94.769,459.868,83.648,459.868,71.007 M499.373,71.007c0-10.359-5.867-19.408-16.852-19.408
		c-10.98,0-16.995,8.911-16.995,19.271c0,10.358,5.874,19.408,16.858,19.408C493.365,90.279,499.373,81.369,499.373,71.007z"/>
	<path fill="#FFFFFF" d="M511.299,47.938h12.152c8.563,0,15.057,3.177,15.057,11.464c0,5.39-3.176,8.844-8.219,10.154v0.139
		c5.664,0.967,10.223,4.972,10.223,11.326c0,9.393-6.977,12.915-17.27,12.915h-11.943V47.938 M522.9,67.692
		c7.045,0,10.082-2.556,10.082-7.942c0-5.112-3.453-7.323-9.945-7.323h-6.422V67.69h6.285V67.692z M523.107,89.449
		c8.15,0,11.811-2.486,11.811-8.289c0-5.523-2.971-9.046-11.398-9.046h-6.904v17.337h6.492V89.449z"/>
	<rect x="547.258" y="47.938" fill="#FFFFFF" width="5.387" height="46"/>
	<polyline fill="#FFFFFF" points="561.801,47.938 567.189,47.938 567.189,89.38 585.285,89.38 585.285,93.94 561.801,93.94 
		561.801,47.938 	"/>
	<rect x="589.762" y="47.938" fill="#FFFFFF" width="5.387" height="46"/>
	<polyline fill="#FFFFFF" points="604.307,47.938 627.928,47.938 627.928,52.495 609.693,52.495 609.693,67.28 625.717,67.28 
		625.717,71.838 609.693,71.838 609.693,89.38 628.41,89.38 628.41,93.94 604.307,93.94 604.307,47.938 	"/>
	<path fill="#FFFFFF" d="M633.783,47.938h12.504c9.6,0,15.264,4.489,15.264,12.223c0,7.669-5.594,11.605-12.916,12.019v0.139
		c0.9,0.622,2.143,2.001,4.838,5.732l11.395,15.886h-6.354l-9.256-13.056c-5.387-7.595-6.219-8.15-9.322-8.15h-0.764v21.206h-5.387
		V47.938 M646.078,68.314c6.838,0,9.945-2.9,9.945-8.013c0-5.11-3.314-7.806-10.357-7.806h-6.496v15.818H646.078z"/>
	<g>
		<path fill="#FFFFFF" d="M742.137-12.64h-6.549v-2.148h15.941v2.148h-6.58V4.785h-2.811V-12.64H742.137z"/>
		<path fill="#FFFFFF" d="M771.465-5.206c0,6.738-4.504,10.309-9.998,10.309c-5.686,0-9.68-4.008-9.68-9.932
			c0-6.217,4.248-10.281,10-10.281C767.662-15.11,771.465-11.013,771.465-5.206z M754.758-4.886c0,4.184,2.492,7.93,6.867,7.93
			c4.41,0,6.902-3.689,6.902-8.133c0-3.892-2.238-7.959-6.871-7.959C757.057-13.047,754.758-9.184,754.758-4.886z"/>
		<path fill="#FFFFFF" d="M777.857-14.789v11.588c0,4.385,2.139,6.244,5.016,6.244c3.193,0,5.24-1.919,5.24-6.244v-11.588h2.809
			v11.414c0,6.012-3.48,8.479-8.145,8.479c-4.408,0-7.732-2.295-7.732-8.364v-11.529H777.857z"/>
		<path fill="#FFFFFF" d="M795.75-14.789h2.779V2.666h9.199v2.119H795.75V-14.789z"/>
		<path fill="#FFFFFF" d="M827.984-5.206c0,6.738-4.506,10.309-10,10.309c-5.686,0-9.678-4.008-9.678-9.932
			c0-6.217,4.246-10.281,9.998-10.281C824.182-15.11,827.984-11.013,827.984-5.206z M811.275-4.886c0,4.184,2.492,7.93,6.869,7.93
			c4.408,0,6.898-3.689,6.898-8.133c0-3.892-2.236-7.959-6.867-7.959C813.576-13.047,811.275-9.184,811.275-4.886z"/>
		<path fill="#FFFFFF" d="M834.377-14.789v11.588c0,4.385,2.141,6.244,5.016,6.244c3.195,0,5.24-1.919,5.24-6.244v-11.588h2.809
			v11.414c0,6.012-3.48,8.479-8.145,8.479c-4.408,0-7.73-2.295-7.73-8.364v-11.529H834.377z"/>
		<path fill="#FFFFFF" d="M851.885,1.706c1.246,0.696,3.066,1.277,4.982,1.277c2.844,0,4.502-1.364,4.502-3.34
			c0-1.829-1.148-2.874-4.055-3.892c-3.514-1.134-5.688-2.787-5.688-5.548c0-3.05,2.781-5.314,6.965-5.314
			c2.203,0,3.801,0.465,4.76,0.958l-0.768,2.062c-0.703-0.349-2.139-0.928-4.088-0.928c-2.939,0-4.057,1.597-4.057,2.933
			c0,1.83,1.309,2.73,4.279,3.775c3.643,1.278,5.494,2.877,5.494,5.751c0,3.021-2.459,5.635-7.537,5.635
			c-2.078,0-4.346-0.552-5.496-1.248L851.885,1.706z"/>
		<path fill="#FFFFFF" d="M879.168-4.393h-8.367v7.058h9.328v2.119h-12.107v-19.572h11.627v2.119h-8.848v6.187h8.367V-4.393z"/>
	</g>
	<g>
		<path fill="#FFFFFF" d="M738.049,75.146c1.342-0.201,3.098-0.376,5.336-0.376c2.744,0,4.758,0.579,6.035,1.626
			c1.184,0.931,1.887,2.353,1.887,4.097c0,1.771-0.576,3.164-1.66,4.182c-1.473,1.423-3.867,2.148-6.582,2.148
			c-0.828,0-1.596-0.029-2.236-0.173v7.84h-2.777V75.146H738.049z M740.826,84.587c0.607,0.144,1.375,0.203,2.301,0.203
			c3.354,0,5.398-1.482,5.398-4.184c0-2.584-2.012-3.832-5.078-3.832c-1.213,0-2.141,0.086-2.621,0.201V84.587z"/>
		<path fill="#FFFFFF" d="M755.844,88.333l-2.236,6.156h-2.875l7.314-19.574h3.354l7.346,19.574h-2.969l-2.301-6.156H755.844z
			 M762.902,86.36l-2.109-5.637c-0.479-1.275-0.799-2.438-1.117-3.572h-0.063c-0.318,1.161-0.67,2.353-1.088,3.543l-2.107,5.664
			h6.484V86.36z"/>
		<path fill="#FFFFFF" d="M771.916,75.177c1.404-0.262,3.42-0.407,5.336-0.407c2.969,0,4.887,0.494,6.229,1.597
			c1.086,0.871,1.693,2.206,1.693,3.718c0,2.585-1.789,4.298-4.057,4.996v0.087c1.66,0.522,2.65,1.916,3.162,3.95
			c0.703,2.73,1.213,4.617,1.66,5.372h-2.877c-0.348-0.552-0.828-2.235-1.436-4.674c-0.639-2.703-1.789-3.719-4.313-3.807h-2.619
			v8.48h-2.779V75.177L771.916,75.177z M774.695,84.092h2.842c2.971,0,4.855-1.48,4.855-3.718c0-2.525-2.012-3.632-4.951-3.659
			c-1.342,0-2.301,0.116-2.746,0.232V84.092z"/>
		<path fill="#FFFFFF" d="M791.885,74.915V94.49h-2.779V74.915H791.885z"/>
		<path fill="#FFFFFF" d="M796.355,91.412c1.246,0.696,3.066,1.275,4.982,1.275c2.844,0,4.504-1.364,4.504-3.339
			c0-1.83-1.148-2.877-4.057-3.893c-3.514-1.131-5.686-2.787-5.686-5.547c0-3.049,2.779-5.315,6.963-5.315
			c2.205,0,3.801,0.465,4.76,0.96l-0.766,2.063c-0.705-0.35-2.141-0.931-4.09-0.931c-2.939,0-4.057,1.597-4.057,2.934
			c0,1.829,1.309,2.73,4.279,3.775c3.643,1.277,5.494,2.876,5.494,5.751c0,3.02-2.459,5.634-7.537,5.634
			c-2.076,0-4.346-0.552-5.496-1.248L796.355,91.412z"/>
	</g>
	<g>
		<path fill="#FFFFFF" d="M738.049,32.026h2.777v17.455h9.199V51.6h-11.977V32.026z"/>
		<path fill="#FFFFFF" d="M755.236,51.6v-8.306l-6.805-11.269h3.162l3.037,5.401c0.828,1.481,1.469,2.672,2.139,4.038h0.064
			c0.607-1.277,1.344-2.557,2.172-4.038l3.1-5.401h3.162l-7.219,11.239V51.6H755.236z"/>
		<path fill="#FFFFFF" d="M784.98,41.609c0,6.738-4.506,10.31-10,10.31c-5.686,0-9.68-4.009-9.68-9.933
			c0-6.216,4.248-10.281,10-10.281C781.178,31.704,784.98,35.799,784.98,41.609z M768.271,41.928c0,4.184,2.492,7.93,6.867,7.93
			c4.41,0,6.902-3.688,6.902-8.133c0-3.892-2.238-7.958-6.869-7.958C770.572,33.767,768.271,37.63,768.271,41.928z"/>
		<path fill="#FFFFFF" d="M788.592,51.6V32.026h3.035l6.9,9.904c1.596,2.293,2.842,4.355,3.865,6.36l0.064-0.029
			c-0.256-2.614-0.32-4.996-0.32-8.046v-8.189h2.619V51.6h-2.811l-6.836-9.932c-1.5-2.179-2.939-4.414-4.025-6.535l-0.096,0.029
			c0.16,2.468,0.225,4.82,0.225,8.075V51.6H788.592z"/>
	</g>
</g>
</svg>
