<svg xmlns="http://www.w3.org/2000/svg" viewBox="0 0 491.86 77.2"><defs><style>.a,.b,.c{fill:#fff;}.b{fill-rule:evenodd;}.c{font-size:16.68px;font-family:MyriadPro-Regular, Myriad Pro;letter-spacing:0.39em;}.d{letter-spacing:0.42em;}.e{letter-spacing:0.38em;}.f{letter-spacing:0.42em;}.g{letter-spacing:0.4em;}.h{letter-spacing:0.42em;}.i{letter-spacing:0.35em;}</style></defs><title>logo-toulouse-2018-2</title><rect class="a" x="410.82" y="1.99" width="1.34" height="74.85"/><path class="b" d="M30.94,87.16a22.39,22.39,0,0,0,5.15-.08c3.27-.51,6.65-.53,10-.82,6.43-.56,12.82,1,19.26.89a52.68,52.68,0,0,0,9.1-.71,27.51,27.51,0,0,0,4.31-.86c1-.35,4.4-.07,4.93-1.1.26-.52.41-.75-.12-1,.3-.83-.39-1.82.16-2.5s-1-.75-.28-1.23c.25-.16,0-3.39,0-3.79,0-1.77-.54-3.47-.31-5.22s-.5-3.88,0-5.47a7.48,7.48,0,0,0,.42-4.07c-.18-1.65-.16-3.72-.28-5.33-.11-1.46.68-2.42.35-3.76A11.58,11.58,0,0,1,83,49.47,34.87,34.87,0,0,0,83.22,46c-.23-1.44-.13-4.08-.22-4.1.31-1.12,0-1.4-.36-2.43-.45-1.42.67-3.2.31-4.63s-.15-2.77.42-5.71a15.92,15.92,0,0,0-.62-3.61c-.3-1.56,1.07-5.65.76-7.21-.27-1.34.44-6-.4-7.07C81,8.47,70.82,11.62,67.58,11a29,29,0,0,0-4.7-.16c-1.79,0-3.54-.38-5.34-.26-3.71.24-7.39.29-11.09.58-3.41.26-6.55-.36-10,0-3.58.42-10.81-1.2-14.2,0-2.82,1-5.32-1.42-7.42.73-1,1-.33,12-.47,13.4-.09.86-.07,1.72-.1,2.59s.15,2.07.19,2.71a16.78,16.78,0,0,1,.19,3.65c-.2,0,.26,2.8.08,2.81-.1.73.4,4.31.32,5s1.45-.87,1.68-.94c-.26-.15,1.36-1.08,1.12-1.22.59-.09.39-1.25,1-1.22,1,.06,1.94-2.42,2.95-2.66C23.14,35.86,23,34.09,24,33.8c1.32-.36,0-.73-.08-1.91a2.48,2.48,0,0,1,.06-.83c.05-.53-.37-1-.3-1.48.17-1.15-.55-3.36,0-4.41s-1-7.06-.24-7.93c.6-.72,3.39-.07,4.35-.3,1.15-.28,5.13-.71,6.32-.84,1.41-.16,13.7-.83,16,.19,3.17,1.42,8.67-1,12.07-.17,1.52.37,5.91.94,7.28,1.72S70.63,27.6,71,28.6s.35,2.07,1.15,2.81a1.14,1.14,0,0,0,.22,1.47,3.23,3.23,0,0,0,.05,2.21c.2,1.07.1,2.14.22,3.23a49,49,0,0,0,1.06,7l-.11.09c.46,4.41,1.4,8.84,1.78,13.27a56.66,56.66,0,0,0,.52,6.24c.44,2.25-.13,4.62.27,6.91-.48,1.13-.31,7.12-1.57,7.37a68.58,68.58,0,0,1-13.92,1.09c-4.93,0-9.43.86-14.36.65-.24,0-.13-1.54-.14-1.85,0-1.1-.28-2.2-.26-3.3,0-.93.18-1.86.22-2.79,0-.57-.25-1.06-.21-1.62a4.92,4.92,0,0,0,.1-1.78c-.2-.68-.05-1.77-.44-2.36a2.72,2.72,0,0,1-.66-1.33c-.08-.49-.88-.53-1.29-.58l-1.73-.18c-.27.35-.75.25-1.11.15-.16,0-.28-.24-.46-.41l-.5.29c-.15-.3-4.21.15-5.28.59l-.78.3c.88,2.36-.15,4.89.33,7.33s-.06,4.76.14,7.27c-2.56,0-4.92.34-7.49.2a3.41,3.41,0,0,1-.52,0c-1.14,0-1,.07-1.08-.69a46.14,46.14,0,0,1-.06-5c.13-1.77.47-3,0-4.3a6.08,6.08,0,0,1,0-2.05c0-.81-.19-1.63-.24-2.45s-.24-1.3-.28-2,.09-1.7-.24-2.13a4.33,4.33,0,0,0-.1-2.44c-.23-.49.7-2.31-.34-2.12a66.52,66.52,0,0,1-9.18.53c-.38-.06-1.19-1.17-.66-1.72,2.15-2.26,6-5.44,8.16-7.32,1.06-.9,2.72-2.49,3.78-3.41a42.88,42.88,0,0,0,3.62-3.73c1-1.13,2.34-2.57,3.31-3.73.46-.56,2.08-1.56,2.93-1.36a35.53,35.53,0,0,1,7.75,3.39c2.54,1.33,5.15,3.23,7.62,4.69s12.47,7.47,15,9,1.6,3,.56,3.1-1.94.07-2.28.1c-1.22.1-3.14.15-4.34.37-2.52.47-5.29-.29-7.77.38-.17,0,.12,1.46.1,1.76,0,1.44.36,3.41.5,2.38A90.6,90.6,0,0,0,53.14,73c.2,1.47,4,.2,6.2.46a1.86,1.86,0,0,0,1.83-2.2c-.23-1.55,0-3.55-.71-5-.24-.45.11-1-.21-1.51A2.6,2.6,0,0,1,60,62.76a.75.75,0,0,1,.42-.5,17.2,17.2,0,0,1,3.15-.47,6,6,0,0,0,1.38-.31c.65-.23,1.24,0,1.89-.21,2.21-.61,3.88-2.12,6-2.73a2.41,2.41,0,0,0,.91-1.14c-.1-2.55-2.87-4.12-4.43-6A33,33,0,0,0,62,45.17c-.37-.25-2.36-1.74-2.28-2.08A2.75,2.75,0,0,0,61.42,43c2.28-.18,3.8.34,3.73-1.13C65,40,66.6,34.24,63.52,34.73c-.48.07-.9-.26-1.38-.29s-1,0-1.57.06a18.89,18.89,0,0,0-4,1c-.63.16-.59.63-.51,1.12a25.65,25.65,0,0,1,.1,4.87l-3.3-1.78a14.17,14.17,0,0,0-.36-2.25c0-.13.1-1,.09-1.12,0-.73.21-.85-.4-1.14-1.72-.81-4.39-.53-6.25-.27-1.61.23-.69,1-2.24.39a41.67,41.67,0,0,1-4.85-1.91c-1.76-1-2.78-1.44-4.82-.82-3.66,1.12-6.18,4.68-8.88,7.17-1.23,1.14-2.4,2.39-3.59,3.58-1.34,1.34-2.76,2.73-4,4.12-2.4,2.61-3.85,4-6.77,6.66C9.63,55.14,6.68,58,6,59.34c-.23.48-1,1.43-.8,2.17.18.58.17,1,.49,1.14a22.89,22.89,0,0,0,4.59.5c1,0,3.55-.51,4.51-.6a.93.93,0,0,1,.68.48c.37.76-.37,3.54-.52,4.36a13.75,13.75,0,0,0,.14,3.95,18,18,0,0,1,0,3.69c-.06.64-.44,11.56.13,12s14.21,0,15.7.1M42.58,29.51c.14.11.27.29.41.33,1.46.31,2.8-.25,4.25-.19,1.07,0,2.69.59,3.68-.06.25-.17,1-1.21.77-1.63-.42-.93-.09-1.83-.3-2.71-.18-.72.3-3-.23-3.47a5,5,0,0,0-2.8-.52c-1.93,0-3.77-.11-5.56.81-.79.41.26,1.84.36,2.46a6.9,6.9,0,0,1-.12,2.3C43.51,27.21,43.17,28.56,42.58,29.51Zm12.69,0c.14.11.27.28.41.31,1.45.3,2.78-.24,4.22-.18,1.06,0,2.67.56,3.65-.06.25-.16,1-1.16.76-1.56-.42-.89-.09-1.76-.3-2.61-.18-.69.43-2.24-.1-2.65s1.08-1.17-2.05-1.16c-1.92,0-4.53-.46-6.31.42-.79.39.18,2.11.28,2.7s-.07,1,.38,1.55a1.6,1.6,0,0,0-.5.66C56.2,27.32,55.86,28.62,55.28,29.52Zm-25.66.85c.88-.16,2.84,0,3.79,0,1.24-.06,2.23.45,3.49,0,1-.32,1-.09,1.82-1,.32-.38.51-1.52.24-1.72-.48-.35.18-1.07-.24-1.3a17.22,17.22,0,0,0-.35-2c-.84-2.88,1-2.62-4.59-2.2-.95.07-3.35-.19-4.16.24-.6.32.13,1.82-.28,2.56-1.08,1.92-.35,3.56.21,3.65C29.69,28.6,28.87,30.51,29.62,30.37Z" transform="translate(-5.18 -10.07)"/><path class="a" d="M100.14,73.44h1.74c1.39,0,2.43.67,2.43,2s-.94,2.13-2.55,2.13h-.81v2.8h-.81V73.44m1.62,3.44c1.21,0,1.71-.5,1.71-1.41s-.46-1.34-1.68-1.34h-.84v2.75Z" transform="translate(-5.18 -10.07)"/><path class="a" d="M111,73.44h.79l2.66,6.92h-.88L113,78.64h-3.15l-.63,1.71h-.8L111,73.44M112.7,78l-.87-2.37c-.22-.58-.31-.87-.43-1.2h0c-.11.34-.23.66-.43,1.2L110.07,78Z" transform="translate(-5.18 -10.07)"/><path class="a" d="M119.58,73.44h1.88c1.44,0,2.3.68,2.3,1.84a1.81,1.81,0,0,1-1.94,1.81v0a3.87,3.87,0,0,1,.73.86l1.71,2.39h-1l-1.39-2c-.81-1.14-.93-1.23-1.4-1.23h-.11v3.19h-.81V73.44m1.85,3.07c1,0,1.5-.44,1.5-1.2s-.5-1.17-1.56-1.17h-1V76.5Z" transform="translate(-5.18 -10.07)"/><path class="a" d="M128.86,76.88a3.38,3.38,0,0,1,3.39-3.56,3.34,3.34,0,0,1,1.94.52l-.4.61a2.64,2.64,0,0,0-1.56-.46,2.59,2.59,0,0,0-2.52,2.87c0,1.52.82,2.94,2.55,2.94A2.52,2.52,0,0,0,134,79.2l.37.58a3.21,3.21,0,0,1-2.09.7,3.38,3.38,0,0,1-3.38-3.61" transform="translate(-5.18 -10.07)"/><path class="a" d="M145.76,73.44h1.62c2.72,0,3.92,1.38,3.92,3.38s-1.21,3.54-4,3.54h-1.57V73.44m1.64,6.26c2,0,3-1,3-2.86s-1-2.73-3.1-2.73h-.78v5.59Z" transform="translate(-5.18 -10.07)"/><polyline class="a" points="151.6 63.37 155.15 63.37 155.15 64.05 152.41 64.05 152.41 66.28 154.82 66.28 154.82 66.96 152.41 66.96 152.41 69.6 155.23 69.6 155.23 70.29 151.6 70.29 151.6 63.37"/><path class="a" d="M165.43,79.78l.42-.58a2.2,2.2,0,0,0,1.58.61,1.29,1.29,0,0,0,1.41-1.17c0-.84-.79-1.2-1.59-1.59s-1.61-.86-1.61-2a1.83,1.83,0,0,1,2-1.77,2.86,2.86,0,0,1,1.82.55l-.39.6a2.27,2.27,0,0,0-1.43-.48,1.09,1.09,0,0,0-1.21,1c0,.69.56,1,1.25,1.33.91.44,2,.9,2,2.26,0,1.09-.93,1.86-2.27,1.86a2.84,2.84,0,0,1-2-.71" transform="translate(-5.18 -10.07)"/><polyline class="a" points="176.04 63.37 179.6 63.37 179.6 64.05 176.86 64.05 176.86 66.28 179.27 66.28 179.27 66.96 176.86 66.96 176.86 69.6 179.67 69.6 179.67 70.29 176.04 70.29 176.04 63.37"/><polyline class="a" points="186.79 66.7 184.71 63.37 185.64 63.37 187.31 66.05 188.89 63.37 189.74 63.37 187.72 66.7 189.95 70.29 189.03 70.29 187.2 67.36 185.45 70.29 184.6 70.29 186.79 66.7"/><path class="a" d="M200.26,73.44H202c1.39,0,2.43.67,2.43,2s-.94,2.13-2.55,2.13h-.81v2.8h-.81V73.44m1.62,3.44c1.22,0,1.72-.5,1.72-1.41s-.46-1.34-1.68-1.34h-.84v2.75Z" transform="translate(-5.18 -10.07)"/><path class="a" d="M209.38,76.91a3.4,3.4,0,1,1,3.41,3.58,3.38,3.38,0,0,1-3.41-3.58m5.94,0c0-1.56-.88-2.92-2.54-2.92a2.62,2.62,0,0,0-2.56,2.9c0,1.56.88,2.92,2.54,2.92A2.62,2.62,0,0,0,215.33,76.91Z" transform="translate(-5.18 -10.07)"/><path class="a" d="M221,79.78l.42-.58a2.2,2.2,0,0,0,1.58.61,1.29,1.29,0,0,0,1.41-1.17c0-.84-.79-1.2-1.59-1.59s-1.61-.86-1.61-2a1.84,1.84,0,0,1,2-1.77,2.86,2.86,0,0,1,1.82.55l-.39.6a2.28,2.28,0,0,0-1.43-.48A1.09,1.09,0,0,0,222,75c0,.69.56,1,1.25,1.33.91.44,2,.9,2,2.26,0,1.09-.92,1.86-2.26,1.86a2.84,2.84,0,0,1-2-.71" transform="translate(-5.18 -10.07)"/><rect class="a" x="225.52" y="63.37" width="0.81" height="6.92"/><polyline class="a" points="233.42 64.05 231.46 64.05 231.46 63.37 236.21 63.37 236.21 64.05 234.24 64.05 234.24 70.29 233.42 70.29 233.42 64.05"/><rect class="a" x="241.35" y="63.37" width="0.81" height="6.92"/><path class="a" d="M252.87,76.91a3.4,3.4,0,1,1,3.41,3.58,3.38,3.38,0,0,1-3.41-3.58m5.94,0c0-1.56-.88-2.92-2.54-2.92a2.62,2.62,0,0,0-2.56,2.9c0,1.56.88,2.92,2.53,2.92A2.62,2.62,0,0,0,258.81,76.91Z" transform="translate(-5.18 -10.07)"/><path class="a" d="M265.14,73.44h.8l3.26,4.69c.32.47.52.81.64,1h0c0-.14,0-.43,0-.94V73.44h.75v6.92h-.75l-3.42-4.94c-.21-.29-.41-.68-.54-.89h0c0,.13,0,.43,0,.76v5.07h-.75V73.44" transform="translate(-5.18 -10.07)"/><path class="a" d="M275.93,79.78l.42-.58a2.2,2.2,0,0,0,1.58.61,1.29,1.29,0,0,0,1.41-1.17c0-.84-.79-1.2-1.59-1.59s-1.61-.86-1.61-2a1.84,1.84,0,0,1,2-1.77,2.86,2.86,0,0,1,1.82.55l-.39.6a2.28,2.28,0,0,0-1.43-.48,1.09,1.09,0,0,0-1.2,1c0,.69.56,1,1.25,1.33.91.44,2,.9,2,2.26,0,1.09-.92,1.86-2.27,1.86a2.84,2.84,0,0,1-2-.71" transform="translate(-5.18 -10.07)"/><path class="a" d="M291.72,73.44h1.62c2.72,0,3.92,1.38,3.92,3.38s-1.21,3.54-4,3.54h-1.57V73.44m1.64,6.26c2,0,3-1,3-2.86s-1-2.73-3.1-2.73h-.78v5.59Z" transform="translate(-5.18 -10.07)"/><polyline class="a" points="297.56 63.37 301.11 63.37 301.11 64.05 298.37 64.05 298.37 66.28 300.78 66.28 300.78 66.96 298.37 66.96 298.37 69.6 301.19 69.6 301.19 70.29 297.56 70.29 297.56 63.37"/><polyline class="a" points="314.02 64.05 312.06 64.05 312.06 63.37 316.81 63.37 316.81 64.05 314.85 64.05 314.85 70.29 314.02 70.29 314.02 64.05"/><path class="a" d="M326.38,76.91a3.4,3.4,0,1,1,3.41,3.58,3.39,3.39,0,0,1-3.41-3.58m5.94,0c0-1.56-.88-2.92-2.54-2.92a2.62,2.62,0,0,0-2.56,2.9c0,1.56.88,2.92,2.54,2.92A2.62,2.62,0,0,0,332.32,76.91Z" transform="translate(-5.18 -10.07)"/><path class="a" d="M338.61,77.77V73.44h.81v4.23c0,1.43.59,2.12,1.89,2.12a1.74,1.74,0,0,0,1.84-2V73.44h.76v4.29c0,1.69-.82,2.75-2.62,2.75a2.42,2.42,0,0,1-2.68-2.71" transform="translate(-5.18 -10.07)"/><polyline class="a" points="344.58 63.37 345.39 63.37 345.39 69.6 348.12 69.6 348.12 70.29 344.58 70.29 344.58 63.37"/><path class="a" d="M357.77,76.91a3.4,3.4,0,1,1,3.41,3.58,3.39,3.39,0,0,1-3.41-3.58m5.94,0c0-1.56-.88-2.92-2.54-2.92a2.62,2.62,0,0,0-2.56,2.9c0,1.56.88,2.92,2.54,2.92A2.62,2.62,0,0,0,363.72,76.91Z" transform="translate(-5.18 -10.07)"/><path class="a" d="M370,77.77V73.44h.81v4.23c0,1.43.59,2.12,1.89,2.12a1.74,1.74,0,0,0,1.84-2V73.44h.76v4.29c0,1.69-.82,2.75-2.62,2.75A2.42,2.42,0,0,1,370,77.77" transform="translate(-5.18 -10.07)"/><path class="a" d="M380.55,79.78l.42-.58a2.2,2.2,0,0,0,1.58.61A1.29,1.29,0,0,0,384,78.63c0-.84-.79-1.2-1.59-1.59s-1.61-.86-1.61-2a1.83,1.83,0,0,1,2-1.77,2.86,2.86,0,0,1,1.82.55l-.39.6a2.28,2.28,0,0,0-1.43-.48,1.09,1.09,0,0,0-1.21,1c0,.69.56,1,1.25,1.33.91.44,2,.9,2,2.26,0,1.09-.92,1.86-2.27,1.86a2.84,2.84,0,0,1-2-.71" transform="translate(-5.18 -10.07)"/><polyline class="a" points="384.98 63.37 388.54 63.37 388.54 64.05 385.79 64.05 385.79 66.28 388.21 66.28 388.21 66.96 385.79 66.96 385.79 69.6 388.61 69.6 388.61 70.29 384.98 70.29 384.98 63.37"/><path class="a" d="M98.87,36l1.25-1.75a6.63,6.63,0,0,0,4.75,1.84c2.56,0,4.25-1.69,4.25-3.53,0-2.53-2.37-3.59-4.78-4.78s-4.84-2.59-4.84-5.9,2.87-5.31,6.06-5.31A8.57,8.57,0,0,1,111,18.2L109.84,20a6.82,6.82,0,0,0-4.31-1.44c-2.06,0-3.62,1.25-3.62,3.16,0,2.06,1.69,3,3.75,4,2.75,1.31,5.94,2.72,5.94,6.78,0,3.28-2.78,5.59-6.81,5.59A8.54,8.54,0,0,1,98.87,36" transform="translate(-5.18 -10.07)"/><path class="a" d="M119.81,16.92h2.37l8,20.81h-2.65l-1.91-5.15h-9.47l-1.91,5.15h-2.41l8-20.81m5,13.59-2.62-7.12c-.66-1.75-.94-2.62-1.28-3.59h-.06c-.34,1-.69,2-1.28,3.59l-2.66,7.12Z" transform="translate(-5.18 -10.07)"/><polyline class="a" points="126.68 6.85 129.12 6.85 129.12 25.59 137.3 25.59 137.3 27.65 126.68 27.65 126.68 6.85"/><path class="a" d="M142.19,27.35c0-5.72,3.78-10.81,10.18-10.81s10.25,5,10.25,10.75S158.84,38.1,152.43,38.1s-10.25-5-10.25-10.75m17.87,0c0-4.69-2.66-8.78-7.62-8.78s-7.69,4-7.69,8.72,2.66,8.78,7.62,8.78S160.06,32,160.06,27.35Z" transform="translate(-5.18 -10.07)"/><path class="a" d="M165.42,16.92h2.41L177.63,31c1,1.41,1.56,2.44,1.94,3.06h.06c0-.41-.13-1.28-.13-2.81V16.92h2.25V37.72h-2.25L169.23,22.88c-.62-.87-1.25-2-1.62-2.69h-.06c0,.41.12,1.28.12,2.28V37.72h-2.25V16.92" transform="translate(-5.18 -10.07)"/><path class="a" d="M191.6,16.92h4.87c8.18,0,11.78,4.16,11.78,10.15s-3.62,10.65-11.93,10.65H191.6V16.92m4.94,18.81c6,0,9.15-3,9.15-8.59s-3-8.22-9.31-8.22H194V35.72Z" transform="translate(-5.18 -10.07)"/><polyline class="a" points="205.9 6.85 216.58 6.85 216.58 8.91 208.34 8.91 208.34 15.59 215.58 15.59 215.58 17.66 208.34 17.66 208.34 25.59 216.8 25.59 216.8 27.65 205.9 27.65 205.9 6.85"/><polyline class="a" points="225.52 6.85 227.96 6.85 227.96 25.59 236.14 25.59 236.14 27.65 225.52 27.65 225.52 6.85"/><path class="a" d="M240.39,20.79c0-1.19-1.22-1.41-1.22-2.72a1.57,1.57,0,0,1,1.69-1.53,2.06,2.06,0,0,1,2,2.22,9,9,0,0,1-2,4.94h-1.69a5.39,5.39,0,0,0,1.16-2.91" transform="translate(-5.18 -10.07)"/><rect class="a" x="240.87" y="6.85" width="2.44" height="20.81"/><path class="a" d="M254.25,16.92h2.28l5.15,14.15c.62,1.75.94,2.65,1.31,3.84h.06c.34-1.12.69-2.12,1.31-3.84l5.15-14.15h2.31l2.81,20.81h-2.47L270.4,24.1c-.19-1.5-.28-2.28-.34-2.9H270c-.22.72-.47,1.56-.94,2.87l-4.94,13.65h-2.34l-5.06-13.65c-.5-1.34-.75-2.16-1-2.87h-.06c-.06.75-.16,1.56-.31,3l-1.66,13.56h-2.28l2.84-20.81" transform="translate(-5.18 -10.07)"/><path class="a" d="M279.17,16.92h2.28l5.16,14.15c.62,1.75.94,2.65,1.31,3.84H288c.34-1.12.69-2.12,1.31-3.84l5.15-14.15h2.31l2.81,20.81H297.1L295.32,24.1c-.19-1.5-.28-2.28-.34-2.9h-.06c-.22.72-.47,1.56-.94,2.87L289,37.72H286.7l-5.06-13.65c-.5-1.34-.75-2.16-1-2.87h-.06c-.06.75-.16,1.56-.31,3l-1.66,13.56h-2.28l2.84-20.81" transform="translate(-5.18 -10.07)"/><path class="a" d="M301,27.35c0-5.72,3.78-10.81,10.18-10.81s10.25,5,10.25,10.75S317.61,38.1,311.2,38.1,301,33.07,301,27.35m17.87,0c0-4.69-2.65-8.78-7.62-8.78s-7.69,4-7.69,8.72,2.66,8.78,7.62,8.78S318.82,32,318.82,27.35Z" transform="translate(-5.18 -10.07)"/><path class="a" d="M324.22,16.92h5.5c3.87,0,6.81,1.44,6.81,5.19a4.52,4.52,0,0,1-3.72,4.59v.06a5.15,5.15,0,0,1,4.62,5.12c0,4.25-3.16,5.84-7.81,5.84h-5.4V16.92m5.25,8.93c3.19,0,4.56-1.16,4.56-3.59s-1.56-3.31-4.5-3.31h-2.91v6.9Zm.09,9.84c3.69,0,5.34-1.12,5.34-3.75s-1.34-4.09-5.16-4.09h-3.12v7.84Z" transform="translate(-5.18 -10.07)"/><rect class="a" x="335.3" y="6.85" width="2.44" height="20.81"/><polyline class="a" points="341.88 6.85 344.31 6.85 344.31 25.59 352.5 25.59 352.5 27.65 341.88 27.65 341.88 6.85"/><rect class="a" x="354.52" y="6.85" width="2.44" height="20.81"/><polyline class="a" points="361.1 6.85 371.79 6.85 371.79 8.91 363.54 8.91 363.54 15.59 370.79 15.59 370.79 17.66 363.54 17.66 363.54 25.59 372 25.59 372 27.65 361.1 27.65 361.1 6.85"/><path class="a" d="M379.61,16.92h5.66c4.34,0,6.9,2,6.9,5.53s-2.53,5.25-5.84,5.44v.06a11.81,11.81,0,0,1,2.19,2.59l5.15,7.19H390.8l-4.19-5.9c-2.44-3.44-2.81-3.69-4.22-3.69h-.34v9.59h-2.44V16.92m5.56,9.22c3.09,0,4.5-1.31,4.5-3.62S388.17,19,385,19h-2.94v7.15Z" transform="translate(-5.18 -10.07)"/><path class="a" d="M434.8,33.52a16.17,16.17,0,0,0,2.84-.11,10.27,10.27,0,0,0,5.44-2.29,10.09,10.09,0,0,0,3.44-6.29h-.12a8,8,0,0,1-6.12,2.55c-4.68,0-7.68-3.2-7.68-7.24a8.5,8.5,0,0,1,8.88-8.4c5.32,0,8.6,3.93,8.6,10,0,5.2-1.92,8.84-4.48,11.1A13.61,13.61,0,0,1,438,36a18,18,0,0,1-3.24.18Zm1.28-13.6a4.75,4.75,0,0,0,5,5,6,6,0,0,0,5.12-2.47,2,2,0,0,0,.32-1.16c0-4-1.64-7.13-5.32-7.13C438.2,14.17,436.08,16.57,436.08,19.92Z" transform="translate(-5.18 -10.07)"/><path class="a" d="M464.57,22v2.36h-9.88V22Z" transform="translate(-5.18 -10.07)"/><path class="a" d="M473.21,15.11h-.08l-4.52,2.22-.68-2.44,5.68-2.76h3V35.78h-3.4Z" transform="translate(-5.18 -10.07)"/><path class="a" d="M491.73,15.11h-.08l-4.52,2.22-.68-2.44,5.68-2.76h3V35.78h-3.4Z" transform="translate(-5.18 -10.07)"/><path class="a" d="M449.15,51.41c-.14-2.65-.31-5.85-.28-8.22h-.08c-.65,2.23-1.44,4.6-2.4,7.23L443,59.66h-1.86l-3.08-9.07c-.9-2.68-1.67-5.14-2.2-7.4h-.06c-.06,2.37-.2,5.56-.37,8.42l-.51,8.16H432.6l1.33-19h3.13l3.25,9.21c.79,2.34,1.44,4.43,1.92,6.41h.08c.48-1.92,1.16-4,2-6.41l3.39-9.21h3.13l1.19,19h-2.4Z" transform="translate(-5.18 -10.07)"/><path class="a" d="M458.1,53.78l-2,6h-2.54l6.47-19h3l6.5,19h-2.63l-2-6Zm6.24-1.92-1.86-5.48c-.42-1.24-.71-2.37-1-3.47h-.06c-.28,1.13-.59,2.29-1,3.45l-1.86,5.51Z" transform="translate(-5.18 -10.07)"/><path class="a" d="M471.8,41a25.58,25.58,0,0,1,4.72-.4c2.63,0,4.32.48,5.51,1.55a4.74,4.74,0,0,1,1.5,3.62,5,5,0,0,1-3.59,4.86v.08c1.47.51,2.34,1.86,2.8,3.84a30.26,30.26,0,0,0,1.47,5.23h-2.54a24.71,24.71,0,0,1-1.27-4.55c-.56-2.63-1.58-3.62-3.81-3.7h-2.32v8.25H471.8Zm2.46,8.67h2.51c2.63,0,4.29-1.44,4.29-3.62,0-2.46-1.78-3.53-4.38-3.56a10.13,10.13,0,0,0-2.43.23Z" transform="translate(-5.18 -10.07)"/><path class="a" d="M486.14,56.77A8.71,8.71,0,0,0,490.55,58c2.51,0,4-1.33,4-3.25s-1-2.8-3.59-3.79c-3.11-1.1-5-2.71-5-5.39,0-3,2.46-5.17,6.16-5.17a8.65,8.65,0,0,1,4.21.93l-.68,2a7.58,7.58,0,0,0-3.62-.9c-2.6,0-3.59,1.55-3.59,2.85,0,1.78,1.16,2.65,3.78,3.67,3.22,1.24,4.86,2.8,4.86,5.59s-2.17,5.48-6.67,5.48a9.84,9.84,0,0,1-4.86-1.21Z" transform="translate(-5.18 -10.07)"/><path class="a" d="M432.32,86.68v-3l2.7-2.51c4.57-4.19,6.79-6.6,6.86-9.11,0-1.75-1-3.14-3.44-3.14A7.48,7.48,0,0,0,434,70.67l-1.38-3.6a11.4,11.4,0,0,1,6.86-2.21c4.73,0,7.34,2.84,7.34,6.73,0,3.6-2.54,6.47-5.57,9.24l-1.93,1.65v.07h7.89v4.13Z" transform="translate(-5.18 -10.07)"/><path class="a" d="M465.32,75.86c0,6.63-2.61,11.19-8,11.19s-7.79-5-7.82-11.06,2.58-11.12,8-11.12C463.13,64.86,465.32,70,465.32,75.86ZM454.47,76c0,4.92,1.13,7.26,3,7.26s2.93-2.44,2.93-7.33-1-7.26-3-7.26C455.66,68.66,454.44,71,454.47,76Z" transform="translate(-5.18 -10.07)"/><path class="a" d="M472,69.68H472l-4,1.95-.81-3.76,5.54-2.64h4.06V86.68H472Z" transform="translate(-5.18 -10.07)"/><path class="a" d="M480.61,81.07a5.69,5.69,0,0,1,3.73-5.38v-.1a5.21,5.21,0,0,1-3-4.69c0-3.63,3.19-6,7.37-6,4.89,0,6.92,2.9,6.92,5.51a5.24,5.24,0,0,1-3,4.72v.1a5.66,5.66,0,0,1,3.83,5.35c0,3.89-3.19,6.5-8,6.5C483.06,87,480.61,84,480.61,81.07Zm10.82-.17c0-1.88-1.35-3-3.28-3.53a3.24,3.24,0,0,0-2.54,3.2,2.9,2.9,0,0,0,3,3A2.66,2.66,0,0,0,491.43,80.91Zm-5.51-10.17c0,1.45,1.29,2.38,3,2.9A2.92,2.92,0,0,0,491,70.9a2.43,2.43,0,0,0-2.54-2.64A2.36,2.36,0,0,0,485.92,70.74Z" transform="translate(-5.18 -10.07)"/><text class="c" transform="translate(93.69 51.09)">T<tspan class="d" x="14.85" y="0">OU</tspan><tspan class="e" x="51.15" y="0">L</tspan><tspan class="f" x="65.38" y="0">OUSE • O</tspan><tspan class="g" x="183.42" y="0">C</tspan><tspan class="h" x="199.75" y="0">CI</tspan><tspan class="i" x="227.43" y="0">T</tspan><tspan class="d" x="241.47" y="0">ANIE</tspan></text></svg>